<?xml version="1.0" encoding="iso-8859-1"?>
<!-- Generator: Adobe Illustrator 23.0.6, SVG Export Plug-In . SVG Version: 6.00 Build 0)  -->
<svg version="1.1" id="Layer_1" xmlns="http://www.w3.org/2000/svg" xmlns:xlink="http://www.w3.org/1999/xlink" x="0px" y="0px"
	 width="200px" height="200px" viewBox="0 0 200 200" enable-background="new 0 0 200 200" xml:space="preserve">
<g>
	<path fill="#005596" d="M125.806,169.862c-1.474,0.761-1.487,0.731-6.731-2.815c-8.393-5.677-30.684-20.752-40.72-23.515
		c-14.853-4.095-30.118-8.302-42.95-22.922c-21.222-24.172-24.24-59.794-7.168-84.694c2.249-3.284,4.838-6.342,7.691-9.093
		c24.741-23.872,64.759-20.641,89.204,7.203c12.113,13.802,14.956,29.171,17.699,44.03l0.504,2.702
		c3.619,19.342,16.099,39.381,20.2,45.965c1.578,2.535,2.217,3.638,1.161,5.395C149.627,157.263,149.015,157.862,125.806,169.862z
		 M124.815,163.858c16.447-7.347,16.541-5.935,34.576-33.055c-0.074-0.119-0.505-0.684-0.584-0.812
		c-4.248-6.819-17.171-27.571-21.001-48.027l-0.504-2.713c-2.598-14.066-5.284-28.607-16.338-41.204
		C98.605,12.58,62.155,9.48,39.711,31.135c-2.566,2.476-4.892,5.227-6.916,8.178c-15.514,22.633-12.666,55.13,6.778,77.276
		c11.735,13.369,26.204,17.359,40.195,21.217c10.979,3.02,33.001,17.913,42.404,24.272
		C123.158,162.749,124.117,163.393,124.815,163.858z"/>
	<path fill="#981B1E" d="M102.139,114.972c-1.863-0.325-3.745-0.732-5.646-1.223l0,0c-7.606-0.59-32.84-5.108-36.629-9.056l0,0
		c-4.995-5.212-7.491-11.744-7.036-17.7l0,0c0.417-5.336,2.329-9.317,4.939-12.043l0,0c1.79-1.867,3.867-3.179,5.938-4.07l0,0
		c3.118-1.344,6.246-1.801,8.612-1.945l0,0c0.509-0.029,0.991-0.042,1.43-0.049l0,0c0.006-1.159,0.076-2.602,0.278-4.206l0,0
		c0.261-1.954,0.734-4.133,1.577-6.318l0,0c0.844-2.173,2.076-4.365,3.87-6.237l0,0c2.586-2.739,6.376-4.78,11.464-5.221l0,0
		c5.696-0.508,11.951,2.072,16.937,7.273l0,0c3.794,3.954,6.855,9.415,8.492,16.174l0,0c2.569,10.613,0.912,24.035,0.936,31.805
		c0.093,21.782,22.858,43.162,22.858,43.162s-4.259,3.999-4.36,3.874c-27.787-34.326-24.058-35.773-24.22-45.006
		c0,0,2.067-23.555-0.237-33.03l0,0c-1.411-5.819-3.961-10.239-6.925-13.332l0,0c-3.926-4.089-8.577-5.869-12.492-5.509l0,0
		c-4.09,0.373-6.703,1.865-8.598,3.838l0,0c-1.3,1.348-2.23,2.984-2.889,4.694l0,0c-0.997,2.562-1.374,5.302-1.471,7.39l0,0
		c-0.057,1.041-0.042,1.913-0.02,2.521l0,0c0.017,0.295,0.025,0.517,0.036,0.669l0,0c0.003,0.075,0.012,0.132,0.021,0.166l0,0
		c-0.004,0.015-0.005,0.023-0.003,0.027l0,0l0,0c0,0,0,0,0,0.007l0,0c0.088,0.766-0.149,1.509-0.65,2.022l-0.037,0.045l0,0
		c-0.485,0.519-1.197,0.768-1.933,0.683l0,0l0,0c-0.137-0.01-2.558-0.242-5.546,0.229l0,0c-1.532,0.232-3.215,0.655-4.812,1.357l0,0
		c-1.598,0.701-3.123,1.679-4.398,3.011l0,0c-1.871,1.991-3.268,4.737-3.623,9.024l0,0c-0.326,4.1,1.395,8.964,5.319,13.053l0,0
		c2.964,3.093,28.348,5.981,33.909,7.431l0,0c1.642,0.436,3.292,0.785,4.924,1.089c0.119,0.022,0.233,0.036,0.346,0.057
		L102.139,114.972z"/>
	<path fill="#005596" d="M146.915,148.998c0,0-6.272,7.483-6.965,6.64c-29.15-35.366-28.949-39.884-29.693-51.408l0.003-0.157
		c0.018-0.227,2.021-23.416-0.199-32.562c-1.24-5.104-3.515-9.499-6.586-12.703c-3.399-3.546-7.684-5.455-11.458-5.111
		c-3.341,0.312-5.816,1.401-7.757,3.431c-1.068,1.121-1.943,2.547-2.595,4.227c-0.981,2.518-1.289,5.168-1.375,6.939
		c-0.06,1.031-0.05,1.868-0.023,2.388c0.008,0.271,0.028,0.482,0.038,0.613l0.018,0.167c0.126,1.191-0.252,2.346-1.034,3.166
		c-0.811,0.868-1.928,1.255-3.064,1.132c-0.035-0.004-2.345-0.243-5.208,0.216c-1.647,0.253-3.164,0.68-4.497,1.266
		c-1.575,0.694-2.902,1.601-3.947,2.701c-1.932,2.055-2.81,4.878-3.242,8.15c-0.525,3.982,0.338,9.986,5.651,11.933
		c4.165,1.526,15.303,4.141,22.602,5.319c4.384,0.712,16.333,3.144,16.333,3.144l-0.571,8.103c0,0-37.897-6.8-43.381-9.788
		c-6.524-3.556-10.465-11.016-9.592-18.094c0.765-6.202,3.367-11.472,6.42-14.681c1.784-1.871,3.928-3.351,6.426-4.422
		c2.689-1.161,5.727-1.853,9.035-2.049c0.069-0.013,0.141-0.011,0.203-0.015c0.041-1.022,0.135-2.033,0.258-3.04
		c0.325-2.392,0.879-4.634,1.667-6.642c2.831-7.301,8.704-11.657,16.467-12.328c6.212-0.56,12.758,2.227,17.971,7.655
		c4.165,4.352,7.214,10.155,8.827,16.812c1.952,8.065,1.535,17.551,1.198,25.18c-0.117,2.559-0.467,4.996-0.222,6.954
		C121.757,127.109,146.915,148.998,146.915,148.998z"/>
	<path fill="#005596" d="M165.114,153.97c-7.73,11.277-19.469,22.099-32.944,24.264c-1.972,0.318-3.795-1.098-4.069-3.157
		c-0.276-2.062,1.097-3.987,3.067-4.305c15.106-2.429,30.034-19.895,35.198-34.691c0.682-1.965,2.758-2.998,4.627-2.304
		c1.871,0.694,2.824,2.847,2.139,4.816C171.506,143.247,168.755,148.66,165.114,153.97z"/>
	<path fill="#005596" d="M172.149,163.137c-7.208,10.516-18.16,20.606-30.732,22.633c-1.975,0.312-3.794-1.101-4.071-3.161
		c-0.275-2.061,1.1-3.988,3.066-4.306c13.919-2.233,27.67-18.347,32.441-31.99c0.677-1.966,2.754-2.999,4.623-2.302
		c1.866,0.689,2.825,2.845,2.138,4.812C178.102,153.157,175.538,158.194,172.149,163.137z"/>
	<path fill="#005596" d="M178.849,172.542c-6.425,9.368-16.195,18.367-27.419,20.172c-1.971,0.317-3.793-1.094-4.068-3.157
		c-0.276-2.06,1.098-3.983,3.065-4.304c12.125-1.951,24.128-16.021,28.29-27.945c0.681-1.966,2.761-2.995,4.625-2.304
		c1.869,0.692,2.826,2.848,2.14,4.814C184.137,163.669,181.861,168.146,178.849,172.542z"/>
	<path fill="#005596" d="M180.354,170.114c3.398,3.841,2.152,10.855-2.793,15.658c-4.933,4.809-11.698,5.59-15.097,1.749
		C159.064,183.68,176.95,166.271,180.354,170.114z"/>
</g>
</svg>
