<?xml version="1.0" encoding="iso-8859-1"?>
<!-- Generator: Adobe Illustrator 23.0.6, SVG Export Plug-In . SVG Version: 6.00 Build 0)  -->
<svg version="1.1" id="Layer_1" xmlns="http://www.w3.org/2000/svg" xmlns:xlink="http://www.w3.org/1999/xlink" x="0px" y="0px"
	 width="100px" height="100px" viewBox="0 0 100 100" enable-background="new 0 0 100 100" xml:space="preserve">
<g>
	<path fill="#005696" d="M49.481,72.842c-0.739,0.092-0.741,0.079-2.425-1.828c-2.695-3.054-9.854-11.162-13.686-13.375
		c-5.671-3.276-11.498-6.644-14.72-13.435c-5.329-11.23-1.213-24.329,9.786-31.143c1.449-0.899,3.009-1.676,4.634-2.311
		c14.092-5.512,30.551,0.528,36.69,13.463c3.04,6.411,1.918,12.252,0.83,17.897l-0.196,1.027C69,50.491,71.251,59.176,71.991,62.029
		c0.284,1.098,0.388,1.57-0.325,2.069C61.476,71.246,61.127,71.386,49.481,72.842z M49.97,70.575
		c8.079-0.618,7.904-0.102,19.648-7.593c-0.014-0.052-0.11-0.306-0.124-0.362c-0.767-2.956-3.098-11.95-1.623-19.728l0.197-1.031
		c1.03-5.345,2.093-10.869-0.681-16.72C61.773,13.31,46.805,7.753,34.019,12.751c-1.462,0.572-2.864,1.271-4.168,2.078
		c-9.996,6.195-13.71,18.157-8.827,28.446c2.946,6.21,8.47,9.403,13.812,12.49c4.193,2.419,11.265,10.43,14.284,13.851
		C49.436,69.976,49.745,70.323,49.97,70.575z"/>
	<path fill="#005696" d="M56.475,73.504c-1.826,0.32-4.001,0.602-6.797,0.951l0,0c-1.615,0.201-2.084-0.329-3.828-2.305
		c-2.454-2.779-9.735-11.029-13.339-13.109c-5.871-3.393-11.94-6.9-15.376-14.143c-5.684-11.98-1.304-25.946,10.415-33.208
		c1.533-0.951,3.186-1.775,4.911-2.449c14.9-5.832,32.31,0.577,38.812,14.278c3.264,6.884,2.038,13.255,0.954,18.876l-0.194,1.023
		c-1.33,7.011,0.855,15.431,1.573,18.199c0.288,1.114,0.682,2.638-0.979,3.801C64.671,71,62.425,72.46,56.475,73.504z M50.69,68.892
		l0.763-0.056c6.116-0.44,6.674-0.479,16.231-6.556c-0.919-3.609-2.883-12.122-1.452-19.669l0.197-1.033
		c1.027-5.33,1.995-10.36-0.556-15.743C60.62,14.769,46.61,9.576,34.628,14.26c-1.364,0.534-2.674,1.186-3.891,1.941
		c-9.275,5.748-12.723,16.843-8.198,26.38c2.731,5.758,8.031,8.82,13.157,11.782c3.898,2.249,9.613,8.429,14.689,14.18
		C50.488,68.663,50.591,68.78,50.69,68.892z"/>
</g>
<g>
	<path fill="#005696" d="M47.767,50.335c-0.74-0.343-1.476-0.719-2.206-1.126l0,0c-3.132-1.14-13.135-5.834-14.143-7.707l0,0
		c-1.326-2.473-1.395-5.112-0.3-7.184l0,0c0.984-1.856,2.396-3.045,3.916-3.701l0,0c1.041-0.449,2.119-0.664,3.131-0.73l0,0
		c1.524-0.1,2.918,0.118,3.942,0.356l0,0c0.22,0.052,0.426,0.106,0.612,0.156l0,0c0.178-0.414,0.427-0.921,0.754-1.47l0,0
		c0.406-0.666,0.937-1.387,1.624-2.065l0,0c0.687-0.674,1.541-1.306,2.583-1.756l0,0c1.51-0.663,3.424-0.93,5.645-0.467l0,0
		c2.489,0.513,4.747,2.199,6.073,4.667l0,0c1.008,1.876,1.478,4.202,1.147,6.817l0,0c-0.518,4.107-3.253,8.702-4.419,11.481
		c-3.258,7.797,3.146,18.216,3.146,18.216s-2.41,0.91-2.433,0.853c-6.572-15.66-4.773-15.722-3.445-19.041
		c0,0,4.441-8.166,4.9-11.833l0,0c0.284-2.252-0.127-4.143-0.914-5.61l0,0c-1.044-1.94-2.744-3.144-4.456-3.494l0,0
		c-1.789-0.366-3.121-0.152-4.223,0.322l0,0c-0.754,0.323-1.397,0.794-1.934,1.325l0,0c-0.81,0.794-1.384,1.727-1.742,2.462l0,0
		c-0.182,0.365-0.308,0.679-0.39,0.899l0,0c-0.038,0.108-0.068,0.188-0.086,0.244l0,0c-0.01,0.027-0.015,0.049-0.016,0.062l0,0
		c-0.004,0.005-0.005,0.008-0.005,0.01l0,0l0,0c0,0,0,0-0.001,0.002l0,0c-0.079,0.284-0.292,0.521-0.582,0.643l-0.023,0.012l0,0
		c-0.284,0.127-0.624,0.128-0.922,0.008l0,0l0,0c-0.057-0.02-1.047-0.399-2.383-0.595l0,0c-0.685-0.104-1.461-0.158-2.243-0.102l0,0
		c-0.783,0.056-1.577,0.218-2.319,0.539l0,0c-1.094,0.483-2.102,1.295-2.9,2.783l0,0c-0.758,1.425-0.767,3.374,0.276,5.315l0,0
		c0.787,1.467,11.1,5.598,13.236,6.795l0,0c0.629,0.356,1.275,0.682,1.921,0.99c0.047,0.023,0.093,0.042,0.138,0.063L47.767,50.335z
		"/>
	<path fill="#005696" d="M56.955,67.746c-0.662,0.116-0.907-0.088-1.143-0.655c-5.756-13.715-5.319-15.801-3.879-18.874
		c0.141-0.302,0.289-0.616,0.431-0.971l0.054-0.115c0.044-0.079,4.349-8.029,4.778-11.454c0.233-1.851-0.043-3.573-0.797-4.979
		c-0.826-1.536-2.212-2.636-3.708-2.941c-1.368-0.281-2.495-0.2-3.544,0.252c-0.566,0.242-1.099,0.609-1.588,1.091
		c-0.79,0.775-1.294,1.686-1.526,2.16c-0.165,0.334-0.277,0.612-0.351,0.807l-0.164,0.47c-0.21,0.499-0.612,0.899-1.136,1.12
		c-0.567,0.256-1.227,0.263-1.81,0.028c-0.214-0.078-1.05-0.368-2.126-0.525c-0.693-0.105-1.382-0.137-1.997-0.093
		c-0.722,0.05-1.376,0.202-1.947,0.448c-1.008,0.445-1.76,1.173-2.359,2.289c-0.634,1.191-0.53,2.803,0.278,4.308
		c0.624,0.799,6.162,3.292,8.825,4.49c1.828,0.823,3.272,1.473,3.987,1.874c0.543,0.308,1.132,0.611,1.856,0.958l1,0.478
		l-0.366,1.04l-1.457,2.821l-0.984-0.456c-0.741-0.344-1.482-0.721-2.204-1.122c-2.076-0.779-13.307-5.692-14.645-8.182
		c-1.481-2.76-1.591-5.743-0.303-8.183c1.025-1.933,2.567-3.384,4.46-4.203c1.075-0.464,2.257-0.74,3.511-0.822
		c1.274-0.084,2.619,0.024,4.003,0.323c0.128-0.248,0.267-0.494,0.412-0.738c0.521-0.855,1.124-1.62,1.796-2.284
		c0.875-0.859,1.86-1.527,2.928-1.988c1.873-0.822,4.063-1.01,6.33-0.537c2.869,0.592,5.355,2.494,6.816,5.217
		c1.168,2.175,1.606,4.751,1.264,7.451c-0.407,3.219-2.046,6.609-3.363,9.334c-0.436,0.901-0.835,1.723-1.129,2.427
		c-3.007,7.194,3.012,17.15,3.074,17.249l0.677,1.105l-1.239,0.468C58.329,67.338,57.501,67.651,56.955,67.746z M54.409,48.079
		c-0.151,0.372-0.307,0.705-0.456,1.025c-1.017,2.172-1.697,3.625,3.53,16.225c0.065-0.023,0.132-0.047,0.2-0.072
		c-1.597-2.996-5.401-11.31-2.582-18.051c0.313-0.746,0.733-1.614,1.177-2.533c1.249-2.582,2.803-5.798,3.167-8.669
		c0.216-1.706,0.065-3.342-0.434-4.81c0.466,1.446,0.601,3.053,0.39,4.729C58.939,39.624,54.837,47.287,54.409,48.079z
		 M39.099,45.115c2.184,1.099,4.477,2.151,6.167,2.815c-0.752-0.361-1.807-0.834-2.968-1.358
		C41.111,46.037,40.048,45.554,39.099,45.115z M35.241,31.712c-1.312,0.631-2.394,1.696-3.135,3.095
		c-0.777,1.471-0.846,3.246-0.223,5.007c-0.574-1.748-0.484-3.544,0.291-5C32.936,33.393,33.942,32.376,35.241,31.712z
		 M43.426,31.646l0.048,0.012l0.112-0.296c0.101-0.269,0.242-0.619,0.443-1.026c0.353-0.726,0.983-1.802,1.957-2.756
		c0.542-0.535,1.134-0.975,1.767-1.31c-0.673,0.34-1.3,0.793-1.87,1.353c-0.541,0.534-1.031,1.157-1.455,1.852
		c-0.259,0.434-0.491,0.884-0.684,1.334l-0.365,0.848c0.005,0.001,0.008,0.003,0.013,0.004L43.426,31.646z"/>
</g>
<g>
	<path fill="#005696" d="M61.58,67.962c0,0-3.79,1.909-3.956,1.523c-6.991-16.198-6.222-17.789-4.792-21.997l0.025-0.056
		c0.042-0.079,4.4-8.122,4.845-11.662c0.247-1.976-0.051-3.823-0.866-5.344c-0.903-1.682-2.429-2.887-4.079-3.226
		c-1.462-0.297-2.675-0.209-3.804,0.279c-0.622,0.271-1.209,0.673-1.739,1.194c-0.797,0.78-1.329,1.69-1.633,2.312
		c-0.182,0.361-0.304,0.661-0.371,0.85c-0.037,0.098-0.061,0.176-0.077,0.224l-0.017,0.061c-0.127,0.441-0.462,0.808-0.917,1.005
		c-0.475,0.211-1.006,0.213-1.47,0.03c-0.015-0.006-0.957-0.373-2.238-0.559c-0.735-0.111-1.443-0.144-2.096-0.096
		c-0.772,0.055-1.472,0.218-2.08,0.484c-1.129,0.498-1.928,1.401-2.607,2.517c-0.825,1.359-1.369,3.611,0.587,4.954
		c1.533,1.054,5.855,3.347,8.767,4.66c1.749,0.79,6.441,3.118,6.441,3.118l-1.468,2.826c0,0-15.021-7.056-16.891-8.793
		c-2.225-2.067-2.764-5.215-1.323-7.637c1.263-2.123,3.163-3.689,4.942-4.463c1.039-0.451,2.171-0.719,3.391-0.796
		c1.314-0.087,2.706,0.037,4.136,0.371c0.031,0.003,0.061,0.013,0.088,0.02c0.173-0.36,0.365-0.709,0.569-1.055
		c0.5-0.815,1.073-1.549,1.711-2.17c2.304-2.264,5.451-3.103,8.841-2.396c2.716,0.558,5.066,2.353,6.452,4.929
		c1.105,2.064,1.519,4.51,1.194,7.086c-0.394,3.121-2.007,6.46-3.305,9.145c-0.437,0.9-0.954,1.729-1.146,2.459
		C54.238,57.068,61.58,67.962,61.58,67.962z"/>
	<path fill="#005696" d="M57.954,69.915c-0.27,0.047-0.368,0.013-0.426-0.008l-0.171-0.06l-0.118-0.204
		c-6.927-16.048-6.285-17.932-4.88-22.058l0.117-0.319c0.465-0.866,4.397-8.24,4.812-11.544c0.238-1.897-0.047-3.661-0.823-5.107
		c-0.846-1.577-2.266-2.705-3.799-3.018c-1.375-0.28-2.504-0.2-3.549,0.252c-0.574,0.25-1.116,0.623-1.61,1.107
		c-0.756,0.74-1.26,1.604-1.551,2.2c-0.174,0.345-0.289,0.629-0.353,0.809c-0.033,0.086-0.053,0.148-0.066,0.191
		c-0.182,0.63-0.602,1.093-1.173,1.341c-0.564,0.25-1.217,0.264-1.795,0.037c-0.007-0.003-0.921-0.356-2.143-0.533
		c-0.711-0.106-1.385-0.139-2.004-0.094c-0.722,0.052-1.376,0.203-1.941,0.449c-0.92,0.407-1.689,1.153-2.417,2.351
		c-0.293,0.482-1.647,2.961,0.471,4.416c1.497,1.029,5.807,3.319,8.703,4.624c1.736,0.784,6.408,3.101,6.455,3.124l0.368,0.183
		L48.217,51.6l-0.369-0.173c-0.615-0.289-15.101-7.105-16.996-8.865c-2.363-2.196-2.936-5.541-1.395-8.135
		c1.205-2.026,3.124-3.757,5.135-4.632c1.085-0.471,2.274-0.752,3.535-0.831c1.286-0.085,2.638,0.025,4.02,0.327
		c0.137-0.267,0.283-0.528,0.438-0.787c0.527-0.862,1.125-1.619,1.778-2.256c2.4-2.356,5.677-3.248,9.225-2.507
		c2.834,0.583,5.288,2.455,6.731,5.136c1.144,2.137,1.573,4.67,1.237,7.323c-0.404,3.193-2.032,6.562-3.342,9.269
		c-0.135,0.275-0.275,0.545-0.413,0.806c-0.3,0.573-0.584,1.114-0.708,1.58c-2.379,9.023,4.76,19.772,4.832,19.879l0.254,0.378
		l-0.414,0.209C59.463,69.484,58.436,69.83,57.954,69.915z M58.008,69.322c0,0.001,0,0.001,0,0.002
		C58.009,69.323,58.009,69.322,58.008,69.322z M50.098,26.713c0.838-0.147,1.736-0.115,2.747,0.09
		c1.771,0.362,3.401,1.646,4.361,3.431c0.854,1.59,1.169,3.52,0.91,5.581c-0.433,3.449-4.43,10.947-4.884,11.79l-0.081,0.231
		c-1.331,3.91-1.941,5.705,4.764,21.271c0.514-0.121,1.847-0.705,3.067-1.302c-1.296-2.048-6.935-11.64-4.693-20.143
		c0.147-0.554,0.452-1.134,0.774-1.749c0.134-0.254,0.271-0.516,0.401-0.783c1.283-2.653,2.881-5.958,3.267-9.02
		c0.314-2.49-0.083-4.858-1.15-6.849c-1.327-2.468-3.578-4.189-6.172-4.722c-3.261-0.68-6.264,0.13-8.457,2.283
		c-0.605,0.59-1.16,1.293-1.649,2.092c-0.195,0.33-0.382,0.669-0.549,1.018l-0.146,0.306l-0.335-0.081
		c-1.47-0.341-2.82-0.463-4.097-0.38c-1.164,0.074-2.255,0.331-3.249,0.762c-1.854,0.807-3.628,2.411-4.748,4.293
		c-1.348,2.267-0.833,5.204,1.252,7.141c1.409,1.309,11.143,6.064,16.417,8.55l1.094-2.105c-1.14-0.564-4.623-2.281-6.059-2.93
		c-2.984-1.344-7.276-3.626-8.831-4.696c-2.104-1.445-1.693-3.862-0.703-5.492c0.82-1.35,1.709-2.202,2.795-2.683
		c0.654-0.286,1.402-0.458,2.223-0.519c0.683-0.049,1.419-0.015,2.19,0.101c1.319,0.19,2.289,0.566,2.33,0.582
		c0.366,0.145,0.783,0.138,1.141-0.023c0.344-0.149,0.593-0.42,0.686-0.742c0.044-0.143,0.068-0.222,0.107-0.319
		c0.066-0.189,0.195-0.506,0.386-0.887c0.318-0.648,0.874-1.599,1.713-2.422c0.567-0.557,1.196-0.987,1.866-1.279
		C49.211,26.925,49.646,26.792,50.098,26.713z"/>
</g>
<g>
	<path fill="#005696" d="M70.542,74.127c-5.474,3.392-12.74,6.069-19.372,5.111c-0.971-0.14-1.584-0.941-1.368-1.786
		c0.215-0.847,1.174-1.419,2.144-1.279c7.436,1.073,17.291-3.785,22.156-8.904c0.644-0.68,1.783-0.808,2.537-0.285
		c0.755,0.524,0.841,1.498,0.195,2.178C75.303,70.772,73.121,72.53,70.542,74.127z"/>
	<path fill="#005696" d="M58.339,80.22c-2.578,0.452-5.064,0.527-7.358,0.196c-0.832-0.119-1.561-0.557-2.002-1.202
		c-0.415-0.606-0.543-1.33-0.363-2.041c0.367-1.452,1.914-2.412,3.517-2.181c7.046,1.016,16.425-3.636,21.075-8.532
		c1.063-1.125,2.886-1.324,4.144-0.451c0.639,0.442,1.049,1.121,1.124,1.859c0.075,0.75-0.198,1.515-0.75,2.097
		c-1.664,1.75-3.984,3.582-6.535,5.163l0,0C66.966,77.749,62.532,79.485,58.339,80.22z M51.499,77.355
		c-0.259,0.045-0.47,0.208-0.511,0.372c-0.011,0.041-0.016,0.091,0.025,0.152c0.062,0.09,0.19,0.157,0.344,0.179
		c7.736,1.114,15.539-3.079,18.536-4.937l0,0c2.376-1.473,4.525-3.165,6.046-4.767c0.074-0.077,0.111-0.16,0.104-0.231
		c-0.006-0.062-0.047-0.118-0.119-0.168c-0.256-0.177-0.707-0.12-0.929,0.116c-5.079,5.343-15.406,10.408-23.24,9.279
		C51.668,77.338,51.581,77.34,51.499,77.355z"/>
</g>
<g>
	<path fill="#005696" d="M73.62,80.326c-5.104,3.163-11.882,5.658-18.072,4.767c-0.971-0.142-1.583-0.942-1.369-1.788
		c0.215-0.846,1.175-1.419,2.144-1.28c6.851,0.991,15.933-3.494,20.424-8.213c0.643-0.681,1.781-0.809,2.535-0.284
		c0.754,0.521,0.842,1.496,0.194,2.176C78.05,77.204,76.02,78.838,73.62,80.326z"/>
	<path fill="#005696" d="M62.251,86.087c-2.414,0.423-4.745,0.494-6.893,0.184c-0.835-0.122-1.563-0.56-2.002-1.204
		c-0.413-0.604-0.542-1.328-0.363-2.037c0.369-1.456,1.914-2.416,3.518-2.184c6.451,0.932,15.063-3.344,19.343-7.841
		c1.064-1.126,2.886-1.324,4.143-0.45c0.637,0.44,1.046,1.117,1.122,1.858c0.076,0.751-0.198,1.516-0.751,2.097
		c-1.548,1.63-3.714,3.342-6.099,4.819l-0.001,0C70.321,83.776,66.175,85.399,62.251,86.087z M55.877,83.208
		c-0.26,0.046-0.471,0.208-0.513,0.374c-0.014,0.056-0.006,0.102,0.028,0.151c0.062,0.09,0.192,0.159,0.348,0.182
		c7.194,1.033,14.445-2.868,17.232-4.593l-0.001,0c2.21-1.37,4.204-2.941,5.613-4.423c0.074-0.079,0.111-0.16,0.103-0.23
		c-0.006-0.061-0.045-0.116-0.117-0.166c-0.257-0.179-0.706-0.124-0.928,0.111c-4.709,4.947-14.269,9.635-21.509,8.59
		C56.044,83.191,55.959,83.194,55.877,83.208z"/>
</g>
<g>
	<path fill="#005696" d="M76.546,86.965c-4.55,2.817-10.595,5.041-16.119,4.245c-0.971-0.14-1.583-0.938-1.368-1.786
		c0.214-0.846,1.173-1.418,2.143-1.279c5.969,0.861,13.897-3.056,17.819-7.181c0.644-0.68,1.783-0.806,2.536-0.284
		c0.755,0.523,0.841,1.498,0.195,2.178C80.486,84.189,78.68,85.641,76.546,86.965z"/>
	<path fill="#005696" d="M66.439,92.223c-2.172,0.381-4.267,0.443-6.201,0.164c-0.832-0.119-1.561-0.557-2.002-1.2
		c-0.414-0.605-0.543-1.329-0.363-2.041c0.367-1.452,1.913-2.411,3.516-2.182c5.402,0.78,13.016-2.892,16.738-6.809
		c1.062-1.124,2.884-1.323,4.143-0.451c0.639,0.442,1.049,1.121,1.124,1.86c0.076,0.751-0.197,1.515-0.75,2.096
		c-1.384,1.456-3.318,2.986-5.448,4.307l-0.001,0C73.664,90.156,69.953,91.606,66.439,92.223z M60.756,89.327
		c-0.259,0.045-0.47,0.208-0.512,0.372c-0.015,0.058-0.007,0.103,0.027,0.153c0.062,0.09,0.19,0.157,0.345,0.179
		c6.376,0.917,12.811-2.54,15.281-4.07c1.956-1.213,3.717-2.602,4.961-3.91c0.074-0.077,0.11-0.159,0.103-0.23
		c-0.006-0.062-0.047-0.118-0.119-0.168c-0.254-0.178-0.706-0.121-0.929,0.113c-4.135,4.35-12.534,8.473-18.903,7.557
		C60.925,89.311,60.838,89.313,60.756,89.327z"/>
</g>
<g>
	<path fill="#005696" d="M77.651,86.213c0.942,1.965-0.805,4.553-3.905,5.776c-3.096,1.227-6.375,0.626-7.318-1.339
		C65.484,88.685,76.707,84.247,77.651,86.213z"/>
	<path fill="#005696" d="M72.138,93.678c-3.027,0.531-5.812-0.418-6.818-2.514c-0.724-1.508,0.693-3.1,4.212-4.731
		c0.801-0.371,7.871-3.552,9.226-0.732l0.001,0.001c0.486,1.012,0.495,2.153,0.03,3.298c-0.694,1.703-2.411,3.235-4.594,4.095
		C73.51,93.364,72.818,93.558,72.138,93.678z M67.676,90.37c0.772,1.045,3.121,1.503,5.619,0.516
		c1.547-0.61,2.781-1.664,3.224-2.751c0.182-0.445,0.215-0.855,0.101-1.22C75.003,86.555,68.742,88.984,67.676,90.37z"/>
</g>
</svg>
