<svg xmlns="http://www.w3.org/2000/svg" xmlns:xlink="http://www.w3.org/1999/xlink" id="Layer_1" width="600" height="600" x="0" style="enable-background:new 0 0 600 600" y="0" version="1.1" viewBox="0 0 600 600" xml:space="preserve"><style type="text/css">.st0{fill:#fff}</style><g><path d="M95.2,429c6.9-5.4,15.6-8,25.4-8c5.1,0,12.3,1,16.7,2.3c1.1,0.3,1.8,0.5,2.6,0.4c0.1,2.2,0.6,8.1,1.3,13.9 c-0.5,0.7-1.9,0.8-2.5,0.2c-1.4-6.4-5.7-13.8-19.3-13.8c-14.4,0-26.7,9.1-26.7,28.7c0,19.8,12.5,30.7,28,30.7 c12.2,0,17.5-7.9,19.7-13.5c0.7-0.5,2.1-0.3,2.5,0.4c-0.7,4.9-3.1,11.1-4.5,12.9c-1.1,0.2-2.3,0.6-3.3,0.9 c-2.1,0.8-8.9,2.2-14.9,2.2c-8.5,0-16.6-1.7-23.5-6.3c-7.5-5.2-13.4-13.8-13.4-25.9C83.4,443.5,88.1,434.5,95.2,429z" class="st0"/><path d="M165.5,465.2c1.4-0.5,1.6-1.3,1.6-2.7l0.1-4.3c0.1-3.5-1-8.2-6.9-8.2c-2.6,0-5.8,1.3-6,4.2 c-0.1,1.5-0.2,2.6-0.9,3.2c-1.4,1.1-4,1.8-5.4,1.8c-0.8,0-1.3-0.5-1.3-1.3c0-4.9,10.7-11.6,17.5-11.6c6.8,0,10.1,4,9.8,11 l-0.6,16.4c-0.2,4.3,0.7,8.2,4.3,8.2c0.9,0,1.8-0.3,2.4-0.6c0.5-0.3,0.9-0.7,1.2-0.7c0.4,0,0.7,0.6,0.7,1.2c0,0.5-3.3,4.1-7.9,4.1 c-2.3,0-4.5-0.8-6.1-2.9c-0.4-0.6-0.9-1.3-1.5-1.3c-0.7,0-1.8,0.8-3.7,1.9c-2.1,1.1-4.1,2.4-6.8,2.4c-2.7,0-5-0.8-6.6-2.2 c-1.8-1.6-2.9-4-2.9-6.6c0-3.7,1.8-5.8,7.8-8L165.5,465.2z M159.6,481.8c1.9,0,4.8-1.4,5.8-2.4c1.1-1.1,1.1-2.5,1.2-4.4l0.2-5.6 c0-1-0.4-1.2-0.9-1.2c-0.6,0-2.2,0.4-3.9,0.9c-5.6,1.9-8.3,3.3-8.3,7C153.7,477.7,154.8,481.8,159.6,481.8z" class="st0"/><path d="M188.7,457.6c0-3.7,0-4.1-2.5-5.8l-0.8-0.6c-0.4-0.4-0.4-1.4,0.1-1.7c2.2-0.8,7.2-3.2,9.5-4.6 c0.5,0.1,0.8,0.3,0.8,0.7v5.5c0,0.5,0.1,0.8,0.3,0.8c3.3-2.7,6.9-5.7,10.4-5.7c2.4,0,4.2,1.5,4.2,3.8c0,3.1-2.5,4.3-4.1,4.3 c-0.9,0-1.4-0.3-2.1-0.7c-1.4-0.9-2.8-1.5-4.1-1.5c-1.5,0-2.6,0.8-3.4,1.9c-0.9,1.3-1.2,4.1-1.2,7.3v12.8c0,6.8,0.2,7.9,3.8,8.2 l3.4,0.3c0.7,0.5,0.5,2.1-0.2,2.4c-4.4-0.2-7.2-0.3-10.5-0.3c-3.4,0-6.2,0.1-8.7,0.3c-0.7-0.3-0.8-1.9-0.2-2.4l1.8-0.3 c3.5-0.6,3.6-1.4,3.6-8.2L188.7,457.6L188.7,457.6z" class="st0"/><path d="M247.7,470.9c0,7.4,0.1,10.9,2.7,10.9c1,0,2.6-0.5,4.1-0.9c0.7,0.2,0.8,2.5-0.1,3c-4,0.6-9.8,2-12.4,3 c-0.6,0-1-0.3-1-0.8v-1.6c0-1.4,0-2.5-0.2-2.9h-0.4c-4.1,2.8-7.4,4.3-11.9,4.3c-10.5,0-17.4-8.2-17.4-18.1 c0-13.2,10-21.7,22.8-21.7c3.2,0,5.3,0.5,6.3,0.8c0.5,0,0.6-0.6,0.6-1.3v-14.2c0-5.6-0.1-6.1-2.9-7.8l-0.9-0.6 c-0.5-0.3-0.5-1.6,0-1.9c2.4-0.8,6.8-2.2,10.2-4c0.4,0,0.8,0.2,0.9,0.6c-0.1,2.8-0.3,7.5-0.3,11.7L247.7,470.9L247.7,470.9z M240.8,456.8c0-1.9-0.4-2.7-1-3.7c-1.4-2-4.2-4-7.9-4c-8.6,0-13,7.4-13,15.6c0,8.6,4.8,16.7,14,16.7c2.5,0,5.7-1.1,7.3-2.6 c0.6-0.6,0.7-2,0.7-3.5V456.8z" class="st0"/><path d="M263.3,457.6c0-3.7,0-4.1-2.5-5.8l-0.8-0.6c-0.4-0.4-0.4-1.4,0.1-1.7c2.2-0.8,7.5-3.2,9.7-4.6 c0.5,0,0.8,0.2,0.9,0.6c-0.2,3.3-0.4,7.8-0.4,11.7v17c0,6.8,0.2,7.7,3.6,8.2l2,0.3c0.7,0.5,0.5,2.1-0.2,2.4 c-2.8-0.2-5.6-0.3-8.9-0.3c-3.4,0-6.2,0.1-8.9,0.3c-0.7-0.3-0.8-1.9-0.2-2.4l2-0.3c3.5-0.5,3.6-1.4,3.6-8.2L263.3,457.6 L263.3,457.6z M271.1,430.8c0,3.4-2.4,4.9-5,4.9c-2.9,0-4.8-2.2-4.8-4.7c0-3.1,2.3-5.1,5.1-5.1S271.1,428.1,271.1,430.8z" class="st0"/><path d="M319.1,465.7c0,11.8-8.1,20.3-19.9,20.3c-10.8,0-19.3-7.6-19.3-19.4c0-11.9,9-20.4,20.1-20.4 C310.5,446.2,319.1,454.2,319.1,465.7z M298.8,449.1c-6.2,0-10.8,5.9-10.8,16.3c0,8.6,3.9,17.8,12.2,17.8c8.3,0,10.8-8.7,10.8-15.9 C311,459.2,307.8,449.1,298.8,449.1z" class="st0"/><path d="M341.8,486.2c-7.9,0-12.9-2.5-14.7-3.5c-1.1-2.1-2.4-8.8-2.5-13.2c0.5-0.7,1.9-0.8,2.3-0.3 c1.4,4.8,5.3,14,16.2,14c7.9,0,11.8-5.2,11.8-10.8c0-4.1-0.8-8.8-7.7-13.2l-9-5.8c-4.7-3.1-10.2-8.5-10.2-16.2 c0-9,7-16.2,19.2-16.2c2.9,0,6.3,0.6,8.8,1.2c1.2,0.4,2.5,0.6,3.3,0.6c0.9,2.3,1.7,7.5,1.7,11.5c-0.4,0.6-1.9,0.8-2.4,0.3 c-1.2-4.5-3.8-10.6-12.8-10.6c-9.2,0-11.2,6.1-11.2,10.5c0,5.5,4.5,9.4,8,11.6l7.5,4.7c5.9,3.7,11.8,9.1,11.8,18.1 C361.9,479.1,354.1,486.2,341.8,486.2z" class="st0"/><path d="M422,460.5c0-6.4-2.8-9.7-8.8-9.7c-3.6,0-6.5,1.6-7.8,3.3c-1.1,1.4-1.4,2.4-1.4,5.7v14.4 c0,6.8,0.2,7.7,3.6,8.2l2,0.3c0.7,0.5,0.5,2.1-0.2,2.4c-2.8-0.2-5.6-0.3-8.9-0.3c-3.4,0-5.9,0.1-8.6,0.3c-0.7-0.3-0.8-1.9-0.2-2.4 l1.7-0.3c3.5-0.6,3.6-1.4,3.6-8.2v-13.7c0-6.3-2.8-9.7-8.7-9.7c-3.9,0-6.5,1.7-7.9,3.4c-0.9,1.1-1.4,2.4-1.4,5.4v14.6 c0,6.8,0.2,7.6,3.6,8.2l1.7,0.3c0.7,0.5,0.5,2.1-0.2,2.4c-2.5-0.2-5.3-0.3-8.6-0.3c-3.4,0-6.2,0.1-9.1,0.3 c-0.7-0.3-0.8-1.9-0.2-2.4l2.3-0.3c3.5-0.5,3.6-1.4,3.6-8.2v-16.5c0-3.7,0-4.1-2.5-5.8l-0.9-0.6c-0.4-0.4-0.4-1.4,0.1-1.7 c2.2-0.8,7.5-3.2,9.4-4.6c0.4,0,0.9,0.2,1,0.7c-0.2,2.2-0.2,3.6-0.2,4.4c0,0.6,0.4,1,1,1c3.6-2.5,8-4.8,12.5-4.8 c4.7,0,7.4,1.7,10,5.6c0.8,0.2,1.5-0.2,2.4-0.8c3.8-2.6,8.4-4.8,12.8-4.8c7.5,0,11.2,5.2,11.2,11.7v16.2c0,6.8,0.2,7.7,3.6,8.2 l2.3,0.3c0.7,0.5,0.5,2.1-0.2,2.4c-3.1-0.2-5.8-0.3-9.1-0.3c-3.4,0-5.9,0.1-8.6,0.3c-0.7-0.3-0.8-1.9-0.2-2.4l1.7-0.3 c3.5-0.6,3.6-1.4,3.6-8.2L422,460.5L422,460.5z" class="st0"/><path d="M457.6,465.2c1.4-0.5,1.6-1.3,1.6-2.7l0.1-4.3c0.1-3.5-1-8.2-6.9-8.2c-2.6,0-5.8,1.3-6,4.2 c-0.1,1.5-0.2,2.6-0.9,3.2c-1.4,1.1-4,1.8-5.4,1.8c-0.8,0-1.3-0.5-1.3-1.3c0-4.9,10.6-11.6,17.5-11.6c6.8,0,10.1,4,9.8,11 l-0.6,16.4c-0.2,4.3,0.7,8.2,4.3,8.2c0.9,0,1.8-0.3,2.4-0.6c0.5-0.3,0.9-0.7,1.2-0.7c0.4,0,0.7,0.6,0.7,1.2c0,0.5-3.3,4.1-7.9,4.1 c-2.3,0-4.5-0.8-6.1-2.9c-0.4-0.6-0.9-1.3-1.5-1.3c-0.7,0-1.8,0.8-3.7,1.9c-2.1,1.1-4.1,2.4-6.8,2.4c-2.7,0-5-0.8-6.6-2.2 c-1.8-1.6-2.9-4-2.9-6.6c0-3.7,1.8-5.8,7.8-8L457.6,465.2z M451.8,481.8c1.9,0,4.8-1.4,5.8-2.4c1.1-1.1,1.1-2.5,1.2-4.4l0.2-5.6 c0-1-0.4-1.2-0.9-1.2c-0.6,0-2.2,0.4-3.9,0.9c-5.6,1.9-8.3,3.3-8.3,7C445.9,477.7,447,481.8,451.8,481.8z" class="st0"/><path d="M480.9,457.6c0-3.7,0-4.1-2.5-5.8l-0.8-0.6c-0.4-0.4-0.4-1.4,0.1-1.7c2.2-0.8,7.2-3.2,9.5-4.6 c0.5,0.1,0.8,0.3,0.8,0.7v5.5c0,0.5,0.1,0.8,0.3,0.8c3.3-2.7,6.9-5.7,10.4-5.7c2.4,0,4.2,1.5,4.2,3.8c0,3.1-2.5,4.3-4.1,4.3 c-0.9,0-1.4-0.3-2.1-0.7c-1.4-0.9-2.8-1.5-4.1-1.5c-1.5,0-2.6,0.8-3.4,1.9c-0.9,1.3-1.2,4.1-1.2,7.3v12.8c0,6.8,0.2,7.9,3.8,8.2 l3.4,0.3c0.7,0.5,0.5,2.1-0.2,2.4c-4.4-0.2-7.2-0.3-10.5-0.3c-3.4,0-6.2,0.1-8.7,0.3c-0.7-0.3-0.8-1.9-0.2-2.4l1.8-0.3 c3.5-0.6,3.6-1.4,3.6-8.2L480.9,457.6L480.9,457.6z" class="st0"/><path d="M519,451.5c-1.6,0-1.7,0.3-1.7,2.3v17.6c0,5.5,0.7,10.5,6.9,10.5c0.9,0,1.8-0.2,2.5-0.5 c0.8-0.3,2.1-1.3,2.4-1.3c0.8,0,1.1,1,0.9,1.6c-1.7,2-5.1,4.3-9.9,4.3c-8.1,0-9.8-4.5-9.8-10.2v-21.6c0-2.5-0.1-2.7-2-2.7h-2.6 c-0.6-0.4-0.7-1.4-0.3-2c2.7-0.8,5.1-2.1,6-2.9c1.2-1.1,3-3.7,4-5.6c0.5-0.2,1.6-0.2,2,0.5v4.2c0,1.7,0.1,1.8,1.7,1.8h10.5 c1.1,0.8,0.9,3.4,0.1,4L519,451.5L519,451.5z" class="st0"/></g><g><path d="M364.4,379.3c-2.8,2-2.8,1.9-14.5-3.8c-18.7-9.2-68.3-33.5-89.5-36.2c-31.4-4.1-63.6-8.3-93.9-34.4 c-50.1-43.1-66.3-114.7-38.7-170.3c3.6-7.3,8-14.3,13.1-20.7c43.5-55.6,125.9-60.4,183.5-10.8c28.6,24.6,38.7,55.1,48.5,84.5 l1.8,5.4c12.9,38.3,44,75.5,54.2,87.8c3.9,4.7,5.5,6.8,3.9,10.6C409.2,346.9,408.2,348.3,364.4,379.3z M360.6,367.4 c31.4-19.6,32-16.8,60.9-77.1c-0.2-0.2-1.2-1.2-1.4-1.5c-10.6-12.7-42.8-51.2-56.4-91.7l-1.8-5.4c-9.3-27.9-18.9-56.7-45-79.2 c-52.7-45.4-127.8-41.4-167.3,9.1c-4.5,5.8-8.5,12-11.7,18.6c-25.1,50.5-10.1,115.8,35.8,155.3c27.7,23.9,58.3,27.8,87.8,31.7 c23.2,3,72.2,27,93.2,37.3C357,365.6,359.1,366.6,360.6,367.4z" class="st0"/><path d="M300.6,274.4c-3.9-0.1-7.8-0.4-11.8-0.9l0,0c-15.6,1-68.3-1-77.1-8l0,0c-11.6-9.2-18.6-21.8-19.4-34l0,0 c-0.7-11,2.1-19.6,6.6-25.9l0,0c3.1-4.3,7-7.6,10.9-10l0,0c6-3.6,12.2-5.4,17-6.4l0,0c1-0.2,2-0.4,2.9-0.5l0,0 c-0.3-2.4-0.6-5.3-0.6-8.6l0,0c0-4,0.3-8.6,1.4-13.3l0,0c1.1-4.7,3-9.5,6.1-13.8l0,0c4.5-6.3,11.6-11.5,21.8-13.9l0,0 c11.4-2.7,24.9,0.8,36.5,10l0,0c8.8,7,16.6,17.2,21.9,30.5l0,0c8.2,20.9,8.7,48.6,11,64.4c6.4,44.3,58.8,81.3,58.8,81.3 s-7.5,9.3-7.8,9.1c-66.3-61.9-59.1-65.9-62.1-84.7c0,0-2.5-48.5-9.9-67.1l0,0c-4.5-11.4-11-19.7-17.9-25.1l0,0 c-9.2-7.2-19.1-9.5-27-7.6l0,0c-8.2,1.9-13.1,5.7-16.4,10.3l0,0c-2.3,3.1-3.7,6.7-4.5,10.4l0,0c-1.3,5.5-1.3,11.2-0.9,15.5l0,0 c0.2,2.1,0.5,3.9,0.7,5.1l0,0c0.1,0.6,0.2,1,0.3,1.4l0,0c0,0.2,0.1,0.3,0.1,0.3l0,0c0,0,0,0,0,0.1l0,0l0,0c0,0,0,0,0,0l0,0 c0.4,1.5,0.1,3.1-0.7,4.3l-0.1,0.1l0,0c-0.8,1.2-2.2,1.9-3.7,1.9l0,0l0,0c-0.3,0-5.3,0.2-11.2,2l0,0c-3.1,0.9-6.4,2.2-9.4,4.1l0,0 c-3.1,1.9-5.9,4.3-8.1,7.4l0,0c-3.2,4.6-5.3,10.6-4.8,19.4l0,0c0.5,8.4,5.4,17.8,14.5,25l0,0c6.9,5.4,59.4,4.1,71.1,5.5l0,0 c3.5,0.4,6.9,0.7,10.3,0.8c0.2,0,0.5,0,0.7,0L300.6,274.4z" class="st0"/><path d="M401.4,330.9c0,0-10.6,17-12.3,15.5c-69.4-63.6-70.3-72.9-75-96.1l0-0.3c0-0.5-2.6-48.2-9.7-66.2 c-4-10-9.9-18.3-17-24c-7.9-6.2-17.2-8.9-24.8-7.1c-6.7,1.6-11.4,4.5-14.8,9.2c-1.9,2.6-3.2,5.7-4.1,9.3 c-1.3,5.4-1.2,10.9-0.8,14.5c0.2,2.1,0.4,3.8,0.6,4.9c0.1,0.5,0.2,1,0.3,1.2l0.1,0.3c0.6,2.4,0.2,4.8-1.2,6.7 c-1.4,2-3.6,3.1-5.9,3.2c-0.1,0-4.8,0.2-10.5,1.9c-3.3,1-6.2,2.3-8.8,3.9c-3,1.9-5.4,4.1-7.3,6.6c-3.3,4.7-4.3,10.7-4.3,17.5 c0.1,8.3,3.5,20.2,14.9,22.7c8.9,1.9,32.3,4.1,47.5,4.4c9.1,0.2,34.1,1.7,34.1,1.7l1.1,16.6c0,0-79-3-91-7.6 c-14.3-5.4-24.4-19.4-24.7-34.1c-0.2-12.8,3.6-24.3,8.9-31.7c3.1-4.3,7-7.9,11.8-10.8c5.1-3.1,11.1-5.4,17.8-6.7 c0.1,0,0.3-0.1,0.4-0.1c-0.2-2.1-0.3-4.2-0.3-6.3c0-5,0.5-9.7,1.5-14c3.7-15.7,14.4-26.2,30-29.8c12.5-2.9,26.6,0.9,38.7,10.5 c9.7,7.7,17.6,18.6,22.7,31.7c6.3,15.9,8.1,35.3,9.6,50.9c0.5,5.2,0.5,10.3,1.5,14.2C344,293.5,401.4,330.9,401.4,330.9z" class="st0"/><path d="M439.8,335.8c-12.5,25.1-33.3,50.5-60.1,58.7c-3.9,1.2-8-1.2-9.2-5.3c-1.1-4.1,1.1-8.4,5-9.6 c30-9.2,55.4-49,61.7-80.6c0.8-4.2,4.8-6.9,8.8-6c4,0.9,6.6,5,5.7,9.2C449.8,312.1,445.7,323.9,439.8,335.8z" class="st0"/><path d="M456.7,352.4c-11.7,23.4-31.1,47.1-56.1,54.8c-3.9,1.2-8-1.2-9.2-5.3c-1.1-4.1,1.1-8.4,5-9.6 c27.7-8.5,51.1-45.2,56.9-74.3c0.8-4.2,4.7-6.9,8.7-6c4,0.9,6.6,5,5.7,9.2C466,330.4,462.2,341.4,456.7,352.4z" class="st0"/><path d="M473,369.7c-10.4,20.9-27.7,42-50,48.8c-3.9,1.2-8-1.1-9.2-5.3c-1.1-4.1,1.1-8.4,5-9.6 c24.1-7.4,44.5-39.5,49.6-64.9c0.8-4.2,4.8-6.9,8.8-6c4,0.9,6.6,5,5.7,9.2C481.3,350.1,477.9,359.9,473,369.7z" class="st0"/><path d="M475.4,364.3c8,6.8,7.5,21.5-1.2,32.6c-8.7,11.2-22.2,14.7-30.2,7.9C436,397.9,467.4,357.4,475.4,364.3z" class="st0"/></g><g><path d="M90.7,521.1c-0.9,0-0.9,0-1.2,0.9l-1.4,4.2c-0.7,2.1-0.6,2.1,0.7,2.3l1,0.2c0.2,0.2,0.2,0.9-0.1,1 c-1.1-0.1-2.3-0.1-3.7-0.1c-1.1,0-2.2,0-3.4,0.1c-0.2-0.2-0.3-0.7,0-1l1-0.2c1-0.2,1.4-0.5,1.9-1.6c0.4-0.9,1-2.4,1.7-4.2l4.8-12.4 c0.4-1.1,0.8-1.9,0.7-2.5c1.2-0.2,2.4-1.7,2.4-1.7c0.3,0,0.5,0.1,0.6,0.3c0.6,1.6,1,3.2,1.6,4.8l5,14.6c0.8,2.3,1,2.5,2.7,2.9 l0.5,0.1c0.3,0.2,0.3,0.8,0,1c-1.4-0.1-2.7-0.1-4.5-0.1c-1.5,0-3,0.1-4.2,0.1c-0.3-0.2-0.3-0.8-0.1-1l0.8-0.1 c1.3-0.2,1.4-0.4,0.9-1.8l-1.6-4.7c-0.3-0.9-0.5-0.9-1.4-0.9L90.7,521.1L90.7,521.1z M94.9,519.5c1,0,1.1-0.1,0.8-0.9l-1.5-4.2 c-0.6-1.8-0.8-2.5-1-2.8h-0.1c-0.1,0.2-0.5,1.1-1,2.8l-1.5,4.1c-0.3,1-0.3,1,0.6,1H94.9z" class="st0"/><path d="M109.2,520.4c0-1.6,0-2-0.9-2.5l-0.4-0.2c-0.1-0.1-0.1-0.6,0-0.8c1.5-0.4,3.4-1.3,4.5-1.9 c0.2,0,0.4,0.1,0.5,0.3c-0.1,0.7-0.1,1.3-0.1,1.6c0,0.2,0.1,0.3,0.3,0.3c1.7-0.9,2.6-1.7,5-1.7c1.5,0,2.6,0.8,3.1,1.5 c0.2,0.3,0.4,0.5,0.6,0.5s0.3-0.1,0.8-0.3c1.6-1,2.8-1.6,4.5-1.6c2.9,0,4.2,1.9,4.2,4.7v5.4c0,2.6,0.1,3,1.3,3.1l0.8,0.1 c0.3,0.2,0.1,0.9,0,1c-1.5-0.1-2.7-0.1-4-0.1c-1.1,0-2.3,0-3.6,0.1c-0.3-0.1-0.3-0.8-0.1-1l0.6-0.1c1.2-0.2,1.3-0.6,1.3-3.1v-4.7 c0-1.8-0.6-3.2-2.8-3.2c-1,0-1.9,0.5-2.3,1c-0.3,0.4-0.4,0.8-0.4,1.8v5.1c0,2.6,0.1,3,1.3,3.2l0.5,0.1c0.2,0.2,0.2,0.9-0.1,1 c-1.2-0.1-2.4-0.1-3.7-0.1c-1.1,0-2.3,0-3.5,0.1c-0.3-0.1-0.3-0.8-0.1-1l0.5-0.1c1.2-0.2,1.3-0.6,1.3-3.2v-4.7 c0-1.8-0.6-3.2-2.6-3.2c-1.2,0-2.1,0.6-2.5,1.1c-0.4,0.6-0.5,0.9-0.5,2.2v4.7c0,2.6,0.1,3,1.3,3.2l0.5,0.1c0.2,0.2,0.2,0.9-0.1,1 c-1.2-0.1-2.4-0.1-3.7-0.1c-1.1,0-2.3,0-3.6,0.1c-0.3-0.1-0.3-0.8-0.1-1l0.6-0.1c1.2-0.2,1.3-0.6,1.3-3.1L109.2,520.4L109.2,520.4z" class="st0"/><path d="M138.4,521.4c-0.7,0-0.7,0-0.7,0.5c0,3.1,2.2,5.6,5.3,5.6c1.4,0,2.5-0.5,3.3-1.7c0.3-0.1,0.7,0.2,0.8,0.6 c-1.2,2.8-3.8,3.8-5.9,3.8c-4,0-6.7-3-6.7-7c0-3.9,2.7-7.7,7.3-7.7c2.6,0,5.2,1.7,5.2,4.7c0,0.3,0,0.5-0.2,0.8 c-0.2,0.3-1,0.5-2.4,0.5L138.4,521.4L138.4,521.4z M141.6,520c1,0,1.5-0.1,1.7-0.2c0.2-0.1,0.3-0.4,0.3-0.7c0-1.3-0.8-2.3-2.3-2.3 c-2.3,0-3.4,2.3-3.4,3c0,0.1,0.1,0.2,0.5,0.2H141.6z" class="st0"/><path d="M150.3,520.4c0-1.6,0-2-0.9-2.5l-0.4-0.2c-0.1-0.1-0.1-0.6,0-0.8c1.5-0.5,3.3-1.3,4.4-1.9 c0.2,0,0.4,0.1,0.5,0.3c0,0.7-0.1,1.3-0.1,1.6c0,0.2,0.1,0.4,0.3,0.4c1.1-0.8,2.2-1.8,3.4-1.8c1.2,0,1.9,0.8,1.9,1.7 c0,1.4-1,2-1.9,2c-0.3,0-0.7-0.1-0.9-0.3c-0.9-0.6-1.5-0.7-1.7-0.7c-0.8,0-1,0.8-1,2.5v4.8c0,2.6,0.1,3,1.4,3.1l1.4,0.1 c0.2,0.2,0.2,0.9-0.1,1c-2.1-0.1-3.3-0.1-4.6-0.1c-1.1,0-2.3,0-3.6,0.1c-0.3-0.1-0.3-0.8-0.1-1l0.6-0.1c1.2-0.2,1.3-0.6,1.3-3.1 L150.3,520.4L150.3,520.4z" class="st0"/><path d="M166.2,525.5c0,2.6,0.1,2.9,1.3,3.1l0.6,0.1c0.2,0.2,0.2,0.9-0.1,1c-1.3-0.1-2.5-0.1-3.8-0.1 c-1.1,0-2.3,0-3.7,0.1c-0.3-0.1-0.3-0.8-0.1-1l0.6-0.1c1.2-0.2,1.3-0.6,1.3-3.1v-5.1c0-1.6,0-2-0.9-2.5l-0.4-0.2 c-0.1-0.1-0.1-0.6,0-0.8c1.8-0.5,3.6-1.3,4.5-1.9c0.2,0,0.4,0.1,0.5,0.3c-0.1,1.1-0.1,2.8-0.1,4.2L166.2,525.5L166.2,525.5z M162.2,510.1c0-1.2,0.9-2.1,2.1-2.1s2.1,0.9,2.1,2.1s-0.9,2.1-2.1,2.1C163.1,512.2,162.2,511.3,162.2,510.1z" class="st0"/><path d="M180.8,515.9c0.5,0.4,0.7,1,0.7,1.8c0,1.1-0.6,1.6-0.9,1.6c-0.2,0-0.4-0.1-0.7-0.4c-0.8-1-1.8-2.1-3.2-2.1 c-2,0-4,1.9-4,5.2c0,2.8,1.8,5.5,5,5.5c2.3,0,3.1-0.8,3.8-1.8c0.3,0,0.7,0.2,0.7,0.6c-1.3,2.8-3.9,3.8-6.1,3.8 c-1.8,0-3.7-0.7-4.8-1.9c-1.2-1.2-2-3-2-5c0-4.1,3-7.8,8.6-7.8C178.8,515.4,179.8,515.6,180.8,515.9z" class="st0"/><path d="M194.4,525.2c-0.1,2,0.4,3.1,1.7,3.1c0.6,0,1.1-0.4,1.2-0.4c0.2,0,0.4,0.4,0.3,0.7c-0.7,1-2.4,1.5-3.5,1.5 c-0.9,0-1.8-0.2-2.5-1c-0.2-0.2-0.4-0.4-0.6-0.4c-0.2,0-0.4,0.2-0.9,0.5c-0.7,0.4-1.7,0.9-3,0.9c-2.4,0-3.6-1.6-3.6-3.4 c0-1.3,0.5-2.4,2.9-3.2c1.2-0.4,2.5-0.9,3.8-1.4c0.7-0.2,0.8-0.6,0.8-0.9l0-0.9c0.1-1.8-0.4-3.3-2.1-3.3c-1,0-1.7,0.5-1.8,1.5 c-0.1,0.7-0.3,1-0.7,1.3c-0.5,0.3-1.5,0.6-2.2,0.6c-0.5,0-0.7-0.2-0.7-0.6c0-0.4,0.2-1.1,1.4-2.2c1.1-1,3.6-2.2,5.4-2.2 c2.7,0,4.5,1.3,4.3,4.4L194.4,525.2z M191,524c0-0.4-0.1-0.6-0.3-0.6c-0.3,0-0.9,0.2-1.5,0.4c-1,0.3-1.9,0.8-1.9,2.3 c0,0.9,0.6,2,1.9,2c1.3,0,1.6-0.8,1.7-1.7L191,524z" class="st0"/><path d="M204.6,525.5c0,2.6,0.1,3,1.3,3.2l0.5,0.1c0.2,0.2,0.2,0.9-0.1,1c-1.2-0.1-2.4-0.1-3.7-0.1 c-1.1,0-2.3,0-3.8,0.1c-0.3-0.1-0.3-0.8-0.1-1l0.8-0.1c1.2-0.2,1.3-0.6,1.3-3.1v-5.1c0-1.6,0-2-0.9-2.5l-0.4-0.2 c-0.1-0.1-0.1-0.6,0-0.8c1.5-0.4,3.4-1.3,4.5-1.9c0.2,0,0.4,0.1,0.5,0.3c-0.1,0.7-0.1,1.3-0.1,1.6c0,0.2,0.1,0.3,0.3,0.3 c1.6-0.9,2.6-1.7,4.8-1.7c2.8,0,4.1,1.9,4.1,4.7v5.4c0,2.6,0.1,3,1.3,3.1l0.8,0.1c0.2,0.2,0.2,0.9-0.1,1c-1.5-0.1-2.6-0.1-3.9-0.1 c-1.1,0-2.3,0-3.6,0.1c-0.3-0.1-0.3-0.8-0.1-1l0.5-0.1c1.2-0.2,1.3-0.6,1.3-3.2v-4.8c0-1.8-0.7-3.2-2.8-3.2c-1.1,0-1.9,0.6-2.3,1.1 c-0.5,0.6-0.5,0.9-0.5,2.2L204.6,525.5L204.6,525.5z" class="st0"/><path d="M247.9,512.5c-0.2,0.3-0.9,0.3-1.1,0.1c-0.6-2.2-2.2-5.1-6.8-5.1c-4.4,0-8.9,3.1-8.9,10.3c0,7.4,4.6,11,9.1,11 c4.4,0,6.3-2.9,7.3-5.2c0.3-0.3,0.9-0.2,1,0.1c-0.2,2.3-1.2,4.6-1.7,5.3c-0.4,0.1-0.8,0.2-1.2,0.3c-0.8,0.2-3.2,0.8-5.4,0.8 c-3.4,0-6.4-0.7-8.9-2.3c-2.8-1.8-4.9-5-4.9-9.6c0-4.1,1.8-7.2,4.4-9.2c2.6-1.9,6.1-3,9.6-3c2,0,4.4,0.3,6,0.8 c0.4,0.1,0.7,0.1,1,0.2C247.4,507.9,247.5,509.9,247.9,512.5z" class="st0"/><path d="M265.4,522.6c0,4.9-3.5,7.5-7.6,7.5c-4,0-7.3-2.5-7.3-7.1c0-4.7,3.6-7.6,7.6-7.6 C262,515.4,265.4,518.1,265.4,522.6z M258.2,528.7c2.4,0,3.1-2.9,3.1-5.5c0-2.9-1-6.4-3.6-6.4c-1.8,0-3.2,1.8-3.2,5.7 C254.5,525.7,255.7,528.7,258.2,528.7z" class="st0"/><path d="M268.6,510.6c0-2.3,0-2.5-0.9-3.1l-0.4-0.2c-0.2-0.1-0.2-0.7,0-0.8c1.4-0.4,3.2-1.1,4.6-1.7 c0.2,0,0.4,0.1,0.5,0.3c-0.1,1.4-0.1,3.5-0.1,5v15.4c0,2.6,0.1,3,1.3,3.1l0.8,0.1c0.2,0.2,0.2,0.9-0.1,1c-1.4-0.1-2.6-0.1-3.9-0.1 c-1.1,0-2.3,0-3.8,0.1c-0.3-0.1-0.3-0.8-0.1-1l0.7-0.1c1.2-0.2,1.3-0.6,1.3-3.1L268.6,510.6L268.6,510.6z" class="st0"/><path d="M278,510.6c0-2.3,0-2.5-0.9-3.1l-0.4-0.2c-0.2-0.1-0.2-0.7,0-0.8c1.4-0.4,3.2-1.1,4.6-1.7 c0.2,0,0.4,0.1,0.5,0.3c-0.1,1.4-0.1,3.5-0.1,5v15.4c0,2.6,0.1,3,1.3,3.1l0.8,0.1c0.2,0.2,0.2,0.9-0.1,1c-1.4-0.1-2.6-0.1-3.9-0.1 c-1.1,0-2.3,0-3.8,0.1c-0.3-0.1-0.3-0.8-0.1-1l0.7-0.1c1.2-0.2,1.3-0.6,1.3-3.1L278,510.6L278,510.6z" class="st0"/><path d="M288.8,521.4c-0.7,0-0.7,0-0.7,0.5c0,3.1,2.2,5.6,5.3,5.6c1.4,0,2.5-0.5,3.3-1.7c0.3-0.1,0.7,0.2,0.8,0.6 c-1.2,2.8-3.8,3.8-5.9,3.8c-4,0-6.7-3-6.7-7c0-3.9,2.7-7.7,7.3-7.7c2.6,0,5.2,1.7,5.2,4.7c0,0.3,0,0.5-0.2,0.8 c-0.2,0.3-1,0.5-2.4,0.5L288.8,521.4L288.8,521.4z M292,520c1,0,1.5-0.1,1.7-0.2c0.2-0.1,0.3-0.4,0.3-0.7c0-1.3-0.8-2.3-2.3-2.3 c-2.3,0-3.4,2.3-3.4,3c0,0.1,0.1,0.2,0.5,0.2H292z" class="st0"/><path d="M311.3,518.5c0.1,0.3,0.2,0.7,0.2,1.5c0,2.9-1.9,5.7-6.4,5.7c-0.4,0-0.9-0.1-1.3-0.1c-0.6,0.3-1.1,0.7-1.1,1.4 c0,0.7,0.5,1.4,1.9,1.4c1,0,2.3-0.1,3.8-0.1c2.5,0,5.7,0.4,5.7,4.2c0,1.8-1.3,3.5-2.2,4.2c-1.5,1.3-3.8,2.3-6.8,2.3 c-4.9,0-6.5-2.3-6.5-4.1c0-0.5,0.1-1,0.5-1.5c0.3-0.3,1.6-1.1,2.2-1.6c0.3-0.2,0.5-0.7,0.2-0.8c-1.2-0.4-2.3-1.5-2.3-2.9 c0-0.3,0.1-0.6,0.6-0.9c0.5-0.3,2.2-1.4,2.2-1.8c0-0.1,0-0.3-0.1-0.4c-1.2-0.5-2.6-1.9-2.6-4.1c0-3.1,2.6-5.5,6.4-5.5 c1.4,0,2.6,0.3,3.5,0.7c0.7,0.3,1.1,0.5,1.5,0.5h3.4c0.1,0.1,0.3,0.3,0.3,0.6c0,0.7-0.3,1.1-0.6,1.2L311.3,518.5L311.3,518.5z M305.5,531.3c-1.2,0-1.9,0.1-2.4,0.4c-0.6,0.5-1,1.1-1,1.9c0,2.1,1.9,3.5,4.6,3.5c3,0,4.6-1.2,4.6-3.2c0-1.8-1.6-2.6-3.8-2.6 H305.5z M305.8,524.4c1.3,0,2.3-1.1,2.3-3.6c0-2.4-1-4.1-2.6-4.1c-1.2,0-2.3,1.1-2.3,3.5C303.2,523,304.5,524.4,305.8,524.4z" class="st0"/><path d="M318.9,521.4c-0.7,0-0.7,0-0.7,0.5c0,3.1,2.2,5.6,5.3,5.6c1.4,0,2.5-0.5,3.3-1.7c0.3-0.1,0.7,0.2,0.8,0.6 c-1.2,2.8-3.8,3.8-5.9,3.8c-4,0-6.7-3-6.7-7c0-3.9,2.7-7.7,7.3-7.7c2.6,0,5.2,1.7,5.2,4.7c0,0.3,0,0.5-0.2,0.8 c-0.2,0.3-1,0.5-2.4,0.5L318.9,521.4L318.9,521.4z M322.1,520c1,0,1.5-0.1,1.7-0.2c0.2-0.1,0.3-0.4,0.3-0.7c0-1.3-0.8-2.3-2.3-2.3 c-2.3,0-3.4,2.3-3.4,3c0,0.1,0.1,0.2,0.5,0.2H322.1z" class="st0"/><path d="M342,517.8c2-1.8,3.7-2.3,5.3-2.3c3.1,0,4.3,2.1,4.3,4.7c0,2.2-1.1,5.3-3.4,7.6c-2,2-4,2.4-5.5,2.4 c-2.9,0-4.4-2-4.3-4.6C338.4,523,339.9,519.7,342,517.8z M345.4,526.8c1.3-1.8,2.9-6,2.9-8.2c0-0.9-0.1-1.9-1.1-1.9 c-0.6,0-1.4,0.4-2.3,1.5c-1.6,2.1-3.4,6.3-3.4,8.8c0,1,0.5,1.8,1.3,1.8C343.6,528.9,344.4,528.3,345.4,526.8z" class="st0"/><path d="M360.2,517.5c-1.2,3.5-2.7,9.8-3.8,13.2c-0.9,2.7-1.7,4.8-2.8,5.9c-0.8,0.8-2.6,2.4-4.9,2.4 c-1.9,0-3.2-1.1-3.2-2.3c0-0.9,1-1.8,1.7-1.8c0.5,0,0.8,0.2,1,0.7c0.7,1.2,1.5,1.9,2.1,1.9c0.5,0,1-0.6,1.7-3 c1.2-4.2,2.9-10.9,4.6-17.1h-3.1c-0.3-0.5-0.1-1.3,0.4-1.5h3.1c0.8-2.7,1.6-5.1,3-7.1c1.7-2.5,3.9-4,6.5-4c2,0,3.3,1.3,3.3,2.7 c0,1.1-1.1,2-1.9,2c-0.5,0-0.7-0.2-0.8-0.7c-0.3-2-1.1-2.8-1.9-2.8c-0.5,0-1.2,0.5-2.1,2.3c-1.1,2.3-1.9,4.9-2.7,7.7h4.1 c0.3,0.4,0.1,1.3-0.4,1.5L360.2,517.5L360.2,517.5z" class="st0"/><path d="M397.7,512.5c-0.2,0.3-0.9,0.3-1.1,0.1c-0.6-2.2-2.2-5.1-6.8-5.1c-4.4,0-8.9,3.1-8.9,10.3c0,7.4,4.6,11,9.1,11 c4.4,0,6.3-2.9,7.3-5.2c0.3-0.3,0.9-0.2,1,0.1c-0.2,2.3-1.2,4.6-1.7,5.3c-0.4,0.1-0.8,0.2-1.2,0.3c-0.8,0.2-3.2,0.8-5.4,0.8 c-3.4,0-6.4-0.7-8.9-2.3c-2.8-1.8-4.9-5-4.9-9.6c0-4.1,1.8-7.2,4.4-9.2c2.6-1.9,6.1-3,9.6-3c2,0,4.4,0.3,6,0.8 c0.4,0.1,0.7,0.1,1,0.2C397.3,507.9,397.3,509.9,397.7,512.5z" class="st0"/><path d="M410.9,525.2c-0.1,2,0.4,3.1,1.7,3.1c0.6,0,1.1-0.4,1.2-0.4c0.2,0,0.4,0.4,0.3,0.7c-0.7,1-2.4,1.5-3.5,1.5 c-0.9,0-1.8-0.2-2.5-1c-0.2-0.2-0.4-0.4-0.6-0.4c-0.2,0-0.4,0.2-0.9,0.5c-0.7,0.4-1.7,0.9-3,0.9c-2.4,0-3.5-1.6-3.5-3.4 c0-1.3,0.5-2.4,2.9-3.2c1.2-0.4,2.5-0.9,3.8-1.4c0.7-0.2,0.8-0.6,0.8-0.9l0-0.9c0.1-1.8-0.4-3.3-2.1-3.3c-1,0-1.7,0.5-1.8,1.5 c-0.1,0.7-0.3,1-0.7,1.3c-0.5,0.3-1.5,0.6-2.2,0.6c-0.5,0-0.7-0.2-0.7-0.6c0-0.4,0.2-1.1,1.4-2.2c1.1-1,3.6-2.2,5.4-2.2 c2.7,0,4.5,1.3,4.3,4.4L410.9,525.2z M407.5,524c0-0.4-0.1-0.6-0.3-0.6c-0.3,0-0.9,0.2-1.5,0.4c-1,0.3-1.9,0.8-1.9,2.3 c0,0.9,0.6,2,1.9,2c1.3,0,1.6-0.8,1.7-1.7L407.5,524z" class="st0"/><path d="M417.3,520.4c0-1.6,0-2-0.9-2.5l-0.4-0.2c-0.1-0.1-0.1-0.6,0-0.8c1.5-0.5,3.3-1.3,4.4-1.9 c0.2,0,0.4,0.1,0.5,0.3c0,0.7-0.1,1.3-0.1,1.6c0,0.2,0.1,0.4,0.3,0.4c1.1-0.8,2.2-1.8,3.4-1.8c1.2,0,1.9,0.8,1.9,1.7 c0,1.4-1,2-1.9,2c-0.3,0-0.7-0.1-0.9-0.3c-0.9-0.6-1.5-0.7-1.7-0.7c-0.8,0-1,0.8-1,2.5v4.8c0,2.6,0.1,3,1.4,3.1l1.4,0.1 c0.2,0.2,0.2,0.9-0.1,1c-2.1-0.1-3.3-0.1-4.6-0.1c-1.1,0-2.3,0-3.6,0.1c-0.3-0.1-0.3-0.8-0.1-1l0.6-0.1c1.2-0.2,1.3-0.6,1.3-3.1 L417.3,520.4L417.3,520.4z" class="st0"/><path d="M441.3,524c0,3.2,0.2,4.2,0.8,4.2c0.4,0,0.9-0.1,1.5-0.3c0.3,0.2,0.3,1,0,1.3c-1.8,0.2-4.2,0.8-5.5,1.3 c-0.2,0-0.3-0.2-0.4-0.4l0.1-0.5c0.1-0.5,0-0.8,0-1l-0.2,0c-1,0.8-2.3,1.6-4,1.6c-4,0-6.4-3.2-6.4-6.7c0-5,4-8,8.4-8 c0.9,0,1.6,0.1,2,0.2c0.1,0,0.2-0.2,0.2-0.6v-4.6c0-2.3-0.1-2.5-0.8-3l-0.5-0.3c-0.2-0.1-0.2-0.7,0-0.8c1.4-0.4,3.2-1.1,4.6-1.7 c0.2,0,0.4,0.1,0.5,0.3c-0.1,1.4-0.1,3.5-0.1,5L441.3,524L441.3,524z M437.6,519.7c0-0.7-0.1-1.2-0.5-1.7c-0.5-0.7-1.3-1.2-2.3-1.2 c-2.4,0-3.9,2.3-3.9,5.3c0,3.6,1.9,6,4.4,6c0.8,0,1.8-0.5,2.1-0.8c0.2-0.2,0.2-0.5,0.2-1L437.6,519.7L437.6,519.7z" class="st0"/><path d="M450.9,525.5c0,2.6,0.1,2.9,1.3,3.1l0.6,0.1c0.2,0.2,0.2,0.9-0.1,1c-1.3-0.1-2.5-0.1-3.8-0.1 c-1.1,0-2.3,0-3.7,0.1c-0.3-0.1-0.3-0.8-0.1-1l0.6-0.1c1.2-0.2,1.3-0.6,1.3-3.1v-5.1c0-1.6,0-2-0.9-2.5l-0.4-0.2 c-0.1-0.1-0.1-0.6,0-0.8c1.8-0.5,3.6-1.3,4.5-1.9c0.2,0,0.4,0.1,0.5,0.3c-0.1,1.1-0.1,2.8-0.1,4.2V525.5z M447,510.1 c0-1.2,0.9-2.1,2.1-2.1s2.1,0.9,2.1,2.1s-0.9,2.1-2.1,2.1S447,511.3,447,510.1z" class="st0"/><path d="M469,522.6c0,4.9-3.5,7.5-7.6,7.5c-4,0-7.3-2.5-7.3-7.1c0-4.7,3.5-7.6,7.6-7.6 C465.6,515.4,469,518.1,469,522.6z M461.8,528.7c2.4,0,3.1-2.9,3.1-5.5c0-2.9-1-6.4-3.6-6.4c-1.8,0-3.2,1.8-3.2,5.7 C458.1,525.7,459.3,528.7,461.8,528.7z" class="st0"/><path d="M472.2,510.6c0-2.3,0-2.5-0.9-3.1l-0.4-0.2c-0.2-0.1-0.2-0.7,0-0.8c1.4-0.4,3.2-1.1,4.6-1.7 c0.2,0,0.4,0.1,0.5,0.3c-0.1,1.4-0.1,3.5-0.1,5v15.4c0,2.6,0.1,3,1.3,3.1l0.8,0.1c0.2,0.2,0.2,0.9-0.1,1c-1.4-0.1-2.6-0.1-3.9-0.1 c-1.1,0-2.3,0-3.8,0.1c-0.3-0.1-0.3-0.8-0.1-1l0.7-0.1c1.2-0.2,1.3-0.6,1.3-3.1L472.2,510.6L472.2,510.6z" class="st0"/><path d="M493.9,522.6c0,4.9-3.5,7.5-7.6,7.5c-4,0-7.3-2.5-7.3-7.1c0-4.7,3.5-7.6,7.6-7.6 C490.5,515.4,493.9,518.1,493.9,522.6z M486.7,528.7c2.4,0,3.1-2.9,3.1-5.5c0-2.9-1-6.4-3.6-6.4c-1.8,0-3.2,1.8-3.2,5.7 C483.1,525.7,484.2,528.7,486.7,528.7z" class="st0"/><path d="M508.1,518.5c0.1,0.3,0.2,0.7,0.2,1.5c0,2.9-1.9,5.7-6.4,5.7c-0.4,0-0.9-0.1-1.3-0.1c-0.6,0.3-1.1,0.7-1.1,1.4 c0,0.7,0.5,1.4,1.9,1.4c1,0,2.3-0.1,3.8-0.1c2.5,0,5.7,0.4,5.7,4.2c0,1.8-1.3,3.5-2.2,4.2c-1.5,1.3-3.8,2.3-6.8,2.3 c-4.9,0-6.5-2.3-6.5-4.1c0-0.5,0.1-1,0.5-1.5c0.3-0.3,1.6-1.1,2.2-1.6c0.3-0.2,0.5-0.7,0.2-0.8c-1.2-0.4-2.3-1.5-2.3-2.9 c0-0.3,0.1-0.6,0.6-0.9c0.5-0.3,2.2-1.4,2.2-1.8c0-0.1,0-0.3-0.1-0.4c-1.2-0.5-2.6-1.9-2.6-4.1c0-3.1,2.6-5.5,6.4-5.5 c1.4,0,2.6,0.3,3.5,0.7c0.7,0.3,1.1,0.5,1.5,0.5h3.4c0.1,0.1,0.3,0.3,0.3,0.6c0,0.7-0.3,1.1-0.6,1.2L508.1,518.5L508.1,518.5z M502.2,531.3c-1.2,0-1.9,0.1-2.4,0.4c-0.6,0.5-1,1.1-1,1.9c0,2.1,1.9,3.5,4.6,3.5c3,0,4.6-1.2,4.6-3.2c0-1.8-1.6-2.6-3.8-2.6 H502.2z M502.5,524.4c1.3,0,2.3-1.1,2.3-3.6c0-2.4-1-4.1-2.6-4.1c-1.2,0-2.3,1.1-2.3,3.5C499.9,523,501.2,524.4,502.5,524.4z" class="st0"/><path d="M512.7,536.5c0-1.1,0.8-1.5,1.8-1.6l0.8,0c0.5,0,1.1-0.2,1.5-0.7c0.7-1,1.7-2.9,1.7-4.4c0-0.5-0.1-1.3-0.6-2.6 l-2.8-7.3c-0.8-2.2-1.1-2.7-2.4-3l-0.7-0.1c-0.3-0.3-0.3-0.9,0.1-1c1.1,0.1,2.6,0.1,3.9,0.1c1.2,0,2.5,0,3.7-0.1 c0.3,0.1,0.3,0.8,0.1,1l-1,0.2c-0.8,0.2-0.8,0.3-0.2,1.8l1.5,4c0.7,1.8,1.1,2.6,1.2,2.6c0.1,0,0.7-1.1,1.1-2.2l1-2.3 c0.8-1.9,1.3-3.2,1.3-3.4c0-0.3-0.1-0.5-0.7-0.6l-1.2-0.2c-0.2-0.3-0.2-0.8,0.1-1c1.3,0.1,2.5,0.1,3.3,0.1c0.9,0,1.8,0,2.8-0.1 c0.3,0.1,0.3,0.8,0.1,1c-0.4,0.1-1.5,0.3-2,0.8c-0.4,0.4-1,1.4-2.1,3.5l-1.8,3.5c-1.2,2.4-4.3,8.6-5.7,11.8 c-0.6,1.3-1.5,1.9-2.6,1.9C513.3,538.3,512.7,537.5,512.7,536.5z" class="st0"/></g><g><path d="M526.2,439.2c0.6,0,1.2,0.2,1.8,0.5c0.6,0.3,1,0.8,1.4,1.3c0.3,0.6,0.5,1.2,0.5,1.8c0,0.6-0.2,1.2-0.5,1.8 c-0.3,0.6-0.8,1-1.3,1.3c-0.6,0.3-1.2,0.5-1.8,0.5c-0.6,0-1.2-0.2-1.8-0.5c-0.6-0.3-1-0.8-1.3-1.3s-0.5-1.2-0.5-1.8 c0-0.6,0.2-1.2,0.5-1.8c0.3-0.6,0.8-1,1.4-1.3C525,439.4,525.6,439.2,526.2,439.2z M526.2,439.5c-0.6,0-1.1,0.1-1.6,0.4 c-0.5,0.3-0.9,0.7-1.2,1.2c-0.3,0.5-0.4,1.1-0.4,1.7c0,0.6,0.1,1.1,0.4,1.6c0.3,0.5,0.7,0.9,1.2,1.2s1.1,0.4,1.6,0.4 c0.6,0,1.1-0.1,1.6-0.4s0.9-0.7,1.2-1.2c0.3-0.5,0.4-1.1,0.4-1.6c0-0.6-0.1-1.1-0.4-1.7c-0.3-0.5-0.7-0.9-1.2-1.2 C527.3,439.7,526.8,439.5,526.2,439.5z M524.2,440.6h2c0.5,0,0.9,0.1,1.1,0.3c0.3,0.2,0.4,0.5,0.4,0.8c0,0.3-0.1,0.5-0.3,0.7 c-0.2,0.2-0.5,0.3-0.9,0.5l1.1,1.5c0.1,0.2,0.2,0.3,0.3,0.4c0.1,0,0.2,0.1,0.3,0.1v0.2h-0.9l-1.5-2.1h-0.4v1.6 c0,0.1,0.1,0.2,0.1,0.2s0.2,0.1,0.5,0.1v0.2h-1.9v-0.2c0.2,0,0.3,0,0.4-0.1c0.1,0,0.1-0.1,0.2-0.2c0,0,0-0.2,0-0.4v-2.7 c0-0.3,0-0.4,0-0.4c0-0.1-0.1-0.1-0.1-0.2s-0.2-0.1-0.3-0.1L524.2,440.6L524.2,440.6z M525.4,442.7h0.2c0.5,0,0.8-0.1,1-0.3 c0.2-0.2,0.3-0.4,0.3-0.7c0-0.3-0.1-0.5-0.3-0.7c-0.2-0.2-0.4-0.3-0.7-0.3c-0.1,0-0.3,0-0.4,0.1V442.7z" class="st0"/></g><rect width="447.7" height="1.4" x="83" y="495.7" class="st0"/></svg>