<?xml version="1.0" encoding="utf-8"?>
<!-- Generator: Adobe Illustrator 24.0.2, SVG Export Plug-In . SVG Version: 6.00 Build 0)  -->
<svg version="1.1" id="Layer_1" xmlns="http://www.w3.org/2000/svg" xmlns:xlink="http://www.w3.org/1999/xlink" x="0px" y="0px"
	 width="200px" height="200px" viewBox="0 0 200 200" style="enable-background:new 0 0 200 200;" xml:space="preserve">
<style type="text/css">
	.st0{fill:#FFFFFF;}
</style>
<g>
	<path class="st0" d="M125.8,169.9c-1.5,0.8-1.5,0.7-6.7-2.8c-8.4-5.7-30.7-20.8-40.7-23.5c-14.9-4.1-30.1-8.3-43-22.9
		c-21.2-24.2-24.2-59.8-7.2-84.7c2.2-3.3,4.8-6.3,7.7-9.1C60.7,3,100.7,6.2,125.1,34c12.1,13.8,15,29.2,17.7,44l0.5,2.7
		c3.6,19.3,16.1,39.4,20.2,46c1.6,2.5,2.2,3.6,1.2,5.4C149.6,157.3,149,157.9,125.8,169.9z M124.8,163.9
		c16.4-7.3,16.5-5.9,34.6-33.1c-0.1-0.1-0.5-0.7-0.6-0.8c-4.2-6.8-17.2-27.6-21-48l-0.5-2.7C134.7,65.2,132,50.6,121,38
		C98.6,12.6,62.2,9.5,39.7,31.1c-2.6,2.5-4.9,5.2-6.9,8.2c-15.5,22.6-12.7,55.1,6.8,77.3c11.7,13.4,26.2,17.4,40.2,21.2
		c11,3,33,17.9,42.4,24.3C123.2,162.7,124.1,163.4,124.8,163.9z"/>
	<path class="st0" d="M102.1,115c-1.9-0.3-3.7-0.7-5.6-1.2l0,0c-7.6-0.6-32.8-5.1-36.6-9.1l0,0c-5-5.2-7.5-11.7-7-17.7l0,0
		c0.4-5.3,2.3-9.3,4.9-12l0,0c1.8-1.9,3.9-3.2,5.9-4.1l0,0c3.1-1.3,6.2-1.8,8.6-1.9l0,0c0.5,0,1,0,1.4,0l0,0c0-1.2,0.1-2.6,0.3-4.2
		l0,0c0.3-2,0.7-4.1,1.6-6.3l0,0c0.8-2.2,2.1-4.4,3.9-6.2l0,0c2.6-2.7,6.4-4.8,11.5-5.2l0,0c5.7-0.5,12,2.1,16.9,7.3l0,0
		c3.8,4,6.9,9.4,8.5,16.2l0,0c2.6,10.6,0.9,24,0.9,31.8c0.1,21.8,22.9,43.2,22.9,43.2s-4.3,4-4.4,3.9c-27.8-34.3-24.1-35.8-24.2-45
		c0,0,2.1-23.6-0.2-33l0,0c-1.4-5.8-4-10.2-6.9-13.3l0,0c-3.9-4.1-8.6-5.9-12.5-5.5l0,0c-4.1,0.4-6.7,1.9-8.6,3.8l0,0
		c-1.3,1.3-2.2,3-2.9,4.7l0,0c-1,2.6-1.4,5.3-1.5,7.4l0,0c-0.1,1,0,1.9,0,2.5l0,0c0,0.3,0,0.5,0,0.7l0,0c0,0.1,0,0.1,0,0.2l0,0
		c0,0,0,0,0,0l0,0l0,0c0,0,0,0,0,0l0,0c0.1,0.8-0.1,1.5-0.7,2l0,0l0,0c-0.5,0.5-1.2,0.8-1.9,0.7l0,0l0,0c-0.1,0-2.6-0.2-5.5,0.2l0,0
		c-1.5,0.2-3.2,0.7-4.8,1.4l0,0c-1.6,0.7-3.1,1.7-4.4,3l0,0c-1.9,2-3.3,4.7-3.6,9l0,0c-0.3,4.1,1.4,9,5.3,13.1l0,0
		c3,3.1,28.3,6,33.9,7.4l0,0c1.6,0.4,3.3,0.8,4.9,1.1c0.1,0,0.2,0,0.3,0.1L102.1,115z"/>
	<path class="st0" d="M146.9,149c0,0-6.3,7.5-7,6.6c-29.2-35.4-28.9-39.9-29.7-51.4l0-0.2c0-0.2,2-23.4-0.2-32.6
		c-1.2-5.1-3.5-9.5-6.6-12.7c-3.4-3.5-7.7-5.5-11.5-5.1c-3.3,0.3-5.8,1.4-7.8,3.4c-1.1,1.1-1.9,2.5-2.6,4.2c-1,2.5-1.3,5.2-1.4,6.9
		c-0.1,1-0.1,1.9,0,2.4c0,0.3,0,0.5,0,0.6l0,0.2c0.1,1.2-0.3,2.3-1,3.2c-0.8,0.9-1.9,1.3-3.1,1.1c0,0-2.3-0.2-5.2,0.2
		c-1.6,0.3-3.2,0.7-4.5,1.3c-1.6,0.7-2.9,1.6-3.9,2.7c-1.9,2.1-2.8,4.9-3.2,8.2c-0.5,4,0.3,10,5.7,11.9c4.2,1.5,15.3,4.1,22.6,5.3
		c4.4,0.7,16.3,3.1,16.3,3.1l-0.6,8.1c0,0-37.9-6.8-43.4-9.8c-6.5-3.6-10.5-11-9.6-18.1c0.8-6.2,3.4-11.5,6.4-14.7
		c1.8-1.9,3.9-3.4,6.4-4.4c2.7-1.2,5.7-1.9,9-2c0.1,0,0.1,0,0.2,0c0-1,0.1-2,0.3-3c0.3-2.4,0.9-4.6,1.7-6.6
		c2.8-7.3,8.7-11.7,16.5-12.3c6.2-0.6,12.8,2.2,18,7.7c4.2,4.4,7.2,10.2,8.8,16.8c2,8.1,1.5,17.6,1.2,25.2c-0.1,2.6-0.5,5-0.2,7
		C121.8,127.1,146.9,149,146.9,149z"/>
	<path class="st0" d="M165.1,154c-7.7,11.3-19.5,22.1-32.9,24.3c-2,0.3-3.8-1.1-4.1-3.2c-0.3-2.1,1.1-4,3.1-4.3
		c15.1-2.4,30-19.9,35.2-34.7c0.7-2,2.8-3,4.6-2.3c1.9,0.7,2.8,2.8,2.1,4.8C171.5,143.2,168.8,148.7,165.1,154z"/>
	<path class="st0" d="M172.1,163.1c-7.2,10.5-18.2,20.6-30.7,22.6c-2,0.3-3.8-1.1-4.1-3.2c-0.3-2.1,1.1-4,3.1-4.3
		c13.9-2.2,27.7-18.3,32.4-32c0.7-2,2.8-3,4.6-2.3c1.9,0.7,2.8,2.8,2.1,4.8C178.1,153.2,175.5,158.2,172.1,163.1z"/>
	<path class="st0" d="M178.8,172.5c-6.4,9.4-16.2,18.4-27.4,20.2c-2,0.3-3.8-1.1-4.1-3.2c-0.3-2.1,1.1-4,3.1-4.3
		c12.1-2,24.1-16,28.3-27.9c0.7-2,2.8-3,4.6-2.3c1.9,0.7,2.8,2.8,2.1,4.8C184.1,163.7,181.9,168.1,178.8,172.5z"/>
	<path class="st0" d="M180.4,170.1c3.4,3.8,2.2,10.9-2.8,15.7c-4.9,4.8-11.7,5.6-15.1,1.7C159.1,183.7,176.9,166.3,180.4,170.1z"/>
</g>
</svg>
