<svg xmlns="http://www.w3.org/2000/svg" xmlns:xlink="http://www.w3.org/1999/xlink" id="Layer_1" width="100" height="100" x="0" style="enable-background:new 0 0 100 100" y="0" version="1.1" viewBox="0 0 100 100" xml:space="preserve"><style type="text/css">.st0{fill:#fff}</style><g><path d="M49.5,72.8c-0.7,0.1-0.7,0.1-2.4-1.8c-2.7-3.1-9.9-11.2-13.7-13.4c-5.7-3.3-11.5-6.6-14.7-13.4 c-5.3-11.2-1.2-24.3,9.8-31.1c1.4-0.9,3-1.7,4.6-2.3c14.1-5.5,30.6,0.5,36.7,13.5c3,6.4,1.9,12.3,0.8,17.9l-0.2,1 C69,50.5,71.3,59.2,72,62c0.3,1.1,0.4,1.6-0.3,2.1C61.5,71.2,61.1,71.4,49.5,72.8z M50,70.6C58,70,57.9,70.5,69.6,63 c0-0.1-0.1-0.3-0.1-0.4c-0.8-3-3.1-12-1.6-19.7l0.2-1c1-5.3,2.1-10.9-0.7-16.7C61.8,13.3,46.8,7.8,34,12.8 c-1.5,0.6-2.9,1.3-4.2,2.1C19.9,21,16.1,33,21,43.3c2.9,6.2,8.5,9.4,13.8,12.5c4.2,2.4,11.3,10.4,14.3,13.9 C49.4,70,49.7,70.3,50,70.6z" class="st0"/><path d="M56.5,73.5c-1.8,0.3-4,0.6-6.8,1l0,0c-1.6,0.2-2.1-0.3-3.8-2.3c-2.5-2.8-9.7-11-13.3-13.1 c-5.9-3.4-11.9-6.9-15.4-14.1c-5.7-12-1.3-25.9,10.4-33.2c1.5-1,3.2-1.8,4.9-2.4c14.9-5.8,32.3,0.6,38.8,14.3 c3.3,6.9,2,13.3,1,18.9l-0.2,1c-1.3,7,0.9,15.4,1.6,18.2c0.3,1.1,0.7,2.6-1,3.8C64.7,71,62.4,72.5,56.5,73.5z M50.7,68.9l0.8-0.1 c6.1-0.4,6.7-0.5,16.2-6.6c-0.9-3.6-2.9-12.1-1.5-19.7l0.2-1c1-5.3,2-10.4-0.6-15.7C60.6,14.8,46.6,9.6,34.6,14.3 c-1.4,0.5-2.7,1.2-3.9,1.9C21.5,21.9,18,33,22.5,42.6c2.7,5.8,8,8.8,13.2,11.8c3.9,2.2,9.6,8.4,14.7,14.2 C50.5,68.7,50.6,68.8,50.7,68.9z" class="st0"/></g><g><path d="M47.8,50.3c-0.7-0.3-1.5-0.7-2.2-1.1l0,0c-3.1-1.1-13.1-5.8-14.1-7.7l0,0c-1.3-2.5-1.4-5.1-0.3-7.2l0,0 c1-1.9,2.4-3,3.9-3.7l0,0c1-0.4,2.1-0.7,3.1-0.7l0,0c1.5-0.1,2.9,0.1,3.9,0.4l0,0c0.2,0.1,0.4,0.1,0.6,0.2l0,0 c0.2-0.4,0.4-0.9,0.8-1.5l0,0c0.4-0.7,0.9-1.4,1.6-2.1l0,0c0.7-0.7,1.5-1.3,2.6-1.8l0,0c1.5-0.7,3.4-0.9,5.6-0.5l0,0 c2.5,0.5,4.7,2.2,6.1,4.7l0,0c1,1.9,1.5,4.2,1.1,6.8l0,0c-0.5,4.1-3.3,8.7-4.4,11.5c-3.3,7.8,3.1,18.2,3.1,18.2s-2.4,0.9-2.4,0.9 c-6.6-15.7-4.8-15.7-3.4-19c0,0,4.4-8.2,4.9-11.8l0,0c0.3-2.3-0.1-4.1-0.9-5.6l0,0c-1-1.9-2.7-3.1-4.5-3.5l0,0 c-1.8-0.4-3.1-0.2-4.2,0.3l0,0c-0.8,0.3-1.4,0.8-1.9,1.3l0,0c-0.8,0.8-1.4,1.7-1.7,2.5l0,0c-0.2,0.4-0.3,0.7-0.4,0.9l0,0 c0,0.1-0.1,0.2-0.1,0.2l0,0c0,0,0,0,0,0.1l0,0c0,0,0,0,0,0l0,0l0,0c0,0,0,0,0,0l0,0c-0.1,0.3-0.3,0.5-0.6,0.6l0,0l0,0 c-0.3,0.1-0.6,0.1-0.9,0l0,0l0,0c-0.1,0-1-0.4-2.4-0.6l0,0c-0.7-0.1-1.5-0.2-2.2-0.1l0,0c-0.8,0.1-1.6,0.2-2.3,0.5l0,0 C35,33,34,33.8,33.2,35.3l0,0c-0.8,1.4-0.8,3.4,0.3,5.3l0,0c0.8,1.5,11.1,5.6,13.2,6.8l0,0c0.6,0.4,1.3,0.7,1.9,1 c0,0,0.1,0,0.1,0.1L47.8,50.3z" class="st0"/><path d="M57,67.7c-0.7,0.1-0.9-0.1-1.1-0.7c-5.8-13.7-5.3-15.8-3.9-18.9c0.1-0.3,0.3-0.6,0.4-1l0.1-0.1 c0-0.1,4.3-8,4.8-11.5c0.2-1.9,0-3.6-0.8-5c-0.8-1.5-2.2-2.6-3.7-2.9c-1.4-0.3-2.5-0.2-3.5,0.3c-0.6,0.2-1.1,0.6-1.6,1.1 c-0.8,0.8-1.3,1.7-1.5,2.2c-0.2,0.3-0.3,0.6-0.4,0.8l-0.2,0.5c-0.2,0.5-0.6,0.9-1.1,1.1c-0.6,0.3-1.2,0.3-1.8,0 c-0.2-0.1-1-0.4-2.1-0.5c-0.7-0.1-1.4-0.1-2-0.1c-0.7,0-1.4,0.2-1.9,0.4c-1,0.4-1.8,1.2-2.4,2.3c-0.6,1.2-0.5,2.8,0.3,4.3 c0.6,0.8,6.2,3.3,8.8,4.5c1.8,0.8,3.3,1.5,4,1.9c0.5,0.3,1.1,0.6,1.9,1l1,0.5l-0.4,1l-1.5,2.8l-1-0.5c-0.7-0.3-1.5-0.7-2.2-1.1 C43,49.4,31.8,44.5,30.4,42c-1.5-2.8-1.6-5.7-0.3-8.2c1-1.9,2.6-3.4,4.5-4.2c1.1-0.5,2.3-0.7,3.5-0.8c1.3-0.1,2.6,0,4,0.3 c0.1-0.2,0.3-0.5,0.4-0.7c0.5-0.9,1.1-1.6,1.8-2.3c0.9-0.9,1.9-1.5,2.9-2c1.9-0.8,4.1-1,6.3-0.5c2.9,0.6,5.4,2.5,6.8,5.2 c1.2,2.2,1.6,4.8,1.3,7.5c-0.4,3.2-2,6.6-3.4,9.3c-0.4,0.9-0.8,1.7-1.1,2.4c-3,7.2,3,17.2,3.1,17.2l0.7,1.1l-1.2,0.5 C58.3,67.3,57.5,67.7,57,67.7z M54.4,48.1c-0.2,0.4-0.3,0.7-0.5,1c-1,2.2-1.7,3.6,3.5,16.2c0.1,0,0.1,0,0.2-0.1 c-1.6-3-5.4-11.3-2.6-18.1c0.3-0.7,0.7-1.6,1.2-2.5c1.2-2.6,2.8-5.8,3.2-8.7c0.2-1.7,0.1-3.3-0.4-4.8c0.5,1.4,0.6,3.1,0.4,4.7 C58.9,39.6,54.8,47.3,54.4,48.1z M39.1,45.1c2.2,1.1,4.5,2.2,6.2,2.8c-0.8-0.4-1.8-0.8-3-1.4C41.1,46,40,45.6,39.1,45.1z M35.2,31.7c-1.3,0.6-2.4,1.7-3.1,3.1c-0.8,1.5-0.8,3.2-0.2,5c-0.6-1.7-0.5-3.5,0.3-5C32.9,33.4,33.9,32.4,35.2,31.7z M43.4,31.6 L43.4,31.6l0.2-0.3c0.1-0.3,0.2-0.6,0.4-1c0.4-0.7,1-1.8,2-2.8c0.5-0.5,1.1-1,1.8-1.3c-0.7,0.3-1.3,0.8-1.9,1.4 c-0.5,0.5-1,1.2-1.5,1.9c-0.3,0.4-0.5,0.9-0.7,1.3L43.4,31.6C43.4,31.7,43.4,31.7,43.4,31.6L43.4,31.6z" class="st0"/></g><g><path d="M61.6,68c0,0-3.8,1.9-4,1.5c-7-16.2-6.2-17.8-4.8-22l0-0.1c0-0.1,4.4-8.1,4.8-11.7c0.2-2-0.1-3.8-0.9-5.3 c-0.9-1.7-2.4-2.9-4.1-3.2c-1.5-0.3-2.7-0.2-3.8,0.3c-0.6,0.3-1.2,0.7-1.7,1.2c-0.8,0.8-1.3,1.7-1.6,2.3c-0.2,0.4-0.3,0.7-0.4,0.9 c0,0.1-0.1,0.2-0.1,0.2l0,0.1c-0.1,0.4-0.5,0.8-0.9,1c-0.5,0.2-1,0.2-1.5,0c0,0-1-0.4-2.2-0.6c-0.7-0.1-1.4-0.1-2.1-0.1 c-0.8,0.1-1.5,0.2-2.1,0.5c-1.1,0.5-1.9,1.4-2.6,2.5c-0.8,1.4-1.4,3.6,0.6,5c1.5,1.1,5.9,3.3,8.8,4.7c1.7,0.8,6.4,3.1,6.4,3.1 L48,51.1c0,0-15-7.1-16.9-8.8c-2.2-2.1-2.8-5.2-1.3-7.6c1.3-2.1,3.2-3.7,4.9-4.5c1-0.5,2.2-0.7,3.4-0.8c1.3-0.1,2.7,0,4.1,0.4 c0,0,0.1,0,0.1,0c0.2-0.4,0.4-0.7,0.6-1.1c0.5-0.8,1.1-1.5,1.7-2.2c2.3-2.3,5.5-3.1,8.8-2.4c2.7,0.6,5.1,2.4,6.5,4.9 c1.1,2.1,1.5,4.5,1.2,7.1c-0.4,3.1-2,6.5-3.3,9.1c-0.4,0.9-1,1.7-1.1,2.5C54.2,57.1,61.6,68,61.6,68z" class="st0"/><path d="M58,69.9c-0.3,0-0.4,0-0.4,0l-0.2-0.1l-0.1-0.2c-6.9-16-6.3-17.9-4.9-22.1l0.1-0.3c0.5-0.9,4.4-8.2,4.8-11.5 c0.2-1.9,0-3.7-0.8-5.1c-0.8-1.6-2.3-2.7-3.8-3c-1.4-0.3-2.5-0.2-3.5,0.3c-0.6,0.3-1.1,0.6-1.6,1.1c-0.8,0.7-1.3,1.6-1.6,2.2 c-0.2,0.3-0.3,0.6-0.4,0.8c0,0.1-0.1,0.1-0.1,0.2c-0.2,0.6-0.6,1.1-1.2,1.3c-0.6,0.3-1.2,0.3-1.8,0c0,0-0.9-0.4-2.1-0.5 c-0.7-0.1-1.4-0.1-2-0.1c-0.7,0.1-1.4,0.2-1.9,0.4c-0.9,0.4-1.7,1.2-2.4,2.4c-0.3,0.5-1.6,3,0.5,4.4c1.5,1,5.8,3.3,8.7,4.6 c1.7,0.8,6.4,3.1,6.5,3.1l0.4,0.2l-1.8,3.5l-0.4-0.2c-0.6-0.3-15.1-7.1-17-8.9c-2.4-2.2-2.9-5.5-1.4-8.1c1.2-2,3.1-3.8,5.1-4.6 c1.1-0.5,2.3-0.8,3.5-0.8c1.3-0.1,2.6,0,4,0.3c0.1-0.3,0.3-0.5,0.4-0.8c0.5-0.9,1.1-1.6,1.8-2.3c2.4-2.4,5.7-3.2,9.2-2.5 c2.8,0.6,5.3,2.5,6.7,5.1c1.1,2.1,1.6,4.7,1.2,7.3c-0.4,3.2-2,6.6-3.3,9.3c-0.1,0.3-0.3,0.5-0.4,0.8c-0.3,0.6-0.6,1.1-0.7,1.6 c-2.4,9,4.8,19.8,4.8,19.9l0.3,0.4l-0.4,0.2C59.5,69.5,58.4,69.8,58,69.9z M58,69.3C58,69.3,58,69.3,58,69.3 C58,69.3,58,69.3,58,69.3z M50.1,26.7c0.8-0.1,1.7-0.1,2.7,0.1c1.8,0.4,3.4,1.6,4.4,3.4c0.9,1.6,1.2,3.5,0.9,5.6 c-0.4,3.4-4.4,10.9-4.9,11.8l-0.1,0.2c-1.3,3.9-1.9,5.7,4.8,21.3c0.5-0.1,1.8-0.7,3.1-1.3c-1.3-2-6.9-11.6-4.7-20.1 c0.1-0.6,0.5-1.1,0.8-1.7c0.1-0.3,0.3-0.5,0.4-0.8c1.3-2.7,2.9-6,3.3-9c0.3-2.5-0.1-4.9-1.2-6.8c-1.3-2.5-3.6-4.2-6.2-4.7 c-3.3-0.7-6.3,0.1-8.5,2.3c-0.6,0.6-1.2,1.3-1.6,2.1c-0.2,0.3-0.4,0.7-0.5,1l-0.1,0.3l-0.3-0.1c-1.5-0.3-2.8-0.5-4.1-0.4 c-1.2,0.1-2.3,0.3-3.2,0.8c-1.9,0.8-3.6,2.4-4.7,4.3c-1.3,2.3-0.8,5.2,1.3,7.1c1.4,1.3,11.1,6.1,16.4,8.5l1.1-2.1 c-1.1-0.6-4.6-2.3-6.1-2.9c-3-1.3-7.3-3.6-8.8-4.7c-2.1-1.4-1.7-3.9-0.7-5.5c0.8-1.3,1.7-2.2,2.8-2.7c0.7-0.3,1.4-0.5,2.2-0.5 c0.7,0,1.4,0,2.2,0.1c1.3,0.2,2.3,0.6,2.3,0.6c0.4,0.1,0.8,0.1,1.1,0c0.3-0.1,0.6-0.4,0.7-0.7c0-0.1,0.1-0.2,0.1-0.3 c0.1-0.2,0.2-0.5,0.4-0.9c0.3-0.6,0.9-1.6,1.7-2.4c0.6-0.6,1.2-1,1.9-1.3C49.2,26.9,49.6,26.8,50.1,26.7z" class="st0"/></g><g><path d="M70.5,74.1c-5.5,3.4-12.7,6.1-19.4,5.1c-1-0.1-1.6-0.9-1.4-1.8c0.2-0.8,1.2-1.4,2.1-1.3 c7.4,1.1,17.3-3.8,22.2-8.9c0.6-0.7,1.8-0.8,2.5-0.3c0.8,0.5,0.8,1.5,0.2,2.2C75.3,70.8,73.1,72.5,70.5,74.1z" class="st0"/><path d="M58.3,80.2c-2.6,0.5-5.1,0.5-7.4,0.2c-0.8-0.1-1.6-0.6-2-1.2c-0.4-0.6-0.5-1.3-0.4-2c0.4-1.5,1.9-2.4,3.5-2.2 c7,1,16.4-3.6,21.1-8.5c1.1-1.1,2.9-1.3,4.1-0.5c0.6,0.4,1,1.1,1.1,1.9c0.1,0.8-0.2,1.5-0.8,2.1c-1.7,1.8-4,3.6-6.5,5.2l0,0 C67,77.7,62.5,79.5,58.3,80.2z M51.5,77.4c-0.3,0-0.5,0.2-0.5,0.4c0,0,0,0.1,0,0.2c0.1,0.1,0.2,0.2,0.3,0.2 c7.7,1.1,15.5-3.1,18.5-4.9l0,0c2.4-1.5,4.5-3.2,6-4.8c0.1-0.1,0.1-0.2,0.1-0.2c0-0.1,0-0.1-0.1-0.2c-0.3-0.2-0.7-0.1-0.9,0.1 c-5.1,5.3-15.4,10.4-23.2,9.3C51.7,77.3,51.6,77.3,51.5,77.4z" class="st0"/></g><g><path d="M73.6,80.3c-5.1,3.2-11.9,5.7-18.1,4.8c-1-0.1-1.6-0.9-1.4-1.8c0.2-0.8,1.2-1.4,2.1-1.3 c6.9,1,15.9-3.5,20.4-8.2c0.6-0.7,1.8-0.8,2.5-0.3c0.8,0.5,0.8,1.5,0.2,2.2C78.1,77.2,76,78.8,73.6,80.3z" class="st0"/><path d="M62.3,86.1c-2.4,0.4-4.7,0.5-6.9,0.2c-0.8-0.1-1.6-0.6-2-1.2c-0.4-0.6-0.5-1.3-0.4-2c0.4-1.5,1.9-2.4,3.5-2.2 c6.5,0.9,15.1-3.3,19.3-7.8c1.1-1.1,2.9-1.3,4.1-0.4c0.6,0.4,1,1.1,1.1,1.9c0.1,0.8-0.2,1.5-0.8,2.1c-1.5,1.6-3.7,3.3-6.1,4.8h0 C70.3,83.8,66.2,85.4,62.3,86.1z M55.9,83.2c-0.3,0-0.5,0.2-0.5,0.4c0,0.1,0,0.1,0,0.2c0.1,0.1,0.2,0.2,0.3,0.2 c7.2,1,14.4-2.9,17.2-4.6h0c2.2-1.4,4.2-2.9,5.6-4.4c0.1-0.1,0.1-0.2,0.1-0.2c0-0.1,0-0.1-0.1-0.2c-0.3-0.2-0.7-0.1-0.9,0.1 c-4.7,4.9-14.3,9.6-21.5,8.6C56,83.2,56,83.2,55.9,83.2z" class="st0"/></g><g><path d="M76.5,87C72,89.8,66,92,60.4,91.2c-1-0.1-1.6-0.9-1.4-1.8c0.2-0.8,1.2-1.4,2.1-1.3c6,0.9,13.9-3.1,17.8-7.2 c0.6-0.7,1.8-0.8,2.5-0.3c0.8,0.5,0.8,1.5,0.2,2.2C80.5,84.2,78.7,85.6,76.5,87z" class="st0"/><path d="M66.4,92.2c-2.2,0.4-4.3,0.4-6.2,0.2c-0.8-0.1-1.6-0.6-2-1.2c-0.4-0.6-0.5-1.3-0.4-2c0.4-1.5,1.9-2.4,3.5-2.2 c5.4,0.8,13-2.9,16.7-6.8c1.1-1.1,2.9-1.3,4.1-0.5c0.6,0.4,1,1.1,1.1,1.9c0.1,0.8-0.2,1.5-0.8,2.1c-1.4,1.5-3.3,3-5.4,4.3h0 C73.7,90.2,70,91.6,66.4,92.2z M60.8,89.3c-0.3,0-0.5,0.2-0.5,0.4c0,0.1,0,0.1,0,0.2c0.1,0.1,0.2,0.2,0.3,0.2 c6.4,0.9,12.8-2.5,15.3-4.1c2-1.2,3.7-2.6,5-3.9c0.1-0.1,0.1-0.2,0.1-0.2c0-0.1,0-0.1-0.1-0.2c-0.3-0.2-0.7-0.1-0.9,0.1 c-4.1,4.3-12.5,8.5-18.9,7.6C60.9,89.3,60.8,89.3,60.8,89.3z" class="st0"/></g><g><path d="M77.7,86.2c0.9,2-0.8,4.6-3.9,5.8c-3.1,1.2-6.4,0.6-7.3-1.3C65.5,88.7,76.7,84.2,77.7,86.2z" class="st0"/><path d="M72.1,93.7c-3,0.5-5.8-0.4-6.8-2.5c-0.7-1.5,0.7-3.1,4.2-4.7c0.8-0.4,7.9-3.6,9.2-0.7l0,0c0.5,1,0.5,2.2,0,3.3 c-0.7,1.7-2.4,3.2-4.6,4.1C73.5,93.4,72.8,93.6,72.1,93.7z M67.7,90.4c0.8,1,3.1,1.5,5.6,0.5c1.5-0.6,2.8-1.7,3.2-2.8 c0.2-0.4,0.2-0.9,0.1-1.2C75,86.6,68.7,89,67.7,90.4z" class="st0"/></g></svg>