<svg xmlns="http://www.w3.org/2000/svg" id="Layer_1" x="0" y="0" version="1.1" viewBox="0 0 51.84 51.84" xml:space="preserve" style="enable-background:new 0 0 51.84 51.84"><style>.st0{fill:none}.st1{fill:#fff}.st2{fill:#1c3a69}</style><path d="M34.36 23.38c-.03-.04-.05-.09-.08-.13-.11-.14-.23-.26-.38-.36-.11-.08-.24-.13-.37-.18-.36-.14-.77-.18-1.18-.19h-.02c-.2 0-.4 0-.6.01h-.02l-.54.03c-.09.01-.16.03-.22.07-.4.23-.33.97.22.93.61-.04 1.73-.22 2.23.2.37.32.5.93.78 1.33.37.52 1.23.02.86-.5-.19-.28-.33-.6-.5-.9-.04-.11-.11-.21-.18-.31zM31.86 18.02c.28.11.56.23.84.34.59.25.85-.72.27-.96-1.76-.74-3.48-1.41-5.42-1.51-.64-.03-.64.97 0 1 .05 0 .09.01.14.02 1.46.09 2.87.47 4.17 1.11z" class="st0"/><path d="M26.22 1.21C12.5 1.21 1.37 12.33 1.37 26.05s11.12 24.84 24.84 24.84 24.84-11.12 24.84-24.84S39.93 1.21 26.22 1.21zm0 48.83c-13.25 0-23.99-10.74-23.99-23.99 0-13.25 10.74-23.99 23.99-23.99 13.25 0 23.99 10.74 23.99 23.99 0 13.25-10.74 23.99-23.99 23.99z" class="st1"/><path d="M26.75 14.29c-.21.08-.36 1.1-.32 1.3.54-.09 2.13-.3 2.67-.32.06-.37.12-.8.18-1.27-.29 0-.5.07-.87.07-.19.01-1.45.2-1.66.22zM21.78 11.64l.43-.4c-.02-.09 1.3-1.46 1.36-1.54-.02-.02 1-1.7 1.06-1.83.03-.17.03-.28.03-.36-1.21.1-2.38.32-3.51.64-.05.57-.15 1.65-.22 2.27.01.02.01.03-.01.04-.07.63-.39 1.94-.57 2.68.49-.55 1.24-1.33 1.43-1.5zM26.92 17.28c-.1 0-.2-.01-.31-.01.07.06.14.1.2.1.07-.01.09-.05.11-.09zM26.32 9.3c.04.22.07.44.09.69.02.15.04.29.04.45h.02c.02.19.03.37.03.57h-.02c0 .41-.01.9-.04 1.37.01 0 .02-.01.02-.01.42-.19.98-.18 1.71.02.24.07.51.1.79.09.16 0 .32.01.48.03a57 57 0 0 0 .21-3.74c0-.35-.03-.69-.08-1.01-1.09-.2-2.21-.32-3.35-.32-.21 0-.41.02-.61.03.03.03.06.05.08.08.28.4.49.99.63 1.75zM17.85 42.01c.01-.11.05-5.17-.38-5.11-.17.03-.55-.33-.89-.68l-.07-.07c-.02-.02-.03-.04-.05-.05l-.01-.01c-.06-.06-.11-.12-.17-.17-.15-.12-.38-.17-.51.36-.1.4-.18.75-.23 1.02.02.02.05.04.07.05.08.05 0 .13-.1.13-.04.21-.07.34-.07.34v1.39l-.16.76c0 .01 0 .02-.01.02l-.16.77-.04.16c.88.66 1.82 1.25 2.82 1.75-.03-.22-.06-.44-.04-.66z" class="st1"/><path d="M19.43 18.61c.69-.59 1.86-1.42 2.2-1.54-.13-.07-.17-.19.07-.35 1.41-.93 2.74-2.26 4.35-2.84 1.26-.45 2.85-.57 4.19-.65-.08-.05-.16-.11-.25-.15l-.57-.16c-.15-.02-.3-.03-.46-.03-.12 0-.23-.01-.34-.01a.481.481 0 0 0-.24-.07h-.01c-.04 0-.06.01-.09.02-.07-.01-.15-.02-.22-.04-.63-.17-1.11-.19-1.43-.05h-.01c-.17.07-.38.17-.59.05-.22-.12-.69-.04-1.03.16-.14.09-.31.09-.43-.01a.338.338 0 0 1-.13-.22c-.01-.06 0-.13.01-.19.25-.89.68-1.66 1.3-2.34-.03-.21.08-.34-.07-.42-.16-.09-.63-.56-.73-.62-.1-.06-.02-.33.16-.18.18.15.49.4.63.43.14.03.08-.22.02-.28-.06-.06-.33-.25-.47-.35-.13-.1-.09-.28.04-.22.14.06.24.17.31.1.08-.07-.15-.53-.11-.55-.03-.07-.28-.41-.3-.41-.02 0-.06.03-.09.1-.69 1.51-1.41 2.68-3.08 4.17-.84.76-1.69 1.61-2.19 2.67-.03.05-.73 1.22-.74 1.3-.91 1.73-.42 2.87.3 2.68zM28.58 42.1c-.36.04-.72.05-1.07.06-.05.16.16.57-.3.54-.1-.01-.04.41-.05.5-.01.17-.26.3-.53.26-.55-.09-.86.37-.85.54 0 .08 0 .36.03.66.14 0 .28.02.42.02 1 0 1.98-.1 2.93-.25-.22-1.06-.45-2.16-.47-2.28a.479.479 0 0 0-.11-.05zM20.92 27.02c-.24-.07-1.07-.35-1.24-.43-.09-.05-.14-.03-.17-.01-.03.02-.04.06-.03.1.01.05.05.11.13.14.05.01.18.06.33.12.26.1.58.23.76.27.17.04.33.02.34-.05.02-.05 0-.1-.12-.14zM23.52 41.19c-2.22-.78-4.08-2.19-5.53-3.95.03.04.06.08.09.11.09 1.57.17 3.73.22 5.52 1.83.87 3.82 1.46 5.92 1.68-.21-1.09-.47-2.44-.7-3.36zM14 31.53a.827.827 0 0 1-.35-.22c-.02-.02-.04-.05-.07-.08-1.24-1.55-1.58-3.76-.97-5.32.31-.79.38-1.42 0-2.68-.27-.88-.13-1.52.28-1.99.17-.2.4-.33.64-.41-.1-2.1-.19-3.71-.27-4.38-.01-.14.01-.26.05-.35a.39.39 0 0 1 .19-.19c.34-.15.89-.3 1.36-.38.38-.07.57-.21.71-.54.09-.24.15-.41.24-.68.27-.82 1.14-.84 1.3.05.32 1.78.16 3.71.27 5.32.21-.14.42-.27.63-.39-.04-1.59.11-3.43.14-4.49.04-1.11.05-2.35.03-3.17-.02-.81.09-1.39.27-2.02.05-.17.08-.33.09-.5C12.1 12.04 7.6 18.52 7.6 26.05c0 5.73 2.61 10.87 6.7 14.28-.07-2.2-.18-5.42-.31-8.8H14zM33.54 22.71c.13.05.26.11.37.18-.07-.05-.15-.09-.23-.13-.07-.06-.12-.09-.14-.05zM27.67 16.91c-.05 0-.09-.02-.14-.02.06 0 .1.01.14.02z" class="st1"/><path d="M16.14 20.77c.29-.34.6-.64.93-.89-.05-.63-.06-1.3-.06-2.01-.01-1.13-.02-2.29-.21-3.4-.05-.29-.2-.49-.39-.5-.17-.01-.39.13-.5.47-.09.29-.15.46-.24.69-.04.09-.08.17-.12.24l.27 2.43.32 2.97zM20.81 27.56c-.08-.03-.22-.13-.41-.17-.34-.08-.76-.25-.96-.27-.16-.01-.2-.03-.22.04-.02.04 0 .12.14.2.18.1.67.22 1.02.31l.29.08c.11.03.22.03.26-.02.02-.02.03-.05.02-.07 0-.03-.05-.07-.14-.1zM36.8 18.92c-.01-.11-.06-.16-.21-.08-.18.09-.5.31-.62.44-.29.32-.11.94-.09 1.02.09.19.24.41.3.5.09.14.57 1.08.41 1.52-.02.05-.03.28-.02.35.01.06.04.12.06.18l.24.27c.07.07.14.13.21.2l.15-.06a.219.219 0 0 1-.03-.05c-.11-.17-.23-.34-.27-.56a.756.756 0 0 1 0-.3c.02-.16.02-.36-.02-.59a5.82 5.82 0 0 0-.29-.96c-.1-.24-.16-.47-.2-.67-.06-.35-.03-.64.08-.88.08-.13.17-.25.3-.33zM28.14 17.97c-.1-.12-.34-.12-.2.06.07.09.37.44.66.77.59.6 1.02 1.17 1.28 1.54l.18.25c.58.75 1.33.64 2.33.7l.07.01c.33.02.76.09 1.18.23-.55-1.01-1.44-2-2.51-2.71-.84-.56-1.72-.9-2.55-1.01 0 .01.01.01 0 .02-.02.12-.34-.07-.16.15.18.22.31.29.22.34-.09.04-.4-.23-.5-.35zM21.26 26.92c.33-.58.95-1.08 1.81-1.29.39-.1.58-.38.65-.63.24-.82.76-1.58 1.57-2.31.42-.38.46-.8.51-1.23l.01-.05c.06-.47-.08-.63-.5-.79a4.79 4.79 0 0 1-.88-.42c-.1 0-.18-.03-.23-.11a.904.904 0 0 0-.1-.11c-.14-.1-.28-.2-.41-.31-.09-.06-.18-.12-.22-.15-.13-.09-.49-.23-.61-.4-.68-.91-1.42-.32-1.71-.23-.18.06-.41.37-.47.6l.01.19c.01.01 0 .04.01.04.21.1.81.24 1.03.31.22.08.31.28 0 .34-.3.05-.8-.11-.91-.13-.03-.01-.07 0-.1.02.01.13.02.37.02.38v.1c.31.14.36.1.47.13.23.07 0 .3 0 .3s-.29-.08-.47-.11c-.02.18-.05.36-.11.54.14.06.32.11.41.16.23.13.2.37-.02.29-.17-.06-.36-.16-.49-.18-.04.1-.07.19-.12.3.09.06.18.11.29.17.16.09.14.23-.04.17-.13-.04-.24-.1-.36-.12-.05.11-.1.21-.16.33-.06.12-.11.27-.14.42.12.04.14.06.35.11.22.06.14.23-.01.21-.18-.02-.3.01-.38.07 0 .09-.02.18-.01.27.01.14.02.27.02.41.05.09.12.17.19.2.17.09.4.06.46.14.06.08-.04.19-.25.18-.21-.01-.33.06-.4.16 0 .08 0 .15-.01.23.04.07.12.13.23.17.45.18.65.19.64.31-.02.18-.31.12-.55.06a.782.782 0 0 0-.4-.01c-.03.16-.08.32-.14.47.35.13 1.23.37 1.31.42.08.06.04.23.09.27.01 0 .07.03.12.11zM35.31 29.69c0 .16.02.32.05.49.15.72.64 1.18 1.07 1.54-.46-1-.78-2.06-.81-3.23-.19.42-.31.79-.31 1.2zM32.54 39.93c.46.22 2.85-.59 3.3-.71.45-.13.27.34-.16.58-.42.25-3.05.58-3.61.56-.57-.03.13-.59.47-.43zM14.38 24.02l-.41-.59c-.19-.27-.32-.45-.45-.67a.808.808 0 0 1-.01-.77c.15-.29.44-.48.81-.52.15-.02.25-.07.25-.13.01-.07-.08-.2-.25-.25-.21-.07-.47-.08-.71-.01-.66.29-.99 1.02-.67 1.8.03.07.06.15.09.22.29.51.89.93.98 1.04.12.14.19.43-.01.23-.19-.19-.5-.35-.61-.47-.12-.12-.09.73-.04.96.02.08.77.83.96.96.18.13-.06.17-.12.12-.06-.06-.52-.49-.7-.6-.18-.11-.24.09-.13.19.11.1.48.38.57.47.09.1-.01.19-.09.11a2.86 2.86 0 0 0-.35-.28c-.27-.17-.29-.01-.39.17-.07.12.04.21.09.25.11.09.97.91 1.05.97.08.06.1.19-.05.12-.15-.06-.67-.64-.82-.71-.15-.07-.32.06-.15.21.16.15.62.63.75.72.14.09.02.23-.07.13-.09-.1-.76-.77-.89-.86-.07-.05-.17.05-.21.12-.01.03-.1.46.22.71.11.09.94.8 1.1.97.15.16.06.28-.05.2-.16-.13-1.07-.91-1.19-.93-.14-.02-.26.57.14.92.23.21.65.55.74.65.09.1.02.25-.09.13s-.56-.45-.7-.54c-.13-.09-.05.22.08.33.14.11.53.51.76.65.24.14.11.25-.04.14-.16-.11-.53-.37-.66-.46-.13-.09.05.24.2.36.16.11.27.3.18.34-.29.13.11.64.25.79.09.1.33.21.39.2.15 0 .31-.11.44-.3.37-.55.48-1.2.35-2.03-.13-.84-.04-1.48.01-1.95.11-.89.03-2.25-.55-3.11z" class="st1"/><path d="M30.01 7.82c.03.27.05.55.04.84-.03 1.21-.11 2.56-.22 3.8.33.11.86.41 1.03.45.32.07.54.56.59.67.05.12-.16.23-.37.22-.31-.01-.74-.02-1.08-.03-.11.01-.21.01-.32.02-.07.59-.15 1.13-.23 1.57 2.67-.06 5.55.79 8.04 3.02.16.15.13.4-.1.46-.54.15-.8.69-.36 1.76.28.68.4 1.24.32 1.66-.04.27.08.47.24.71.13.2.24.37.32.51.13.18.2.34-.03.51-.25.19-.7.28-1 .19-.31-.09-.59-.4-.81-.62-.05-.05-.09-.1-.14-.15.28.58.49 1.22.6 1.86.12.66.14 1.32.04 1.91-.14.81-.25 1.58-.13 2.29.31 1.76 1.29 3.28 2.3 4.86l.04.06c.33.52.55 1.05.64 1.59.16.87 0 1.76-.47 2.58-.59 1.04-1.64 1.92-3.03 2.53-1.46.65-3.26.97-5.19.93-.51.13-1.03.14-1.53.05l-.16.02.47 2.26c8.69-1.57 15.31-9.17 15.31-18.31.01-8.96-6.36-16.46-14.81-18.22z" class="st1"/><path d="M26.22 5.45c-11.36 0-20.6 9.24-20.6 20.6 0 11.35 9.24 20.59 20.6 20.59 11.36 0 20.6-9.24 20.6-20.59-.01-11.35-9.25-20.6-20.6-20.6zm0 39.83c-10.6 0-19.23-8.63-19.23-19.23S15.61 6.82 26.22 6.82c10.6 0 19.23 8.63 19.23 19.23s-8.63 19.23-19.23 19.23z" class="st1"/><path d="M35.43 23.6a4.43 4.43 0 0 0-.37-.65c-.29-.41-.63-.73-1.03-.93L34 22l-.09-.04c-.02-.01-.03-.01-.05-.02-.5-.21-1-.24-1.41-.27h-.07c-1-.06-1.77-.16-2.39-.88-.03-.03-.05-.06-.08-.09l-.19-.25c-.3-.41-.79-1.1-1.52-1.77-.27-.25-.58-.48-.93-.69l-.03-.02.01.01-.02-.02c-.03-.03-.21-.1-.27-.13-.4-.2-.84-.36-1.31-.49a3.53 3.53 0 0 0-.43-.12l-.45-.05-.56-.05c-.49-.04-.83-.04-1.02-.02 0 0-.4.09-.41.09-.7.11-1.35.32-1.9.63l-.05.03.02-.01c-.33.19-.63.42-.88.67-.26.26-.56.38-.82.47-.36.13-.74.3-1.14.51-.21.12-.42.25-.63.4-.74.52-1.44 1.24-1.89 2.24a7.062 7.062 0 0 1 3.73-2.74c.22-.07.38-.01.46.05.14.09.23.26.24.46.04.34.06.65.06.92 0 .22-.02.4-.07.56-.07.25-.17.49-.27.72l-.12.29c-.11.28-.17.63-.17.96 0 .08 0 .16.01.24l.02.18c.04.35.08.73.08 1.13 0 .6-.1 1.25-.46 1.88-.01.01 0 .01-.01.02.01-.01.01 0 .03-.02.24-.23.39-.5.5-.8.03-.09.07-.17.09-.26.09-.36.13-.74.13-1.14 0-.26-.01-.53-.03-.8 0-.06-.01-.12-.01-.18 0-.37.08-.73.23-.99.01-.02.02-.04.03-.05l.06-.12c.07-.13.14-.27.19-.39.02-.04.03-.07.04-.11.07-.17.13-.33.17-.48.04-.13.06-.26.08-.39.01-.1.03-.19.03-.29v-.18l-.01-.18-.01-.25-.04-.69c-.01-.05-.01-.09-.01-.14 0-.28.1-.51.29-.7.28-.27.84-.61 1.32-.69.38-.07.59.16.73.4.53.86 1.17 1.33 2.01 1.72.21.1.43.19.66.28.42.16.62.42.62.83 0 .07-.01.14-.01.22l-.01.05c-.06.44-.13.94-.59 1.37-.78.71-1.28 1.43-1.52 2.22-.09.29-.35.69-.82.8-.85.22-1.51.67-1.8 1.24-.03.05-.04.11-.06.16-.07.18-.12.37-.12.56 0 .21.04.42.12.63l.14.37c.3.79.46 1.19.63 1.92.19.8.54 2.07.84 2.92.45 1.27.99 2.39 1.46 3.01l.02.02c0-.01 0-.03-.01-.04-.6-1.12-1.23-2.88-1.49-3.94-.01-.03-.01-.06-.01-.08 0-.08.03-.15.08-.21.01-.02.03-.02.05-.03.05-.04.12-.07.19-.06.5.05 1.74.36 2.69.8.01.01.02.01.03.01 0-.01-.01-.02-.03-.03-.9-.51-2.23-1.01-2.86-1.13-.19-.04-.33-.22-.4-.55l-.01-.03-.05-.22-.04-.19c-.01-.04-.02-.08-.03-.13-.06-.29-.13-.58-.2-.89-.02-.1-.05-.2-.08-.3-.11-.41-.24-.83-.41-1.26-.03-.06-.04-.12-.06-.19 0-.01-.01-.02-.01-.03-.03-.12-.05-.23-.05-.33 0-.18.04-.34.13-.5.09-.17.23-.33.42-.48.29-.23.93-.44 1.2-.43.09 0 .16.02.23.06l.01.01.12.11.02.01v.01c.04.06.07.13.1.22.16.62.53 1.33.93 1.78.42.46.66.88.79 1.35.01.03.02.04.02.06v-.07c-.03-.43-.26-1.01-.6-1.46-.39-.52-.71-1.2-.8-1.7-.03-.15-.04-.3-.04-.44 0-.31.06-.61.15-.95.25-.91.92-1.75 1.48-2.18.55-.42.86-1.09.86-1.82 0-.07 0-.13-.01-.19v-.03c0-.14.09-.27.21-.3.11-.03.27.01.37.21.45.93 1.06 1.68 1.72 2.1.89.57 1.38 1.29 1.38 2.05 0 .65-.36 1.25-1.03 1.68-1.98 1.28-1.61 2.99-.95 4.2.36.65.6.98.83 1.29l.03.04c.15.21.23.43.23.66 0 .17-.04.34-.12.51-.25.5-.37 1.01-.37 1.49 0 .51.14.98.42 1.37.36.51.67 1.03.81 1.37.02.04.04.07.05.09 0-.02 0-.04-.01-.07-.13-.47-.42-.98-.62-1.35l-.07-.13c-.16-.29-.22-.69-.22-1.08 0-.43.08-.85.19-1.11l.27-.6.11-.24c.06-.15.18-.26.3-.28.1-.02.2.02.29.11.38.41.68 1.06.88 1.5l.04.08c.19.42.5.59.78.71.61.28 1.38.76 1.6 1.46.01.01.01.02.01.03v-.01c-.15-.72-.65-1.06-1.33-1.54l-.08-.05c-.44-.31-.64-.48-.81-.9l-.17-.45c-.24-.64-.44-1.19-.95-1.48l-.33-.17c-.24-.12-.46-.22-.64-.46-.7-.87-1.07-1.75-1.07-2.5v-.15c.05-.72.55-1.43 1.36-1.95.77-.49 1.22-1.24 1.22-2.01v-.13c0-.11.04-.21.12-.28a.49.49 0 0 1 .43-.08c.83.19 1.87.73 2.14 2.26.01.06.03.07.04.08.01 0 .03-.02.03-.07v-.02c-.1-.95-.37-1.98-1.64-2.5-.19-.12-.27-.13-.29-.13h-.11l-.32-.07-.1-.02c-.23-.03-.48-.07-.65-.37-.37-.69-.92-1.08-1.4-1.36-.49-.35-.9-.99-1.26-1.63-.33-.59-.66-1.08-1.35-1.14-.65-.05-1.25-.21-1.76-.48-.51-.26-.95-.63-1.29-1.1a.332.332 0 0 1-.07-.21c0-.04.01-.07.03-.11.01-.01 0-.03.01-.04.03-.06.09-.11.15-.13.06-.02.12-.04.2-.03 1.32.07 2.26.3 3.04.74.14.08.28.17.41.26.15.1.29.22.43.34a7.47 7.47 0 0 1 .65.66c.37.42.67.84.96 1.25.76 1.09 1.88 1.23 2.97 1.23 1.44 0 2.27.64 2.88 2.22.15.4.24.76.3 1.11.04.24.08.48.08.71 0 .58-.15 1.09-.45 1.53a3.4 3.4 0 0 0-.58 1.9c0 .28.03.55.1.83.07.3.09.54.11.77.02.21.03.43.09.7.13.55.48 1.15 1.01 1.73.4.42.53.77.64 1.26.1.41.25.89.61 1.29.01.01.02.01.03.02 0-.01 0-.02-.02-.04-.14-.18-.38-.67-.44-1.33-.05-.62-.33-1.06-.56-1.31-.2-.23-.41-.49-.58-.97a.555.555 0 0 1-.03-.17c0-.13.07-.2.1-.22.12-.09.3-.07.47.05.26.19.69.53 1.13 1.01.49.54.97 1.24 1.23 2.11l.06.18c.01.03.01.04.02.05v-.05c-.1-1.13-.9-2.53-1.97-3.48-.05-.04-.09-.09-.14-.13l-.05-.04c-.48-.4-1.07-.89-1.24-1.73-.04-.18-.06-.36-.06-.53 0-.52.19-1 .5-1.57.04-.08.08-.15.13-.23.22-.38.33-.88.33-1.47 0-.64-.13-1.38-.4-2.18a3.81 3.81 0 0 0-.25-.66zM18.76 35.11c.02-.01.04-.07 0-.17-.26-.75-.49-1.9-.55-2.24-.03-.16-.01-.26.06-.31.08-.06.21-.03.4.08.45.26.95.71 1.38 1.23.23.29.63.64 1.2.74.09.02.14-.02.15-.05v-.02c-.01-.04.01-.22-.07-.25-.36-.11-.54-.33-.9-.8-.05-.01-.14-.09-.27-.17-.25-.14-.62-.66-.76-.77-.13-.12-.91-.63-1.03-.67-.8-.28-1.03-1.07-1.22-1.36l-.01-.02c-.2-.31-.42-.65-.65-1 .03.05-.32-.49-.4-.61v-.01c-.07-.11-.4-.31-.37-.17.02.13.17.52.26.62.09.1.4.63.43.79.03.16.41.67.5.83.28.46.51.87.65 1.17.23.48.31.67.42 1.15.14.6.41 1.46.68 1.93.05.06.09.09.1.08z" class="st1"/><g><path d="M26.22 2.06c-13.26 0-24 10.74-24 23.99 0 13.25 10.74 23.99 23.99 23.99 13.25 0 23.99-10.74 23.99-23.99.01-13.25-10.73-23.99-23.98-23.99zm20.59 23.99c0 11.35-9.24 20.59-20.6 20.59-11.36 0-20.6-9.24-20.6-20.59 0-11.36 9.24-20.6 20.6-20.6 11.36 0 20.6 9.25 20.6 20.6z" class="st2"/><path d="M26.22 6.82c-10.6 0-19.23 8.63-19.23 19.23s8.63 19.23 19.23 19.23 19.23-8.63 19.23-19.23S36.82 6.82 26.22 6.82zm0 37.85c-.14 0-.28-.02-.42-.02-.02-.29-.02-.57-.03-.66 0-.17.3-.63.85-.54.27.04.52-.09.53-.26.01-.09-.05-.5.05-.5.45.03.25-.38.3-.54.35 0 .71-.02 1.07-.06l.1.03c.03.12.26 1.22.47 2.28-.95.17-1.92.27-2.92.27zm-11.15-3.74.04-.16.16-.77.01-.02.16-.76v-1.39s.03-.13.07-.34c.11 0 .19-.08.1-.13-.02-.01-.04-.03-.07-.05.06-.27.14-.63.23-1.02.13-.53.35-.47.51-.36l.17.17.01.01.05.05.07.07c.34.35.72.71.89.68.43-.06.39 5 .38 5.11-.02.21 0 .44.04.66-1-.5-1.94-1.09-2.82-1.75zM7.6 26.05c0-7.53 4.5-14.01 10.94-16.94-.01.17-.03.33-.09.5-.19.63-.29 1.21-.27 2.02.02.82.01 2.05-.03 3.17-.03 1.05-.17 2.89-.14 4.49-.21.11-.42.24-.63.39-.11-1.61.05-3.54-.27-5.32-.16-.89-1.03-.88-1.3-.05-.09.27-.15.44-.24.68-.13.33-.32.48-.71.54-.47.08-1.02.23-1.36.38a.39.39 0 0 0-.19.19c-.05.09-.07.21-.05.35.07.67.16 2.27.27 4.38-.24.08-.46.21-.64.41-.41.47-.55 1.11-.28 1.99.39 1.26.31 1.89 0 2.68-.62 1.56-.27 3.77.97 5.32.02.03.05.06.07.08.11.12.23.19.35.22 0 0-.01-.01-.02-.01.13 3.38.24 6.6.31 8.8-4.08-3.4-6.69-8.54-6.69-14.27zM29.65 8.76a57 57 0 0 1-.21 3.74c-.16-.02-.31-.03-.48-.03-.28.01-.54-.02-.79-.09-.73-.2-1.3-.21-1.71-.02l-.02.01c.03-.47.05-.96.04-1.37h.02c0-.19-.01-.37-.03-.57h-.02c-.01-.15-.03-.3-.04-.45-.02-.24-.06-.47-.09-.69-.14-.76-.35-1.35-.63-1.75-.02-.03-.05-.05-.08-.08.2-.01.4-.03.61-.03 1.15 0 2.26.12 3.35.32.05.33.08.66.08 1.01zm6.77 11.37c.04.21.1.43.2.67.15.36.24.68.29.96.04.23.04.42.02.59-.02.11-.02.21 0 .3.04.22.16.39.27.56.01.01.02.03.03.05l-.15.06c-.07-.07-.14-.13-.21-.2l-.24-.27c-.02-.06-.05-.11-.06-.18-.01-.06 0-.3.02-.35.16-.44-.32-1.38-.41-1.52-.06-.09-.21-.31-.3-.5-.02-.08-.21-.7.09-1.02.12-.14.44-.35.62-.44.15-.08.2-.03.21.08-.12.09-.22.2-.29.34-.12.23-.15.53-.09.87zm1.55 18.82c-.05.06-.11.11-.18.16-3.11 2.15-7.13 1.93-7.36 1.87-.22-.06-1.59-.03-1.71-.02-.13.01-.19.13-.27.15-.08.02-.31.09-.01.13.3.04 1.72-.05 1.84-.05 2.52.1 4.44-.43 4.89-.56.33-.09 1.58-.64 2.35-1.19-.44.55-2.73 2.93-10.45 2.22-.72-.22-.87-.76-.93-.94-.05-.18-1.1-.65-1.33-.67-.24-.03-.2-.22-.02-.28.18-.05-.17-.22-.38-.31-.87-.35-.43-.93-.18-.84.25.1 1.15.41 1.46.45.31.04.09-.16-.04-.21-.13-.05-.85-.25-1.05-.35-.81-.41.05-.9.36-.86.12.02.97.22 1.27.31.3.09.15-.07-.12-.17-.27-.09-.4-.14-.72-.25-.32-.11 0-.14.09-.15.09-.02.68.16.63.05-.07-.15-.5-.26-.92-.44-.47-.19-2.08-1.99.39-1.32.23.07.28-.24.18-.29-.1-.05-1.41-.59-1.63-.65-.64-.18-.67-.87-.54-.82.12.05 1.26.5 1.42.5.16 0 .17-.24.02-.31-.15-.07-1.12-.43-1.29-.47-.17-.04-.39-.16-.34-.26.04-.07-.05-.08-.16-.15l-.09-.32c.08-.02.18-.02.32.03.32.11.16-.14.06-.21-.07-.05-.22-.14-.36-.25.01 0 .02-.01.03-.01.5.05 1.74.37 2.63.78.13.06.23.01.28-.07.04-.08.02-.19-.11-.27-.93-.53-2.25-1.03-2.92-1.16-.14-.03-.21-.21-.25-.37.04.01.07.01.11.02.18.01.06-.11-.14-.17l-.07-.33c0-.02-.01-.05-.02-.07.09.01.19.03.25.02.18-.01.08-.06-.12-.16-.07-.03-.13-.07-.18-.1l-.06-.27c.09.01.21.04.37.02.24-.02.1-.18-.07-.24-.12-.04-.24-.06-.37-.09-.04-.17-.08-.34-.13-.51.05-.01.11-.01.19-.01.21.01.31-.05.28-.11-.06-.16-.42-.13-.54-.14h-.01c-.07-.23-.15-.47-.23-.71.05-.02.11-.03.15-.03.1.01.12-.32-.25-.26-.19-.51-.07-.91.39-1.27.25-.2.85-.41 1.08-.39.06 0 .1.01.14.04.02.02.08.07.1.09.03.04.05.09.07.16.17.65.55 1.38.97 1.85.4.45.63.84.75 1.28.07.24.2.24.23.23.04-.01.16-.05.14-.3-.03-.46-.28-1.07-.63-1.55-.38-.5-.69-1.15-.77-1.62-.08-.46-.02-.84.11-1.31.24-.87.89-1.67 1.42-2.08.64-.49.99-1.3.93-2.17-.01-.08.04-.13.08-.14.06-.01.06.02.1.11.47.97.95 1.77 1.63 2.2.83.53 1.39 1.16 1.39 1.85 0 .59-.21 1.16-.82 1.55-2.09 1.36-1.7 3.16-1.01 4.44.36.66.6.99.84 1.31l.03.04c.22.3.25.65.09.98-.54 1.09-.52 2.23.06 3.04.36.5.65 1 .79 1.34.09.21.21.25.29.22.08-.03.14-.13.09-.31-.14-.49-.43-1.01-.64-1.39l-.07-.13c-.3-.56-.22-1.58-.03-2.04l.27-.59.11-.25c.04-.09.1-.16.17-.17.04-.01.08.01.12.06.36.39.65 1.03.84 1.45l.04.08c.21.45.54.65.86.8.57.27 1.3.72 1.51 1.35.06.16.16.2.23.18.1-.02.15-.13.12-.25-.17-.79-.72-1.17-1.4-1.65l-.08-.05c-.43-.3-.59-.44-.74-.82l-.17-.44c-.25-.67-.46-1.25-1.03-1.58l-.34-.18c-.24-.12-.42-.21-.58-.41-.71-.89-1.08-1.79-1.03-2.53.05-.66.51-1.32 1.28-1.81.86-.55 1.35-1.4 1.3-2.27 0-.07.02-.13.06-.16.06-.05.17-.07.27-.05 1.12.26 1.8.97 2 2.12.03.18.14.24.24.22.1-.02.2-.12.18-.29-.07-.61-.22-2.02-1.73-2.64-.16-.11-.29-.16-.38-.15h-.08c-.03-.01-.3-.07-.3-.07l-.11-.02c-.21-.03-.39-.06-.52-.28-.4-.73-.99-1.15-1.46-1.43-.51-.31-.9-.93-1.25-1.55-.36-.63-.71-1.16-1.49-1.23-.86-.06-1.57-.33-2.16-.76a.491.491 0 0 1-.11-.15c-.04-.15.14-.13.31-.21.18-.08.84.33 1.1.26.26-.06.81-.05 1.15.2.23.17.66.35.96.45.35.34.64.68.89 1.02.1.14.19.27.2.33.03.19.37.53.6 1.01.23.46 1.12.74 1.34.8.06-.04.14-.06.22-.07l.54-.03h.02c.19-.01.4-.02.6-.01h.02c.41.01.82.05 1.18.19.02-.04.07-.01.14.06a1.626 1.626 0 0 1 .61.49c.03.04.05.09.08.13.07.1.14.2.2.31.16.18.43.67.61 1.09.41 1.22.39 2.19-.12 2.94-.57.84-.75 1.86-.51 2.87.07.29.08.51.1.74.02.22.03.44.1.72.13.58.5 1.21 1.06 1.81.37.39.49.7.6 1.17.1.44.26.94.65 1.37.08.09.2.1.28.04.06-.05.09-.17.01-.29-.01-.02-.34-.46-.41-1.24-.06-.67-.36-1.14-.6-1.42-.19-.22-.38-.46-.55-.92-.03-.09-.03-.16.01-.19s.15-.03.26.05c.56.4 1.91 1.52 2.34 3.2.05.18.15.23.23.22.02 0 .04-.02.05-.04.02.05.04.11.05.14.08.23.11.9.09 1.2-.03.29-.5 1.3-.62 1.48-.01.11-.1.22-.2.33zM18.21 32.7c.06.35.29 1.49.55 2.24.04.1.02.16 0 .17-.02.01-.06-.02-.11-.1-.27-.47-.55-1.32-.68-1.93-.11-.48-.19-.67-.42-1.15-.15-.3-.38-.71-.65-1.17-.1-.16-.48-.67-.5-.83-.03-.16-.34-.7-.43-.79-.09-.1-.24-.48-.26-.62-.03-.14.3.06.37.17v.01c.09.12.44.66.4.61.22.35.45.69.65 1l.01.02c.19.29.42 1.07 1.22 1.36.12.04.9.56 1.03.67.13.12.51.63.76.77.14.08.22.16.27.17.36.47.54.69.9.8.08.03.06.21.07.25v.02c-.01.04-.07.07-.15.05-.57-.1-.97-.45-1.2-.74-.43-.52-.93-.97-1.38-1.23-.19-.1-.32-.13-.4-.08-.06.07-.08.16-.05.33zm-4.91-2.61c-.16-.11-.33-.45-.2-.36.13.09.5.35.66.46.16.11.28 0 .04-.14-.23-.14-.62-.54-.76-.65-.13-.11-.21-.42-.08-.33.13.09.58.43.7.54.11.12.18-.03.09-.13s-.5-.45-.74-.65c-.4-.35-.28-.94-.14-.92.13.02 1.03.79 1.19.93.11.09.2-.04.05-.2-.15-.17-.98-.88-1.1-.97-.32-.25-.23-.68-.22-.71.03-.07.14-.17.21-.12.13.09.81.76.89.86.09.1.2-.04.07-.13s-.59-.56-.75-.72c-.17-.16 0-.28.15-.21.15.07.67.65.82.71.15.07.13-.06.05-.12s-.94-.87-1.05-.97c-.05-.05-.16-.13-.09-.25.1-.18.12-.33.39-.17.08.05.27.21.35.28.08.08.18-.01.09-.11s-.46-.38-.57-.47c-.11-.1-.05-.29.13-.19.18.11.65.54.7.6.06.06.3.01.12-.12-.19-.13-.94-.88-.96-.96-.05-.23-.08-1.07.04-.96.11.12.42.28.61.47.2.2.12-.09.01-.23-.09-.11-.69-.54-.98-1.04-.03-.08-.06-.15-.09-.22-.32-.78.01-1.51.67-1.8.25-.06.51-.05.71.01.17.06.26.18.25.25-.01.06-.1.11-.25.13-.37.04-.67.23-.81.52-.13.25-.12.54.01.77.13.22.26.41.45.67l.41.59c.58.86.66 2.22.54 3.12-.06.47-.14 1.11-.01 1.95.13.83.01 1.48-.35 2.03-.13.19-.28.3-.44.3-.06 0-.3-.1-.39-.2-.14-.15-.53-.67-.25-.79.1-.05-.01-.24-.17-.35zm5.85-11.11c.26-.09.56-.21.82-.47.25-.25.55-.48.88-.67l-.02.01.05-.03c.55-.31 1.2-.53 1.9-.63.01 0 .41-.09.41-.09.19-.02.53-.02 1.02.02l.56.05.45.05c.07.01.22.05.43.12.48.12.92.29 1.31.49.06.03.24.11.27.13l.02.02-.01-.01.03.02c.35.21.67.44.93.69.73.68 1.22 1.36 1.52 1.77l.19.25c.03.03.05.06.08.09.61.72 1.38.82 2.39.88h.07c.41.03.91.06 1.41.27.02.01.03.01.05.02.01 0 .09.04.09.04l.03.02c.4.2.74.52 1.03.93.14.19.26.41.37.65.09.2.18.4.26.63.26.79.4 1.54.4 2.18 0 .58-.11 1.09-.33 1.47-.05.08-.08.15-.13.23-.31.57-.5 1.05-.5 1.57 0 .17.02.35.06.53.17.84.77 1.34 1.24 1.73l.05.04c.05.04.09.09.14.13 1.07.95 1.87 2.35 1.97 3.48v.05c-.01-.01-.01-.03-.02-.05l-.06-.18c-.26-.87-.74-1.57-1.23-2.11a6.84 6.84 0 0 0-1.13-1.01c-.17-.12-.35-.14-.47-.05-.04.03-.1.1-.1.22 0 .05.01.11.03.17.17.48.38.74.58.97.23.26.5.69.56 1.31.06.66.31 1.15.44 1.33.02.02.02.03.02.04-.01 0-.02 0-.03-.02-.36-.4-.51-.88-.61-1.29-.11-.49-.25-.83-.64-1.26-.54-.58-.89-1.18-1.01-1.73-.06-.27-.08-.49-.09-.7-.02-.23-.03-.46-.11-.77a3.423 3.423 0 0 1 .48-2.73c.3-.44.45-.95.45-1.53 0-.22-.04-.46-.08-.71a5.97 5.97 0 0 0-.3-1.11c-.61-1.58-1.44-2.22-2.88-2.22-1.1 0-2.21-.14-2.97-1.23-.29-.41-.59-.83-.96-1.25-.05-.06-.1-.12-.16-.18a7.47 7.47 0 0 0-.49-.48c-.14-.12-.28-.24-.43-.34-.14-.09-.28-.18-.41-.26-.79-.45-1.72-.67-3.04-.74a.443.443 0 0 0-.2.03c-.07.03-.12.07-.15.13-.01.01-.01.03-.01.04-.01.04-.03.07-.03.11 0 .07.02.14.07.21.34.46.78.83 1.29 1.1.51.27 1.11.43 1.76.48.69.06 1.02.55 1.35 1.14.36.65.77 1.29 1.32 1.62.48.29 1.03.67 1.4 1.36.16.3.42.34.65.37l.1.02.32.07h.11c.02 0 .1.01.29.13 1.26.52 1.54 1.56 1.64 2.5v.02c0 .05-.02.07-.03.07 0 0-.02-.02-.04-.08-.27-1.53-1.31-2.07-2.14-2.26a.49.49 0 0 0-.43.08c-.08.07-.12.17-.12.28v.13c0 .77-.45 1.52-1.22 2.01-.81.52-1.31 1.23-1.36 1.95v.15c0 .75.38 1.63 1.07 2.5.19.24.4.34.64.46l.33.17c.51.29.72.85.95 1.48l.17.45c.17.42.36.59.81.9l.08.05c.68.48 1.18.82 1.33 1.54v.01c0-.01-.01-.01-.01-.03-.22-.7-.99-1.18-1.6-1.46-.27-.13-.58-.3-.78-.71l-.04-.08c-.2-.43-.5-1.08-.88-1.5a.304.304 0 0 0-.29-.11c-.13.02-.24.13-.3.28l-.11.24-.27.6c-.11.26-.19.68-.19 1.11 0 .39.06.79.22 1.08l.07.13c.21.37.49.88.62 1.35.01.03.01.05.01.07-.01-.02-.03-.05-.05-.09-.14-.35-.45-.86-.81-1.37-.28-.39-.42-.86-.42-1.37 0-.48.12-.99.37-1.49.08-.17.12-.34.12-.51 0-.23-.08-.46-.23-.66l-.03-.04c-.23-.32-.47-.64-.83-1.29-.66-1.21-1.02-2.92.95-4.2.67-.43 1.03-1.03 1.03-1.68 0-.76-.49-1.49-1.38-2.05-.66-.42-1.27-1.16-1.72-2.1-.1-.2-.25-.24-.37-.21-.13.04-.21.16-.21.3v.03c0 .06.01.13.01.19 0 .73-.31 1.41-.86 1.82-.56.43-1.23 1.26-1.48 2.18-.09.34-.15.64-.15.95 0 .14.01.29.04.44.09.49.41 1.18.8 1.7.34.45.57 1.02.6 1.46V30c-.01-.02-.02-.04-.02-.06-.13-.46-.37-.88-.79-1.35-.4-.45-.78-1.16-.93-1.78a.496.496 0 0 0-.1-.22v-.01l-.02-.01-.12-.11-.01-.01a.438.438 0 0 0-.23-.06c-.27-.01-.91.2-1.2.43-.19.15-.33.31-.42.48-.09.16-.13.32-.13.5 0 .11.02.22.05.33 0 .01.01.02.01.03.02.06.03.12.06.19.17.43.3.85.41 1.26.03.1.05.2.08.3.08.31.14.61.2.89l.03.13.04.19.05.22.01.03c.07.33.21.51.4.55.64.13 1.97.62 2.86 1.13.02.02.03.02.03.03-.01 0-.02 0-.03-.01-.95-.44-2.19-.75-2.69-.8a.256.256 0 0 0-.19.06c-.02.01-.04.02-.05.03-.05.05-.08.13-.08.21 0 .03 0 .06.01.08.26 1.06.89 2.82 1.49 3.94.01.02.01.03.01.04l-.02-.02c-.47-.62-1.01-1.75-1.46-3.01-.31-.86-.66-2.12-.84-2.92-.17-.73-.32-1.13-.63-1.92l-.14-.37a1.8 1.8 0 0 1-.12-.63c0-.19.05-.38.12-.56.02-.05.03-.11.06-.16.29-.57.95-1.03 1.8-1.24.46-.12.73-.51.82-.8.23-.79.73-1.51 1.52-2.22.47-.43.54-.93.59-1.37l.01-.05c.01-.08.01-.15.01-.22 0-.41-.19-.67-.62-.83-.24-.09-.45-.19-.66-.28-.83-.39-1.47-.86-2.01-1.72-.15-.23-.35-.47-.73-.4-.47.09-1.04.42-1.32.69-.2.2-.29.43-.29.7 0 .05 0 .09.01.14l.04.69.01.25.01.18v.18c0 .1-.01.2-.03.29a2.7 2.7 0 0 1-.08.39c-.04.15-.1.32-.17.48-.02.04-.03.07-.04.11-.06.12-.12.25-.19.39l-.06.12c-.01.02-.02.04-.03.05a2.16 2.16 0 0 0-.22 1.17c.02.27.03.54.03.8 0 .4-.04.78-.13 1.14-.02.09-.06.18-.09.26-.11.3-.26.57-.5.8-.02.02-.02.01-.03.02 0-.01 0-.01.01-.02.36-.63.46-1.28.46-1.88 0-.4-.04-.79-.08-1.13l-.02-.18c-.01-.08-.01-.16-.01-.24 0-.33.06-.68.17-.96l.12-.29c.1-.23.2-.48.27-.72.05-.16.07-.35.07-.56 0-.27-.03-.57-.06-.92-.02-.2-.11-.37-.24-.46a.51.51 0 0 0-.46-.05c-1.5.45-2.88 1.47-3.73 2.74.45-1 1.15-1.72 1.89-2.24.21-.15.42-.28.63-.4.33-.17.71-.34 1.07-.47zm9.28-1.02c-.18-.22.14-.03.16-.15v-.02c.84.11 1.71.45 2.55 1.01 1.07.71 1.96 1.7 2.51 2.71-.42-.14-.85-.21-1.18-.23l-.07-.01c-1-.05-1.75.05-2.33-.7l-.18-.25c-.26-.36-.69-.94-1.28-1.54-.29-.33-.59-.67-.66-.77-.14-.17.1-.18.2-.06.1.11.41.39.51.33.08-.03-.05-.1-.23-.32zm-8.57 7.67c.11-.03.25-.03.4.01.24.06.53.12.55-.06.01-.11-.19-.13-.64-.31a.49.49 0 0 1-.23-.17c.01-.07.01-.15.01-.23.06-.09.19-.17.4-.16.21.01.31-.09.25-.18-.06-.08-.29-.05-.46-.14-.07-.03-.13-.11-.19-.2-.01-.14-.01-.27-.02-.41-.01-.09.01-.18.01-.27.08-.06.2-.1.38-.07.15.02.23-.15.01-.21-.21-.05-.23-.07-.35-.11.03-.15.08-.3.14-.42.06-.12.11-.22.16-.33.12.03.23.08.36.12.17.06.2-.08.04-.17-.11-.06-.19-.12-.29-.17.05-.1.08-.2.12-.3.13.02.32.13.49.18.23.08.26-.17.02-.29-.08-.04-.27-.1-.41-.16.06-.18.09-.36.11-.54.19.03.47.11.47.11s.23-.23 0-.3c-.11-.03-.16.01-.47-.13 0-.03.01-.07 0-.1 0 0-.01-.24-.02-.38.04-.02.07-.03.1-.02.11.02.61.19.91.13.31-.06.22-.26 0-.34-.23-.08-.83-.21-1.03-.31-.01-.01-.01-.03-.01-.04l-.01-.19c.07-.23.29-.54.47-.6.29-.09 1.03-.68 1.71.23.12.17.48.3.61.4.04.03.13.09.22.15.13.11.27.22.41.31.04.04.08.08.1.11.04.08.13.11.23.11.27.15.56.29.88.42.42.16.56.32.5.79l-.01.05c-.06.43-.09.84-.51 1.23-.81.73-1.32 1.49-1.57 2.31-.08.25-.26.54-.65.63-.86.22-1.48.71-1.81 1.29-.05-.07-.12-.11-.15-.13-.05-.04-.01-.21-.09-.27-.08-.05-.96-.3-1.31-.42.09-.13.13-.29.17-.45zm-.41 1.5c.2.01.62.19.96.27.19.04.33.14.41.17.09.03.14.06.15.1.01.03 0 .06-.02.07-.04.04-.15.05-.26.02l-.29-.08c-.35-.09-.84-.21-1.02-.31-.14-.08-.15-.15-.14-.2.01-.07.05-.05.21-.04zm1.25.07c-.17-.04-.5-.16-.76-.27a3.03 3.03 0 0 0-.33-.12c-.08-.03-.13-.09-.13-.14-.01-.04 0-.07.03-.1.03-.02.08-.03.17.01.16.08 1 .36 1.24.43.13.04.14.08.13.12-.02.09-.17.11-.35.07zm6.11-9.84c-.06.01-.13-.04-.2-.1.1 0 .2.01.31.01-.02.05-.04.09-.11.09zm-10.67 3.41-.31-2.96-.27-2.43c.05-.07.09-.15.12-.24.09-.23.15-.4.24-.69.11-.34.33-.49.5-.47.19.01.34.21.39.5.2 1.11.2 2.27.21 3.4 0 .71.01 1.38.06 2.01-.33.24-.65.54-.94.88zm19.22 9.4c-.04-.17-.05-.33-.05-.49 0-.4.12-.78.32-1.2.03 1.17.34 2.23.81 3.23-.43-.36-.93-.81-1.08-1.54zm1.13-11.92c-.1-.07-.37-.09-.48-.1-.13-.01-.56.12-.79.11-.24 0-.44.22-.38.41.07.19.03.59.01.75-.02.16.2.48.3.54.1.06.2.43.09.48-.05.02-.12.04-.16.07-.87-1.01-1.91-1.82-3.09-2.42v-.01c-.04-.02-.08-.03-.12-.05a10.91 10.91 0 0 0-4.18-1.12c-.05-.01-.09-.02-.14-.02-.02 0-.03-.01-.04-.01-.01.01-.02.02-.04.02-.1 0-.21 0-.31-.01-.1-.09-.21-.22-.25-.25-.06-.05-.16 0-.11.08.03.04.08.11.12.17-.17 0-.33-.02-.5-.01-.13.01-.4.11-.55.21-.02.02-.04.03-.06.05l-.03.03a.185.185 0 0 0-.07-.02c-.15-.05-.36-.11-.46-.12 0 0-.15-.02-.28-.03a2 2 0 0 0-.16-.06c-.12-.03-.11-.08-.06-.18 3.27-1.57 7.97-1.69 11.87 1.46l-.13.03zm-7.39-2.98c-.55.02-2.14.22-2.67.32-.04-.2.11-1.22.32-1.3.21-.01 1.47-.21 1.66-.21.37-.01.58-.08.87-.07-.05.47-.11.89-.18 1.26zm-3.04-1.39c-1.61.58-2.95 1.91-4.35 2.84-.24.16-.2.28-.07.35-.35.12-1.51.95-2.2 1.54-.72.19-1.21-.95-.31-2.69.01-.08.71-1.25.74-1.3.5-1.07 1.35-1.92 2.19-2.67 1.67-1.5 2.39-2.66 3.08-4.17.03-.07.07-.09.09-.1.02 0 .27.34.3.41-.04.03.19.48.11.55-.08.07-.17-.04-.31-.1-.13-.06-.18.12-.04.22.13.1.41.29.47.35s.11.31-.02.28c-.13-.04-.45-.28-.63-.43-.18-.15-.26.12-.16.18s.57.53.73.62c.16.08.05.22.07.42-.62.68-1.05 1.45-1.3 2.34-.02.07-.02.13-.01.19.02.09.06.17.13.22.12.09.29.1.43.01.34-.2.81-.28 1.03-.16.22.12.43.02.59-.05h.01c.32-.15.8-.13 1.43.05.07.02.15.03.22.04.03-.01.06-.02.09-.02h.01c.1 0 .17.03.24.07.11.01.22.02.34.01.16 0 .31.01.46.03l.58.17c.09.04.16.09.25.15-1.34.08-2.94.2-4.19.65zm-1.43-6.01c-.06.13-1.08 1.81-1.06 1.83-.06.08-1.38 1.45-1.36 1.54l-.43.4c-.19.17-.94.95-1.42 1.51.18-.74.49-2.06.57-2.68 0-.01 0-.03.01-.04.07-.62.17-1.7.22-2.27 1.13-.32 2.3-.54 3.51-.64-.01.07-.01.19-.04.35zm-6.55 29.49c-.03-.04-.06-.07-.09-.11 1.45 1.76 3.31 3.17 5.53 3.95h-.01c.24.92.5 2.27.7 3.36-2.1-.23-4.09-.82-5.92-1.68-.03-1.8-.12-3.95-.21-5.52zm10.98 4.74.16-.02c.51.09 1.02.07 1.53-.05 1.93.04 3.72-.28 5.19-.93 1.39-.61 2.44-1.49 3.03-2.53.47-.83.63-1.71.47-2.58-.09-.54-.31-1.08-.64-1.59l-.04-.06c-1.02-1.58-1.99-3.1-2.3-4.86-.13-.71-.01-1.48.13-2.29.09-.59.07-1.25-.04-1.91-.11-.64-.32-1.28-.6-1.86.05.05.09.11.14.15.22.22.51.53.81.62.3.08.75 0 1-.19.23-.18.16-.34.03-.51-.07-.14-.19-.32-.32-.51-.16-.23-.28-.43-.24-.71.07-.41-.05-.97-.32-1.66-.44-1.07-.18-1.62.36-1.76.23-.06.26-.32.1-.46-2.5-2.23-5.38-3.08-8.04-3.02.08-.44.16-.98.23-1.57.11-.01.21-.02.32-.02.33.01.77.02 1.08.03.21.01.42-.11.37-.22-.05-.11-.27-.6-.59-.67-.17-.04-.7-.34-1.03-.45.11-1.24.19-2.6.22-3.8.01-.29-.01-.57-.04-.84 8.45 1.76 14.82 9.26 14.82 18.23 0 9.14-6.62 16.74-15.31 18.31l-.48-2.27z" class="st2"/><path d="M35.84 39.22c-.45.12-2.84.93-3.3.71-.34-.16-1.04.4-.48.43.56.03 3.2-.31 3.61-.56.44-.24.62-.71.17-.58zM27.25 17.95z" class="st2"/></g></svg>