<svg xmlns="http://www.w3.org/2000/svg" xmlns:xlink="http://www.w3.org/1999/xlink" id="Layer_1" width="600" height="600" x="0" y="0" enable-background="new 0 0 600 600" version="1.1" viewBox="0 0 600 600" xml:space="preserve"><g><path fill="#005596" d="M95.243,428.986c6.881-5.372,15.646-8.012,25.449-8.012c5.089,0,12.253,1.037,16.683,2.262 c1.131,0.283,1.791,0.471,2.639,0.377c0.094,2.168,0.565,8.105,1.32,13.855c-0.472,0.66-1.885,0.754-2.545,0.188 c-1.414-6.409-5.655-13.761-19.322-13.761c-14.42,0-26.673,9.143-26.673,28.653c0,19.793,12.536,30.727,27.993,30.727 c12.159,0,17.531-7.918,19.699-13.478c0.66-0.471,2.074-0.283,2.451,0.377c-0.66,4.901-3.11,11.122-4.524,12.912 c-1.131,0.189-2.262,0.566-3.299,0.943c-2.074,0.754-8.86,2.168-14.892,2.168c-8.483,0-16.589-1.697-23.469-6.315 c-7.54-5.184-13.384-13.761-13.384-25.919C83.367,443.5,88.08,434.546,95.243,428.986z"/><path fill="#005596" d="M165.46,465.179c1.414-0.472,1.603-1.32,1.603-2.733l0.094-4.336c0.094-3.487-1.037-8.2-6.88-8.2 c-2.639,0-5.844,1.32-6.032,4.242c-0.094,1.508-0.188,2.639-0.943,3.205c-1.414,1.131-3.959,1.791-5.372,1.791 c-0.849,0-1.32-0.472-1.32-1.32c0-4.901,10.651-11.593,17.531-11.593c6.786,0,10.085,3.959,9.802,11.028l-0.565,16.4 c-0.188,4.336,0.66,8.2,4.335,8.2c0.943,0,1.791-0.283,2.357-0.565c0.471-0.282,0.943-0.659,1.226-0.659 c0.377,0,0.66,0.565,0.66,1.225c0,0.471-3.299,4.146-7.917,4.146c-2.262,0-4.524-0.848-6.127-2.922 c-0.377-0.564-0.942-1.318-1.508-1.318c-0.66,0-1.791,0.848-3.676,1.885c-2.074,1.131-4.148,2.355-6.787,2.355 c-2.733,0-4.995-0.754-6.598-2.167c-1.791-1.602-2.922-3.959-2.922-6.598c0-3.676,1.791-5.844,7.823-8.012L165.46,465.179z M159.616,481.768c1.885,0,4.807-1.414,5.75-2.358c1.131-1.131,1.131-2.45,1.226-4.43l0.188-5.561c0-1.037-0.377-1.225-0.942-1.225 c-0.566,0-2.168,0.377-3.865,0.942c-5.561,1.885-8.294,3.299-8.294,6.974C153.678,477.715,154.81,481.768,159.616,481.768z"/><path fill="#005596" d="M188.739,457.639c0-3.676,0-4.147-2.545-5.844l-0.848-0.565c-0.377-0.377-0.377-1.414,0.094-1.697 c2.168-0.754,7.163-3.205,9.52-4.618c0.471,0.094,0.754,0.283,0.754,0.66v5.467c0,0.471,0.094,0.754,0.283,0.848 c3.299-2.733,6.881-5.655,10.368-5.655c2.357,0,4.241,1.508,4.241,3.771c0,3.11-2.545,4.335-4.053,4.335 c-0.942,0-1.414-0.283-2.074-0.66c-1.414-0.943-2.828-1.508-4.147-1.508c-1.508,0-2.639,0.848-3.393,1.885 c-0.943,1.319-1.226,4.053-1.226,7.257v12.819c0,6.786,0.188,7.917,3.77,8.199l3.393,0.283c0.66,0.471,0.471,2.074-0.189,2.357 c-4.43-0.189-7.163-0.282-10.462-0.282c-3.393,0-6.221,0.094-8.671,0.282c-0.66-0.282-0.848-1.886-0.188-2.357l1.791-0.283 c3.487-0.564,3.582-1.413,3.582-8.199V457.639z"/><path fill="#005596" d="M247.74,470.928c0,7.446,0.094,10.934,2.733,10.934c1.037,0,2.639-0.471,4.053-0.942 c0.66,0.189,0.754,2.545-0.095,3.017c-3.958,0.565-9.802,1.979-12.441,3.016c-0.566,0-1.037-0.283-1.037-0.754v-1.603 c0-1.414,0-2.545-0.189-2.922h-0.377c-4.147,2.827-7.352,4.335-11.876,4.335c-10.462,0-17.437-8.199-17.437-18.096 c0-13.195,9.991-21.678,22.81-21.678c3.205,0,5.278,0.471,6.315,0.849c0.471,0,0.565-0.566,0.565-1.32V431.53 c0-5.561-0.094-6.126-2.922-7.823l-0.942-0.565c-0.471-0.283-0.471-1.603,0-1.885c2.356-0.754,6.786-2.168,10.179-3.958 c0.377,0,0.754,0.189,0.942,0.566c-0.094,2.828-0.283,7.54-0.283,11.688V470.928z M240.766,456.79c0-1.885-0.377-2.733-1.037-3.676 c-1.414-1.979-4.242-3.959-7.918-3.959c-8.577,0-13.007,7.446-13.007,15.646c0,8.577,4.807,16.683,14.044,16.683 c2.545,0,5.749-1.131,7.258-2.639c0.565-0.566,0.66-1.98,0.66-3.488V456.79z"/><path fill="#005596" d="M263.29,457.639c0-3.676,0-4.147-2.545-5.844l-0.848-0.565c-0.377-0.377-0.377-1.414,0.094-1.697 c2.168-0.754,7.54-3.205,9.708-4.618c0.471,0,0.848,0.189,0.942,0.565c-0.189,3.299-0.377,7.823-0.377,11.688v16.966 c0,6.786,0.188,7.729,3.582,8.199l1.979,0.283c0.66,0.471,0.471,2.074-0.188,2.357c-2.828-0.189-5.561-0.282-8.86-0.282 c-3.393,0-6.221,0.094-8.86,0.282c-0.66-0.282-0.848-1.886-0.188-2.357l1.979-0.283c3.487-0.471,3.582-1.413,3.582-8.199V457.639z M271.113,430.776c0,3.393-2.356,4.901-4.996,4.901c-2.922,0-4.807-2.168-4.807-4.713c0-3.11,2.262-5.089,5.09-5.089 C269.228,425.875,271.113,428.137,271.113,430.776z"/><path fill="#005596" d="M319.086,465.745c0,11.781-8.107,20.264-19.888,20.264c-10.839,0-19.322-7.634-19.322-19.415 c0-11.876,8.955-20.359,20.076-20.359C310.509,446.234,319.086,454.151,319.086,465.745z M298.821,449.061 c-6.221,0-10.839,5.938-10.839,16.306c0,8.577,3.864,17.813,12.159,17.813c8.294,0,10.838-8.671,10.838-15.929 C310.98,459.241,307.776,449.061,298.821,449.061z"/><path fill="#005596" d="M341.8,486.198c-7.918,0-12.914-2.451-14.704-3.488c-1.131-2.072-2.356-8.765-2.545-13.195 c0.472-0.66,1.886-0.848,2.263-0.283c1.414,4.807,5.277,14.044,16.211,14.044c7.918,0,11.781-5.184,11.781-10.839 c0-4.147-0.848-8.766-7.728-13.195l-8.953-5.844c-4.713-3.11-10.18-8.483-10.18-16.212c0-8.954,6.975-16.211,19.226-16.211 c2.922,0,6.317,0.565,8.766,1.225c1.227,0.377,2.545,0.565,3.299,0.565c0.85,2.262,1.697,7.541,1.697,11.499 c-0.377,0.565-1.885,0.849-2.355,0.283c-1.227-4.524-3.772-10.65-12.818-10.65c-9.238,0-11.217,6.126-11.217,10.462 c0,5.467,4.523,9.425,8.012,11.593l7.539,4.713c5.94,3.676,11.783,9.142,11.783,18.097 C361.876,479.128,354.052,486.198,341.8,486.198z"/><path fill="#005596" d="M422.009,460.466c0-6.409-2.828-9.708-8.766-9.708c-3.582,0-6.504,1.602-7.822,3.299 c-1.131,1.414-1.414,2.356-1.414,5.655v14.421c0,6.786,0.188,7.729,3.582,8.199l1.979,0.283c0.66,0.471,0.471,2.074-0.188,2.357 c-2.828-0.189-5.563-0.282-8.861-0.282c-3.393,0-5.938,0.094-8.576,0.282c-0.66-0.282-0.848-1.886-0.189-2.357l1.697-0.283 c3.488-0.564,3.582-1.413,3.582-8.199v-13.667c0-6.315-2.828-9.708-8.672-9.708c-3.863,0-6.504,1.696-7.918,3.393 c-0.941,1.131-1.412,2.356-1.412,5.372v14.609c0,6.786,0.188,7.635,3.58,8.199l1.697,0.283c0.66,0.471,0.471,2.074-0.188,2.357 c-2.545-0.189-5.279-0.282-8.578-0.282c-3.392,0-6.221,0.094-9.142,0.282c-0.66-0.282-0.848-1.886-0.188-2.357l2.262-0.283 c3.486-0.471,3.582-1.413,3.582-8.199v-16.495c0-3.676,0-4.147-2.545-5.844l-0.85-0.565c-0.377-0.377-0.377-1.414,0.094-1.697 c2.168-0.754,7.541-3.205,9.426-4.618c0.377,0,0.85,0.189,1.037,0.66c-0.188,2.168-0.188,3.582-0.188,4.43 c0,0.565,0.377,1.037,1.035,1.037c3.582-2.545,8.012-4.807,12.537-4.807c4.713,0,7.352,1.697,9.99,5.561 c0.848,0.189,1.508-0.189,2.355-0.754c3.771-2.639,8.389-4.807,12.82-4.807c7.539,0,11.215,5.184,11.215,11.688v16.212 c0,6.786,0.189,7.729,3.582,8.199l2.262,0.283c0.66,0.471,0.473,2.074-0.188,2.357c-3.111-0.189-5.844-0.282-9.143-0.282 c-3.395,0-5.939,0.094-8.578,0.282c-0.66-0.282-0.848-1.886-0.188-2.357l1.695-0.283c3.488-0.564,3.582-1.413,3.582-8.199V460.466z"/><path fill="#005596" d="M457.634,465.179c1.414-0.472,1.604-1.32,1.604-2.733l0.094-4.336c0.094-3.487-1.037-8.2-6.881-8.2 c-2.639,0-5.844,1.32-6.031,4.242c-0.096,1.508-0.19,2.639-0.943,3.205c-1.414,1.131-3.959,1.791-5.373,1.791 c-0.848,0-1.318-0.472-1.318-1.32c0-4.901,10.65-11.593,17.531-11.593c6.785,0,10.084,3.959,9.803,11.028l-0.566,16.4 c-0.189,4.336,0.66,8.2,4.336,8.2c0.941,0,1.791-0.283,2.355-0.565c0.473-0.282,0.943-0.659,1.227-0.659 c0.377,0,0.658,0.565,0.658,1.225c0,0.471-3.299,4.146-7.916,4.146c-2.262,0-4.525-0.848-6.127-2.922 c-0.377-0.564-0.943-1.318-1.508-1.318c-0.66,0-1.791,0.848-3.676,1.885c-2.074,1.131-4.147,2.355-6.787,2.355 c-2.732,0-4.994-0.754-6.598-2.167c-1.791-1.602-2.922-3.959-2.922-6.598c0-3.676,1.791-5.844,7.824-8.012L457.634,465.179z M451.79,481.768c1.887,0,4.809-1.414,5.75-2.358c1.131-1.131,1.131-2.45,1.225-4.43l0.189-5.561c0-1.037-0.377-1.225-0.943-1.225 c-0.565,0-2.168,0.377-3.863,0.942c-5.56,1.885-8.295,3.299-8.295,6.974C445.853,477.715,446.984,481.768,451.79,481.768z"/><path fill="#005596" d="M480.913,457.639c0-3.676,0-4.147-2.545-5.844l-0.848-0.565c-0.377-0.377-0.377-1.414,0.094-1.697 c2.168-0.754,7.164-3.205,9.52-4.618c0.471,0.094,0.754,0.283,0.754,0.66v5.467c0,0.471,0.094,0.754,0.283,0.848 c3.299-2.733,6.881-5.655,10.367-5.655c2.358,0,4.242,1.508,4.242,3.771c0,3.11-2.545,4.335-4.053,4.335 c-0.943,0-1.414-0.283-2.074-0.66c-1.414-0.943-2.828-1.508-4.147-1.508c-1.508,0-2.639,0.848-3.394,1.885 c-0.942,1.319-1.225,4.053-1.225,7.257v12.819c0,6.786,0.19,7.917,3.77,8.199l3.395,0.283c0.658,0.471,0.471,2.074-0.189,2.357 c-4.43-0.189-7.162-0.282-10.461-0.282c-3.395,0-6.221,0.094-8.672,0.282c-0.66-0.282-0.848-1.886-0.189-2.357l1.791-0.283 c3.488-0.564,3.582-1.413,3.582-8.199V457.639z"/><path fill="#005596" d="M518.989,451.512c-1.604,0-1.697,0.283-1.697,2.262V471.4c0,5.466,0.66,10.462,6.881,10.462 c0.941,0,1.791-0.189,2.545-0.471c0.848-0.283,2.072-1.32,2.356-1.32c0.754,0,1.131,1.037,0.943,1.603 c-1.697,1.979-5.09,4.335-9.897,4.335c-8.105,0-9.803-4.523-9.803-10.179v-21.584c0-2.545-0.094-2.733-1.979-2.733h-2.641 c-0.565-0.377-0.658-1.414-0.281-1.979c2.733-0.848,5.088-2.073,6.031-2.922c1.225-1.131,3.016-3.676,3.959-5.56 c0.471-0.189,1.602-0.189,1.979,0.471v4.241c0,1.697,0.096,1.791,1.697,1.791h10.463c1.131,0.848,0.942,3.393,0.094,3.958H518.989z"/></g><g><path fill="#005596" d="M364.371,379.31c-2.781,1.968-2.817,1.91-14.495-3.809c-18.691-9.159-68.332-33.475-89.535-36.237 c-31.382-4.1-63.633-8.311-93.901-34.398c-50.056-43.128-66.343-114.735-38.706-170.25c3.639-7.321,8.035-14.279,13.055-20.688 c43.53-55.609,125.859-60.435,183.519-10.756c28.573,24.627,38.734,55.082,48.547,84.528l1.796,5.354 c12.872,38.317,43.966,75.527,54.186,87.753c3.933,4.707,5.545,6.769,3.898,10.644C409.24,346.895,408.166,348.287,364.371,379.31z M360.645,367.378c31.366-19.63,31.96-16.785,60.923-77.092c-0.184-0.22-1.221-1.248-1.419-1.486 c-10.583-12.662-42.784-51.197-56.401-91.719l-1.799-5.375c-9.292-27.875-18.897-56.691-44.971-79.167 c-52.74-45.438-127.774-41.362-167.264,9.082c-4.514,5.768-8.464,12.026-11.739,18.606 c-25.114,50.461-10.063,115.759,35.799,155.272c27.68,23.854,58.251,27.849,87.812,31.712 c23.196,3.015,72.236,27.041,93.176,37.298C356.957,365.593,359.093,366.632,360.645,367.378z"/><path fill="#981B1E" d="M300.591,274.388c-3.882-0.13-7.826-0.422-11.834-0.88l0,0c-15.641,0.967-68.261-1.037-77.094-7.988l0,0 c-11.647-9.181-18.583-21.757-19.355-34.003l0,0c-0.671-10.975,2.084-19.616,6.617-25.907l0,0c3.11-4.309,6.96-7.569,10.921-9.971 l0,0c5.961-3.623,12.192-5.443,16.965-6.41l0,0c1.026-0.205,2.005-0.367,2.895-0.508l0,0c-0.318-2.36-0.586-5.316-0.632-8.635l0,0 c-0.026-4.048,0.317-8.617,1.409-13.301l0,0c1.099-4.661,2.98-9.471,6.097-13.791l0,0c4.481-6.308,11.61-11.54,21.834-13.887l0,0 c11.443-2.656,24.902,0.81,36.527,9.971l0,0c8.845,6.963,16.628,17.199,21.882,30.485l0,0c8.248,20.858,8.702,48.635,10.963,64.434 c6.393,44.285,58.794,81.293,58.794,81.293s-7.525,9.349-7.767,9.123c-66.305-61.915-59.13-65.92-62.09-84.656 c0,0-2.505-48.506-9.889-67.126l0,0c-4.528-11.436-10.974-19.701-17.884-25.148l0,0c-9.151-7.2-19.119-9.496-26.981-7.649l0,0 c-8.214,1.924-13.105,5.703-16.398,10.256l0,0c-2.26,3.113-3.687,6.705-4.54,10.371l0,0c-1.298,5.497-1.285,11.178-0.888,15.453 l0,0c0.18,2.134,0.46,3.904,0.678,5.135l0,0c0.118,0.595,0.197,1.044,0.264,1.35l0,0c0.028,0.152,0.061,0.266,0.09,0.331l0,0 c-0.003,0.032-0.003,0.048,0.001,0.056l0,0l0,0c0,0,0,0,0.003,0.014l0,0c0.397,1.534,0.126,3.113-0.746,4.299l-0.063,0.102l0,0 c-0.84,1.195-2.217,1.904-3.737,1.94l0,0l0,0c-0.282,0.02-5.272,0.236-11.217,2.046l0,0c-3.051,0.909-6.353,2.249-9.402,4.131l0,0 c-3.051,1.882-5.874,4.305-8.09,7.378l0,0c-3.24,4.584-5.299,10.568-4.799,19.389l0,0c0.505,8.434,5.391,17.838,14.538,25.039l0,0 c6.911,5.449,59.372,4.093,71.097,5.459l0,0c3.464,0.42,6.92,0.659,10.327,0.812c0.248,0.011,0.484,0.008,0.719,0.017 L300.591,274.388z"/><path fill="#005596" d="M401.369,330.853c0,0-10.628,17.009-12.277,15.491c-69.373-63.642-70.252-72.891-75.047-96.122 l-0.039-0.321c-0.028-0.466-2.559-48.21-9.68-66.184c-3.976-10.03-9.856-18.323-17.017-23.965 c-7.924-6.245-17.186-8.909-24.764-7.134c-6.707,1.586-11.432,4.507-14.803,9.188c-1.853,2.585-3.227,5.734-4.076,9.338 c-1.279,5.401-1.151,10.881-0.82,14.508c0.171,2.114,0.43,3.814,0.634,4.864c0.094,0.549,0.195,0.973,0.253,1.236l0.084,0.334 c0.595,2.387,0.155,4.845-1.202,6.735c-1.403,1.996-3.566,3.102-5.911,3.176c-0.073,0.001-4.84,0.173-10.533,1.924 c-3.278,0.984-6.243,2.284-8.788,3.856c-3.006,1.86-5.448,4.083-7.26,6.619c-3.344,4.731-4.326,10.725-4.273,17.503 c0.066,8.25,3.531,20.219,14.895,22.665c8.908,1.918,32.31,4.064,47.494,4.382c9.12,0.199,34.121,1.744,34.121,1.744l1.146,16.646 c0,0-79.031-3.04-91.037-7.555c-14.285-5.375-24.426-19.43-24.667-34.077c-0.21-12.834,3.582-24.296,8.878-31.694 c3.096-4.315,7.036-7.936,11.814-10.826c5.139-3.127,11.122-5.4,17.797-6.742c0.136-0.046,0.284-0.063,0.409-0.088 c-0.207-2.092-0.305-4.173-0.342-6.258c-0.02-4.958,0.468-9.677,1.499-13.986c3.679-15.659,14.387-26.193,29.988-29.77 c12.478-2.909,26.588,0.896,38.739,10.454c9.713,7.667,17.568,18.603,22.745,31.685c6.268,15.85,8.122,35.267,9.609,50.881 c0.49,5.238,0.474,10.296,1.529,14.211C343.957,293.491,401.369,330.853,401.369,330.853z"/><path fill="#005596" d="M439.808,335.785c-12.513,25.142-33.312,50.502-60.106,58.743c-3.922,1.209-8.034-1.153-9.176-5.263 c-1.149-4.116,1.097-8.423,5.012-9.63c30.038-9.244,55.431-49.027,61.722-80.598c0.827-4.191,4.757-6.885,8.756-6.005 c4.003,0.88,6.556,4.987,5.723,9.188C449.756,312.15,445.702,323.946,439.808,335.785z"/><path fill="#005596" d="M456.73,352.43c-11.667,23.445-31.074,47.092-56.072,54.797c-3.928,1.198-8.031-1.16-9.182-5.27 c-1.146-4.115,1.101-8.427,5.01-9.633c27.68-8.507,51.063-45.204,56.882-74.318c0.818-4.192,4.748-6.886,8.749-6 c3.992,0.869,6.557,4.983,5.719,9.179C465.997,330.431,462.216,341.409,456.73,352.43z"/><path fill="#005596" d="M473.039,369.654c-10.402,20.887-27.714,41.976-50.032,48.845c-3.92,1.207-8.029-1.145-9.175-5.263 c-1.148-4.113,1.098-8.416,5.01-9.629c24.111-7.422,44.521-39.464,49.59-64.906c0.825-4.194,4.763-6.878,8.753-6.004 c4,0.875,6.559,4.989,5.724,9.183C481.269,350.096,477.913,359.852,473.039,369.654z"/><path fill="#005596" d="M475.41,364.286c8.007,6.846,7.469,21.47-1.221,32.648c-8.666,11.187-22.206,14.704-30.213,7.858 C435.963,397.947,467.39,357.438,475.41,364.286z"/></g><g><path fill="#005596" d="M90.735,521.106c-0.905,0-0.87,0-1.183,0.939l-1.427,4.177c-0.696,2.054-0.557,2.123,0.731,2.332 l1.009,0.174c0.244,0.244,0.209,0.87-0.069,1.01c-1.114-0.069-2.262-0.069-3.689-0.104c-1.148,0-2.228,0.035-3.446,0.104 c-0.244-0.174-0.278-0.696-0.035-1.01l1.044-0.174c1.01-0.174,1.393-0.452,1.914-1.601c0.418-0.905,0.975-2.367,1.706-4.246 l4.768-12.392c0.418-1.113,0.766-1.948,0.662-2.54c1.218-0.244,2.367-1.671,2.436-1.671c0.278,0,0.453,0.104,0.592,0.278 c0.557,1.566,1.009,3.202,1.566,4.769l5.012,14.583c0.801,2.332,0.975,2.541,2.749,2.889l0.522,0.104 c0.278,0.244,0.278,0.836,0.035,1.01c-1.427-0.069-2.715-0.104-4.525-0.104c-1.497,0-3.028,0.069-4.246,0.104 c-0.278-0.174-0.314-0.801-0.105-1.01l0.766-0.104c1.253-0.174,1.427-0.383,0.905-1.845l-1.636-4.733 c-0.313-0.939-0.452-0.939-1.427-0.939H90.735z M94.911,519.539c0.975,0,1.114-0.069,0.835-0.904l-1.462-4.177 c-0.626-1.845-0.8-2.506-0.975-2.75h-0.069c-0.139,0.244-0.453,1.114-1.045,2.75l-1.462,4.072 c-0.348,1.009-0.278,1.009,0.557,1.009H94.911z"/><path fill="#005596" d="M109.24,520.375c0-1.566,0-1.984-0.87-2.507l-0.418-0.243c-0.104-0.14-0.104-0.627,0.035-0.801 c1.531-0.417,3.411-1.253,4.524-1.879c0.244,0,0.383,0.139,0.453,0.278c-0.07,0.661-0.07,1.322-0.07,1.601 c0,0.244,0.104,0.313,0.313,0.349c1.706-0.905,2.61-1.74,4.977-1.74c1.497,0,2.645,0.8,3.132,1.462 c0.209,0.313,0.418,0.522,0.557,0.522c0.139,0,0.348-0.104,0.766-0.348c1.636-1.01,2.819-1.636,4.455-1.636 c2.924,0,4.246,1.948,4.246,4.663v5.396c0,2.575,0.139,2.958,1.323,3.132l0.766,0.104c0.314,0.244,0.139,0.87,0,1.01 c-1.496-0.069-2.68-0.104-3.968-0.104c-1.148,0-2.332,0.035-3.585,0.104c-0.278-0.14-0.313-0.766-0.069-1.01l0.557-0.104 c1.184-0.208,1.323-0.557,1.323-3.132v-4.733c0-1.845-0.627-3.237-2.819-3.237c-1.009,0-1.914,0.522-2.332,1.044 c-0.348,0.418-0.418,0.836-0.418,1.811v5.116c0,2.575,0.139,2.993,1.322,3.167l0.522,0.069c0.244,0.244,0.209,0.87-0.07,1.01 c-1.218-0.069-2.367-0.104-3.654-0.104c-1.149,0-2.332,0.035-3.481,0.104c-0.278-0.14-0.313-0.766-0.069-1.01l0.453-0.069 c1.183-0.174,1.322-0.592,1.322-3.167v-4.733c0-1.845-0.626-3.237-2.645-3.237c-1.184,0-2.088,0.557-2.471,1.079 c-0.418,0.557-0.453,0.87-0.453,2.227v4.664c0,2.575,0.139,2.993,1.323,3.167l0.522,0.069c0.244,0.244,0.209,0.87-0.069,1.01 c-1.218-0.069-2.402-0.104-3.69-0.104c-1.148,0-2.297,0.035-3.62,0.104c-0.279-0.14-0.313-0.766-0.07-1.01l0.626-0.104 c1.184-0.208,1.323-0.557,1.323-3.132V520.375z"/><path fill="#005596" d="M138.445,521.384c-0.662,0-0.731,0.035-0.731,0.452c0,3.133,2.158,5.639,5.255,5.639 c1.393,0,2.541-0.452,3.341-1.74c0.348-0.104,0.731,0.244,0.766,0.557c-1.184,2.785-3.759,3.829-5.882,3.829 c-4.038,0-6.717-2.993-6.717-6.961c0-3.934,2.68-7.727,7.344-7.727c2.576,0,5.221,1.67,5.221,4.698 c0,0.313-0.035,0.523-0.174,0.801c-0.209,0.314-1.009,0.452-2.402,0.452H138.445z M141.647,519.993 c1.009,0,1.461-0.104,1.705-0.244c0.209-0.139,0.348-0.418,0.348-0.73c0-1.253-0.8-2.263-2.297-2.263 c-2.332,0-3.411,2.263-3.411,2.993c0,0.14,0.07,0.244,0.487,0.244H141.647z"/><path fill="#005596" d="M150.34,520.375c0-1.566,0-1.984-0.87-2.507l-0.418-0.243c-0.104-0.14-0.104-0.627,0.035-0.801 c1.497-0.487,3.341-1.253,4.385-1.879c0.209,0,0.418,0.104,0.487,0.313c-0.035,0.662-0.069,1.253-0.069,1.566 c0,0.244,0.139,0.418,0.348,0.418c1.079-0.766,2.228-1.81,3.411-1.81c1.218,0,1.914,0.8,1.914,1.705 c0,1.357-1.01,2.018-1.949,2.018c-0.348,0-0.662-0.104-0.94-0.278c-0.87-0.592-1.462-0.661-1.67-0.661 c-0.801,0-1.009,0.801-1.009,2.506v4.769c0,2.575,0.139,2.958,1.357,3.098l1.357,0.139c0.243,0.244,0.208,0.87-0.07,1.01 c-2.088-0.069-3.272-0.104-4.56-0.104c-1.148,0-2.297,0.035-3.62,0.104c-0.278-0.14-0.313-0.766-0.07-1.01l0.626-0.104 c1.184-0.208,1.323-0.557,1.323-3.132V520.375z"/><path fill="#005596" d="M166.198,525.492c0,2.575,0.139,2.924,1.323,3.132l0.626,0.104c0.244,0.244,0.209,0.87-0.07,1.01 c-1.288-0.069-2.471-0.104-3.759-0.104c-1.148,0-2.332,0.035-3.654,0.104c-0.279-0.14-0.314-0.766-0.07-1.01l0.626-0.104 c1.184-0.208,1.323-0.557,1.323-3.132v-5.116c0-1.566,0-1.984-0.87-2.507l-0.418-0.243c-0.104-0.14-0.104-0.627,0.035-0.801 c1.81-0.522,3.55-1.287,4.524-1.879c0.209,0.034,0.383,0.104,0.487,0.278c-0.069,1.148-0.105,2.819-0.105,4.246V525.492z M162.231,510.142c0-1.184,0.87-2.088,2.123-2.088c1.253,0,2.124,0.904,2.124,2.088s-0.871,2.089-2.124,2.089 C163.101,512.231,162.231,511.326,162.231,510.142z"/><path fill="#005596" d="M180.814,515.92c0.453,0.417,0.696,0.975,0.696,1.774c0,1.114-0.592,1.636-0.87,1.636 c-0.244,0-0.418-0.069-0.662-0.383c-0.766-1.009-1.81-2.123-3.167-2.123c-1.984,0-4.038,1.949-4.038,5.221 c0,2.819,1.81,5.5,4.977,5.5c2.263,0,3.063-0.836,3.759-1.845c0.313-0.035,0.696,0.208,0.731,0.626 c-1.253,2.819-3.933,3.794-6.126,3.794c-1.845,0-3.654-0.731-4.838-1.88c-1.218-1.183-2.019-2.993-2.019-5.012 c0-4.072,2.959-7.796,8.562-7.796C178.83,515.433,179.84,515.572,180.814,515.92z"/><path fill="#005596" d="M194.425,525.213c-0.104,2.018,0.418,3.063,1.671,3.063c0.592,0,1.079-0.383,1.184-0.383 c0.174,0,0.417,0.383,0.313,0.696c-0.696,0.975-2.401,1.531-3.48,1.531c-0.87,0-1.845-0.244-2.506-0.975 c-0.244-0.243-0.383-0.418-0.557-0.418c-0.174,0-0.418,0.175-0.94,0.487c-0.662,0.418-1.705,0.905-2.958,0.905 c-2.367,0-3.55-1.636-3.55-3.376c0-1.253,0.487-2.401,2.889-3.237c1.218-0.417,2.541-0.904,3.829-1.392 c0.696-0.244,0.801-0.558,0.801-0.905l0.035-0.905c0.07-1.774-0.417-3.307-2.123-3.307c-0.975,0-1.706,0.523-1.845,1.532 c-0.07,0.661-0.278,1.009-0.661,1.253c-0.487,0.313-1.462,0.626-2.228,0.626c-0.453,0-0.662-0.243-0.662-0.557 c0-0.418,0.209-1.148,1.357-2.227c1.079-1.01,3.585-2.192,5.36-2.192c2.749,0,4.455,1.287,4.315,4.351L194.425,525.213z M191.014,524.03c0-0.383-0.104-0.592-0.278-0.592c-0.279,0-0.905,0.174-1.532,0.418c-0.975,0.348-1.879,0.835-1.879,2.332 c0,0.904,0.626,2.018,1.949,2.018c1.253,0,1.636-0.836,1.67-1.671L191.014,524.03z"/><path fill="#005596" d="M204.551,525.492c0,2.575,0.139,2.993,1.323,3.167l0.522,0.069c0.244,0.244,0.209,0.87-0.069,1.01 c-1.218-0.069-2.402-0.104-3.689-0.104c-1.114,0-2.297,0.035-3.759,0.104c-0.278-0.14-0.313-0.766-0.069-1.01l0.766-0.104 c1.184-0.174,1.323-0.557,1.323-3.132v-5.116c0-1.566,0-1.984-0.87-2.507l-0.418-0.243c-0.104-0.14-0.104-0.627,0.035-0.801 c1.497-0.417,3.411-1.253,4.524-1.879c0.244,0,0.383,0.139,0.453,0.278c-0.07,0.661-0.07,1.322-0.07,1.601 c0,0.244,0.104,0.313,0.313,0.349c1.636-0.905,2.61-1.74,4.768-1.74c2.819,0,4.142,1.948,4.142,4.663v5.396 c0,2.575,0.139,2.993,1.322,3.132l0.801,0.104c0.244,0.244,0.209,0.87-0.07,1.01c-1.461-0.069-2.645-0.104-3.933-0.104 c-1.149,0-2.332,0.035-3.55,0.104c-0.278-0.14-0.313-0.766-0.07-1.01l0.522-0.069c1.183-0.174,1.322-0.592,1.322-3.167v-4.804 c0-1.774-0.696-3.167-2.784-3.167c-1.079,0-1.949,0.557-2.297,1.079c-0.452,0.626-0.487,0.939-0.487,2.227V525.492z"/><path fill="#005596" d="M247.852,512.509c-0.244,0.278-0.87,0.314-1.114,0.069c-0.591-2.192-2.158-5.081-6.752-5.081 c-4.42,0-8.875,3.132-8.875,10.267c0,7.413,4.629,11.033,9.119,11.033c4.385,0,6.3-2.924,7.275-5.187 c0.313-0.313,0.87-0.174,1.044,0.14c-0.244,2.332-1.184,4.629-1.671,5.29c-0.418,0.069-0.835,0.209-1.218,0.313 c-0.766,0.243-3.167,0.835-5.43,0.835c-3.446,0-6.404-0.696-8.91-2.332c-2.819-1.845-4.942-5.012-4.942-9.571 c0-4.072,1.81-7.239,4.385-9.224c2.576-1.948,6.091-2.958,9.606-2.958c1.984,0,4.385,0.348,6.021,0.766 c0.417,0.105,0.661,0.14,0.974,0.209C247.434,507.88,247.504,509.933,247.852,512.509z"/><path fill="#005596" d="M265.379,522.603c0,4.942-3.48,7.518-7.623,7.518c-4.002,0-7.344-2.541-7.344-7.101 c0-4.664,3.55-7.587,7.622-7.587C261.968,515.433,265.379,518.078,265.379,522.603z M258.174,528.728 c2.402,0,3.098-2.853,3.098-5.534c0-2.923-1.009-6.369-3.585-6.369c-1.775,0-3.167,1.811-3.167,5.674 C254.52,525.665,255.668,528.728,258.174,528.728z"/><path fill="#005596" d="M268.579,510.56c0-2.332-0.035-2.541-0.905-3.098l-0.383-0.244c-0.209-0.139-0.244-0.695,0-0.8 c1.357-0.383,3.167-1.114,4.559-1.671c0.209-0.035,0.418,0.104,0.487,0.278c-0.069,1.393-0.104,3.55-0.104,5.047v15.419 c0,2.575,0.14,2.958,1.323,3.132l0.766,0.104c0.244,0.244,0.209,0.87-0.069,1.01c-1.427-0.069-2.61-0.104-3.898-0.104 c-1.148,0-2.332,0.035-3.759,0.104c-0.278-0.14-0.314-0.766-0.07-1.01l0.731-0.104c1.184-0.174,1.323-0.557,1.323-3.132V510.56z"/><path fill="#005596" d="M277.995,510.56c0-2.332-0.035-2.541-0.905-3.098l-0.383-0.244c-0.209-0.139-0.243-0.695,0-0.8 c1.357-0.383,3.168-1.114,4.56-1.671c0.209-0.035,0.418,0.104,0.487,0.278c-0.069,1.393-0.104,3.55-0.104,5.047v15.419 c0,2.575,0.14,2.958,1.323,3.132l0.766,0.104c0.243,0.244,0.209,0.87-0.07,1.01c-1.427-0.069-2.61-0.104-3.897-0.104 c-1.148,0-2.332,0.035-3.76,0.104c-0.278-0.14-0.313-0.766-0.069-1.01l0.731-0.104c1.183-0.174,1.322-0.557,1.322-3.132V510.56z"/><path fill="#005596" d="M288.751,521.384c-0.661,0-0.731,0.035-0.731,0.452c0,3.133,2.158,5.639,5.256,5.639 c1.393,0,2.541-0.452,3.342-1.74c0.348-0.104,0.73,0.244,0.766,0.557c-1.184,2.785-3.759,3.829-5.882,3.829 c-4.038,0-6.718-2.993-6.718-6.961c0-3.934,2.68-7.727,7.344-7.727c2.575,0,5.221,1.67,5.221,4.698 c0,0.313-0.035,0.523-0.174,0.801c-0.209,0.314-1.01,0.452-2.401,0.452H288.751z M291.953,519.993c1.009,0,1.462-0.104,1.705-0.244 c0.209-0.139,0.349-0.418,0.349-0.73c0-1.253-0.801-2.263-2.298-2.263c-2.332,0-3.41,2.263-3.41,2.993 c0,0.14,0.069,0.244,0.487,0.244H291.953z"/><path fill="#005596" d="M311.346,518.496c0.104,0.348,0.174,0.73,0.174,1.497c0,2.923-1.949,5.742-6.369,5.742 c-0.418,0-0.87-0.069-1.323-0.139c-0.557,0.278-1.079,0.73-1.079,1.357c0,0.695,0.487,1.357,1.915,1.357 c1.009,0,2.331-0.07,3.828-0.07c2.506,0,5.673,0.418,5.673,4.212c0,1.81-1.253,3.516-2.192,4.246 c-1.531,1.253-3.759,2.297-6.752,2.297c-4.908,0-6.509-2.297-6.509-4.106c0-0.522,0.069-0.975,0.487-1.497 c0.314-0.348,1.636-1.113,2.158-1.566c0.278-0.208,0.521-0.661,0.209-0.766c-1.219-0.417-2.298-1.531-2.298-2.889 c0-0.348,0.14-0.626,0.558-0.87c0.522-0.278,2.228-1.357,2.228-1.845c0-0.104,0-0.313-0.14-0.383 c-1.184-0.487-2.575-1.88-2.575-4.142c0-3.133,2.61-5.499,6.369-5.499c1.392,0,2.61,0.278,3.515,0.73 c0.732,0.348,1.114,0.522,1.532,0.522h3.41c0.14,0.104,0.279,0.348,0.279,0.626c0,0.696-0.279,1.114-0.558,1.184H311.346z M305.498,531.338c-1.218,0-1.949,0.104-2.367,0.418c-0.592,0.452-1.044,1.079-1.044,1.949c0,2.123,1.88,3.516,4.56,3.516 c2.959,0,4.629-1.219,4.629-3.237c0-1.775-1.636-2.646-3.794-2.646H305.498z M305.777,524.413c1.322,0,2.297-1.148,2.297-3.585 c0-2.367-1.009-4.072-2.575-4.072c-1.218,0-2.297,1.148-2.297,3.55C303.201,522.986,304.454,524.413,305.777,524.413z"/><path fill="#005596" d="M318.917,521.384c-0.661,0-0.731,0.035-0.731,0.452c0,3.133,2.158,5.639,5.256,5.639 c1.393,0,2.541-0.452,3.342-1.74c0.348-0.104,0.73,0.244,0.766,0.557c-1.184,2.785-3.759,3.829-5.882,3.829 c-4.038,0-6.718-2.993-6.718-6.961c0-3.934,2.68-7.727,7.344-7.727c2.575,0,5.221,1.67,5.221,4.698 c0,0.313-0.035,0.523-0.174,0.801c-0.209,0.314-1.01,0.452-2.401,0.452H318.917z M322.119,519.993c1.009,0,1.462-0.104,1.705-0.244 c0.209-0.139,0.349-0.418,0.349-0.73c0-1.253-0.801-2.263-2.298-2.263c-2.332,0-3.41,2.263-3.41,2.993 c0,0.14,0.069,0.244,0.487,0.244H322.119z"/><path fill="#005596" d="M341.995,517.765c2.018-1.845,3.724-2.332,5.29-2.332c3.098,0,4.315,2.123,4.281,4.733 c-0.035,2.157-1.079,5.325-3.411,7.553c-2.018,1.983-3.968,2.401-5.499,2.401c-2.924,0-4.386-2.019-4.316-4.56 C338.41,523.02,339.872,519.748,341.995,517.765z M345.441,526.814c1.253-1.81,2.924-5.986,2.924-8.249 c0-0.939-0.14-1.879-1.114-1.879c-0.626,0-1.357,0.383-2.262,1.531c-1.636,2.123-3.446,6.265-3.446,8.841 c0,1.044,0.453,1.81,1.253,1.81C343.631,528.868,344.397,528.311,345.441,526.814z"/><path fill="#005596" d="M360.19,517.452c-1.184,3.48-2.715,9.814-3.794,13.226c-0.87,2.715-1.671,4.804-2.75,5.917 c-0.835,0.836-2.645,2.401-4.872,2.401c-1.949,0-3.202-1.113-3.202-2.332c0-0.94,0.975-1.81,1.74-1.81 c0.487,0,0.8,0.244,1.044,0.696c0.696,1.218,1.462,1.914,2.054,1.914c0.521,0,1.009-0.557,1.705-2.958 c1.184-4.177,2.854-10.929,4.595-17.055h-3.098c-0.349-0.487-0.07-1.323,0.417-1.531h3.098c0.801-2.681,1.602-5.082,2.993-7.136 c1.74-2.54,3.934-4.037,6.475-4.037c1.983,0,3.306,1.253,3.306,2.68c0,1.114-1.113,2.019-1.879,2.019 c-0.487,0-0.696-0.208-0.766-0.695c-0.278-2.02-1.114-2.75-1.88-2.75c-0.521,0-1.184,0.452-2.088,2.263 c-1.148,2.297-1.915,4.942-2.681,7.657h4.143c0.278,0.417,0.139,1.253-0.418,1.531H360.19z"/><path fill="#005596" d="M397.677,512.509c-0.243,0.278-0.87,0.314-1.113,0.069c-0.592-2.192-2.158-5.081-6.753-5.081 c-4.42,0-8.875,3.132-8.875,10.267c0,7.413,4.629,11.033,9.119,11.033c4.386,0,6.3-2.924,7.274-5.187 c0.313-0.313,0.87-0.174,1.044,0.14c-0.243,2.332-1.184,4.629-1.671,5.29c-0.417,0.069-0.835,0.209-1.218,0.313 c-0.766,0.243-3.167,0.835-5.43,0.835c-3.446,0-6.404-0.696-8.91-2.332c-2.819-1.845-4.942-5.012-4.942-9.571 c0-4.072,1.81-7.239,4.386-9.224c2.575-1.948,6.091-2.958,9.606-2.958c1.984,0,4.386,0.348,6.021,0.766 c0.418,0.105,0.661,0.14,0.975,0.209C397.259,507.88,397.329,509.933,397.677,512.509z"/><path fill="#005596" d="M410.917,525.213c-0.104,2.018,0.417,3.063,1.67,3.063c0.592,0,1.079-0.383,1.184-0.383 c0.174,0,0.418,0.383,0.313,0.696c-0.696,0.975-2.401,1.531-3.48,1.531c-0.87,0-1.845-0.244-2.506-0.975 c-0.244-0.243-0.383-0.418-0.557-0.418c-0.175,0-0.418,0.175-0.94,0.487c-0.661,0.418-1.705,0.905-2.958,0.905 c-2.367,0-3.55-1.636-3.55-3.376c0-1.253,0.486-2.401,2.889-3.237c1.218-0.417,2.54-0.904,3.828-1.392 c0.696-0.244,0.801-0.558,0.801-0.905l0.035-0.905c0.069-1.774-0.418-3.307-2.124-3.307c-0.974,0-1.705,0.523-1.845,1.532 c-0.069,0.661-0.278,1.009-0.661,1.253c-0.487,0.313-1.462,0.626-2.228,0.626c-0.452,0-0.661-0.243-0.661-0.557 c0-0.418,0.209-1.148,1.357-2.227c1.079-1.01,3.585-2.192,5.36-2.192c2.749,0,4.455,1.287,4.315,4.351L410.917,525.213z M407.506,524.03c0-0.383-0.104-0.592-0.278-0.592c-0.278,0-0.905,0.174-1.531,0.418c-0.975,0.348-1.88,0.835-1.88,2.332 c0,0.904,0.627,2.018,1.949,2.018c1.253,0,1.636-0.836,1.671-1.671L407.506,524.03z"/><path fill="#005596" d="M417.333,520.375c0-1.566,0-1.984-0.87-2.507l-0.418-0.243c-0.105-0.14-0.105-0.627,0.035-0.801 c1.497-0.487,3.341-1.253,4.386-1.879c0.209,0,0.417,0.104,0.487,0.313c-0.035,0.662-0.07,1.253-0.07,1.566 c0,0.244,0.14,0.418,0.349,0.418c1.079-0.766,2.228-1.81,3.411-1.81c1.218,0,1.914,0.8,1.914,1.705c0,1.357-1.01,2.018-1.949,2.018 c-0.349,0-0.661-0.104-0.94-0.278c-0.87-0.592-1.462-0.661-1.671-0.661c-0.801,0-1.01,0.801-1.01,2.506v4.769 c0,2.575,0.14,2.958,1.357,3.098l1.357,0.139c0.244,0.244,0.209,0.87-0.069,1.01c-2.088-0.069-3.271-0.104-4.56-0.104 c-1.148,0-2.297,0.035-3.62,0.104c-0.278-0.14-0.313-0.766-0.069-1.01l0.627-0.104c1.183-0.208,1.322-0.557,1.322-3.132V520.375z"/><path fill="#005596" d="M441.267,523.96c0,3.167,0.243,4.246,0.835,4.246c0.383,0,0.94-0.104,1.462-0.313 c0.278,0.209,0.349,1.044-0.034,1.253c-1.775,0.174-4.247,0.766-5.5,1.322c-0.174-0.034-0.348-0.174-0.417-0.383l0.069-0.521 c0.069-0.522,0.035-0.801-0.035-0.975l-0.174-0.035c-1.044,0.766-2.332,1.566-4.003,1.566c-3.968,0-6.438-3.202-6.438-6.683 c0-5.012,4.003-8.005,8.353-8.005c0.904,0,1.565,0.104,2.019,0.243c0.139-0.035,0.209-0.174,0.209-0.557v-4.559 c0-2.332-0.07-2.541-0.801-3.028l-0.487-0.313c-0.209-0.139-0.244-0.695,0-0.8c1.357-0.383,3.167-1.114,4.559-1.671 c0.209-0.035,0.418,0.104,0.487,0.278c-0.069,1.393-0.104,3.55-0.104,5.047V523.96z M437.613,519.679 c0-0.696-0.105-1.184-0.453-1.671c-0.487-0.661-1.253-1.184-2.332-1.184c-2.366,0-3.863,2.332-3.863,5.256 c0,3.585,1.88,5.952,4.351,5.952c0.836,0,1.775-0.453,2.054-0.767c0.174-0.174,0.244-0.487,0.244-0.975V519.679z"/><path fill="#005596" d="M450.945,525.492c0,2.575,0.139,2.924,1.322,3.132l0.627,0.104c0.243,0.244,0.208,0.87-0.07,1.01 c-1.287-0.069-2.471-0.104-3.759-0.104c-1.148,0-2.332,0.035-3.654,0.104c-0.278-0.14-0.313-0.766-0.069-1.01l0.626-0.104 c1.184-0.208,1.322-0.557,1.322-3.132v-5.116c0-1.566,0-1.984-0.87-2.507l-0.417-0.243c-0.105-0.14-0.105-0.627,0.034-0.801 c1.811-0.522,3.551-1.287,4.525-1.879c0.208,0.034,0.383,0.104,0.487,0.278c-0.07,1.148-0.104,2.819-0.104,4.246V525.492z M446.977,510.142c0-1.184,0.87-2.088,2.123-2.088c1.253,0,2.123,0.904,2.123,2.088s-0.87,2.089-2.123,2.089 C447.847,512.231,446.977,511.326,446.977,510.142z"/><path fill="#005596" d="M468.971,522.603c0,4.942-3.48,7.518-7.622,7.518c-4.003,0-7.344-2.541-7.344-7.101 c0-4.664,3.55-7.587,7.622-7.587C465.561,515.433,468.971,518.078,468.971,522.603z M461.767,528.728 c2.401,0,3.098-2.853,3.098-5.534c0-2.923-1.01-6.369-3.585-6.369c-1.775,0-3.168,1.811-3.168,5.674 C458.112,525.665,459.261,528.728,461.767,528.728z"/><path fill="#005596" d="M472.171,510.56c0-2.332-0.035-2.541-0.905-3.098l-0.383-0.244c-0.209-0.139-0.243-0.695,0-0.8 c1.357-0.383,3.168-1.114,4.56-1.671c0.209-0.035,0.418,0.104,0.487,0.278c-0.069,1.393-0.104,3.55-0.104,5.047v15.419 c0,2.575,0.14,2.958,1.323,3.132l0.766,0.104c0.243,0.244,0.209,0.87-0.07,1.01c-1.427-0.069-2.61-0.104-3.898-0.104 c-1.148,0-2.332,0.035-3.76,0.104c-0.278-0.14-0.313-0.766-0.069-1.01l0.732-0.104c1.183-0.174,1.322-0.557,1.322-3.132V510.56z"/><path fill="#005596" d="M493.925,522.603c0,4.942-3.48,7.518-7.622,7.518c-4.003,0-7.344-2.541-7.344-7.101 c0-4.664,3.55-7.587,7.622-7.587C490.515,515.433,493.925,518.078,493.925,522.603z M486.721,528.728 c2.401,0,3.098-2.853,3.098-5.534c0-2.923-1.01-6.369-3.585-6.369c-1.775,0-3.168,1.811-3.168,5.674 C483.066,525.665,484.215,528.728,486.721,528.728z"/><path fill="#005596" d="M508.072,518.496c0.104,0.348,0.174,0.73,0.174,1.497c0,2.923-1.949,5.742-6.369,5.742 c-0.418,0-0.87-0.069-1.323-0.139c-0.557,0.278-1.079,0.73-1.079,1.357c0,0.695,0.487,1.357,1.915,1.357 c1.009,0,2.331-0.07,3.828-0.07c2.506,0,5.673,0.418,5.673,4.212c0,1.81-1.253,3.516-2.192,4.246 c-1.531,1.253-3.759,2.297-6.752,2.297c-4.908,0-6.509-2.297-6.509-4.106c0-0.522,0.069-0.975,0.487-1.497 c0.313-0.348,1.636-1.113,2.158-1.566c0.278-0.208,0.521-0.661,0.209-0.766c-1.219-0.417-2.298-1.531-2.298-2.889 c0-0.348,0.14-0.626,0.558-0.87c0.522-0.278,2.228-1.357,2.228-1.845c0-0.104,0-0.313-0.14-0.383 c-1.184-0.487-2.575-1.88-2.575-4.142c0-3.133,2.61-5.499,6.369-5.499c1.392,0,2.61,0.278,3.515,0.73 c0.731,0.348,1.114,0.522,1.532,0.522h3.41c0.14,0.104,0.279,0.348,0.279,0.626c0,0.696-0.279,1.114-0.558,1.184H508.072z M502.225,531.338c-1.218,0-1.949,0.104-2.367,0.418c-0.592,0.452-1.044,1.079-1.044,1.949c0,2.123,1.88,3.516,4.56,3.516 c2.959,0,4.629-1.219,4.629-3.237c0-1.775-1.636-2.646-3.794-2.646H502.225z M502.503,524.413c1.322,0,2.297-1.148,2.297-3.585 c0-2.367-1.009-4.072-2.575-4.072c-1.218,0-2.297,1.148-2.297,3.55C499.928,522.986,501.181,524.413,502.503,524.413z"/><path fill="#005596" d="M512.668,536.456c0-1.149,0.801-1.532,1.775-1.566l0.766-0.035c0.487-0.035,1.113-0.209,1.462-0.696 c0.731-1.044,1.705-2.889,1.705-4.351c0-0.521-0.069-1.253-0.592-2.575l-2.819-7.31c-0.835-2.157-1.079-2.68-2.401-2.958 l-0.696-0.14c-0.278-0.278-0.278-0.87,0.105-1.009c1.148,0.069,2.575,0.105,3.863,0.105c1.219,0,2.506-0.035,3.689-0.105 c0.278,0.139,0.313,0.766,0.069,1.009l-1.044,0.209c-0.801,0.174-0.835,0.313-0.243,1.845l1.531,4.003 c0.661,1.774,1.079,2.61,1.184,2.645c0.139-0.034,0.661-1.148,1.113-2.157l1.044-2.332c0.836-1.88,1.253-3.237,1.253-3.376 c0-0.313-0.139-0.487-0.661-0.592l-1.184-0.244c-0.243-0.278-0.208-0.835,0.07-1.009c1.253,0.069,2.541,0.105,3.307,0.105 c0.904,0,1.845-0.035,2.784-0.105c0.348,0.105,0.348,0.766,0.104,1.009c-0.418,0.104-1.497,0.278-1.984,0.766 c-0.383,0.383-1.044,1.358-2.123,3.516l-1.774,3.55c-1.184,2.367-4.281,8.563-5.743,11.765c-0.592,1.322-1.497,1.88-2.646,1.88 C513.26,538.3,512.668,537.464,512.668,536.456z"/></g><g><path fill="#005596" d="M526.201,439.221c0.609,0,1.205,0.155,1.784,0.468c0.579,0.311,1.032,0.758,1.357,1.339 c0.325,0.582,0.488,1.188,0.488,1.818c0,0.627-0.16,1.228-0.481,1.805c-0.32,0.576-0.768,1.023-1.346,1.343 c-0.575,0.318-1.178,0.478-1.804,0.478c-0.628,0-1.228-0.159-1.803-0.478c-0.575-0.319-1.023-0.767-1.343-1.343 c-0.32-0.576-0.481-1.178-0.481-1.805c0-0.631,0.163-1.236,0.488-1.818c0.325-0.581,0.778-1.027,1.357-1.339 C525,439.376,525.594,439.221,526.201,439.221z M526.201,439.538c-0.556,0-1.099,0.143-1.626,0.429 c-0.529,0.286-0.942,0.694-1.238,1.224c-0.297,0.529-0.445,1.081-0.445,1.656c0,0.572,0.145,1.119,0.438,1.643 c0.291,0.525,0.699,0.933,1.224,1.226c0.525,0.293,1.074,0.44,1.647,0.44c0.572,0,1.122-0.147,1.648-0.44 c0.526-0.293,0.936-0.701,1.227-1.226c0.292-0.524,0.438-1.071,0.438-1.643c0-0.575-0.148-1.127-0.445-1.656 c-0.296-0.529-0.708-0.938-1.237-1.224C527.303,439.681,526.759,439.538,526.201,439.538z M524.196,440.622h1.974 c0.494,0,0.871,0.111,1.13,0.334c0.26,0.223,0.389,0.492,0.389,0.809c0,0.259-0.088,0.486-0.264,0.682 c-0.175,0.195-0.465,0.346-0.87,0.451l1.068,1.52c0.129,0.182,0.244,0.305,0.347,0.373c0.065,0.041,0.155,0.066,0.271,0.076v0.169 h-0.94l-1.503-2.066h-0.389v1.575c0.019,0.112,0.068,0.194,0.145,0.245c0.077,0.051,0.23,0.076,0.458,0.076v0.169h-1.877v-0.169 c0.17,0,0.291-0.022,0.36-0.066c0.07-0.044,0.121-0.11,0.151-0.199c0.013-0.043,0.02-0.19,0.02-0.439v-2.667 c0-0.252-0.005-0.4-0.015-0.444c-0.024-0.077-0.068-0.138-0.131-0.181c-0.063-0.043-0.171-0.064-0.324-0.064V440.622z M525.408,442.748h0.153c0.454,0,0.784-0.088,0.992-0.265c0.207-0.177,0.312-0.397,0.312-0.663c0-0.275-0.097-0.507-0.289-0.693 c-0.193-0.188-0.439-0.28-0.739-0.28c-0.129,0-0.272,0.026-0.429,0.081V442.748z"/></g><rect width="447.688" height="1.418" x="83.012" y="495.741" fill="#005596"/></svg>