<svg xmlns="http://www.w3.org/2000/svg" xmlns:xlink="http://www.w3.org/1999/xlink" id="Layer_1" width="600" height="200" x="0" y="0" enable-background="new 0 0 600 200" version="1.1" viewBox="0 0 600 200" xml:space="preserve"><g><path fill="#005596" d="M134.625,62.219c6.881-5.373,15.646-8.012,25.449-8.012c5.089,0,12.253,1.037,16.683,2.262 c1.131,0.283,1.791,0.471,2.639,0.377c0.094,2.167,0.566,8.105,1.32,13.855c-0.472,0.66-1.885,0.754-2.545,0.188 c-1.414-6.409-5.655-13.761-19.322-13.761c-14.42,0-26.673,9.143-26.673,28.653c0,19.794,12.536,30.727,27.993,30.727 c12.159,0,17.531-7.918,19.699-13.479c0.66-0.471,2.074-0.283,2.451,0.377c-0.66,4.901-3.11,11.122-4.524,12.912 c-1.131,0.189-2.262,0.566-3.299,0.943c-2.074,0.754-8.86,2.168-14.892,2.168c-8.483,0-16.589-1.697-23.469-6.315 c-7.541-5.184-13.384-13.761-13.384-25.919C122.749,76.734,127.462,67.78,134.625,62.219z"/><path fill="#005596" d="M204.843,98.412c1.414-0.472,1.602-1.32,1.602-2.733l0.094-4.336c0.094-3.487-1.037-8.2-6.88-8.2 c-2.639,0-5.844,1.32-6.032,4.242c-0.094,1.508-0.189,2.639-0.943,3.205c-1.414,1.131-3.958,1.791-5.372,1.791 c-0.849,0-1.32-0.472-1.32-1.32c0-4.901,10.651-11.593,17.531-11.593c6.786,0,10.085,3.959,9.802,11.028l-0.565,16.4 c-0.189,4.336,0.66,8.2,4.335,8.2c0.943,0,1.791-0.283,2.357-0.565c0.471-0.282,0.943-0.659,1.226-0.659 c0.377,0,0.66,0.564,0.66,1.225c0,0.471-3.299,4.146-7.917,4.146c-2.262,0-4.524-0.848-6.126-2.922 c-0.377-0.564-0.942-1.318-1.508-1.318c-0.66,0-1.791,0.848-3.676,1.885c-2.074,1.131-4.147,2.355-6.787,2.355 c-2.733,0-4.995-0.754-6.598-2.167c-1.791-1.603-2.922-3.959-2.922-6.598c0-3.676,1.791-5.844,7.823-8.012L204.843,98.412z M198.999,115.001c1.885,0,4.807-1.414,5.749-2.357c1.131-1.131,1.131-2.45,1.226-4.43l0.188-5.561 c0-1.037-0.377-1.225-0.942-1.225c-0.566,0-2.168,0.377-3.865,0.942c-5.561,1.885-8.294,3.299-8.294,6.974 C193.061,110.949,194.192,115.001,198.999,115.001z"/><path fill="#005596" d="M228.122,90.872c0-3.676,0-4.147-2.545-5.844l-0.848-0.565c-0.377-0.377-0.377-1.414,0.094-1.697 c2.168-0.754,7.163-3.205,9.52-4.618c0.471,0.094,0.754,0.283,0.754,0.66v5.467c0,0.471,0.094,0.754,0.283,0.848 c3.299-2.733,6.881-5.655,10.368-5.655c2.356,0,4.241,1.508,4.241,3.771c0,3.11-2.545,4.335-4.053,4.335 c-0.942,0-1.414-0.283-2.074-0.66c-1.414-0.943-2.828-1.508-4.147-1.508c-1.508,0-2.639,0.848-3.393,1.885 c-0.943,1.319-1.226,4.053-1.226,7.257v12.819c0,6.786,0.188,7.917,3.77,8.199l3.393,0.283c0.66,0.471,0.471,2.074-0.189,2.356 c-4.43-0.188-7.163-0.282-10.462-0.282c-3.393,0-6.221,0.094-8.671,0.282c-0.66-0.282-0.848-1.886-0.188-2.356l1.791-0.283 c3.487-0.564,3.581-1.413,3.581-8.199V90.872z"/><path fill="#005596" d="M287.123,104.161c0,7.446,0.094,10.934,2.733,10.934c1.037,0,2.639-0.471,4.053-0.942 c0.66,0.188,0.754,2.545-0.095,3.017c-3.958,0.565-9.802,1.979-12.441,3.016c-0.565,0-1.037-0.283-1.037-0.754v-1.603 c0-1.414,0-2.545-0.189-2.922h-0.377c-4.147,2.827-7.352,4.335-11.876,4.335c-10.462,0-17.437-8.199-17.437-18.096 c0-13.195,9.991-21.678,22.81-21.678c3.205,0,5.278,0.471,6.315,0.849c0.471,0,0.565-0.566,0.565-1.32V64.763 c0-5.561-0.094-6.126-2.922-7.823l-0.942-0.565c-0.471-0.283-0.471-1.603,0-1.885c2.356-0.754,6.786-2.168,10.179-3.958 c0.377,0,0.754,0.188,0.942,0.565c-0.094,2.828-0.283,7.54-0.283,11.688V104.161z M280.148,90.024c0-1.885-0.377-2.733-1.037-3.676 c-1.414-1.979-4.242-3.959-7.918-3.959c-8.577,0-13.007,7.446-13.007,15.646c0,8.577,4.807,16.683,14.044,16.683 c2.545,0,5.749-1.131,7.258-2.639c0.565-0.566,0.66-1.98,0.66-3.488V90.024z"/><path fill="#005596" d="M302.672,90.872c0-3.676,0-4.147-2.545-5.844l-0.848-0.565c-0.377-0.377-0.377-1.414,0.094-1.697 c2.168-0.754,7.54-3.205,9.708-4.618c0.471,0,0.848,0.188,0.942,0.566c-0.189,3.299-0.377,7.823-0.377,11.688v16.966 c0,6.786,0.189,7.729,3.582,8.199l1.979,0.283c0.66,0.471,0.471,2.074-0.188,2.356c-2.828-0.188-5.561-0.282-8.86-0.282 c-3.393,0-6.221,0.094-8.86,0.282c-0.66-0.282-0.848-1.886-0.188-2.356l1.979-0.283c3.487-0.471,3.582-1.413,3.582-8.199V90.872z M310.496,64.01c0,3.393-2.356,4.901-4.996,4.901c-2.922,0-4.807-2.168-4.807-4.713c0-3.11,2.262-5.089,5.09-5.089 C308.61,59.109,310.496,61.37,310.496,64.01z"/><path fill="#005596" d="M358.469,98.978c0,11.781-8.107,20.264-19.888,20.264c-10.839,0-19.322-7.634-19.322-19.416 c0-11.876,8.955-20.359,20.076-20.359C349.892,79.467,358.469,87.385,358.469,98.978z M338.204,82.295 c-6.221,0-10.839,5.938-10.839,16.306c0,8.577,3.864,17.813,12.159,17.813c8.294,0,10.838-8.671,10.838-15.929 C350.362,92.474,347.158,82.295,338.204,82.295z"/><path fill="#005596" d="M381.183,119.431c-7.918,0-12.914-2.451-14.704-3.488c-1.131-2.072-2.357-8.765-2.545-13.195 c0.472-0.66,1.886-0.848,2.263-0.283c1.414,4.807,5.277,14.044,16.211,14.044c7.918,0,11.781-5.184,11.781-10.839 c0-4.147-0.848-8.766-7.728-13.195l-8.953-5.844c-4.713-3.11-10.18-8.483-10.18-16.212c0-8.954,6.975-16.211,19.227-16.211 c2.922,0,6.316,0.565,8.766,1.225c1.227,0.377,2.545,0.565,3.299,0.565c0.85,2.262,1.697,7.541,1.697,11.499 c-0.377,0.565-1.885,0.849-2.355,0.283c-1.227-4.524-3.772-10.65-12.818-10.65c-9.238,0-11.217,6.126-11.217,10.462 c0,5.467,4.523,9.425,8.012,11.593l7.539,4.713c5.939,3.676,11.783,9.143,11.783,18.097 C401.259,112.362,393.435,119.431,381.183,119.431z"/><path fill="#005596" d="M461.392,93.7c0-6.409-2.828-9.708-8.766-9.708c-3.582,0-6.504,1.602-7.822,3.299 c-1.131,1.414-1.414,2.356-1.414,5.655v14.421c0,6.786,0.188,7.729,3.582,8.199l1.979,0.283c0.66,0.471,0.471,2.074-0.188,2.356 c-2.828-0.188-5.562-0.282-8.861-0.282c-3.393,0-5.938,0.094-8.576,0.282c-0.66-0.282-0.848-1.886-0.189-2.356l1.697-0.283 c3.488-0.564,3.582-1.413,3.582-8.199V93.7c0-6.315-2.828-9.708-8.672-9.708c-3.863,0-6.504,1.696-7.918,3.393 c-0.941,1.131-1.412,2.356-1.412,5.373v14.609c0,6.786,0.188,7.635,3.58,8.199l1.697,0.283c0.66,0.471,0.471,2.074-0.188,2.356 c-2.545-0.188-5.279-0.282-8.578-0.282c-3.392,0-6.221,0.094-9.142,0.282c-0.66-0.282-0.848-1.886-0.188-2.356l2.262-0.283 c3.486-0.471,3.582-1.413,3.582-8.199V90.872c0-3.676,0-4.147-2.545-5.844l-0.85-0.565c-0.377-0.377-0.377-1.414,0.094-1.697 c2.168-0.754,7.541-3.205,9.426-4.618c0.377,0,0.85,0.188,1.037,0.66c-0.188,2.168-0.188,3.582-0.188,4.43 c0,0.565,0.377,1.037,1.035,1.037c3.582-2.545,8.012-4.807,12.537-4.807c4.713,0,7.352,1.697,9.99,5.561 c0.848,0.188,1.508-0.188,2.355-0.754c3.771-2.639,8.389-4.807,12.82-4.807c7.539,0,11.215,5.184,11.215,11.688v16.212 c0,6.786,0.189,7.729,3.582,8.199l2.262,0.283c0.66,0.471,0.473,2.074-0.188,2.356c-3.111-0.188-5.844-0.282-9.143-0.282 c-3.395,0-5.939,0.094-8.578,0.282c-0.66-0.282-0.848-1.886-0.188-2.356l1.695-0.283c3.488-0.564,3.582-1.413,3.582-8.199V93.7z"/><path fill="#005596" d="M497.017,98.412c1.414-0.472,1.604-1.32,1.604-2.733l0.094-4.336c0.094-3.487-1.037-8.2-6.881-8.2 c-2.639,0-5.844,1.32-6.031,4.242c-0.096,1.508-0.19,2.639-0.943,3.205c-1.414,1.131-3.959,1.791-5.373,1.791 c-0.848,0-1.318-0.472-1.318-1.32c0-4.901,10.65-11.593,17.531-11.593c6.785,0,10.084,3.959,9.803,11.028l-0.566,16.4 c-0.189,4.336,0.66,8.2,4.336,8.2c0.941,0,1.791-0.283,2.355-0.565c0.473-0.282,0.943-0.659,1.227-0.659 c0.377,0,0.658,0.564,0.658,1.225c0,0.471-3.299,4.146-7.916,4.146c-2.262,0-4.525-0.848-6.127-2.922 c-0.377-0.564-0.943-1.318-1.508-1.318c-0.66,0-1.791,0.848-3.676,1.885c-2.074,1.131-4.147,2.355-6.787,2.355 c-2.732,0-4.994-0.754-6.598-2.167c-1.791-1.603-2.922-3.959-2.922-6.598c0-3.676,1.791-5.844,7.824-8.012L497.017,98.412z M491.173,115.001c1.887,0,4.809-1.414,5.75-2.357c1.131-1.131,1.131-2.45,1.225-4.43l0.19-5.561c0-1.037-0.377-1.225-0.943-1.225 c-0.565,0-2.168,0.377-3.863,0.942c-5.56,1.885-8.295,3.299-8.295,6.974C485.235,110.949,486.366,115.001,491.173,115.001z"/><path fill="#005596" d="M520.296,90.872c0-3.676,0-4.147-2.545-5.844l-0.848-0.565c-0.377-0.377-0.377-1.414,0.094-1.697 c2.168-0.754,7.164-3.205,9.52-4.618c0.471,0.094,0.754,0.283,0.754,0.66v5.467c0,0.471,0.094,0.754,0.283,0.848 c3.299-2.733,6.881-5.655,10.367-5.655c2.357,0,4.242,1.508,4.242,3.771c0,3.11-2.545,4.335-4.053,4.335 c-0.943,0-1.414-0.283-2.074-0.66c-1.414-0.943-2.828-1.508-4.147-1.508c-1.508,0-2.639,0.848-3.394,1.885 c-0.942,1.319-1.225,4.053-1.225,7.257v12.819c0,6.786,0.19,7.917,3.77,8.199l3.394,0.283c0.658,0.471,0.471,2.074-0.189,2.356 c-4.43-0.188-7.162-0.282-10.461-0.282c-3.395,0-6.221,0.094-8.672,0.282c-0.66-0.282-0.848-1.886-0.189-2.356l1.791-0.283 c3.488-0.564,3.582-1.413,3.582-8.199V90.872z"/><path fill="#005596" d="M558.372,84.745c-1.604,0-1.697,0.283-1.697,2.262v17.626c0,5.466,0.66,10.462,6.881,10.462 c0.941,0,1.791-0.188,2.545-0.471c0.848-0.283,2.072-1.32,2.355-1.32c0.754,0,1.131,1.037,0.943,1.603 c-1.697,1.979-5.09,4.335-9.896,4.335c-8.106,0-9.803-4.523-9.803-10.179V87.479c0-2.545-0.094-2.733-1.979-2.733h-2.641 c-0.564-0.377-0.658-1.414-0.281-1.979c2.733-0.848,5.088-2.073,6.031-2.922c1.225-1.131,3.016-3.676,3.959-5.561 c0.471-0.189,1.602-0.189,1.978,0.471v4.241c0,1.697,0.096,1.791,1.697,1.791h10.463c1.131,0.848,0.942,3.393,0.094,3.958H558.372z"/></g><g><path fill="#005596" d="M67.034,135.963c-1.092-0.063-1.09-0.085-3.041-3.807c-3.121-5.958-11.41-21.779-16.387-26.653 c-7.364-7.217-14.932-14.633-17.865-27.062C24.889,57.89,34.156,36.978,51.78,28.725c2.323-1.089,4.773-1.939,7.282-2.531 c21.762-5.134,44.017,9.949,49.607,33.622c2.768,11.733-0.335,21.267-3.338,30.482l-0.543,1.678 c-3.881,12.012-2.83,27.353-2.483,32.394c0.133,1.94,0.163,2.769-0.995,3.4C84.774,136.824,84.233,136.956,67.034,135.963z M68.316,132.279c11.83,1.351,11.448,2.171,30.319-7.004c-0.006-0.091-0.082-0.55-0.088-0.647 c-0.358-5.221-1.447-21.107,2.656-33.812l0.546-1.684c2.842-8.724,5.781-17.743,3.255-28.451 c-5.114-21.653-25.335-35.479-45.077-30.822c-2.257,0.533-4.46,1.298-6.549,2.276c-16.018,7.503-24.417,26.612-19.971,45.441 c2.683,11.366,9.856,18.396,16.792,25.195c5.446,5.33,13.634,20.961,17.131,27.635C67.696,131.109,68.054,131.787,68.316,132.279z"/><path fill="#981B1E" d="M70.265,97.431c-0.982-0.799-1.95-1.651-2.902-2.557l0,0c-4.237-2.853-17.502-13.75-18.483-17.214l0,0 c-1.29-4.571-0.719-9.049,1.388-12.228l0,0c1.894-2.844,4.236-4.435,6.596-5.093l0,0c1.618-0.45,3.23-0.494,4.71-0.305l0,0 c2.228,0.283,4.187,1.065,5.606,1.77l0,0c0.305,0.152,0.589,0.306,0.846,0.447l0,0c0.362-0.646,0.85-1.429,1.463-2.258l0,0 c0.756-1.005,1.706-2.067,2.871-3.008l0,0c1.163-0.934,2.557-1.751,4.179-2.202l0,0c2.35-0.673,5.184-0.556,8.277,0.885l0,0 c3.467,1.606,6.304,5.123,7.592,9.685l0,0c0.981,3.469,1.071,7.537-0.07,11.858l0,0c-1.791,6.784-6.906,13.737-9.296,18.087 c-6.686,12.206-0.072,31.709-0.072,31.709s-3.712,0.822-3.732,0.719c-5.526-28.405-2.912-27.977-0.149-33.191 c0,0,8.489-12.48,10.082-18.54l0,0c0.98-3.721,0.866-7.037,0.101-9.749l0,0c-1.016-3.588-3.168-6.126-5.554-7.224l0,0 c-2.492-1.149-4.472-1.182-6.184-0.708l0,0c-1.172,0.322-2.219,0.928-3.131,1.665l0,0c-1.372,1.101-2.439,2.508-3.142,3.643l0,0 c-0.355,0.563-0.616,1.056-0.792,1.403l0,0c-0.081,0.17-0.146,0.297-0.186,0.386l0,0c-0.021,0.043-0.034,0.078-0.039,0.1l0,0 c-0.007,0.007-0.01,0.011-0.01,0.014l0,0l0,0c0,0,0,0-0.002,0.004l0,0c-0.186,0.457-0.554,0.794-1.003,0.915l-0.036,0.013l0,0 c-0.443,0.129-0.934,0.032-1.334-0.259l0,0l0,0c-0.077-0.051-1.411-0.984-3.293-1.712l0,0c-0.962-0.379-2.071-0.7-3.216-0.838l0,0 c-1.146-0.138-2.334-0.098-3.487,0.224l0,0c-1.704,0.492-3.365,1.563-4.897,3.842l0,0c-1.458,2.184-1.963,5.473-0.948,9.061l0,0 c0.765,2.712,14.622,12.749,17.405,15.404l0,0c0.819,0.789,1.67,1.531,2.524,2.242c0.062,0.052,0.124,0.098,0.183,0.146 L70.265,97.431z"/><path fill="#005596" d="M85.755,131.305c0,0-5.96,2.102-6.102,1.4c-5.996-29.438-4.482-31.897-1.349-38.585l0.05-0.087 c0.081-0.121,8.419-12.417,9.959-18.266c0.859-3.264,0.896-6.476,0.103-9.285c-0.878-3.109-2.777-5.599-5.077-6.658 c-2.038-0.934-3.813-1.147-5.569-0.656c-0.967,0.272-1.917,0.779-2.816,1.501c-1.349,1.082-2.348,2.461-2.946,3.422 c-0.354,0.556-0.607,1.027-0.752,1.327c-0.079,0.154-0.133,0.279-0.167,0.355l-0.041,0.099c-0.295,0.708-0.872,1.228-1.58,1.426 c-0.74,0.216-1.509,0.062-2.131-0.384c-0.019-0.014-1.288-0.914-3.093-1.607c-1.035-0.405-2.049-0.67-3.005-0.785 c-1.13-0.135-2.182-0.068-3.129,0.2c-1.758,0.508-3.142,1.795-4.405,3.48c-1.537,2.051-2.894,5.694-0.408,8.544 c1.948,2.235,7.611,7.392,11.488,10.472c2.327,1.852,8.518,7.176,8.518,7.176l-2.839,4.339c0,0-19.917-16.375-22.18-19.864 c-2.691-4.152-2.672-9.629,0.024-13.296c2.363-3.212,5.506-5.295,8.272-6.076c1.616-0.454,3.319-0.57,5.103-0.339 c1.921,0.243,3.901,0.864,5.884,1.853c0.044,0.016,0.085,0.041,0.122,0.059c0.34-0.558,0.707-1.091,1.09-1.614 c0.929-1.229,1.944-2.298,3.023-3.159c3.904-3.142,8.665-3.627,13.383-1.427c3.783,1.748,6.725,5.478,8.074,10.241 c1.074,3.814,1.05,8.069-0.072,12.325c-1.361,5.155-4.538,10.319-7.094,14.471c-0.86,1.391-1.817,2.638-2.281,3.813 C77.909,110.724,85.755,131.305,85.755,131.305z"/><path fill="#005596" d="M94.792,140.122c-7.981,3.738-18.151,5.892-26.65,2.632c-1.245-0.477-1.866-1.873-1.388-3.114 c0.478-1.244,1.871-1.864,3.114-1.389c9.529,3.654,23.608-1.155,31.186-7.712c1.004-0.872,2.53-0.761,3.401,0.247 c0.872,1.009,0.76,2.528-0.247,3.401C101.824,136.249,98.551,138.363,94.792,140.122z"/><path fill="#005596" d="M96.044,147.58c-7.442,3.486-16.928,5.492-24.861,2.454c-1.244-0.48-1.864-1.874-1.388-3.117 c0.478-1.243,1.873-1.864,3.114-1.39c8.779,3.37,21.755-1.074,28.749-7.117c1.002-0.874,2.528-0.763,3.399,0.247 c0.871,1.004,0.761,2.527-0.247,3.398C102.591,143.977,99.542,145.942,96.044,147.58z"/><path fill="#005596" d="M97.027,155.06c-6.632,3.104-15.093,4.892-22.174,2.178c-1.244-0.477-1.866-1.87-1.387-3.114 c0.477-1.243,1.87-1.862,3.113-1.389c7.649,2.933,18.978-0.949,25.085-6.233c1.004-0.873,2.531-0.758,3.4,0.247 c0.872,1.007,0.761,2.529-0.246,3.4C102.846,151.855,100.138,153.602,97.027,155.06z"/><path fill="#005596" d="M98.653,154.202c0.786,3.274-2.108,6.781-6.467,7.825c-4.354,1.051-8.527-0.757-9.314-4.031 C82.084,154.721,97.864,150.925,98.653,154.202z"/></g><g><path fill="#005596" d="M130.117,154.339c-0.905,0-0.87,0-1.183,0.939l-1.427,4.177c-0.696,2.054-0.557,2.123,0.731,2.332 l1.009,0.174c0.244,0.244,0.209,0.87-0.069,1.01c-1.114-0.069-2.262-0.069-3.689-0.104c-1.148,0-2.228,0.035-3.446,0.104 c-0.244-0.174-0.278-0.696-0.035-1.01l1.044-0.174c1.01-0.174,1.393-0.452,1.915-1.601c0.417-0.905,0.975-2.367,1.706-4.246 l4.768-12.392c0.418-1.113,0.766-1.948,0.662-2.54c1.218-0.244,2.367-1.671,2.436-1.671c0.278,0,0.453,0.105,0.592,0.278 c0.557,1.566,1.009,3.202,1.566,4.769l5.012,14.583c0.801,2.332,0.975,2.541,2.749,2.889l0.522,0.104 c0.278,0.244,0.278,0.836,0.035,1.01c-1.427-0.069-2.715-0.104-4.525-0.104c-1.497,0-3.028,0.069-4.246,0.104 c-0.278-0.174-0.314-0.801-0.105-1.01l0.766-0.104c1.253-0.174,1.427-0.383,0.905-1.845l-1.636-4.733 c-0.313-0.939-0.452-0.939-1.427-0.939H130.117z M134.294,152.773c0.975,0,1.114-0.069,0.835-0.904l-1.462-4.177 c-0.626-1.845-0.8-2.506-0.975-2.75h-0.069c-0.139,0.244-0.453,1.114-1.044,2.75l-1.462,4.072 c-0.348,1.009-0.278,1.009,0.557,1.009H134.294z"/><path fill="#005596" d="M148.623,153.609c0-1.566,0-1.984-0.87-2.507l-0.418-0.243c-0.104-0.14-0.104-0.627,0.035-0.801 c1.531-0.417,3.411-1.253,4.524-1.879c0.244,0,0.383,0.139,0.453,0.278c-0.07,0.661-0.07,1.322-0.07,1.601 c0,0.244,0.104,0.313,0.313,0.349c1.706-0.905,2.61-1.74,4.977-1.74c1.497,0,2.645,0.8,3.132,1.462 c0.209,0.313,0.418,0.521,0.557,0.521c0.139,0,0.348-0.105,0.766-0.348c1.636-1.01,2.819-1.636,4.455-1.636 c2.924,0,4.246,1.948,4.246,4.663v5.395c0,2.575,0.139,2.958,1.323,3.132l0.766,0.104c0.313,0.244,0.139,0.87,0,1.01 c-1.497-0.069-2.68-0.104-3.968-0.104c-1.148,0-2.332,0.035-3.585,0.104c-0.278-0.14-0.313-0.766-0.069-1.01l0.557-0.104 c1.184-0.208,1.323-0.557,1.323-3.132v-4.733c0-1.845-0.626-3.237-2.819-3.237c-1.009,0-1.914,0.523-2.332,1.044 c-0.348,0.418-0.418,0.836-0.418,1.811v5.116c0,2.575,0.139,2.993,1.322,3.167l0.522,0.069c0.244,0.244,0.209,0.87-0.07,1.01 c-1.218-0.069-2.367-0.104-3.654-0.104c-1.149,0-2.332,0.035-3.481,0.104c-0.278-0.14-0.313-0.766-0.069-1.01l0.453-0.069 c1.183-0.174,1.322-0.592,1.322-3.167v-4.733c0-1.845-0.626-3.237-2.645-3.237c-1.184,0-2.088,0.557-2.471,1.079 c-0.417,0.557-0.453,0.87-0.453,2.228v4.664c0,2.575,0.139,2.993,1.323,3.167l0.522,0.069c0.244,0.244,0.209,0.87-0.069,1.01 c-1.218-0.069-2.402-0.104-3.689-0.104c-1.148,0-2.297,0.035-3.62,0.104c-0.279-0.14-0.313-0.766-0.07-1.01l0.626-0.104 c1.184-0.208,1.323-0.557,1.323-3.132V153.609z"/><path fill="#005596" d="M177.828,154.617c-0.662,0-0.731,0.035-0.731,0.452c0,3.133,2.158,5.639,5.255,5.639 c1.393,0,2.541-0.452,3.341-1.74c0.348-0.104,0.731,0.244,0.766,0.557c-1.184,2.785-3.759,3.829-5.882,3.829 c-4.038,0-6.717-2.993-6.717-6.961c0-3.934,2.68-7.727,7.344-7.727c2.576,0,5.221,1.67,5.221,4.698 c0,0.313-0.035,0.522-0.174,0.801c-0.209,0.314-1.009,0.452-2.402,0.452H177.828z M181.03,153.226c1.009,0,1.461-0.105,1.705-0.244 c0.209-0.139,0.348-0.418,0.348-0.73c0-1.253-0.8-2.263-2.297-2.263c-2.332,0-3.411,2.263-3.411,2.993 c0,0.14,0.07,0.244,0.487,0.244H181.03z"/><path fill="#005596" d="M189.722,153.609c0-1.566,0-1.984-0.87-2.507l-0.417-0.243c-0.105-0.14-0.105-0.627,0.035-0.801 c1.497-0.487,3.341-1.253,4.385-1.879c0.209,0,0.418,0.104,0.487,0.313c-0.035,0.662-0.069,1.253-0.069,1.566 c0,0.244,0.139,0.418,0.348,0.418c1.079-0.766,2.228-1.81,3.411-1.81c1.218,0,1.915,0.8,1.915,1.705 c0,1.357-1.01,2.018-1.949,2.018c-0.348,0-0.662-0.104-0.94-0.278c-0.87-0.592-1.462-0.661-1.67-0.661 c-0.801,0-1.009,0.801-1.009,2.506v4.769c0,2.575,0.139,2.958,1.357,3.098l1.357,0.139c0.243,0.244,0.208,0.87-0.07,1.01 c-2.088-0.069-3.272-0.104-4.56-0.104c-1.148,0-2.297,0.035-3.62,0.104c-0.278-0.14-0.314-0.766-0.07-1.01l0.626-0.104 c1.184-0.208,1.323-0.557,1.323-3.132V153.609z"/><path fill="#005596" d="M205.581,158.725c0,2.575,0.139,2.924,1.323,3.132l0.627,0.104c0.244,0.244,0.209,0.87-0.07,1.01 c-1.288-0.069-2.471-0.104-3.759-0.104c-1.148,0-2.332,0.035-3.654,0.104c-0.279-0.14-0.313-0.766-0.07-1.01l0.626-0.104 c1.184-0.208,1.323-0.557,1.323-3.132v-5.116c0-1.566,0-1.984-0.87-2.507l-0.418-0.243c-0.104-0.14-0.104-0.627,0.035-0.801 c1.809-0.521,3.55-1.287,4.524-1.879c0.209,0.034,0.383,0.104,0.487,0.278c-0.069,1.148-0.104,2.819-0.104,4.246V158.725z M201.613,143.375c0-1.184,0.87-2.088,2.123-2.088c1.253,0,2.123,0.904,2.123,2.088c0,1.184-0.871,2.089-2.123,2.089 C202.483,145.464,201.613,144.559,201.613,143.375z"/><path fill="#005596" d="M220.197,149.154c0.453,0.417,0.696,0.975,0.696,1.774c0,1.114-0.592,1.636-0.87,1.636 c-0.244,0-0.418-0.069-0.662-0.383c-0.766-1.009-1.81-2.123-3.167-2.123c-1.984,0-4.038,1.949-4.038,5.221 c0,2.819,1.81,5.5,4.977,5.5c2.263,0,3.063-0.836,3.759-1.845c0.313-0.035,0.696,0.208,0.731,0.626 c-1.253,2.819-3.933,3.794-6.126,3.794c-1.845,0-3.654-0.73-4.838-1.88c-1.218-1.183-2.019-2.993-2.019-5.012 c0-4.072,2.958-7.796,8.562-7.796C218.213,148.666,219.222,148.805,220.197,149.154z"/><path fill="#005596" d="M233.807,158.447c-0.104,2.019,0.418,3.063,1.671,3.063c0.592,0,1.079-0.383,1.184-0.383 c0.174,0,0.417,0.383,0.313,0.696c-0.696,0.975-2.401,1.531-3.48,1.531c-0.87,0-1.845-0.244-2.506-0.975 c-0.244-0.243-0.383-0.418-0.557-0.418c-0.174,0-0.418,0.175-0.94,0.487c-0.662,0.418-1.705,0.905-2.958,0.905 c-2.367,0-3.55-1.636-3.55-3.376c0-1.253,0.487-2.401,2.889-3.237c1.218-0.417,2.541-0.904,3.829-1.392 c0.696-0.244,0.801-0.558,0.801-0.905l0.035-0.905c0.07-1.774-0.417-3.307-2.123-3.307c-0.975,0-1.706,0.522-1.845,1.532 c-0.07,0.661-0.278,1.009-0.661,1.253c-0.487,0.313-1.462,0.626-2.228,0.626c-0.453,0-0.662-0.243-0.662-0.557 c0-0.418,0.209-1.148,1.357-2.227c1.079-1.01,3.585-2.192,5.36-2.192c2.749,0,4.455,1.287,4.315,4.351L233.807,158.447z M230.396,157.263c0-0.383-0.105-0.592-0.278-0.592c-0.279,0-0.905,0.174-1.532,0.418c-0.975,0.348-1.879,0.835-1.879,2.332 c0,0.904,0.626,2.018,1.949,2.018c1.253,0,1.636-0.836,1.67-1.671L230.396,157.263z"/><path fill="#005596" d="M243.934,158.725c0,2.575,0.139,2.993,1.323,3.167l0.522,0.069c0.244,0.244,0.209,0.87-0.069,1.01 c-1.218-0.069-2.402-0.104-3.689-0.104c-1.114,0-2.297,0.035-3.759,0.104c-0.278-0.14-0.313-0.766-0.069-1.01l0.766-0.104 c1.184-0.174,1.323-0.557,1.323-3.132v-5.116c0-1.566,0-1.984-0.87-2.507l-0.418-0.243c-0.104-0.14-0.104-0.627,0.035-0.801 c1.497-0.417,3.411-1.253,4.524-1.879c0.244,0,0.383,0.139,0.453,0.278c-0.07,0.661-0.07,1.322-0.07,1.601 c0,0.244,0.105,0.313,0.314,0.349c1.636-0.905,2.61-1.74,4.768-1.74c2.819,0,4.142,1.948,4.142,4.663v5.395 c0,2.575,0.139,2.993,1.322,3.132l0.801,0.104c0.244,0.244,0.209,0.87-0.07,1.01c-1.461-0.069-2.645-0.104-3.933-0.104 c-1.149,0-2.332,0.035-3.55,0.104c-0.278-0.14-0.314-0.766-0.07-1.01l0.522-0.069c1.183-0.174,1.322-0.592,1.322-3.167v-4.804 c0-1.774-0.696-3.167-2.784-3.167c-1.079,0-1.949,0.557-2.297,1.079c-0.452,0.626-0.487,0.939-0.487,2.228V158.725z"/><path fill="#005596" d="M287.234,145.742c-0.244,0.278-0.87,0.314-1.114,0.069c-0.591-2.192-2.158-5.081-6.752-5.081 c-4.42,0-8.875,3.132-8.875,10.268c0,7.413,4.629,11.033,9.119,11.033c4.385,0,6.3-2.924,7.275-5.186 c0.313-0.314,0.87-0.174,1.044,0.14c-0.244,2.332-1.184,4.629-1.671,5.29c-0.417,0.069-0.835,0.209-1.218,0.313 c-0.766,0.243-3.168,0.835-5.43,0.835c-3.446,0-6.404-0.696-8.91-2.332c-2.819-1.845-4.942-5.012-4.942-9.571 c0-4.072,1.81-7.239,4.385-9.224c2.576-1.948,6.091-2.958,9.606-2.958c1.984,0,4.385,0.348,6.021,0.766 c0.418,0.104,0.661,0.14,0.974,0.209C286.817,141.114,286.887,143.166,287.234,145.742z"/><path fill="#005596" d="M304.762,155.836c0,4.942-3.48,7.518-7.623,7.518c-4.002,0-7.344-2.541-7.344-7.101 c0-4.664,3.55-7.587,7.622-7.587C301.351,148.666,304.762,151.311,304.762,155.836z M297.557,161.961 c2.402,0,3.098-2.854,3.098-5.534c0-2.923-1.009-6.369-3.585-6.369c-1.775,0-3.167,1.811-3.167,5.674 C293.902,158.899,295.051,161.961,297.557,161.961z"/><path fill="#005596" d="M307.962,143.793c0-2.332-0.035-2.541-0.905-3.098l-0.383-0.244c-0.209-0.139-0.244-0.695,0-0.8 c1.357-0.383,3.167-1.114,4.559-1.671c0.209-0.035,0.418,0.104,0.487,0.278c-0.069,1.393-0.104,3.55-0.104,5.047v15.419 c0,2.575,0.14,2.958,1.323,3.132l0.766,0.104c0.244,0.244,0.209,0.87-0.069,1.01c-1.427-0.069-2.61-0.104-3.898-0.104 c-1.148,0-2.332,0.035-3.759,0.104c-0.278-0.14-0.314-0.766-0.07-1.01l0.731-0.104c1.184-0.174,1.323-0.557,1.323-3.132V143.793z"/><path fill="#005596" d="M317.378,143.793c0-2.332-0.035-2.541-0.905-3.098l-0.383-0.244c-0.209-0.139-0.243-0.695,0-0.8 c1.357-0.383,3.168-1.114,4.56-1.671c0.209-0.035,0.418,0.104,0.487,0.278c-0.069,1.393-0.104,3.55-0.104,5.047v15.419 c0,2.575,0.14,2.958,1.323,3.132l0.766,0.104c0.243,0.244,0.209,0.87-0.07,1.01c-1.427-0.069-2.61-0.104-3.897-0.104 c-1.148,0-2.332,0.035-3.76,0.104c-0.278-0.14-0.313-0.766-0.069-1.01l0.731-0.104c1.183-0.174,1.322-0.557,1.322-3.132V143.793z"/><path fill="#005596" d="M328.134,154.617c-0.661,0-0.731,0.035-0.731,0.452c0,3.133,2.158,5.639,5.256,5.639 c1.393,0,2.541-0.452,3.342-1.74c0.348-0.104,0.73,0.244,0.766,0.557c-1.184,2.785-3.759,3.829-5.882,3.829 c-4.038,0-6.718-2.993-6.718-6.961c0-3.934,2.68-7.727,7.344-7.727c2.575,0,5.221,1.67,5.221,4.698 c0,0.313-0.035,0.522-0.174,0.801c-0.209,0.314-1.01,0.452-2.401,0.452H328.134z M331.336,153.226c1.009,0,1.462-0.105,1.705-0.244 c0.209-0.139,0.349-0.418,0.349-0.73c0-1.253-0.801-2.263-2.298-2.263c-2.332,0-3.41,2.263-3.41,2.993 c0,0.14,0.069,0.244,0.487,0.244H331.336z"/><path fill="#005596" d="M350.729,151.729c0.104,0.348,0.174,0.73,0.174,1.497c0,2.923-1.949,5.742-6.369,5.742 c-0.418,0-0.87-0.069-1.323-0.139c-0.557,0.278-1.079,0.73-1.079,1.357c0,0.695,0.487,1.357,1.915,1.357 c1.009,0,2.331-0.07,3.828-0.07c2.506,0,5.673,0.418,5.673,4.212c0,1.81-1.253,3.516-2.192,4.246 c-1.531,1.253-3.759,2.297-6.752,2.297c-4.908,0-6.509-2.297-6.509-4.106c0-0.523,0.069-0.975,0.487-1.497 c0.314-0.348,1.636-1.113,2.158-1.566c0.278-0.208,0.521-0.661,0.209-0.766c-1.219-0.417-2.298-1.531-2.298-2.889 c0-0.348,0.14-0.626,0.558-0.87c0.522-0.278,2.228-1.357,2.228-1.845c0-0.104,0-0.313-0.14-0.383 c-1.184-0.487-2.575-1.88-2.575-4.142c0-3.133,2.61-5.499,6.369-5.499c1.392,0,2.61,0.278,3.515,0.73 c0.731,0.348,1.114,0.522,1.532,0.522h3.41c0.14,0.104,0.279,0.348,0.279,0.626c0,0.696-0.279,1.114-0.558,1.184H350.729z M344.881,164.572c-1.218,0-1.949,0.105-2.367,0.418c-0.592,0.452-1.044,1.079-1.044,1.949c0,2.123,1.88,3.516,4.559,3.516 c2.959,0,4.629-1.219,4.629-3.237c0-1.775-1.636-2.646-3.794-2.646H344.881z M345.159,157.646c1.322,0,2.297-1.148,2.297-3.585 c0-2.367-1.009-4.072-2.575-4.072c-1.218,0-2.297,1.148-2.297,3.55C342.584,156.219,343.837,157.646,345.159,157.646z"/><path fill="#005596" d="M358.3,154.617c-0.661,0-0.731,0.035-0.731,0.452c0,3.133,2.158,5.639,5.256,5.639 c1.392,0,2.541-0.452,3.342-1.74c0.348-0.104,0.73,0.244,0.766,0.557c-1.184,2.785-3.759,3.829-5.882,3.829 c-4.038,0-6.718-2.993-6.718-6.961c0-3.934,2.68-7.727,7.344-7.727c2.575,0,5.221,1.67,5.221,4.698 c0,0.313-0.035,0.522-0.174,0.801c-0.209,0.314-1.01,0.452-2.401,0.452H358.3z M361.502,153.226c1.009,0,1.462-0.105,1.705-0.244 c0.209-0.139,0.349-0.418,0.349-0.73c0-1.253-0.801-2.263-2.298-2.263c-2.332,0-3.41,2.263-3.41,2.993 c0,0.14,0.069,0.244,0.487,0.244H361.502z"/><path fill="#005596" d="M381.378,150.998c2.018-1.845,3.724-2.332,5.29-2.332c3.098,0,4.315,2.123,4.281,4.733 c-0.035,2.157-1.079,5.325-3.411,7.553c-2.018,1.983-3.968,2.401-5.499,2.401c-2.924,0-4.386-2.019-4.316-4.56 C377.793,156.253,379.255,152.982,381.378,150.998z M384.823,160.047c1.253-1.81,2.924-5.986,2.924-8.249 c0-0.939-0.14-1.879-1.114-1.879c-0.626,0-1.357,0.383-2.262,1.531c-1.636,2.123-3.446,6.265-3.446,8.841 c0,1.044,0.453,1.81,1.253,1.81C383.014,162.101,383.779,161.544,384.823,160.047z"/><path fill="#005596" d="M399.572,150.685c-1.184,3.48-2.715,9.814-3.794,13.225c-0.87,2.715-1.671,4.804-2.75,5.917 c-0.835,0.836-2.645,2.401-4.872,2.401c-1.949,0-3.202-1.113-3.202-2.332c0-0.939,0.975-1.81,1.74-1.81 c0.487,0,0.8,0.244,1.044,0.696c0.696,1.218,1.462,1.914,2.054,1.914c0.521,0,1.009-0.557,1.705-2.958 c1.184-4.177,2.854-10.929,4.595-17.055h-3.098c-0.349-0.487-0.07-1.323,0.417-1.531h3.098c0.801-2.681,1.602-5.082,2.993-7.136 c1.74-2.54,3.934-4.037,6.475-4.037c1.983,0,3.306,1.253,3.306,2.68c0,1.114-1.113,2.019-1.879,2.019 c-0.487,0-0.696-0.208-0.766-0.695c-0.278-2.02-1.114-2.75-1.88-2.75c-0.521,0-1.184,0.452-2.088,2.263 c-1.148,2.297-1.915,4.942-2.681,7.657h4.143c0.278,0.417,0.139,1.253-0.418,1.531H399.572z"/><path fill="#005596" d="M437.06,145.742c-0.243,0.278-0.87,0.314-1.113,0.069c-0.592-2.192-2.158-5.081-6.753-5.081 c-4.42,0-8.875,3.132-8.875,10.268c0,7.413,4.629,11.033,9.119,11.033c4.386,0,6.3-2.924,7.275-5.186 c0.313-0.314,0.87-0.174,1.044,0.14c-0.243,2.332-1.184,4.629-1.671,5.29c-0.417,0.069-0.835,0.209-1.218,0.313 c-0.766,0.243-3.167,0.835-5.43,0.835c-3.446,0-6.404-0.696-8.91-2.332c-2.819-1.845-4.942-5.012-4.942-9.571 c0-4.072,1.81-7.239,4.386-9.224c2.575-1.948,6.091-2.958,9.606-2.958c1.984,0,4.386,0.348,6.021,0.766 c0.418,0.104,0.661,0.14,0.975,0.209C436.642,141.114,436.712,143.166,437.06,145.742z"/><path fill="#005596" d="M450.3,158.447c-0.104,2.019,0.417,3.063,1.67,3.063c0.592,0,1.079-0.383,1.184-0.383 c0.174,0,0.418,0.383,0.313,0.696c-0.696,0.975-2.401,1.531-3.48,1.531c-0.87,0-1.845-0.244-2.506-0.975 c-0.244-0.243-0.383-0.418-0.557-0.418c-0.175,0-0.418,0.175-0.941,0.487c-0.661,0.418-1.705,0.905-2.958,0.905 c-2.367,0-3.55-1.636-3.55-3.376c0-1.253,0.486-2.401,2.889-3.237c1.218-0.417,2.54-0.904,3.828-1.392 c0.696-0.244,0.801-0.558,0.801-0.905l0.035-0.905c0.069-1.774-0.418-3.307-2.124-3.307c-0.974,0-1.705,0.522-1.845,1.532 c-0.069,0.661-0.278,1.009-0.661,1.253c-0.487,0.313-1.462,0.626-2.228,0.626c-0.452,0-0.661-0.243-0.661-0.557 c0-0.418,0.209-1.148,1.357-2.227c1.079-1.01,3.585-2.192,5.36-2.192c2.749,0,4.455,1.287,4.315,4.351L450.3,158.447z M446.889,157.263c0-0.383-0.104-0.592-0.278-0.592c-0.278,0-0.905,0.174-1.531,0.418c-0.975,0.348-1.88,0.835-1.88,2.332 c0,0.904,0.627,2.018,1.949,2.018c1.253,0,1.636-0.836,1.671-1.671L446.889,157.263z"/><path fill="#005596" d="M456.716,153.609c0-1.566,0-1.984-0.87-2.507l-0.418-0.243c-0.104-0.14-0.104-0.627,0.035-0.801 c1.497-0.487,3.341-1.253,4.386-1.879c0.209,0,0.417,0.104,0.487,0.313c-0.035,0.662-0.07,1.253-0.07,1.566 c0,0.244,0.14,0.418,0.349,0.418c1.079-0.766,2.227-1.81,3.411-1.81c1.218,0,1.914,0.8,1.914,1.705c0,1.357-1.01,2.018-1.949,2.018 c-0.349,0-0.661-0.104-0.939-0.278c-0.87-0.592-1.462-0.661-1.671-0.661c-0.801,0-1.01,0.801-1.01,2.506v4.769 c0,2.575,0.14,2.958,1.357,3.098l1.357,0.139c0.244,0.244,0.209,0.87-0.069,1.01c-2.088-0.069-3.271-0.104-4.56-0.104 c-1.148,0-2.297,0.035-3.62,0.104c-0.278-0.14-0.313-0.766-0.069-1.01l0.627-0.104c1.183-0.208,1.322-0.557,1.322-3.132V153.609z"/><path fill="#005596" d="M480.649,157.194c0,3.167,0.243,4.246,0.835,4.246c0.383,0,0.94-0.104,1.462-0.313 c0.278,0.209,0.349,1.044-0.034,1.253c-1.775,0.174-4.247,0.766-5.5,1.322c-0.174-0.034-0.348-0.174-0.417-0.383l0.069-0.521 c0.069-0.522,0.035-0.801-0.035-0.975l-0.174-0.035c-1.044,0.766-2.332,1.566-4.003,1.566c-3.968,0-6.439-3.202-6.439-6.683 c0-5.012,4.003-8.005,8.354-8.005c0.904,0,1.565,0.104,2.019,0.243c0.139-0.035,0.209-0.174,0.209-0.557v-4.559 c0-2.332-0.07-2.541-0.801-3.028l-0.487-0.313c-0.209-0.139-0.244-0.695,0-0.8c1.357-0.383,3.167-1.114,4.56-1.671 c0.209-0.035,0.418,0.104,0.487,0.278c-0.069,1.393-0.104,3.55-0.104,5.047V157.194z M476.995,152.912 c0-0.696-0.104-1.184-0.453-1.671c-0.487-0.661-1.253-1.184-2.332-1.184c-2.366,0-3.863,2.332-3.863,5.256 c0,3.585,1.88,5.952,4.351,5.952c0.836,0,1.775-0.453,2.054-0.767c0.174-0.174,0.244-0.487,0.244-0.975V152.912z"/><path fill="#005596" d="M490.327,158.725c0,2.575,0.139,2.924,1.322,3.132l0.627,0.104c0.243,0.244,0.208,0.87-0.07,1.01 c-1.287-0.069-2.471-0.104-3.759-0.104c-1.148,0-2.332,0.035-3.654,0.104c-0.278-0.14-0.314-0.766-0.069-1.01l0.626-0.104 c1.184-0.208,1.322-0.557,1.322-3.132v-5.116c0-1.566,0-1.984-0.87-2.507l-0.417-0.243c-0.104-0.14-0.104-0.627,0.034-0.801 c1.81-0.521,3.551-1.287,4.525-1.879c0.208,0.034,0.383,0.104,0.487,0.278c-0.07,1.148-0.104,2.819-0.104,4.246V158.725z M486.359,143.375c0-1.184,0.87-2.088,2.123-2.088c1.253,0,2.123,0.904,2.123,2.088c0,1.184-0.87,2.089-2.123,2.089 C487.229,145.464,486.359,144.559,486.359,143.375z"/><path fill="#005596" d="M508.354,155.836c0,4.942-3.48,7.518-7.622,7.518c-4.003,0-7.344-2.541-7.344-7.101 c0-4.664,3.55-7.587,7.622-7.587C504.943,148.666,508.354,151.311,508.354,155.836z M501.149,161.961 c2.401,0,3.098-2.854,3.098-5.534c0-2.923-1.01-6.369-3.585-6.369c-1.775,0-3.168,1.811-3.168,5.674 C497.494,158.899,498.644,161.961,501.149,161.961z"/><path fill="#005596" d="M511.554,143.793c0-2.332-0.035-2.541-0.905-3.098l-0.383-0.244c-0.209-0.139-0.243-0.695,0-0.8 c1.357-0.383,3.168-1.114,4.56-1.671c0.209-0.035,0.418,0.104,0.487,0.278c-0.069,1.393-0.105,3.55-0.105,5.047v15.419 c0,2.575,0.14,2.958,1.323,3.132l0.766,0.104c0.243,0.244,0.209,0.87-0.07,1.01c-1.427-0.069-2.61-0.104-3.897-0.104 c-1.148,0-2.332,0.035-3.76,0.104c-0.278-0.14-0.313-0.766-0.069-1.01l0.732-0.104c1.183-0.174,1.322-0.557,1.322-3.132V143.793z"/><path fill="#005596" d="M533.308,155.836c0,4.942-3.48,7.518-7.622,7.518c-4.003,0-7.344-2.541-7.344-7.101 c0-4.664,3.55-7.587,7.622-7.587C529.897,148.666,533.308,151.311,533.308,155.836z M526.104,161.961 c2.401,0,3.098-2.854,3.098-5.534c0-2.923-1.01-6.369-3.585-6.369c-1.775,0-3.168,1.811-3.168,5.674 C522.448,158.899,523.598,161.961,526.104,161.961z"/><path fill="#005596" d="M547.455,151.729c0.104,0.348,0.174,0.73,0.174,1.497c0,2.923-1.949,5.742-6.369,5.742 c-0.418,0-0.87-0.069-1.323-0.139c-0.557,0.278-1.079,0.73-1.079,1.357c0,0.695,0.487,1.357,1.915,1.357 c1.009,0,2.331-0.07,3.828-0.07c2.506,0,5.673,0.418,5.673,4.212c0,1.81-1.253,3.516-2.192,4.246 c-1.531,1.253-3.759,2.297-6.752,2.297c-4.908,0-6.509-2.297-6.509-4.106c0-0.523,0.069-0.975,0.487-1.497 c0.313-0.348,1.636-1.113,2.158-1.566c0.278-0.208,0.521-0.661,0.209-0.766c-1.219-0.417-2.298-1.531-2.298-2.889 c0-0.348,0.14-0.626,0.558-0.87c0.521-0.278,2.227-1.357,2.227-1.845c0-0.104,0-0.313-0.14-0.383 c-1.184-0.487-2.575-1.88-2.575-4.142c0-3.133,2.61-5.499,6.369-5.499c1.392,0,2.61,0.278,3.515,0.73 c0.731,0.348,1.114,0.522,1.532,0.522h3.41c0.14,0.104,0.279,0.348,0.279,0.626c0,0.696-0.279,1.114-0.558,1.184H547.455z M541.607,164.572c-1.218,0-1.949,0.105-2.367,0.418c-0.592,0.452-1.044,1.079-1.044,1.949c0,2.123,1.88,3.516,4.56,3.516 c2.959,0,4.629-1.219,4.629-3.237c0-1.775-1.636-2.646-3.794-2.646H541.607z M541.886,157.646c1.322,0,2.297-1.148,2.297-3.585 c0-2.367-1.009-4.072-2.575-4.072c-1.218,0-2.297,1.148-2.297,3.55C539.311,156.219,540.563,157.646,541.886,157.646z"/><path fill="#005596" d="M552.051,169.689c0-1.149,0.801-1.532,1.775-1.566l0.766-0.035c0.487-0.035,1.113-0.209,1.462-0.696 c0.731-1.044,1.705-2.889,1.705-4.351c0-0.521-0.069-1.253-0.592-2.575l-2.819-7.31c-0.835-2.157-1.079-2.68-2.401-2.958 l-0.696-0.14c-0.278-0.278-0.278-0.87,0.104-1.009c1.148,0.069,2.575,0.104,3.863,0.104c1.219,0,2.506-0.035,3.69-0.104 c0.278,0.139,0.313,0.766,0.069,1.009l-1.044,0.209c-0.801,0.174-0.835,0.313-0.243,1.845l1.531,4.003 c0.661,1.775,1.079,2.61,1.184,2.645c0.139-0.034,0.661-1.148,1.113-2.157l1.044-2.332c0.836-1.88,1.253-3.237,1.253-3.376 c0-0.313-0.139-0.487-0.661-0.592l-1.184-0.244c-0.243-0.278-0.208-0.835,0.07-1.009c1.253,0.069,2.541,0.104,3.307,0.104 c0.904,0,1.845-0.035,2.784-0.104c0.348,0.104,0.348,0.766,0.104,1.009c-0.418,0.104-1.497,0.278-1.984,0.766 c-0.383,0.383-1.044,1.357-2.123,3.516l-1.774,3.55c-1.184,2.367-4.281,8.563-5.743,11.765c-0.592,1.322-1.497,1.88-2.646,1.88 C552.643,171.533,552.051,170.698,552.051,169.689z"/></g><g><path fill="#005596" d="M565.584,72.454c0.609,0,1.205,0.155,1.784,0.468c0.579,0.312,1.032,0.758,1.357,1.339 c0.325,0.582,0.488,1.188,0.488,1.818c0,0.627-0.16,1.229-0.48,1.805c-0.32,0.576-0.769,1.023-1.346,1.343 c-0.575,0.318-1.178,0.478-1.804,0.478c-0.628,0-1.229-0.159-1.803-0.478c-0.575-0.319-1.022-0.767-1.343-1.343 c-0.32-0.576-0.481-1.178-0.481-1.805c0-0.631,0.163-1.236,0.488-1.818c0.325-0.581,0.778-1.027,1.357-1.339 C564.383,72.61,564.977,72.454,565.584,72.454z M565.584,72.771c-0.556,0-1.099,0.144-1.626,0.429 c-0.529,0.286-0.942,0.694-1.238,1.224c-0.297,0.529-0.445,1.081-0.445,1.656c0,0.572,0.146,1.119,0.438,1.644 c0.291,0.524,0.699,0.933,1.224,1.226c0.525,0.293,1.074,0.439,1.647,0.439c0.572,0,1.122-0.146,1.648-0.439 c0.526-0.293,0.935-0.701,1.227-1.226c0.292-0.524,0.438-1.071,0.438-1.644c0-0.575-0.148-1.127-0.445-1.656 c-0.296-0.529-0.708-0.938-1.237-1.224C566.686,72.914,566.142,72.771,565.584,72.771z M563.579,73.855h1.974 c0.494,0,0.871,0.111,1.13,0.334c0.26,0.223,0.389,0.492,0.389,0.809c0,0.259-0.088,0.486-0.264,0.682 c-0.175,0.195-0.465,0.346-0.87,0.451l1.068,1.519c0.129,0.182,0.244,0.305,0.347,0.373c0.065,0.041,0.155,0.067,0.27,0.076v0.169 h-0.94l-1.503-2.065h-0.389v1.575c0.019,0.112,0.068,0.194,0.146,0.245c0.077,0.051,0.229,0.076,0.458,0.076v0.169h-1.877v-0.169 c0.17,0,0.291-0.021,0.36-0.066c0.07-0.044,0.121-0.11,0.151-0.199c0.013-0.043,0.02-0.189,0.02-0.438v-2.667 c0-0.252-0.005-0.4-0.015-0.444c-0.024-0.077-0.068-0.138-0.131-0.181c-0.063-0.043-0.171-0.063-0.324-0.063V73.855z M564.791,75.982h0.153c0.454,0,0.784-0.088,0.992-0.265c0.207-0.177,0.311-0.397,0.311-0.663c0-0.275-0.097-0.507-0.289-0.693 c-0.193-0.188-0.439-0.28-0.739-0.28c-0.129,0-0.273,0.026-0.429,0.081V75.982z"/></g><rect width="447.688" height="1.418" x="122.395" y="128.974" fill="#005596"/></svg>