<?xml version="1.0" encoding="iso-8859-1"?>
<!-- Generator: Adobe Illustrator 23.0.6, SVG Export Plug-In . SVG Version: 6.00 Build 0)  -->
<svg version="1.1" id="Layer_1" xmlns="http://www.w3.org/2000/svg" xmlns:xlink="http://www.w3.org/1999/xlink" x="0px" y="0px"
	 width="600px" height="100px" viewBox="0 0 600 100" enable-background="new 0 0 600 100" xml:space="preserve">
<g>
	<path fill="#FFFFFF" d="M94.805,26.381c7.417-5.791,16.865-8.636,27.431-8.636c5.486,0,13.207,1.117,17.982,2.438
		c1.219,0.305,1.931,0.508,2.845,0.406c0.102,2.336,0.61,8.737,1.423,14.934c-0.508,0.712-2.032,0.813-2.743,0.203
		c-1.524-6.908-6.096-14.833-20.827-14.833c-15.544,0-28.751,9.855-28.751,30.885c0,21.335,13.512,33.121,30.174,33.121
		c13.106,0,18.897-8.535,21.233-14.528c0.712-0.508,2.235-0.305,2.642,0.406c-0.711,5.283-3.353,11.988-4.876,13.918
		c-1.22,0.204-2.438,0.611-3.556,1.017c-2.235,0.813-9.55,2.337-16.052,2.337c-9.144,0-17.881-1.83-25.297-6.807
		c-8.128-5.587-14.427-14.833-14.427-27.938C82.004,42.026,87.084,32.374,94.805,26.381z"/>
	<path fill="#FFFFFF" d="M170.492,65.393c1.524-0.508,1.727-1.423,1.727-2.946l0.102-4.674c0.102-3.759-1.117-8.839-7.416-8.839
		c-2.845,0-6.299,1.423-6.502,4.572c-0.102,1.625-0.203,2.845-1.016,3.454c-1.524,1.219-4.267,1.931-5.791,1.931
		c-0.915,0-1.423-0.508-1.423-1.423c0-5.283,11.481-12.496,18.897-12.496c7.315,0,10.87,4.267,10.566,11.887l-0.609,17.677
		c-0.203,4.674,0.711,8.839,4.673,8.839c1.016,0,1.931-0.305,2.54-0.609c0.508-0.304,1.016-0.711,1.321-0.711
		c0.406,0,0.711,0.608,0.711,1.32c0,0.507-3.556,4.469-8.534,4.469c-2.438,0-4.876-0.914-6.604-3.149
		c-0.406-0.608-1.016-1.421-1.625-1.421c-0.712,0-1.931,0.914-3.962,2.032c-2.235,1.219-4.471,2.539-7.315,2.539
		c-2.946,0-5.384-0.813-7.112-2.336c-1.93-1.727-3.149-4.267-3.149-7.112c0-3.963,1.931-6.299,8.433-8.636L170.492,65.393z
		 M164.193,83.274c2.032,0,5.182-1.524,6.197-2.541c1.219-1.219,1.219-2.641,1.321-4.775l0.203-5.994
		c0-1.117-0.406-1.321-1.016-1.321c-0.61,0-2.337,0.406-4.166,1.016c-5.994,2.032-8.94,3.556-8.94,7.517
		C157.793,78.906,159.012,83.274,164.193,83.274z"/>
	<path fill="#FFFFFF" d="M195.584,57.266c0-3.962,0-4.47-2.743-6.299l-0.914-0.609c-0.406-0.406-0.406-1.524,0.102-1.829
		c2.337-0.813,7.721-3.454,10.261-4.978c0.508,0.102,0.813,0.305,0.813,0.711v5.893c0,0.508,0.102,0.813,0.305,0.914
		c3.556-2.946,7.417-6.096,11.176-6.096c2.54,0,4.572,1.626,4.572,4.064c0,3.353-2.743,4.673-4.368,4.673
		c-1.016,0-1.524-0.305-2.235-0.711c-1.524-1.016-3.048-1.626-4.47-1.626c-1.626,0-2.845,0.914-3.657,2.032
		c-1.016,1.422-1.321,4.368-1.321,7.823v13.817c0,7.315,0.203,8.534,4.064,8.838l3.657,0.305c0.711,0.507,0.508,2.236-0.203,2.54
		c-4.775-0.203-7.721-0.304-11.277-0.304c-3.657,0-6.705,0.101-9.347,0.304c-0.711-0.304-0.914-2.033-0.203-2.54l1.931-0.305
		c3.759-0.608,3.86-1.523,3.86-8.838V57.266z"/>
	<path fill="#FFFFFF" d="M259.182,71.59c0,8.026,0.102,11.785,2.946,11.785c1.117,0,2.845-0.507,4.369-1.016
		c0.711,0.203,0.813,2.743-0.102,3.252c-4.267,0.608-10.566,2.133-13.411,3.251c-0.61,0-1.117-0.305-1.117-0.813v-1.727
		c0-1.524,0-2.743-0.203-3.15h-0.406c-4.47,3.047-7.925,4.673-12.801,4.673c-11.277,0-18.795-8.838-18.795-19.506
		c0-14.223,10.769-23.367,24.586-23.367c3.454,0,5.689,0.508,6.807,0.915c0.508,0,0.61-0.61,0.61-1.423V29.123
		c0-5.994-0.102-6.604-3.15-8.432l-1.016-0.609c-0.508-0.305-0.508-1.727,0-2.032c2.54-0.813,7.315-2.337,10.972-4.267
		c0.406,0,0.813,0.203,1.016,0.61c-0.102,3.048-0.305,8.127-0.305,12.598V71.59z M251.664,56.351c0-2.032-0.406-2.946-1.117-3.962
		c-1.524-2.134-4.572-4.267-8.534-4.267c-9.245,0-14.02,8.026-14.02,16.865c0,9.245,5.181,17.983,15.137,17.983
		c2.743,0,6.197-1.219,7.823-2.844c0.609-0.611,0.711-2.135,0.711-3.76V56.351z"/>
	<path fill="#FFFFFF" d="M275.942,57.266c0-3.962,0-4.47-2.743-6.299l-0.914-0.609c-0.406-0.406-0.406-1.524,0.102-1.829
		c2.337-0.813,8.127-3.454,10.464-4.978c0.508,0,0.914,0.203,1.016,0.61c-0.203,3.556-0.406,8.433-0.406,12.598v18.287
		c0,7.315,0.203,8.331,3.861,8.838l2.133,0.305c0.712,0.507,0.507,2.236-0.203,2.54c-3.048-0.203-5.994-0.304-9.55-0.304
		c-3.657,0-6.705,0.101-9.55,0.304c-0.711-0.304-0.914-2.033-0.203-2.54l2.134-0.305c3.759-0.507,3.86-1.523,3.86-8.838V57.266z
		 M284.375,28.311c0,3.657-2.54,5.283-5.385,5.283c-3.149,0-5.182-2.337-5.182-5.08c0-3.353,2.438-5.486,5.486-5.486
		C282.343,23.028,284.375,25.466,284.375,28.311z"/>
	<path fill="#FFFFFF" d="M336.085,66.003c0,12.699-8.738,21.842-21.437,21.842c-11.683,0-20.827-8.228-20.827-20.928
		c0-12.801,9.653-21.945,21.64-21.945C326.839,44.972,336.085,53.507,336.085,66.003z M314.241,48.02
		c-6.705,0-11.683,6.401-11.683,17.576c0,9.245,4.165,19.201,13.106,19.201c8.94,0,11.682-9.346,11.682-17.169
		C327.347,58.993,323.893,48.02,314.241,48.02z"/>
	<path fill="#FFFFFF" d="M360.568,88.049c-8.535,0-13.92-2.642-15.849-3.76c-1.219-2.234-2.54-9.448-2.743-14.223
		c0.508-0.711,2.033-0.914,2.439-0.305c1.524,5.181,5.688,15.138,17.474,15.138c8.535,0,12.699-5.587,12.699-11.684
		c0-4.47-0.914-9.448-8.331-14.223l-9.651-6.299c-5.08-3.353-10.973-9.144-10.973-17.475c0-9.652,7.518-17.474,20.724-17.474
		c3.15,0,6.809,0.609,9.449,1.321c1.322,0.406,2.743,0.609,3.556,0.609c0.916,2.439,1.829,8.128,1.829,12.395
		c-0.406,0.609-2.032,0.915-2.539,0.305c-1.322-4.876-4.065-11.48-13.817-11.48c-9.958,0-12.091,6.604-12.091,11.277
		c0,5.893,4.876,10.159,8.636,12.496l8.126,5.08c6.402,3.962,12.701,9.855,12.701,19.506
		C382.208,80.429,373.774,88.049,360.568,88.049z"/>
	<path fill="#FFFFFF" d="M447.025,60.313c0-6.908-3.048-10.464-9.448-10.464c-3.861,0-7.011,1.727-8.432,3.556
		c-1.219,1.524-1.524,2.54-1.524,6.096v15.544c0,7.315,0.202,8.331,3.861,8.838l2.133,0.305c0.712,0.507,0.507,2.236-0.202,2.54
		c-3.048-0.203-5.996-0.304-9.552-0.304c-3.657,0-6.4,0.101-9.244,0.304c-0.712-0.304-0.914-2.033-0.204-2.54l1.829-0.305
		c3.76-0.608,3.861-1.523,3.861-8.838V60.313c0-6.807-3.048-10.464-9.347-10.464c-4.164,0-7.011,1.828-8.535,3.657
		c-1.015,1.219-1.522,2.54-1.522,5.791v15.747c0,7.315,0.202,8.23,3.859,8.838l1.829,0.305c0.712,0.507,0.507,2.236-0.202,2.54
		c-2.743-0.203-5.691-0.304-9.246-0.304c-3.657,0-6.705,0.101-9.855,0.304c-0.712-0.304-0.914-2.033-0.202-2.54l2.438-0.305
		c3.758-0.507,3.861-1.523,3.861-8.838V57.266c0-3.962,0-4.47-2.743-6.299l-0.916-0.609c-0.406-0.406-0.406-1.524,0.101-1.829
		c2.337-0.813,8.128-3.454,10.16-4.978c0.406,0,0.916,0.203,1.118,0.711c-0.202,2.337-0.202,3.861-0.202,4.775
		c0,0.609,0.406,1.117,1.116,1.117c3.861-2.743,8.636-5.182,13.514-5.182c5.08,0,7.924,1.829,10.768,5.994
		c0.914,0.203,1.625-0.203,2.539-0.813c4.065-2.845,9.042-5.182,13.819-5.182c8.126,0,12.088,5.588,12.088,12.598v17.475
		c0,7.315,0.204,8.331,3.861,8.838l2.438,0.305c0.712,0.507,0.51,2.236-0.202,2.54c-3.354-0.203-6.299-0.304-9.855-0.304
		c-3.659,0-6.402,0.101-9.246,0.304c-0.712-0.304-0.914-2.033-0.202-2.54l1.827-0.305c3.76-0.608,3.861-1.523,3.861-8.838V60.313z"
		/>
	<path fill="#FFFFFF" d="M485.424,65.393c1.524-0.508,1.729-1.423,1.729-2.946l0.101-4.674c0.101-3.759-1.118-8.839-7.417-8.839
		c-2.844,0-6.299,1.423-6.501,4.572c-0.103,1.625-0.204,2.845-1.017,3.454c-1.524,1.219-4.267,1.931-5.792,1.931
		c-0.914,0-1.421-0.508-1.421-1.423c0-5.283,11.48-12.496,18.897-12.496c7.314,0,10.869,4.267,10.566,11.887l-0.611,17.677
		c-0.204,4.674,0.712,8.839,4.674,8.839c1.015,0,1.931-0.305,2.539-0.609c0.51-0.304,1.017-0.711,1.322-0.711
		c0.406,0,0.709,0.608,0.709,1.32c0,0.507-3.556,4.469-8.533,4.469c-2.438,0-4.878-0.914-6.604-3.149
		c-0.406-0.608-1.017-1.421-1.625-1.421c-0.712,0-1.931,0.914-3.962,2.032c-2.236,1.219-4.47,2.539-7.316,2.539
		c-2.945,0-5.383-0.813-7.112-2.336c-1.931-1.727-3.15-4.267-3.15-7.112c0-3.963,1.931-6.299,8.434-8.636L485.424,65.393z
		 M479.126,83.274c2.034,0,5.183-1.524,6.198-2.541c1.219-1.219,1.219-2.641,1.32-4.775l0.204-5.994
		c0-1.117-0.406-1.321-1.017-1.321c-0.608,0-2.337,0.406-4.164,1.016c-5.994,2.032-8.941,3.556-8.941,7.517
		C472.726,78.906,473.945,83.274,479.126,83.274z"/>
	<path fill="#FFFFFF" d="M510.517,57.266c0-3.962,0-4.47-2.743-6.299l-0.914-0.609c-0.406-0.406-0.406-1.524,0.101-1.829
		c2.337-0.813,7.722-3.454,10.261-4.978c0.507,0.102,0.813,0.305,0.813,0.711v5.893c0,0.508,0.101,0.813,0.305,0.914
		c3.556-2.946,7.417-6.096,11.175-6.096c2.541,0,4.573,1.626,4.573,4.064c0,3.353-2.743,4.673-4.368,4.673
		c-1.017,0-1.524-0.305-2.236-0.711c-1.524-1.016-3.049-1.626-4.469-1.626c-1.625,0-2.844,0.914-3.659,2.032
		c-1.015,1.422-1.32,4.368-1.32,7.823v13.817c0,7.315,0.204,8.534,4.063,8.838l3.659,0.305c0.709,0.507,0.507,2.236-0.204,2.54
		c-4.775-0.203-7.72-0.304-11.276-0.304c-3.659,0-6.705,0.101-9.347,0.304c-0.711-0.304-0.914-2.033-0.204-2.54l1.931-0.305
		c3.76-0.608,3.861-1.523,3.861-8.838V57.266z"/>
	<path fill="#FFFFFF" d="M551.559,50.662c-1.728,0-1.83,0.305-1.83,2.438v18.998c0,5.892,0.712,11.277,7.417,11.277
		c1.015,0,1.93-0.203,2.743-0.507c0.914-0.305,2.234-1.423,2.539-1.423c0.813,0,1.219,1.118,1.017,1.727
		c-1.83,2.134-5.486,4.673-10.667,4.673c-8.737,0-10.566-4.876-10.566-10.972V53.608c0-2.743-0.101-2.946-2.133-2.946h-2.846
		c-0.609-0.406-0.709-1.524-0.303-2.134c2.945-0.914,5.484-2.235,6.501-3.15c1.32-1.219,3.25-3.962,4.267-5.994
		c0.507-0.204,1.726-0.204,2.133,0.508v4.572c0,1.829,0.103,1.931,1.83,1.931h11.278c1.219,0.914,1.015,3.657,0.101,4.267H551.559z"
		/>
</g>
<g>
	<path fill="#FFFFFF" d="M40.909,70.944c2.53,0.128,4.499,0.22,6.166,0.22c5.431,0,7.646-0.969,15.561-4.775
		c1.651-0.792,1.539-2.241,1.457-3.3c-0.206-2.631-0.833-10.638,1.434-16.8l0.331-0.899c1.833-4.938,3.909-10.536,2.088-17.317
		C64.316,14.575,49.896,5.969,35.797,8.895c-1.632,0.337-3.224,0.823-4.729,1.443c-11.505,4.733-17.554,16.734-14.381,28.536
		c1.917,7.135,6.746,11.292,11.417,15.314c2.868,2.467,8.033,11.13,9.774,14.049C39.114,70.312,39.447,70.869,40.909,70.944
		L40.909,70.944z M62.801,29.315c1.423,5.302-0.216,9.722-1.953,14.405l-0.335,0.908c-2.44,6.635-2.023,14.69-1.77,18.118
		c-2.854,1.214-4.881,2.051-6.484,2.617c-1.084-3.101-3.233-10.666-0.943-16.711c0.101-0.191,0.209-0.379,0.323-0.564
		c0.371-0.593,0.851-1.276,1.377-2.027c1.59-2.268,3.568-5.089,4.428-7.951c0.721-2.4,0.734-4.813,0.038-6.977
		c-0.872-2.71-2.777-4.836-5.225-5.832c-1.934-0.792-3.902-0.972-5.688-0.522c-1.018,0.249-1.993,0.7-2.901,1.341
		c-0.698,0.495-1.351,1.095-1.945,1.79c-0.167,0.198-0.327,0.4-0.479,0.605c-1.179-0.492-2.353-0.805-3.494-0.932
		c-1.123-0.127-2.211-0.064-3.236,0.187c-1.201,0.294-2.305,0.875-3.267,1.697c-0.746,0.53-1.439,1.154-2.023,1.852
		c-1.748,2.088-1.773,5.171-0.082,7.535c0.011,0.019,0.024,0.039,0.036,0.058c0.006,0.009,0.01,0.018,0.017,0.027
		c0.006,0.008,0.015,0.017,0.021,0.025c1.782,2.761,9.796,8.219,11.39,9.183c0.577,0.479,1.175,0.94,1.777,1.372l0.8,0.572
		l1.728-2.333l0.354-0.646l0.086-0.115l-0.016-0.012l0.062-0.114l-0.811-0.594c-0.588-0.431-1.062-0.8-1.495-1.167
		c-0.571-0.479-1.749-1.3-3.239-2.34c-0.95-0.662-2.348-1.638-3.657-2.595c-1.431-1.135-2.731-2.233-3.359-2.867
		c-0.05-0.051-0.089-0.103-0.133-0.154c-0.434-1.455-0.269-2.882,0.457-3.837c0.703-0.918,1.482-1.46,2.444-1.705
		c0.544-0.133,1.147-0.167,1.794-0.097c0.552,0.058,1.157,0.197,1.754,0.403c0.929,0.315,1.625,0.712,1.801,0.817
		c0.48,0.307,1.066,0.405,1.607,0.263c0.498-0.117,0.917-0.417,1.18-0.837l0.218-0.401c0.095-0.166,0.237-0.401,0.436-0.678
		c0.278-0.395,0.867-1.143,1.687-1.721c0.508-0.361,1.038-0.609,1.576-0.739c1-0.244,2.009-0.137,3.177,0.336
		c1.276,0.516,2.333,1.737,2.826,3.266c0.449,1.399,0.426,3.009-0.068,4.655c-0.912,3.046-5.959,9.588-6.01,9.653l-0.066,0.096
		c-0.181,0.3-0.36,0.562-0.532,0.814c-1.752,2.565-2.462,4.392,0.503,17.782c0.08,0.368,0.201,0.58,0.442,0.688
		c0.034,0.152,0.066,0.297,0.101,0.452c-1.345,0.099-2.68-0.039-4.675-0.248l-0.684-0.071c-0.07-0.118-0.143-0.241-0.217-0.366
		c-3.602-6.039-7.702-12.571-10.803-15.238c-4.078-3.511-8.295-7.142-9.819-12.813c-2.525-9.395,2.251-18.934,11.358-22.682
		c1.195-0.491,2.456-0.876,3.747-1.144C48.272,11.457,59.871,18.415,62.801,29.315z"/>
	<path fill="#FFFFFF" d="M59.852,74.991c2.504-1.03,4.844-2.327,6.588-3.652c0.58-0.441,0.94-1.093,0.99-1.787
		c0.049-0.684-0.209-1.366-0.706-1.87c-0.978-0.995-2.623-1.104-3.739-0.251C58.108,71.14,49.081,73.874,43,71.826
		c-1.385-0.467-2.902,0.16-3.453,1.422c-0.271,0.618-0.269,1.297,0.004,1.914c0.29,0.656,0.869,1.17,1.586,1.412
		c1.979,0.667,4.192,0.996,6.545,0.996C51.509,77.569,55.705,76.698,59.852,74.991z"/>
	<path fill="#FFFFFF" d="M61.614,81.119L61.614,81.119c2.341-0.964,4.526-2.175,6.149-3.409c0.58-0.44,0.941-1.092,0.991-1.787
		c0.049-0.685-0.209-1.367-0.705-1.869c-0.977-0.996-2.621-1.106-3.738-0.252c-4.488,3.407-12.778,5.921-18.345,4.044
		c-1.383-0.467-2.901,0.16-3.454,1.425c-0.269,0.617-0.267,1.295,0.005,1.91c0.289,0.655,0.867,1.17,1.586,1.414
		c1.854,0.624,3.928,0.932,6.132,0.932C53.816,83.528,57.739,82.714,61.614,81.119z"/>
	<path fill="#FFFFFF" d="M68.952,80.919c-0.978-0.994-2.623-1.104-3.738-0.251c-3.904,2.968-11.216,5.092-15.878,3.521
		c-1.384-0.465-2.901,0.16-3.452,1.423c-0.271,0.618-0.269,1.298,0.004,1.914c0.29,0.655,0.869,1.169,1.586,1.411
		c1.592,0.536,3.366,0.806,5.245,0.83c0.971,1.394,2.88,2.241,5.091,2.241c0.62,0,1.262-0.066,1.911-0.204
		c2.067-0.434,3.825-1.553,4.704-2.991c0.401-0.657,0.591-1.347,0.596-2.035c1.374-0.68,2.635-1.434,3.646-2.202
		c0.58-0.44,0.94-1.091,0.99-1.786C69.706,82.106,69.449,81.424,68.952,80.919z"/>
</g>
<g>
	<path fill="#FFFFFF" d="M574.738,15.948c2.078,0,4.11,0.53,6.085,1.595c1.975,1.062,3.52,2.584,4.629,4.566
		c1.109,1.985,1.665,4.05,1.665,6.201c0,2.138-0.546,4.19-1.639,6.155c-1.092,1.965-2.621,3.49-4.589,4.579
		c-1.962,1.086-4.016,1.629-6.151,1.629c-2.141,0-4.19-0.543-6.148-1.629c-1.962-1.089-3.487-2.614-4.579-4.579
		c-1.092-1.965-1.639-4.017-1.639-6.155c0-2.152,0.556-4.216,1.665-6.201c1.109-1.981,2.654-3.503,4.629-4.566
		C570.641,16.478,572.666,15.948,574.738,15.948z M574.738,17.028c-1.895,0-3.747,0.489-5.545,1.462
		c-1.805,0.976-3.214,2.368-4.223,4.173c-1.013,1.805-1.519,3.687-1.519,5.649c0,1.952,0.496,3.817,1.495,5.605
		c0.992,1.789,2.385,3.181,4.173,4.18c1.792,0.999,3.663,1.499,5.618,1.499c1.952,0,3.827-0.5,5.622-1.499
		c1.795-0.999,3.19-2.391,4.183-4.18c0.996-1.788,1.492-3.653,1.492-5.605c0-1.962-0.506-3.843-1.519-5.649
		c-1.009-1.805-2.415-3.197-4.22-4.173C578.495,17.517,576.639,17.028,574.738,17.028z M567.9,20.724h6.731
		c1.685,0,2.971,0.38,3.853,1.139c0.886,0.759,1.325,1.679,1.325,2.758c0,0.882-0.3,1.658-0.899,2.324
		c-0.596,0.666-1.585,1.179-2.968,1.539l3.644,5.182c0.44,0.619,0.833,1.039,1.182,1.272c0.223,0.14,0.529,0.227,0.923,0.26v0.576
		h-3.207l-5.126-7.044h-1.325v5.372c0.066,0.383,0.233,0.663,0.496,0.836c0.263,0.173,0.783,0.26,1.562,0.26v0.576h-6.401v-0.576
		c0.579,0,0.992-0.073,1.229-0.226c0.24-0.15,0.413-0.376,0.516-0.679c0.043-0.147,0.067-0.646,0.067-1.495v-9.095
		c0-0.859-0.017-1.366-0.05-1.515c-0.083-0.263-0.233-0.47-0.446-0.616c-0.213-0.146-0.583-0.217-1.106-0.217V20.724z
		 M572.034,27.978h0.523c1.549,0,2.674-0.3,3.384-0.902c0.706-0.603,1.062-1.356,1.062-2.261c0-0.939-0.33-1.728-0.986-2.365
		c-0.659-0.639-1.499-0.956-2.521-0.956c-0.44,0-0.929,0.09-1.462,0.276V27.978z"/>
</g>
<g>
</g>
<g>
</g>
<g>
</g>
<g>
</g>
<g>
</g>
<g>
</g>
</svg>
