<?xml version="1.0" encoding="iso-8859-1"?>
<!-- Generator: Adobe Illustrator 23.0.6, SVG Export Plug-In . SVG Version: 6.00 Build 0)  -->
<svg version="1.1" id="Layer_1" xmlns="http://www.w3.org/2000/svg" xmlns:xlink="http://www.w3.org/1999/xlink" x="0px" y="0px"
	 width="600px" height="100px" viewBox="0 0 600 100" enable-background="new 0 0 600 100" xml:space="preserve">
<g>
	<path fill="#005596" d="M94.805,26.381c7.417-5.791,16.865-8.636,27.431-8.636c5.486,0,13.207,1.117,17.982,2.438
		c1.219,0.305,1.931,0.508,2.845,0.406c0.102,2.336,0.61,8.737,1.423,14.934c-0.508,0.712-2.032,0.813-2.743,0.203
		c-1.524-6.908-6.096-14.833-20.827-14.833c-15.544,0-28.751,9.855-28.751,30.885c0,21.335,13.512,33.121,30.174,33.121
		c13.106,0,18.897-8.535,21.233-14.528c0.712-0.508,2.235-0.305,2.642,0.406c-0.711,5.283-3.353,11.988-4.876,13.918
		c-1.22,0.204-2.438,0.611-3.556,1.017c-2.235,0.813-9.55,2.337-16.052,2.337c-9.144,0-17.881-1.83-25.297-6.807
		c-8.128-5.587-14.427-14.833-14.427-27.938C82.004,42.026,87.084,32.374,94.805,26.381z"/>
	<path fill="#005596" d="M170.492,65.393c1.524-0.508,1.727-1.423,1.727-2.946l0.102-4.674c0.102-3.759-1.117-8.839-7.416-8.839
		c-2.845,0-6.299,1.423-6.502,4.572c-0.102,1.625-0.203,2.845-1.016,3.454c-1.524,1.219-4.267,1.931-5.791,1.931
		c-0.915,0-1.423-0.508-1.423-1.423c0-5.283,11.481-12.496,18.897-12.496c7.315,0,10.87,4.267,10.566,11.887l-0.609,17.677
		c-0.203,4.674,0.711,8.839,4.673,8.839c1.016,0,1.931-0.305,2.54-0.609c0.508-0.304,1.016-0.711,1.321-0.711
		c0.406,0,0.711,0.608,0.711,1.32c0,0.507-3.556,4.469-8.534,4.469c-2.438,0-4.876-0.914-6.604-3.149
		c-0.406-0.608-1.016-1.421-1.625-1.421c-0.712,0-1.931,0.914-3.962,2.032c-2.235,1.219-4.471,2.539-7.315,2.539
		c-2.946,0-5.384-0.813-7.112-2.336c-1.93-1.727-3.149-4.267-3.149-7.112c0-3.963,1.931-6.299,8.433-8.636L170.492,65.393z
		 M164.193,83.274c2.032,0,5.182-1.524,6.197-2.541c1.219-1.219,1.219-2.641,1.321-4.775l0.203-5.994
		c0-1.117-0.406-1.321-1.016-1.321c-0.61,0-2.337,0.406-4.166,1.016c-5.994,2.032-8.94,3.556-8.94,7.517
		C157.793,78.906,159.012,83.274,164.193,83.274z"/>
	<path fill="#005596" d="M195.584,57.266c0-3.962,0-4.47-2.743-6.299l-0.914-0.609c-0.406-0.406-0.406-1.524,0.102-1.829
		c2.337-0.813,7.721-3.454,10.261-4.978c0.508,0.102,0.813,0.305,0.813,0.711v5.893c0,0.508,0.102,0.813,0.305,0.914
		c3.556-2.946,7.417-6.096,11.176-6.096c2.54,0,4.572,1.626,4.572,4.064c0,3.353-2.743,4.673-4.368,4.673
		c-1.016,0-1.524-0.305-2.235-0.711c-1.524-1.016-3.048-1.626-4.47-1.626c-1.626,0-2.845,0.914-3.657,2.032
		c-1.016,1.422-1.321,4.368-1.321,7.823v13.817c0,7.315,0.203,8.534,4.064,8.838l3.657,0.305c0.711,0.507,0.508,2.236-0.203,2.54
		c-4.775-0.203-7.721-0.304-11.277-0.304c-3.657,0-6.705,0.101-9.347,0.304c-0.711-0.304-0.914-2.033-0.203-2.54l1.931-0.305
		c3.759-0.608,3.86-1.523,3.86-8.838V57.266z"/>
	<path fill="#005596" d="M259.182,71.59c0,8.026,0.102,11.785,2.946,11.785c1.117,0,2.845-0.507,4.369-1.016
		c0.711,0.203,0.813,2.743-0.102,3.252c-4.267,0.608-10.566,2.133-13.411,3.251c-0.61,0-1.117-0.305-1.117-0.813v-1.727
		c0-1.524,0-2.743-0.203-3.15h-0.406c-4.47,3.047-7.925,4.673-12.801,4.673c-11.277,0-18.795-8.838-18.795-19.506
		c0-14.223,10.769-23.367,24.586-23.367c3.454,0,5.689,0.508,6.807,0.915c0.508,0,0.61-0.61,0.61-1.423V29.123
		c0-5.994-0.102-6.604-3.15-8.432l-1.016-0.609c-0.508-0.305-0.508-1.727,0-2.032c2.54-0.813,7.315-2.337,10.972-4.267
		c0.406,0,0.813,0.203,1.016,0.61c-0.102,3.048-0.305,8.127-0.305,12.598V71.59z M251.664,56.351c0-2.032-0.406-2.946-1.117-3.962
		c-1.524-2.134-4.572-4.267-8.534-4.267c-9.245,0-14.02,8.026-14.02,16.865c0,9.245,5.181,17.983,15.137,17.983
		c2.743,0,6.197-1.219,7.823-2.844c0.609-0.611,0.711-2.135,0.711-3.76V56.351z"/>
	<path fill="#005596" d="M275.942,57.266c0-3.962,0-4.47-2.743-6.299l-0.914-0.609c-0.406-0.406-0.406-1.524,0.102-1.829
		c2.337-0.813,8.127-3.454,10.464-4.978c0.508,0,0.914,0.203,1.016,0.61c-0.203,3.556-0.406,8.433-0.406,12.598v18.287
		c0,7.315,0.203,8.331,3.861,8.838l2.133,0.305c0.712,0.507,0.507,2.236-0.203,2.54c-3.048-0.203-5.994-0.304-9.55-0.304
		c-3.657,0-6.705,0.101-9.55,0.304c-0.711-0.304-0.914-2.033-0.203-2.54l2.134-0.305c3.759-0.507,3.86-1.523,3.86-8.838V57.266z
		 M284.375,28.311c0,3.657-2.54,5.283-5.385,5.283c-3.149,0-5.182-2.337-5.182-5.08c0-3.353,2.438-5.486,5.486-5.486
		C282.343,23.028,284.375,25.466,284.375,28.311z"/>
	<path fill="#005596" d="M336.085,66.003c0,12.699-8.738,21.842-21.437,21.842c-11.683,0-20.827-8.228-20.827-20.928
		c0-12.801,9.653-21.945,21.64-21.945C326.839,44.972,336.085,53.507,336.085,66.003z M314.241,48.02
		c-6.705,0-11.683,6.401-11.683,17.576c0,9.245,4.165,19.201,13.106,19.201c8.94,0,11.682-9.346,11.682-17.169
		C327.347,58.993,323.893,48.02,314.241,48.02z"/>
	<path fill="#005596" d="M360.568,88.049c-8.535,0-13.92-2.642-15.849-3.76c-1.219-2.234-2.54-9.448-2.743-14.223
		c0.508-0.711,2.033-0.914,2.439-0.305c1.524,5.181,5.688,15.138,17.474,15.138c8.535,0,12.699-5.587,12.699-11.684
		c0-4.47-0.914-9.448-8.331-14.223l-9.651-6.299c-5.08-3.353-10.973-9.144-10.973-17.475c0-9.652,7.518-17.474,20.724-17.474
		c3.15,0,6.809,0.609,9.449,1.321c1.322,0.406,2.743,0.609,3.556,0.609c0.916,2.439,1.829,8.128,1.829,12.395
		c-0.406,0.609-2.032,0.915-2.539,0.305c-1.322-4.876-4.065-11.48-13.817-11.48c-9.958,0-12.091,6.604-12.091,11.277
		c0,5.893,4.876,10.159,8.636,12.496l8.126,5.08c6.402,3.962,12.701,9.855,12.701,19.506
		C382.208,80.429,373.774,88.049,360.568,88.049z"/>
	<path fill="#005596" d="M447.025,60.313c0-6.908-3.048-10.464-9.448-10.464c-3.861,0-7.011,1.727-8.432,3.556
		c-1.219,1.524-1.524,2.54-1.524,6.096v15.544c0,7.315,0.202,8.331,3.861,8.838l2.133,0.305c0.712,0.507,0.507,2.236-0.202,2.54
		c-3.048-0.203-5.996-0.304-9.552-0.304c-3.657,0-6.4,0.101-9.244,0.304c-0.712-0.304-0.914-2.033-0.204-2.54l1.829-0.305
		c3.76-0.608,3.861-1.523,3.861-8.838V60.313c0-6.807-3.048-10.464-9.347-10.464c-4.164,0-7.011,1.828-8.535,3.657
		c-1.015,1.219-1.522,2.54-1.522,5.791v15.747c0,7.315,0.202,8.23,3.859,8.838l1.829,0.305c0.712,0.507,0.507,2.236-0.202,2.54
		c-2.743-0.203-5.691-0.304-9.246-0.304c-3.657,0-6.705,0.101-9.855,0.304c-0.712-0.304-0.914-2.033-0.202-2.54l2.438-0.305
		c3.758-0.507,3.861-1.523,3.861-8.838V57.266c0-3.962,0-4.47-2.743-6.299l-0.916-0.609c-0.406-0.406-0.406-1.524,0.101-1.829
		c2.337-0.813,8.128-3.454,10.16-4.978c0.406,0,0.916,0.203,1.118,0.711c-0.202,2.337-0.202,3.861-0.202,4.775
		c0,0.609,0.406,1.117,1.116,1.117c3.861-2.743,8.636-5.182,13.514-5.182c5.08,0,7.924,1.829,10.768,5.994
		c0.914,0.203,1.625-0.203,2.539-0.813c4.065-2.845,9.042-5.182,13.819-5.182c8.126,0,12.088,5.588,12.088,12.598v17.475
		c0,7.315,0.204,8.331,3.861,8.838l2.438,0.305c0.712,0.507,0.51,2.236-0.202,2.54c-3.354-0.203-6.299-0.304-9.855-0.304
		c-3.659,0-6.402,0.101-9.246,0.304c-0.712-0.304-0.914-2.033-0.202-2.54l1.827-0.305c3.76-0.608,3.861-1.523,3.861-8.838V60.313z"
		/>
	<path fill="#005596" d="M485.424,65.393c1.524-0.508,1.729-1.423,1.729-2.946l0.101-4.674c0.101-3.759-1.118-8.839-7.417-8.839
		c-2.844,0-6.299,1.423-6.501,4.572c-0.103,1.625-0.204,2.845-1.017,3.454c-1.524,1.219-4.267,1.931-5.792,1.931
		c-0.914,0-1.421-0.508-1.421-1.423c0-5.283,11.48-12.496,18.897-12.496c7.314,0,10.869,4.267,10.566,11.887l-0.611,17.677
		c-0.204,4.674,0.712,8.839,4.674,8.839c1.015,0,1.931-0.305,2.539-0.609c0.51-0.304,1.017-0.711,1.322-0.711
		c0.406,0,0.709,0.608,0.709,1.32c0,0.507-3.556,4.469-8.533,4.469c-2.438,0-4.878-0.914-6.604-3.149
		c-0.406-0.608-1.017-1.421-1.625-1.421c-0.712,0-1.931,0.914-3.962,2.032c-2.236,1.219-4.47,2.539-7.316,2.539
		c-2.945,0-5.383-0.813-7.112-2.336c-1.931-1.727-3.15-4.267-3.15-7.112c0-3.963,1.931-6.299,8.434-8.636L485.424,65.393z
		 M479.126,83.274c2.034,0,5.183-1.524,6.198-2.541c1.219-1.219,1.219-2.641,1.32-4.775l0.204-5.994
		c0-1.117-0.406-1.321-1.017-1.321c-0.608,0-2.337,0.406-4.164,1.016c-5.994,2.032-8.941,3.556-8.941,7.517
		C472.726,78.906,473.945,83.274,479.126,83.274z"/>
	<path fill="#005596" d="M510.517,57.266c0-3.962,0-4.47-2.743-6.299l-0.914-0.609c-0.406-0.406-0.406-1.524,0.101-1.829
		c2.337-0.813,7.722-3.454,10.261-4.978c0.507,0.102,0.813,0.305,0.813,0.711v5.893c0,0.508,0.101,0.813,0.305,0.914
		c3.556-2.946,7.417-6.096,11.175-6.096c2.541,0,4.573,1.626,4.573,4.064c0,3.353-2.743,4.673-4.368,4.673
		c-1.017,0-1.524-0.305-2.236-0.711c-1.524-1.016-3.049-1.626-4.469-1.626c-1.625,0-2.844,0.914-3.659,2.032
		c-1.015,1.422-1.32,4.368-1.32,7.823v13.817c0,7.315,0.204,8.534,4.063,8.838l3.659,0.305c0.709,0.507,0.507,2.236-0.204,2.54
		c-4.775-0.203-7.72-0.304-11.276-0.304c-3.659,0-6.705,0.101-9.347,0.304c-0.711-0.304-0.914-2.033-0.204-2.54l1.931-0.305
		c3.76-0.608,3.861-1.523,3.861-8.838V57.266z"/>
	<path fill="#005596" d="M551.559,50.662c-1.728,0-1.83,0.305-1.83,2.438v18.998c0,5.892,0.712,11.277,7.417,11.277
		c1.015,0,1.93-0.203,2.743-0.507c0.914-0.305,2.234-1.423,2.539-1.423c0.813,0,1.219,1.118,1.017,1.727
		c-1.83,2.134-5.486,4.673-10.667,4.673c-8.737,0-10.566-4.876-10.566-10.972V53.608c0-2.743-0.101-2.946-2.133-2.946h-2.846
		c-0.609-0.406-0.709-1.524-0.303-2.134c2.945-0.914,5.484-2.235,6.501-3.15c1.32-1.219,3.25-3.962,4.267-5.994
		c0.507-0.204,1.726-0.204,2.133,0.508v4.572c0,1.829,0.103,1.931,1.83,1.931h11.278c1.219,0.914,1.015,3.657,0.101,4.267H551.559z"
		/>
</g>
<g>
	<path fill="#005596" d="M40.985,69.446c-0.669-0.034-0.668-0.046-1.863-2.049c-1.912-3.207-6.991-11.722-10.04-14.346
		c-4.512-3.884-9.149-7.876-10.946-14.566c-2.974-11.062,2.705-22.317,13.503-26.759c1.423-0.586,2.925-1.044,4.462-1.362
		C49.435,7.6,63.07,15.718,66.496,28.46c1.696,6.315-0.205,11.447-2.045,16.407l-0.333,0.903
		c-2.378,6.465-1.734,14.722-1.522,17.435c0.081,1.044,0.1,1.49-0.609,1.83C51.854,69.909,51.523,69.98,40.985,69.446z
		 M41.77,67.463c7.249,0.727,7.014,1.168,18.577-3.77c-0.004-0.049-0.05-0.296-0.054-0.349c-0.22-2.81-0.887-11.361,1.628-18.199
		l0.335-0.906c1.742-4.696,3.542-9.55,1.994-15.313C61.117,17.272,48.727,9.83,36.63,12.336c-1.383,0.287-2.733,0.699-4.013,1.225
		C22.804,17.6,17.657,27.885,20.382,38.02c1.644,6.117,6.039,9.902,10.289,13.561c3.337,2.869,8.354,11.282,10.496,14.874
		C41.391,66.833,41.61,67.198,41.77,67.463z"/>
	<path fill="#005596" d="M47.075,71.164c-1.667,0-3.636-0.091-6.166-0.22h0c-1.461-0.075-1.794-0.632-3.031-2.707
		c-1.741-2.919-6.906-11.582-9.774-14.049c-4.671-4.022-9.5-8.179-11.417-15.314c-3.172-11.801,2.876-23.802,14.381-28.536
		c1.505-0.62,3.097-1.106,4.729-1.443c14.099-2.926,28.519,5.68,32.147,19.176c1.821,6.781-0.255,12.379-2.088,17.317l-0.331,0.899
		c-2.267,6.163-1.64,14.169-1.434,16.8c0.082,1.059,0.194,2.508-1.457,3.3C54.721,70.195,52.506,71.164,47.075,71.164z
		 M42.669,66.047l0.684,0.071c5.484,0.576,5.984,0.629,15.39-3.372c-0.253-3.428-0.67-11.483,1.77-18.118l0.335-0.908
		c1.737-4.683,3.376-9.103,1.953-14.405c-2.931-10.9-14.53-17.858-25.867-15.51c-1.291,0.268-2.552,0.652-3.747,1.144
		C24.082,18.696,19.305,28.235,21.83,37.63c1.524,5.672,5.741,9.302,9.819,12.813c3.102,2.667,7.202,9.199,10.803,15.238
		C42.526,65.807,42.599,65.93,42.669,66.047z"/>
</g>
<g>
	<path fill="#005596" d="M42.964,48.706c-0.602-0.43-1.195-0.889-1.778-1.376l0,0c-2.596-1.536-10.724-7.401-11.325-9.265l0,0
		c-0.79-2.46-0.441-4.871,0.85-6.581l0,0c1.16-1.531,2.595-2.387,4.042-2.741l0,0c0.991-0.242,1.979-0.266,2.886-0.164l0,0
		c1.365,0.152,2.565,0.573,3.435,0.953l0,0c0.187,0.082,0.361,0.164,0.518,0.24l0,0c0.222-0.348,0.521-0.769,0.896-1.216l0,0
		c0.463-0.541,1.045-1.112,1.759-1.619l0,0c0.713-0.503,1.567-0.942,2.56-1.185l0,0c1.44-0.362,3.176-0.299,5.071,0.476l0,0
		c2.124,0.864,3.862,2.757,4.652,5.213l0,0c0.601,1.867,0.656,4.057-0.043,6.382l0,0c-1.097,3.652-4.232,7.394-5.696,9.735
		c-4.096,6.57-0.044,17.067-0.044,17.067s-2.275,0.443-2.287,0.387c-3.386-15.289-1.784-15.058-0.092-17.865
		c0,0,5.201-6.717,6.177-9.979l0,0c0.601-2.003,0.531-3.788,0.062-5.247l0,0c-0.623-1.931-1.941-3.297-3.403-3.888l0,0
		c-1.527-0.618-2.74-0.636-3.789-0.381l0,0c-0.718,0.173-1.36,0.499-1.918,0.896l0,0c-0.841,0.593-1.494,1.35-1.925,1.961l0,0
		c-0.218,0.303-0.378,0.568-0.485,0.755l0,0c-0.05,0.092-0.089,0.16-0.114,0.208l0,0c-0.013,0.023-0.021,0.042-0.024,0.054l0,0
		c-0.004,0.004-0.006,0.006-0.006,0.008l0,0l0,0c0,0,0,0-0.001,0.002l0,0c-0.114,0.246-0.339,0.427-0.615,0.492l-0.022,0.007l0,0
		c-0.271,0.07-0.572,0.017-0.818-0.14l0,0l0,0c-0.047-0.027-0.865-0.53-2.018-0.921l0,0c-0.59-0.204-1.269-0.377-1.97-0.451l0,0
		c-0.702-0.074-1.43-0.053-2.137,0.12l0,0c-1.044,0.265-2.062,0.842-3,2.068l0,0c-0.893,1.175-1.203,2.946-0.581,4.877l0,0
		c0.469,1.46,8.959,6.862,10.664,8.291l0,0c0.502,0.424,1.023,0.824,1.547,1.207c0.038,0.028,0.076,0.053,0.112,0.079L42.964,48.706
		z"/>
	<path fill="#005596" d="M48.395,66.005c-0.604,0-0.789-0.225-0.91-0.778c-2.966-13.39-2.255-15.217-0.503-17.782
		c0.172-0.252,0.352-0.514,0.532-0.814l0.066-0.096c0.051-0.065,5.098-6.607,6.01-9.653c0.494-1.646,0.517-3.256,0.068-4.655
		c-0.493-1.529-1.549-2.75-2.826-3.266c-1.168-0.474-2.178-0.58-3.177-0.336c-0.539,0.13-1.068,0.378-1.576,0.739
		c-0.82,0.579-1.408,1.327-1.687,1.721c-0.198,0.277-0.34,0.512-0.436,0.678l-0.218,0.401c-0.263,0.42-0.682,0.72-1.18,0.837
		c-0.542,0.142-1.127,0.043-1.607-0.263c-0.177-0.105-0.873-0.502-1.801-0.817c-0.597-0.206-1.202-0.345-1.754-0.403
		c-0.647-0.07-1.25-0.036-1.794,0.097c-0.962,0.244-1.741,0.786-2.444,1.705c-0.746,0.982-0.905,2.464-0.423,3.962
		c0.428,0.826,4.945,3.977,7.116,5.491c1.491,1.04,2.668,1.861,3.239,2.34c0.433,0.367,0.907,0.736,1.495,1.167l0.811,0.594
		l-0.486,0.887l-1.728,2.333l-0.8-0.572c-0.603-0.431-1.2-0.892-1.777-1.372c-1.717-1.04-10.898-7.299-11.696-9.777
		c-0.883-2.746-0.517-5.476,1.003-7.49c1.208-1.594,2.799-2.668,4.602-3.11c1.024-0.25,2.113-0.313,3.236-0.187
		c1.141,0.127,2.315,0.44,3.494,0.932c0.152-0.205,0.313-0.407,0.479-0.605c0.594-0.694,1.247-1.294,1.945-1.79
		c0.908-0.642,1.884-1.092,2.901-1.341c1.786-0.449,3.754-0.27,5.688,0.522c2.448,0.996,4.354,3.122,5.225,5.832
		c0.696,2.164,0.684,4.577-0.038,6.977c-0.86,2.862-2.838,5.684-4.428,7.951c-0.526,0.75-1.007,1.434-1.377,2.027
		c-3.78,6.062,0.003,16.076,0.042,16.176l0.428,1.113l-1.17,0.228C49.675,65.853,48.893,66.005,48.395,66.005z M49.196,47.714
		c-0.191,0.314-0.381,0.592-0.563,0.859c-1.238,1.813-2.066,3.026,0.605,15.317c0.061-0.011,0.124-0.022,0.188-0.034
		c-0.949-2.979-3.025-11.146,0.518-16.827c0.393-0.628,0.9-1.351,1.436-2.116c1.507-2.149,3.383-4.825,4.151-7.378
		c0.456-1.517,0.577-3.029,0.363-4.443c0.188,1.389,0.058,2.872-0.389,4.363C54.52,40.748,49.698,47.062,49.196,47.714z
		 M36.1,42.576c1.763,1.348,3.63,2.67,5.023,3.544c-0.61-0.448-1.47-1.047-2.417-1.708C37.738,43.736,36.872,43.127,36.1,42.576z
		 M34.766,29.773c-1.26,0.364-2.383,1.16-3.257,2.314c-0.917,1.214-1.253,2.817-0.975,4.518c-0.237-1.681,0.122-3.3,1.034-4.5
		C32.464,30.934,33.513,30.169,34.766,29.773z M42.024,31.019l0.041,0.019l0.145-0.251c0.131-0.229,0.31-0.524,0.552-0.862
		c0.425-0.604,1.15-1.482,2.161-2.194c0.563-0.4,1.156-0.706,1.768-0.909c-0.649,0.202-1.274,0.514-1.866,0.932
		c-0.562,0.399-1.093,0.888-1.576,1.452c-0.297,0.353-0.572,0.726-0.813,1.104l-0.455,0.713c0.004,0.002,0.007,0.004,0.011,0.006
		L42.024,31.019z"/>
</g>
<g>
	<path fill="#005596" d="M52.456,66.939c0,0-3.652,1.131-3.739,0.754c-3.674-15.845-2.746-17.169-0.826-20.768l0.031-0.047
		c0.049-0.065,5.158-6.684,6.102-9.832c0.526-1.757,0.549-3.485,0.063-4.998c-0.538-1.674-1.702-3.013-3.111-3.584
		c-1.248-0.503-2.336-0.617-3.412-0.353c-0.593,0.147-1.175,0.419-1.725,0.808c-0.827,0.582-1.439,1.325-1.805,1.842
		c-0.217,0.299-0.372,0.553-0.461,0.714c-0.048,0.083-0.081,0.15-0.103,0.191l-0.025,0.053c-0.181,0.381-0.535,0.661-0.968,0.768
		c-0.453,0.116-0.924,0.033-1.306-0.207c-0.012-0.008-0.789-0.492-1.895-0.865c-0.634-0.218-1.255-0.361-1.841-0.422
		c-0.692-0.073-1.337-0.037-1.917,0.108c-1.077,0.273-1.925,0.966-2.699,1.873c-0.942,1.104-1.773,3.065-0.25,4.599
		c1.194,1.203,4.664,3.978,7.039,5.636c1.426,0.997,5.219,3.863,5.219,3.863l-1.739,2.336c0,0-12.204-8.813-13.59-10.691
		c-1.649-2.235-1.637-5.183,0.015-7.156c1.448-1.729,3.374-2.85,5.069-3.27c0.99-0.244,2.034-0.307,3.126-0.183
		c1.177,0.131,2.39,0.465,3.605,0.997c0.027,0.008,0.052,0.022,0.075,0.032c0.209-0.3,0.433-0.587,0.668-0.869
		c0.569-0.661,1.191-1.237,1.852-1.7c2.392-1.691,5.309-1.952,8.2-0.768c2.318,0.941,4.12,2.948,4.947,5.512
		c0.658,2.053,0.644,4.343-0.044,6.634c-0.834,2.775-2.781,5.554-4.347,7.789c-0.527,0.749-1.113,1.42-1.397,2.053
		C47.648,55.861,52.456,66.939,52.456,66.939z"/>
	<path fill="#005596" d="M48.942,68.136c-0.246,0-0.328-0.047-0.376-0.075l-0.142-0.082l-0.073-0.204
		c-3.64-15.698-2.779-17.309-0.894-20.837l0.153-0.271c0.546-0.713,5.173-6.792,6.054-9.73c0.505-1.687,0.527-3.337,0.065-4.775
		c-0.504-1.569-1.586-2.821-2.895-3.351c-1.174-0.474-2.186-0.581-3.182-0.337c-0.547,0.136-1.085,0.388-1.598,0.75
		c-0.784,0.552-1.365,1.258-1.715,1.753c-0.208,0.286-0.354,0.526-0.438,0.679c-0.043,0.073-0.07,0.126-0.088,0.163
		c-0.259,0.544-0.703,0.898-1.247,1.032c-0.538,0.137-1.119,0.046-1.595-0.253c-0.006-0.004-0.76-0.471-1.815-0.827
		c-0.613-0.21-1.205-0.347-1.76-0.405c-0.647-0.068-1.25-0.035-1.788,0.099c-0.878,0.223-1.675,0.779-2.505,1.752
		c-0.334,0.392-1.918,2.43-0.269,4.091c1.166,1.175,4.626,3.945,6.988,5.593c1.415,0.99,5.192,3.842,5.23,3.871l0.297,0.225
		l-2.183,2.931l-0.3-0.216c-0.5-0.361-12.267-8.87-13.672-10.773c-1.751-2.374-1.739-5.507,0.029-7.62
		c1.382-1.65,3.35-2.918,5.266-3.393c1.034-0.255,2.13-0.321,3.259-0.192c1.152,0.128,2.332,0.444,3.509,0.939
		c0.163-0.221,0.333-0.435,0.51-0.646c0.601-0.7,1.248-1.293,1.925-1.768c2.491-1.76,5.531-2.048,8.558-0.808
		c2.419,0.982,4.301,3.076,5.162,5.744c0.681,2.126,0.667,4.498-0.042,6.857c-0.854,2.839-2.819,5.643-4.399,7.896
		c-0.162,0.229-0.328,0.452-0.491,0.667c-0.355,0.473-0.69,0.92-0.872,1.324c-3.508,7.826,1.143,18.739,1.19,18.848l0.166,0.384
		l-0.399,0.124C50.345,67.985,49.382,68.136,48.942,68.136z M49.082,67.606c0,0.001,0,0.001,0,0.002
		C49.083,67.607,49.083,67.606,49.082,67.606z M48.698,27.597c0.765,0,1.555,0.172,2.418,0.52c1.512,0.612,2.756,2.039,3.328,3.816
		c0.509,1.582,0.488,3.387-0.061,5.22c-0.919,3.067-5.623,9.248-6.156,9.942l-0.108,0.197c-1.786,3.343-2.605,4.878,0.914,20.103
		c0.474-0.028,1.745-0.346,2.918-0.695c-0.829-2.069-4.332-11.691-1.026-19.066c0.216-0.48,0.576-0.959,0.957-1.467
		c0.158-0.21,0.32-0.426,0.477-0.648c1.548-2.208,3.476-4.958,4.294-7.681c0.665-2.214,0.681-4.431,0.046-6.412
		c-0.792-2.456-2.517-4.38-4.731-5.279c-2.782-1.139-5.567-0.881-7.843,0.727c-0.627,0.44-1.228,0.991-1.785,1.639
		c-0.224,0.269-0.442,0.547-0.644,0.838l-0.177,0.255l-0.284-0.127c-1.249-0.545-2.425-0.871-3.569-0.999
		c-1.042-0.118-2.048-0.059-2.995,0.175c-1.767,0.438-3.587,1.614-4.871,3.146c-1.546,1.846-1.546,4.599-0.001,6.693
		c1.044,1.415,8.924,7.292,13.208,10.394l1.296-1.74c-0.922-0.695-3.739-2.812-4.91-3.631c-2.433-1.698-5.879-4.458-7.09-5.679
		c-1.638-1.65-0.899-3.782,0.231-5.106c0.936-1.097,1.855-1.73,2.892-1.994c0.624-0.156,1.313-0.193,2.049-0.117
		c0.612,0.064,1.259,0.213,1.923,0.441c1.138,0.383,1.939,0.88,1.973,0.901c0.302,0.19,0.672,0.25,1.014,0.161
		c0.328-0.081,0.59-0.287,0.723-0.565c0.061-0.123,0.095-0.191,0.144-0.273c0.088-0.161,0.251-0.429,0.48-0.745
		c0.382-0.539,1.022-1.315,1.893-1.929c0.589-0.416,1.212-0.707,1.851-0.865C47.879,27.648,48.285,27.597,48.698,27.597z"/>
</g>
<g>
	<path fill="#005596" d="M59.434,73.975c-5.374,2.211-12.223,3.486-17.947,1.557c-0.838-0.282-1.256-1.108-0.934-1.842
		c0.322-0.736,1.26-1.103,2.097-0.821c6.417,2.162,15.898-0.683,21.001-4.562c0.676-0.516,1.704-0.45,2.291,0.146
		c0.587,0.597,0.512,1.496-0.166,2.012C64.17,71.684,61.965,72.934,59.434,73.975z"/>
	<path fill="#005596" d="M47.682,77.569c-2.353,0-4.566-0.329-6.545-0.996c-0.718-0.241-1.296-0.756-1.586-1.412
		c-0.273-0.617-0.274-1.296-0.004-1.914c0.551-1.262,2.069-1.888,3.453-1.422c6.081,2.048,15.108-0.686,19.986-4.396
		c1.116-0.853,2.761-0.744,3.739,0.251c0.497,0.504,0.755,1.187,0.706,1.87c-0.05,0.694-0.411,1.346-0.99,1.787
		c-1.745,1.326-4.084,2.622-6.588,3.652l0,0C55.705,76.698,51.509,77.569,47.682,77.569z M42.071,73.872
		c-0.236,0-0.448,0.114-0.51,0.257c-0.016,0.036-0.028,0.08-0.001,0.142c0.041,0.092,0.144,0.173,0.277,0.218
		c6.677,2.247,14.237-0.321,17.179-1.532l0,0c2.333-0.96,4.498-2.156,6.094-3.37c0.077-0.058,0.123-0.128,0.128-0.193
		c0.004-0.057-0.023-0.115-0.079-0.172C64.96,69.02,64.552,69,64.318,69.179c-5.327,4.048-15.258,7.007-22.019,4.73
		C42.223,73.884,42.146,73.872,42.071,73.872z"/>
</g>
<g>
	<path fill="#005596" d="M61.196,80.103c-5.011,2.062-11.4,3.249-16.742,1.452c-0.838-0.284-1.255-1.109-0.934-1.844
		c0.322-0.735,1.261-1.103,2.097-0.822c5.912,1.994,14.65-0.635,19.36-4.21c0.675-0.517,1.703-0.451,2.289,0.146
		c0.587,0.594,0.513,1.495-0.166,2.01C65.604,77.971,63.552,79.133,61.196,80.103z"/>
	<path fill="#005596" d="M50.235,83.528c-2.203,0-4.278-0.308-6.132-0.932c-0.72-0.244-1.297-0.759-1.586-1.414
		c-0.272-0.615-0.274-1.294-0.005-1.91c0.553-1.265,2.07-1.892,3.454-1.425c5.567,1.877,13.857-0.638,18.345-4.044
		c1.117-0.854,2.761-0.744,3.738,0.252c0.496,0.502,0.753,1.183,0.705,1.869c-0.049,0.695-0.411,1.347-0.991,1.787
		c-1.624,1.235-3.808,2.446-6.149,3.409h-0.001C57.739,82.714,53.816,83.528,50.235,83.528z M45.038,79.893
		c-0.237,0-0.449,0.114-0.512,0.258c-0.021,0.049-0.021,0.092,0.001,0.142c0.041,0.092,0.145,0.175,0.28,0.221
		c6.209,2.087,13.236-0.303,15.971-1.427h-0.001c2.17-0.893,4.179-2.004,5.657-3.127c0.078-0.06,0.123-0.128,0.127-0.193
		c0.004-0.056-0.022-0.113-0.078-0.17c-0.2-0.204-0.606-0.225-0.839-0.047c-4.938,3.747-14.131,6.485-20.379,4.38
		C45.189,79.904,45.113,79.893,45.038,79.893z"/>
</g>
<g>
	<path fill="#005596" d="M62.756,86.607c-4.466,1.836-10.164,2.894-14.932,1.288c-0.838-0.282-1.256-1.106-0.934-1.842
		c0.321-0.735,1.259-1.102,2.096-0.821c5.151,1.735,12.78-0.562,16.893-3.687c0.676-0.516,1.704-0.448,2.29,0.146
		c0.587,0.596,0.512,1.496-0.166,2.012C66.675,84.711,64.851,85.744,62.756,86.607z"/>
	<path fill="#005596" d="M52.99,89.776c-1.982,0-3.847-0.278-5.516-0.84c-0.718-0.241-1.296-0.756-1.586-1.411
		c-0.273-0.616-0.274-1.295-0.004-1.914c0.551-1.262,2.068-1.887,3.452-1.423c4.662,1.571,11.974-0.553,15.878-3.521
		c1.115-0.853,2.759-0.743,3.738,0.251c0.497,0.504,0.755,1.187,0.706,1.871c-0.049,0.695-0.41,1.346-0.99,1.786
		c-1.452,1.103-3.402,2.186-5.493,3.047h-0.001C59.708,89.049,56.197,89.776,52.99,89.776z M48.408,86.236
		c-0.236,0-0.448,0.114-0.511,0.257c-0.022,0.05-0.022,0.093,0,0.143c0.041,0.092,0.144,0.173,0.278,0.218
		c5.503,1.851,11.738-0.266,14.163-1.263c1.92-0.791,3.695-1.773,5-2.764c0.077-0.058,0.122-0.127,0.127-0.193
		c0.004-0.057-0.023-0.115-0.079-0.172c-0.197-0.202-0.606-0.223-0.84-0.045c-4.337,3.296-12.414,5.705-17.911,3.856
		C48.56,86.248,48.482,86.236,48.408,86.236z"/>
</g>
<g>
	<path fill="#005596" d="M63.851,86.1c0.529,1.937-1.42,4.012-4.355,4.629c-2.932,0.622-5.742-0.448-6.272-2.385
		C52.694,86.406,63.32,84.161,63.851,86.1z"/>
	<path fill="#005596" d="M57.81,92.008c-2.763,0-5.081-1.307-5.646-3.374c-0.407-1.487,1.095-2.708,4.464-3.63
		c0.767-0.21,7.521-1.974,8.283,0.806l0.001,0.001c0.273,0.998,0.104,2.037-0.486,3.004c-0.879,1.438-2.637,2.557-4.704,2.991
		C59.073,91.942,58.43,92.008,57.81,92.008z M54.373,88.288c0.521,1.073,2.53,1.865,4.895,1.366
		c1.465-0.308,2.721-1.069,3.282-1.987c0.23-0.376,0.323-0.743,0.279-1.093C61.453,85.988,55.532,87.198,54.373,88.288z"/>
</g>
<g>
	<path fill="#005596" d="M574.738,15.948c2.078,0,4.11,0.53,6.085,1.595c1.975,1.062,3.52,2.584,4.629,4.566
		c1.109,1.985,1.665,4.05,1.665,6.201c0,2.138-0.546,4.19-1.639,6.155c-1.092,1.965-2.621,3.49-4.589,4.579
		c-1.962,1.086-4.016,1.629-6.151,1.629c-2.141,0-4.19-0.543-6.148-1.629c-1.962-1.089-3.487-2.614-4.579-4.579
		c-1.092-1.965-1.639-4.017-1.639-6.155c0-2.152,0.556-4.216,1.665-6.201c1.109-1.981,2.654-3.503,4.629-4.566
		C570.641,16.478,572.666,15.948,574.738,15.948z M574.738,17.028c-1.895,0-3.747,0.489-5.545,1.462
		c-1.805,0.976-3.214,2.368-4.223,4.173c-1.013,1.805-1.519,3.687-1.519,5.649c0,1.952,0.496,3.817,1.495,5.605
		c0.992,1.789,2.385,3.181,4.173,4.18c1.792,0.999,3.663,1.499,5.618,1.499c1.952,0,3.827-0.5,5.622-1.499
		c1.795-0.999,3.19-2.391,4.183-4.18c0.996-1.788,1.492-3.653,1.492-5.605c0-1.962-0.506-3.843-1.519-5.649
		c-1.009-1.805-2.415-3.197-4.22-4.173C578.495,17.517,576.639,17.028,574.738,17.028z M567.9,20.724h6.731
		c1.685,0,2.971,0.38,3.853,1.139c0.886,0.759,1.325,1.679,1.325,2.758c0,0.882-0.3,1.658-0.899,2.324
		c-0.596,0.666-1.585,1.179-2.968,1.539l3.644,5.182c0.44,0.619,0.833,1.039,1.182,1.272c0.223,0.14,0.529,0.227,0.923,0.26v0.576
		h-3.207l-5.126-7.044h-1.325v5.372c0.066,0.383,0.233,0.663,0.496,0.836c0.263,0.173,0.783,0.26,1.562,0.26v0.576h-6.401v-0.576
		c0.579,0,0.992-0.073,1.229-0.226c0.24-0.15,0.413-0.376,0.516-0.679c0.043-0.147,0.067-0.646,0.067-1.495v-9.095
		c0-0.859-0.017-1.366-0.05-1.515c-0.083-0.263-0.233-0.47-0.446-0.616c-0.213-0.146-0.583-0.217-1.106-0.217V20.724z
		 M572.034,27.978h0.523c1.549,0,2.674-0.3,3.384-0.902c0.706-0.603,1.062-1.356,1.062-2.261c0-0.939-0.33-1.728-0.986-2.365
		c-0.659-0.639-1.499-0.956-2.521-0.956c-0.44,0-0.929,0.09-1.462,0.276V27.978z"/>
</g>
<g>
</g>
<g>
</g>
<g>
</g>
<g>
</g>
<g>
</g>
<g>
</g>
</svg>
