<svg xmlns="http://www.w3.org/2000/svg" xmlns:xlink="http://www.w3.org/1999/xlink" viewBox="0 0 155.5 51.2" xml:space="preserve"><path fill="#FFF" d="M49.7 26.3c0 13.7-11.1 24.8-24.8 24.8C11.1 51.2 0 40.1 0 26.3 0 12.6 11.1 1.5 24.8 1.5c13.8 0 24.9 11.1 24.9 24.8z"/><g fill="#183059"><path d="M59.4 12.3c-.3 0-.4 0-.2-.4l.6-1.7c.3-.7.4-1 .4-1.1.1.1.2.4.4 1.1l.6 1.7c.1.3.1.4-.3.4h-1.5zm1.6.7c.4 0 .4 0 .6.4l.7 1.9c.2.6.1.7-.4.8h-.3c-.1.1-.1.3 0 .4h3.5c.1-.1.1-.3 0-.4L65 16c-.7-.1-.8-.2-1.1-1.2l-2-6c-.2-.6-.4-1.3-.6-1.9-.1-.1-.1-.1-.2-.1 0 0-.5.6-1 .7 0 .2-.1.6-.3 1l-1.9 5.1c-.3.8-.5 1.4-.7 1.7-.2.5-.4.6-.8.7l-.4.1c-.1.1-.1.3 0 .4h2.9c.1-.1.1-.3 0-.4l-.5-.1c-.5-.1-.6-.1-.3-1l.6-1.7c.1-.4.1-.4.5-.4H61zM78.2 16.1c.1.1.1.4 0 .4H74.6c-.1-.1-.2-.3 0-.4l.4-.1c.6-.1.6-.2.6-1.2V9l-.9 1.8-1.2 2.5c-.5 1-1.2 2.6-1.4 3.2-.1.1-.3.1-.4 0-.2-.8-.9-2.2-1.2-2.9L69.2 11c-.3-.6-.7-1.5-.8-1.9 0 .7-.1 1.8-.1 2.4 0 .9-.1 2.1-.1 3.3 0 .9 0 1.2.6 1.3l.5.1c.1.1.1.4 0 .4h-3c-.1-.1-.1-.3 0-.4h.2c.7-.1.8-.3.9-1.2.1-.9.1-1.8.2-3.3.1-1 .1-2.1.1-3 0-.7-.2-1-.8-1.1l-.5-.1c-.1-.1-.1-.4.1-.4h2.8c.1.9.4 1.6.8 2.4l1.6 3.3c.1.2.5 1 .7 1.3.2-.4.4-.8.7-1.5l1.3-2.7c.5-1.1.9-1.9 1.2-2.9h2.7c.2.1.2.3 0 .4l-.5.1c-.6.1-.8.4-.8 1.1 0 2.1 0 4.2.1 6.3 0 1 .2 1.1.7 1.1l.4.1zM81.3 9.1c0-1.5-.1-1.5-.8-1.6h-.2c-.1-.1-.1-.4 0-.4h6.4c.1.2.1 1.4.2 2-.1.1-.3.1-.5.1-.2-.8-.4-1.2-.9-1.3-.3-.1-.8-.1-1.1-.1h-1c-.6 0-.6 0-.6.8V11c0 .4 0 .4.3.4h.7c1.2 0 1.5 0 1.6-.6l.1-.5c.1-.1.4-.1.5 0v2.9c-.1.1-.3.1-.5 0l-.1-.6c-.1-.6-.3-.6-1.6-.6h-.7c-.3 0-.3 0-.3.4v1.8c0 .7 0 1.2.2 1.5.2.2.4.3 1.6.3 1.8 0 2.1-.4 2.6-1.5.1-.1.4-.1.5.1-.1.6-.4 1.7-.6 2.1H79.9c-.1-.1-.1-.3 0-.4l.5-.1c.7-.1.8-.1.8-1.6V9.1zM91.9 8.3c0-.7 0-.7.8-.7 1.2 0 2 1 2 2.1 0 1.3-.6 2-2 2-.7 0-.7 0-.7-.5V8.3zm-1.7 6.1c0 1.5-.1 1.5-.8 1.6h-.3c-.1.1-.1.4 0 .4h3.8c.1-.1.1-.3 0-.4h-.3c-.7-.1-.8-.1-.8-1.6v-1.8c0-.3 0-.3.4-.3.5 0 .6.1.9.5.3.6.7 1.3 1.1 1.9.9 1.3 1.6 1.9 3 1.9.5 0 .8 0 .9-.1v-.3c-.2 0-.6-.1-1-.4-.7-.6-1.4-1.8-2.5-3.7-.1-.1-.1-.2 0-.2.7-.3 1.7-.9 1.7-2.2 0-1-.5-1.7-1.3-2.1-.5-.4-1.4-.6-2.5-.6-1.2 0-2.4 0-3.3.1-.1.1-.1.3 0 .4h.4c.7.1.7.2.7 1.6v5.3zM101.9 14.4c0 1.5.1 1.5.8 1.6h.3c.1.1.1.4 0 .4h-3.8c-.1-.1-.1-.3 0-.4h.3c.7-.1.8-.1.8-1.6V9.1c0-1.5-.1-1.5-.8-1.6h-.3c-.1-.1-.1-.4 0-.4h3.8c.1.1.1.3 0 .4h-.3c-.7.1-.8.1-.8 1.6v5.3zM113.7 9.5c-.1.1-.4.1-.5 0-.2-.9-.9-2.1-2.8-2.1-1.8 0-3.6 1.3-3.6 4.2 0 3 1.9 4.5 3.7 4.5 1.8 0 2.6-1.2 3-2.1.1-.1.4-.1.4.1-.1 1-.5 1.9-.7 2.2-.2 0-.3.1-.5.1-.3.1-1.3.3-2.2.3-1.4 0-2.6-.3-3.6-1-1.2-.8-2-2-2-3.9 0-1.7.7-3 1.8-3.8 1.1-.8 2.5-1.2 3.9-1.2.8 0 1.8.1 2.5.3.2 0 .3.1.4.1 0 .4 0 1.2.2 2.3zM118.1 12.3c-.3 0-.4 0-.2-.4l.6-1.7c.3-.7.4-1 .4-1.1.1.1.2.4.4 1.1l.6 1.7c.1.3.1.4-.3.4h-1.5zm1.6.7c.4 0 .4 0 .6.4l.7 1.9c.2.6.1.7-.4.8h-.3c-.1.1-.1.3 0 .4h3.5c.1-.1.1-.3 0-.4h-.2c-.7-.1-.8-.2-1.1-1.2l-2-6c-.2-.6-.4-1.3-.6-1.9-.1-.1-.1-.1-.2-.1 0 0-.5.6-1 .7 0 .2-.1.6-.3 1l-1.9 5.1c-.3.8-.5 1.4-.7 1.7-.2.5-.4.6-.8.7l-.4.1c-.1.1-.1.3 0 .4h2.9c.1-.1.1-.3 0-.4l-.4-.1c-.5-.1-.6-.1-.3-1l.6-1.7c.1-.4.1-.4.5-.4h1.8zM134 14v2.5c-.1.2-.3.2-.5.2-.2-.3-.6-.8-1.7-1.9l-3.3-3.8c-.9-1-1.4-1.6-1.6-1.8V12.9c0 1.1 0 2.4.3 2.8.1.2.4.3.7.4h.3c.1.1.1.4 0 .4h-3.1c-.1-.1-.1-.3 0-.4l.3-.1c.3 0 .5-.1.6-.3.2-.4.2-1.7.2-2.8V9.5c0-1.1 0-1.3-.5-1.7-.2-.1-.6-.2-.8-.3h-.2c-.1-.1-.1-.4.1-.4.5.1 1.3 0 1.7 0h1c.2.6 1.8 2.4 2.3 2.9l1.4 1.5c.6.7 1.9 2.2 2.1 2.2V10.6c0-1.1 0-2.4-.3-2.8-.1-.2-.4-.3-.7-.4h-.3c-.1-.1-.1-.4 0-.4h3.1c.1.1.1.3 0 .4l-.3.1c-.3 0-.5.1-.6.3-.2.4-.2 1.7-.2 2.8V14zM64.9 24c-.1.1-.4.1-.5 0-.2-.9-.9-2.1-2.8-2.1-1.8 0-3.6 1.3-3.6 4.2 0 3 1.9 4.5 3.7 4.5 1.8 0 2.6-1.2 3-2.1.1-.1.4-.1.4.1-.1 1-.5 1.9-.7 2.2-.2 0-.3.1-.5.1-.3.1-1.3.3-2.2.3-1.4 0-2.6-.3-3.6-1-1.2-.8-2-2-2-3.9 0-1.7.7-3 1.8-3.8 1.1-.8 2.5-1.2 3.9-1.2.8 0 1.8.1 2.5.3.2 0 .3.1.4.1 0 .5.1 1.3.2 2.3zM71.5 22c2.3 0 3.2 2.5 3.2 4.6 0 2.9-1.3 4.1-2.9 4.1-2.4 0-3.3-2.7-3.3-4.6 0-3.1 1.6-4.1 3-4.1zm.2-.6c-3 0-5.1 2.1-5.1 5 0 2.5 1.8 4.8 5.1 4.8 2.9 0 5-2.1 5-4.9-.1-2.5-1.8-4.9-5-4.9zM81.1 28.7c0 .7 0 1.2.2 1.5.2.2.4.3 1.5.3 1.6 0 1.8-.1 2.5-1.5.1-.1.4 0 .4.1-.1.6-.4 1.7-.6 2.1h-6.9c-.1-.1-.2-.3 0-.4l.4-.1c.7-.1.8-.1.8-1.6v-5.3c0-1.5-.1-1.5-.8-1.6l-.3-.2c-.1-.1-.1-.4 0-.4h3.9c.1.1.1.3 0 .4l-.3.1c-.7.1-.8.1-.8 1.6v5zM89.7 28.7c0 .7 0 1.2.2 1.5.2.2.4.3 1.5.3 1.6 0 1.8-.1 2.5-1.5.1-.1.4 0 .4.1-.1.6-.4 1.7-.6 2.1h-6.9c-.1-.1-.2-.3 0-.4l.4-.1c.7-.1.8-.1.8-1.6v-5.3c0-1.5-.1-1.5-.8-1.6l-.4-.2c-.1-.1-.1-.4 0-.4h3.9c.1.1.1.3 0 .4l-.3.1c-.7.1-.8.1-.8 1.6v5zM96.6 23.7c0-1.5-.1-1.5-.8-1.6h-.2c-.1-.1-.1-.4 0-.4h6.4c.1.2.1 1.4.2 2-.1.1-.3.1-.5.1-.2-.8-.4-1.2-.9-1.3-.3-.1-.8-.1-1.1-.1h-1c-.6 0-.6 0-.6.8v2.4c0 .4 0 .4.3.4h.7c1.2 0 1.5 0 1.6-.6l.1-.5c.1-.1.4-.1.5 0v2.9c-.1.1-.3.1-.5 0l-.1-.6c-.1-.6-.3-.6-1.6-.6h-.7c-.3 0-.3 0-.3.4v1.8c0 .7 0 1.2.2 1.5.2.2.4.3 1.6.3 1.8 0 2.1-.4 2.6-1.5.1-.1.4-.1.5.1-.1.6-.4 1.7-.6 2.1H95.2c-.1-.1-.1-.3 0-.4l.5-.1c.7-.1.8-.1.8-1.6v-5.5zM113 29.6c0 .5.1.9.3 1v.2c-.2 0-.4 0-.7.1-.9.2-1.9.4-2.8.4-1.7 0-3.3-.5-4.4-1.6-.8-.9-1.3-2.1-1.3-3.3 0-1.2.4-2.4 1.3-3.3 1-1.1 2.6-1.7 4.5-1.7.7 0 1.4.1 1.9.2.3.1.7.1.9.1 0 .4.1 1.2.2 2.3-.1.1-.4.2-.5 0-.3-1.4-1.3-2.1-2.7-2.1-2.5 0-3.7 1.8-3.7 4.2 0 1.1.3 2.4 1 3.3.8.9 1.9 1.2 2.7 1.2.7 0 1.1-.1 1.3-.3.1-.1.1-.4.1-.9V29c0-1 0-1.1-1-1.3l-.5-.1c-.1-.1-.1-.3 0-.4H113.5c.1.1.2.3 0 .4h-.3c-.5.1-.6.2-.6 1.1v.9zM116.5 23.7c0-1.5-.1-1.5-.8-1.6h-.2c-.1-.1-.1-.4 0-.4h6.4c.1.2.1 1.4.2 2-.1.1-.3.1-.5.1-.2-.8-.4-1.2-.9-1.3-.3-.1-.8-.1-1.1-.1h-1c-.6 0-.6 0-.6.8v2.4c0 .4 0 .4.3.4h.7c1.2 0 1.5 0 1.6-.6l.1-.5c.1-.1.4-.1.5 0v2.9c-.1.1-.3.1-.5 0l-.1-.6c-.1-.6-.3-.6-1.6-.6h-.7c-.3 0-.3 0-.3.4v1.8c0 .7 0 1.2.2 1.5.2.2.4.3 1.6.3 1.8 0 2.1-.4 2.6-1.5.1-.1.4-.1.5.1-.1.6-.4 1.7-.6 2.1H115.1c-.1-.1-.1-.3 0-.4l.5-.1c.7-.1.8-.1.8-1.6v-5.5zM129.4 30.7c-.3 0-.5-.3-.5-.7 0-1.1.7-2.7 1.4-3.6.4-.5.7-.6.9-.6.4 0 .5.4.5.8 0 .9-.7 2.6-1.2 3.4-.5.5-.8.7-1.1.7zm-1.8-1.3c0 1 .6 1.9 1.8 1.9.6 0 1.4-.2 2.2-1 1-.9 1.4-2.2 1.4-3.1 0-1.1-.5-1.9-1.7-1.9-.6 0-1.3.2-2.2 1-.9.7-1.5 2-1.5 3.1zM137.4 26.1c-.5 1.4-1.1 4-1.6 5.4-.4 1.1-.7 2-1.1 2.4-.3.4-1.1 1-1.9 1-.7 0-1.2-.5-1.2-1 0-.4.3-.7.5-.7s.3.1.4.3c.3.4.6.7.8.7.2 0 .4-.2.7-1.2.5-1.7 1.2-4.5 1.9-7h-1.3c-.1-.2 0-.5.2-.6h1.3c.3-1.1.6-2.1 1.2-2.9.7-1 1.6-1.6 2.7-1.6.9 0 1.4.5 1.4 1.1 0 .6-.5 1-.8 1-.2 0-.3-.1-.3-.3-.1-1-.5-1.3-.8-1.3-.3 0-.7.4-1 1-.5.9-.8 2-1.1 3.1h1.7c.1.2.1.5-.2.6h-1.5zM64.8 38.6c-.1.1-.4.1-.5 0-.2-.9-.9-2.1-2.8-2.1-1.8 0-3.6 1.3-3.6 4.2 0 3 1.9 4.5 3.7 4.5 1.8 0 2.6-1.2 3-2.1.1-.1.4-.1.4.1-.1 1-.5 1.9-.7 2.2-.2 0-.3.1-.5.1-.3.1-1.3.3-2.2.3-1.4 0-2.6-.3-3.6-1-1.2-.8-2-2-2-3.9 0-1.7.7-3 1.8-3.8 1.1-.8 2.5-1.2 3.9-1.2.8 0 1.8.1 2.5.3.2 0 .3.1.4.1 0 .4 0 1.2.2 2.3zM69.2 41.5c-.3 0-.4 0-.2-.4l.6-1.7c.3-.7.4-1 .4-1.1.1.1.2.4.4 1.1l.6 1.7c.1.3.1.4-.3.4h-1.5zm1.6.6c.4 0 .4 0 .6.4l.7 1.9c.2.6.1.7-.4.8h-.3c-.1.1-.1.3 0 .4h3.5c.1-.1.1-.3 0-.4h-.2c-.6-.2-.7-.3-1-1.2l-2-6c-.2-.6-.4-1.3-.6-1.9-.2-.1-.2-.1-.3-.1 0 0-.5.6-1 .7 0 .2-.1.6-.3 1l-1.9 5.1c-.3.8-.5 1.4-.7 1.7-.2.5-.4.6-.8.7l-.4.1c-.1.1-.1.3 0 .4h2.9c.1-.1.1-.3 0-.4l-.4-.1c-.5-.1-.6-.1-.3-.9l.6-1.7c.1-.4.1-.4.5-.4h1.8zM79 37.4c0-.7 0-.7.8-.7 1.2 0 2 1 2 2.1 0 1.3-.6 2-2 2-.7 0-.7 0-.7-.5v-2.9zm-1.7 6.1c0 1.5-.1 1.5-.8 1.6h-.3c-.1.1-.1.4 0 .4H80c.1-.1.1-.3 0-.4h-.3c-.6 0-.7-.1-.7-1.6v-1.8c0-.3 0-.3.4-.3.5 0 .6.1.9.5.3.6.7 1.3 1.1 1.9.9 1.3 1.6 1.9 3 1.9.5 0 .8 0 .9-.1v-.3c-.2 0-.6-.1-1-.4-.7-.6-1.4-1.8-2.5-3.7-.1-.1-.1-.2 0-.2.7-.3 1.7-.9 1.7-2.2 0-1-.5-1.7-1.3-2.1-.6-.3-1.6-.5-2.7-.5-1.2 0-2.4 0-3.3.1-.1.1-.1.3 0 .4h.4c.7.1.7.2.7 1.6v5.2zM89 38c0-.7 0-1 .1-1.1.1-.1.6-.2 1.2-.2 2.4 0 4 1.4 4 4.2 0 2.4-1.1 4.2-3.7 4.2-1.5 0-1.6-.7-1.6-2.1v-5zm-1.7 5.5c0 1.5-.1 1.5-.8 1.6h-.3c-.1.1-.1.4 0 .4H88c.5 0 1.2.1 2.1.1 1.3 0 2.5-.2 3.5-.7 1.8-.9 2.5-2.5 2.5-4.1 0-2.1-1.2-3.6-2.9-4.2-1-.4-2-.5-3.4-.5s-2.5 0-3.6.1c-.1.1-.1.3 0 .4h.3c.7.1.7.3.7 1.6v5.3zM100.8 43.5c0 1.5.1 1.5.8 1.6h.3c.1.1.1.4 0 .4h-3.8c-.1-.1-.1-.3 0-.4h.3c.7-.1.8-.1.8-1.6v-5.3c0-1.5-.1-1.5-.8-1.6h-.3c-.1-.1-.1-.4 0-.4h3.8c.1.1.1.3 0 .4h-.3c-.7.1-.8.1-.8 1.6v5.3zM108.7 36.6c2.3 0 3.2 2.5 3.2 4.6 0 2.9-1.3 4.1-2.9 4.1-2.4 0-3.3-2.7-3.3-4.6.1-3.1 1.6-4.1 3-4.1zm.2-.6c-3 0-5.1 2.1-5.1 5 0 2.5 1.8 4.8 5.1 4.8 2.9 0 5-2.1 5-4.9 0-2.6-1.7-4.9-5-4.9zM118.5 43.2c0 .7 0 1.2.2 1.5.2.2.4.3 1.5.3 1.6 0 1.8-.1 2.5-1.5.1-.1.4 0 .4.1-.1.6-.4 1.7-.6 2.1h-6.9c-.1-.1-.2-.3 0-.4l.4-.1c.7-.1.8-.1.8-1.6v-5.3c0-1.5-.1-1.5-.8-1.6l-.4-.1c-.1-.1-.1-.4 0-.4h3.9c.1.1.1.3 0 .4l-.3.1c-.7.1-.8.1-.8 1.6v4.9zM129.1 36.6c2.3 0 3.2 2.5 3.2 4.6 0 2.9-1.3 4.1-2.9 4.1-2.4 0-3.3-2.7-3.3-4.6 0-3.1 1.6-4.1 3-4.1zm.2-.6c-3 0-5.1 2.1-5.1 5 0 2.5 1.8 4.8 5.1 4.8 2.9 0 5-2.1 5-4.9 0-2.6-1.7-4.9-5-4.9zM144.9 44.1c0 .5.1.9.3 1v.2c-.2 0-.4 0-.7.1-.9.2-1.9.4-2.8.4-1.7 0-3.3-.5-4.4-1.6-.8-.9-1.3-2.1-1.3-3.3 0-1.2.4-2.4 1.3-3.3 1-1.1 2.6-1.7 4.5-1.7.7 0 1.4.1 1.9.2.3.1.7.1.9.1 0 .4.1 1.2.2 2.3-.1.1-.4.2-.5 0-.3-1.4-1.3-2.1-2.7-2.1-2.5 0-3.7 1.8-3.7 4.2 0 1.1.3 2.4 1 3.3.8.9 1.9 1.2 2.7 1.2.7 0 1.1-.1 1.3-.3.1-.1.1-.4.1-.9v-.5c0-1 0-1.1-1-1.3l-.5-.1c-.1-.1-.1-.3 0-.4H145.4c.1.1.2.3 0 .4h-.3c-.5.1-.6.2-.6 1.1v1zM150 42.7c0-.8-.1-1-.5-1.8l-1.7-3.4c-.3-.6-.4-.8-1.1-.9l-.4-.1c-.1-.1-.1-.4.1-.4h3.6c.1.1.1.3 0 .4l-.4.1c-.2 0-.3.1-.3.2s.1.3.3.7c.6 1.2 1.1 2.4 1.6 3.4.6-1.1 1.1-2.1 1.7-3.1.2-.5.4-.8.4-1 0-.1-.1-.2-.3-.2l-.4-.1c-.1-.1-.1-.3 0-.4h2.8c.1.1.1.3 0 .4l-.4.1c-.6.1-.8.4-1.5 1.6-.5.8-.9 1.6-1.3 2.4-.4.7-.5 1-.5 2v.9c0 1.5.1 1.5.8 1.6l.5.1c.1.1.1.4 0 .4h-4.2c-.1-.1-.1-.3 0-.4l.5-.1c.7-.1.8-.1.8-1.6v-.8z"/></g><path fill="#FFF" stroke="#183059" stroke-width=".614" d="M48.5 26.3C48.5 39.4 37.9 50 24.8 50c-13 0-23.6-10.6-23.6-23.7S11.8 2.6 24.9 2.6c13 .1 23.6 10.7 23.6 23.7z"/><path fill="#183059" d="M48.8 26.3c0 13.2-10.7 24-24 24s-24-10.7-24-24 10.7-24 24-24 24 10.8 24 24z"/><path fill="#FFF" d="M25.8 26.9c-.3-.1-2.3-.9-2.3-.9-.2-.1 0-.4.3-.3.1 0 2.1.8 2.2.8.2.2.2.5-.2.4z"/><path fill="#FFF" stroke="#183059" stroke-width=".614" d="M45.7 26.3c0 11.5-9.4 20.9-20.9 20.9-11.5 0-20.9-9.4-20.9-20.9 0-11.6 9.4-20.9 20.9-20.9 11.6 0 20.9 9.4 20.9 20.9z"/><defs><path id="a" d="M43.7 26.3c0 10.5-8.5 18.9-18.9 18.9-10.5 0-18.9-8.5-18.9-18.9 0-10.5 8.5-18.9 18.9-18.9 10.4 0 18.9 8.5 18.9 18.9z"/></defs><use fill="#FFF" overflow="visible" xlink:href="#a"/><clipPath id="b"><use overflow="visible" xlink:href="#a"/></clipPath><g clip-path="url(#b)" fill="#183059"><path d="M19.2 4.9c.1 0 .4-.1.3-.2 0-.1-.1-.1-.2 0-.2 0-.2.2-.1.2zM20.3 7.4c.1.1.8.2 1 .2.2 0 .2-.2.1-.2s-1.2-.2-1.4-.2c-.1 0-.3-.1-.4-.2-.1 0-.3-.1-.2 0v.1c0 .1.7.2.9.3zM20.5 6.1s-.1-.2-.2-.2c-.2 0-.3.1-.3.1-.2.1.5.1.5.1zM19.5 5.4c-.2.1.3 0 .3 0-.1-.1-.2 0-.3 0zM19.7 5.9c0-.1-.1-.1-.2-.1 0 .2.2.2.2.2v-.1zM34.5 39.5c.2-.1.2-.3.1-.2-.2 0-1.1.4-1.3.3-.1-.1-.4.2-.2.2.3-.1 1.3-.2 1.4-.3zM19.7 6.3c.1.1.5.2.7.3.1 0 .5-.1.3-.1-.3 0-.6-.2-.7-.2-.3-.1-.4 0-.3 0zM22.6 6.5c.1 0 .3-.1.3-.1s-.2.1-.3 0c0-.2-.1.1 0 .1zM20.5 7c.1.1.3.1.4.1.1 0 .3-.1.2-.1-.1 0-.3 0-.5-.1s-.2.1-.1.1z"/><path d="M36.7 39.1c.1-.2-.1.1-.3.2-3.1 2.1-7.1 1.9-7.4 1.9-.2-.1-1.6 0-1.7 0-.1 0-.2.1-.3.1-.1 0-.3.1 0 .1s1.7-.1 1.8 0c2.5.1 4.4-.4 4.9-.6.5-.1 2.7-1 3-1.7zM23 19c0-.2.1-.1.3-.2.2-.1.8.3 1.1.3.3-.1.8 0 1.1.2.3.2 1.1.5 1.3.5.2 0 .3.2.2.3-.1.1.6.8.6 1 0 .2.4.5.6 1 .2.5 1.2.8 1.4.8.2 0 .2.3.4.2.2 0 0-.2 0-.3 0-.1.1 0 .2 0s.2.2.2.1.1-.1.2 0l.2.2c.1 0 .1 0 0-.1s0-.2.1-.1.3.4.5.4c.1 0 0-.2-.1-.3 0-.1.1-.1.2 0s.4.4.6.4c.2 0 0-.2 0-.3 0-.1.1-.1.2.1.1.1.6.9.7.8.1-.1.7 1.1.9 1.6.1.5.3.4.3.3-.7-2.7-1.6-2.9-1.9-3-.3-.2-4.1-1-4.1-1.2 0-.2-.8-1.1-.8-1.1s-.6-.7-.6-.8c-.1-.1-1.4-1-1.8-1.1-.4-.2-.6-.2-1.3-.3-.6-.2-.6-.2-1-.3-.3-.1-.7.4-.8.6l1.1 1.1c.2.1.4.1.5.1.1-.3-.5-.7-.5-.9zM27.8 37.7c-.2 0-.3 0-.5-.1-.2 0-.3.1-.1.2.1.1.4.1.5.1.2 0 .3-.2.1-.2zM26.7 36.4c.2-.1.1-.2.1-.2 0-.1-.5-.1-.6-.2-.2-.1-.3.2-.1.2.2.1.4.3.6.2zM27.1 37.1c-.2 0-.5-.1-.6-.1-.2 0-.3.2-.1.2.2 0 .5.1.6.1.1-.1.2-.2.1-.2zM27.6 38.5c.1.1 1 .2 1.2.1.1 0 .2-.1.2-.2 0 0-.1-.1-.3 0-.2.1-.8 0-.9 0-.1-.1-.3 0-.2.1zM27.8 39.2c.1.1 1 .2 1.2.1.1 0 .2-.1.2-.2 0 0-.1-.1-.3 0-.2.1-.8 0-.9 0-.2-.1-.3 0-.2.1zM28.2 39.8c.1.1 1 .2 1.2.1.1 0 .2-.1.2-.2 0 0-.1-.1-.3 0-.2.1-.8 0-.9 0-.2-.1-.3 0-.2.1z"/></g><path fill="#183059" d="M36.1 18.6c-2.5-2.2-5.4-3.1-8-3 .1-.5.2-1 .2-1.6h1.4c.2 0 .4-.1.4-.2-.1-.1-.3-.6-.6-.7-.2 0-.7-.3-1-.4.1-1.2.2-2.6.2-3.8.1-2.6-1.4-4.7-3.7-4.8-.4 0-.6-.3-.5-.8.1-.8.5-1.8.7-2.6.1-.4-.1-.8-.5-.8-.3 0-.5.1-.8 0-.2-.1-.5.1-.5.1-.3.1-.5.4-.5.6-.1.2-.6 1.5-.7 1.7-.1.2-.2 1.1-.3.8-.1-.2-.2-.2-.3-.3-.1-.9-.2-1.7-.2-2.1-.1-.5-.6-.7-1-.2-.2.2-.3.4-.5.6-.2.2-.4.2-.7.2-.3-.1-.5 0-.7.2-.2.4-.5.5-.8.3-.2-.1-.3-.2-.5-.3-.2 0-.3.1-.3.2.1.9.2 1.8.3 2.5l.1 1.5c0 .7 0 1.3-.1 1.7-.1.6-.1 1.2 0 1.6 0 .3 0 .5-.1.7-.2.6-.3 1.2-.3 2v3.2c0 1.1-.2 3.1-.1 4.7-.2.1-.5.3-.7.5l.1-.1c-.1-1.7.1-3.7-.3-5.6-.2-.9-1-.9-1.3-.1-.1.3-.1.4-.2.7-.1.3-.3.5-.7.5-.5.1-1 .2-1.4.4-.2.1-.3.3-.3.5.1.7.2 2.3.3 4.4-.2.1-.5.2-.6.4-.4.5-.6 1.1-.3 2 .4 1.3.3 1.9 0 2.7-.6 1.6-.3 3.8 1 5.3 0 0 0 .1.1.1.1.1.2.2.4.2.2 4.7.3 9.1.4 10.9 0 .2.1.5.4.7.4.3.9.1 1.1-.2.2-.3.5-.1.5.3 0 .3.3.6.5.7.2.1.4.3.6.5.4.3.7.2.7-.1 0-1.9-.1-5-.2-7l-.1-.1c1.5 1.8 3.3 3.2 5.5 3.9.5 1.8 1 5.2 1 5.2.1.4.4.7 1.1.8.4 0 .8-.2 1.2-.3.4-.1.7.1 1 .2.5.3 1.3.3 1.8.1.3-.2.4-.4.4-.6l-.9-4.6h.2c.5.1 1 .1 1.5-.1 1.9 0 3.7-.3 5.2-.9 1.4-.6 2.4-1.5 3-2.5.5-.8.6-1.7.5-2.6-.1-.5-.3-1.1-.6-1.6v-.1c-1-1.6-2-3.1-2.3-4.9-.1-.7 0-1.5.1-2.3.1-.6.1-1.2 0-1.9-.1-.8-.4-1.6-.8-2.3 0 0 1 .5 1.9.9.3.2.5-.1.4-.3-.1-.1-.2-.4-.4-.6-.2-.2-.3-.4-.2-.7.1-.4 0-1-.3-1.7-.4-1.1-.2-1.6.4-1.8-.1.5-.1.3-.3.1zM28.4 47c0-.1 0-.1 0 0 0-.1 0-.1 0 0zm-.7-31.5c-.5 0-2.1.2-2.7.3 0-.2.1-1.2.3-1.3.2 0 1.5-.2 1.7-.2.4 0 .6-.1.9-.1-.1.5-.1.9-.2 1.3zm-9.4-2.7h.5c.3.1.1-.1 0-.2-.1 0-.3-.1-.6-.1-.7-.1-.6-.5-.3-.5.2 0 .9.1 1.2.1.3 0 .2-.1 0-.2s-.7-.1-1-.2c-.8-.2-.6-.6-.4-.6.2 0 .9.1 1.1.2.2.1.2-.2 0-.3-.2-.1-.9-.2-1-.2-.1 0-.3-.4.3-.4.3 0 1.1.1 1.4.2.3 0 .2-.1 0-.2s-1.1-.3-1.4-.3c-.3-.1-.5-.4-.1-.3.4 0 .8.1 1.2.2.4.1.2-.2 0-.2s-1-.3-1.2-.3c-.3-.1-.3-.3-.1-.3.2 0 1.2.3 1.5.3.3 0 .3-.1 0-.2-.4-.1-1.4-.3-1.7-.4-.3-.1-.3-.3 0-.2.2 0 1.3.2 1.7.3.3.1.1-.2-.1-.3-.2-.1-1.2-.2-1.4-.3-.2-.1-.2-.3 0-.2.2.1.7 0 .6 0-.1-.1-.2-.2-.1-.2.2 0 .4.1.6.2.2 0 .2 0 0-.2-.2-.1-.6-.2-.8-.2-.2-.1-.3-.3-.1-.3.2 0 .7.2 1 .3.3.1.2-.1 0-.1s-.7-.3-1.2-.5c-.4-.2-.2-.3.1-.2.3 0 .6.2.7.3.1 0 .3 0 0-.1s-.6-.3-.8-.3c-.2-.1-.2-.2 0-.2.3 0 .8.2 1.1.3.3.1.4-.1.1-.2-.3-.1-1.1-.4-1.2-.4-.1 0-.2-.2 0-.2s.6.2.8.2c.1 0 .3-.1-.1-.1s-.5-.2-.8-.3c-.3-.1-.1-.2.1-.2s.6.2.8.2c.3.1.1-.1-.1-.2-.3 0-.8-.3-1-.4-.2-.1-.2-.2 0-.1.2 0 .6.2.9.3.3.1.4-.1.2-.1-.2-.1-.9-.4-1-.4-.1 0-.2-.2-.1-.1.2 0 .5.1.7.2.2.1.4-.1.2-.2s-.8-.3-1-.3c-.2-.1-.1-.2 0-.2.2 0 .8.2 1 .2.2 0 .2-.1-.1-.2-.2 0-.9-.3-1-.4-.2-.1-.1-.1.1-.1s.4.1.5.1c.1 0 .3-.1 0-.1s-.4-.2-.6-.2c-.2-.1-.2-.2-.1-.2s.2 0 .3.1c.1 0 .6 0 .2-.1-.4-.1-.3-.2-.5-.3-.2-.1-.3-.1-.2-.1.2-.1.3 0 .5.1.3 0 .5.1.5 0s-.2-.1-.8-.2c-.6-.2-.4-.2-.3-.4.1-.1.2 0 .3-.1.3.2.7.1 1-.2.1-.1.2-.2.5-.2.3.1.6 0 .9-.2.1-.1.2-.3.4-.4l.1-.1c.1-.1.2-.2.4-.2.1 0 .2.1.2.3.2-.3.2.1.2.5 0 .5.1 1.1.2 1.6s.3.5.4.5c.2 0 .4-.1.4-.4.1 0 .2-.1.1-.1 0-.1.1-.2.1-.3.1 0 .1-.2.1-.3 0-.1.1-.3.2-.5s0-.3 0-.4c0-.2.1-.3.1-.4 0 .1.1 0 .2.1s.3-.2.3-.3c0-.1.2-.6.3-.7 0-.1.1-.4.2-.5.3.1.6 0 .8 0 .1 0 .2 0 .2.1 0 0 .1.1.1.2V1l-.1.3c-.2.8-.5 1.7-.7 2.4v.4c0 .1.1.2.1.3.1.2.3.2.6.3 1.8.1 3.1 1.4 3.4 3.4.1.4.1.8.1 1.2 0 1.1-.1 2.5-.2 3.7h-.5c-.3 0-.5 0-.8-.1-.7-.2-1.3-.2-1.7 0v-1.4h.1c.1 0 .1.1.1.2v.9c0 .1.1 0 .1-.1V12c0-.2 0-1-.1-1.2v-.6c-.1-.2-.2-.1-.2.1v.5c0 .2-.1.1-.2.1v-.4c0-.2-.1-.5-.1-.7-.1-.8-.3-1.3-.6-1.8-.1-.2-.3-.3-.4-.3 0-.2-.2-.2-.2-.2-.1 0-.2-.2-.2-.2 0-.1.2-.2-.1-.3-.2-.1-.2 0-.3.1.2-.1-.1-.1.1 0s.5.2.4.3c0 .1-.1.1-.2.1s-.4-.1-.5-.1c-.1 0-.2.1-.1.1s.5 0 .6.1c0 0 .2 0 .1.6-.1.1-1.1 1.8-1.1 1.8-.1.1-1.4 1.5-1.4 1.5l-.4.4c-.3.2-1.6 1.6-1.8 2-.1 0-.2-.1-.4-.2-.6-.3-.4-.8.2-.9zm.2 2.1c.5-1.1 1.4-1.9 2.2-2.7 1.7-1.5 2.4-2.7 3.1-4.2 0-.1.1-.1.1-.1s.3.3.3.4c0 0 .2.5.1.6-.1.1-.2 0-.3-.1-.1-.1-.2.1 0 .2.1.1.4.3.5.4.1.1.1.3 0 .3s-.4-.3-.6-.4c-.2-.2-.3.1-.2.2.1.1.6.5.7.6.2.1 0 .2.1.4-.6.7-1 1.4-1.3 2.3v.2c0 .1.1.2.1.2.1.1.3.1.4 0 .3-.2.8-.3 1-.2.2.1.4 0 .6 0 .3-.1.8-.1 1.4 0 .3.1.6.1.9.1h.5l.6.2c.1.1.3.1.4.2 0 .1-.1.1-.1.1-.2 0-1.3.2-1.3.2h-.2c-.2-.2-.7-.5-.7-.6-.1-.1-.2 0-.1.1l.5.5h-.3c-.2-.1-.4-.4-.5-.5-.1-.1-.3 0-.1.1.1.1.3.4.3.4h-.1c-.1 0-.1 0-.2-.1s-.4-.4-.5-.4c-.1-.1-.3 0-.2 0 .1.1.5.3.5.4v.1H26c-.1 0-.1 0-.2-.1-.2-.1-.4-.4-.5-.4-.1-.1-.2.1-.1.2s.3.2.3.3v.1c-.1 0-.1 0-.2.1h-.1l-.4-.4c-.1-.1-.3-.1-.2.1.1.1.5.3.5.4v.1H25c-.1-.1-.1-.1-.2-.1-.1-.1-.1.2 0 .3l-.2.2c-.2-.2-.5-.4-.5-.4s-.3-.1-.1 0c.1.1.4.3.3.4-.1.1-.4-.1-.5-.2-.1-.1-.2 0-.1.1s.5.2.5.4c.1.1 0 .2-.2.2l-.6-.3c-.2-.1-.1.1 0 .2s.6.4.4.5c-.1.1-.6-.1-.8-.2-.1-.1-.3 0-.2.1.1.1.7.4.6.5-.1.1-.6-.2-.7-.3-.1-.1-.2 0-.1.1s.7.4.6.5c-.1.1-.8-.3-1-.4-.2-.1-.3.1-.1.2.2.1 1 .5.8.7-.2.2-.8-.3-1-.4-.3-.1-.4 0-.2.1s.6.4.7.5c.1.1.1.3-.1.1-.2-.1-1-.6-1.2-.6-.2 0-.2.1 0 .2s.8.3.9.4c.1.1-.1.1-.3.1-.2-.1-.7-.4-.8-.4-.1 0-.3 0-.1.1.2.1.7.3.6.3-.2.1-.5 0-.8 0-.2 0-1.5.9-2.3 1.6-.7.2-1.2-.9-.3-2.7-.3.1.4-1.1.5-1.1zm-1.8 5.9c.1 0 .1-.1.2 0 .2.1 1 .5 1.1.6.1 0 .1.1.1.2s-.1.1-.3.1c-.1 0-.4-.2-.7-.3-.1-.3-.3-.4-.3-.4-.1 0-.1-.1-.1-.1v-.1zm-.7.6s0-.1 0 0c.1-.1.2-.1.2 0 .1.1 1.4.7 1.6.7.2 0 .2.1.2.1s-.1.2-.3.1c-.3 0-1-.4-1.4-.6l-.3-.1c-.1 0 0-.2 0-.2zm3.5 5.9c.1 0 .1.1.1.1 0 .1-.2.1-.3.1-.2 0-.5-.2-.8-.3-.1-.1-.3-.1-.3-.1-.1 0-.1-.1-.1-.1v-.1h.2c.2 0 1 .3 1.2.4zm-2.1 7.1c0-.1 0-.1 0 0 0-.1.2 0 1.2.3.3.1.5.2.6.2.1 0 .9.3.9.4v.2l-.1.2c-.1 0-.8-.2-.8-.2-.5-.2-1.3-.5-1.5-.5-.2 0-.3-.3-.3-.4v-.2zm3.1.9-.2-.1c-.1 0-.1-.1-.1-.1s0-.1.1-.1h.2s.1.1.2.1c.2.1.9.3.9.3v.1l-.1.1c-.1 0-.8-.3-1-.3zm.9-1.4s0 .1-.2.1c-.1 0-1.3-.4-1.5-.5h-.2c-.1 0-.2 0-.2-.2v-.2c.1 0 1.3.4 1.5.4.2 0 .3 0 .4.1.1.1.2.3.2.3zm-.5-.9c-.2 0-1.5-.5-1.7-.6-.1 0-.3-.1-.5-.2-.5-.2-1-.4-1.1-.5-.6-.2-1.3-.3-1.2-.7 0-.1.1-.2.1-.3h.1s.2.1.3.1c.2.1 1 .4 1.2.5.2.1 2.2.9 2.3.9.2 0 .3.1.4.1v.2c.1.3.2.5.1.5zm-6.8-5.2c0-.1 0-.2.2-.1.1 0 2.8 1.1 2.9 1.1l.1.2c0 .1-.2.1-.3.1l-1.9-.7c-.5-.1-1-.3-1.1-.5.1 0 .1 0 .1-.1zm-.1 2.7c.1 0 1.1.5 1.2.6.2.2.3.8.4.8.1.1-.7-.2-.8-.3-.3-.1-.7-.3-.8-.3 0-.1-.1-.2 0-.3-.1 0-.1-.5 0-.5zm0 1.9c0-.1 0-.3.1-.3 0 0 1.5.4 1.6.5.3.1.3.7.3.7l-.1.1c-.1 0-1.2-.4-1.3-.4-.1 0-.3-.1-.4-.1-.2-.2-.2-.4-.2-.5zm.9-3.5c0-.1 0-.2.1-.2s1 .3 1.2.4l.4.2s.1.1 0 .2c0 0 0 .2-.1.2h-.1c-.1-.2-1.5-.7-1.5-.8zm5.8 2.8c0 .1 0 .2-.1.2s-2.5-.9-2.6-1c0 0-1.2-.5-1.3-.6l.1-.2c0-.1.1-.1.2 0s1.3.4 1.5.5l.3.1c.2.1 1.1.4 1.2.5h.1c.1 0 .2 0 .4.1s.2.4.2.4zm-.2-.8c0 .1-.2.1-.2.1s-2.2-.9-2.4-.9c-.3-.1-.7-.2-.7-.3 0-.1.1-.6 1-.2.2.1 2.2.7 2.2.7.2.1.1.3.2.4-.2-.1-.1 0-.1.2zM14.2 24c.1-.1.3-.1.4 0 .1.1 2.9 1.2 3.1 1.2.1 0 .1.1.1.1v.6c-.1.1-.2.1-.3.1-.2-.1-3.2-1.3-3.3-1.4l-.1-.1c0-.2 0-.5.1-.5zm0 1.1c.1 0 .2.1.4.1.1 0 .2.1.2.1.1 0 1.4.5 1.9.7l.3.1c.1 0 .1.1.1.1v.2s0 .2-.5.1c-.7-.2-2.9-.7-2.7-1.4 0 .1.2 0 .3 0zm5.1 2.9-.3-.1c-.4-.1-.8-.2-1-.3-.1-.1-.2-.2-.1-.2 0-.1.1-.1.2 0 .2 0 .6.2 1 .3.2 0 .3.1.4.2.1 0 .1.1.1.1v.1c-.1-.1-.2-.1-.3-.1zm-1.7-3.6c-.1.1-1.3-.4-1.5-.5-.3-.1-1-.4-1.2-.5-.1 0-.1-.1-.1-.2s.1-.3.2-.4h.3c.1.1.9.4 1.2.5.1 0 .4.1.7.3.2.1.4.2.5.2.1 0 .1.1.1.1-.1.1-.2.5-.2.5zM15.5 22c.1 0 .2 0 .2.1.1.1 1.2.6 1.8.8.1 0 .3.1.3.2 0 .2-.1.3-.3.3-.3 0-2-.8-2.1-.9 0 0-.1-.1-.1-.2s.1-.3.2-.3zm-3-5.5c.1.1 1.1.4 1.2.5.1 0 .1-.1 0-.1-.1-.1-.7-.4-.8-.5-.2-.1.1-.1.2-.1s.5.2.7.2c.1 0 .2-.1.2-.1-.1-.1-.2-.2-.4-.3.4-.1.6-.3.8-.7.1-.2.1-.4.2-.7.1-.3.3-.5.5-.5s.3.2.4.5c.2 1.1.2 2.3.2 3.4 0 .7 0 1.4.1 2.1l-.9.9h-.3c-.2 0-.3-.2-.2-.2.1 0 .2-.2.1-.2s-.2 0-.4-.1-.2-.2-.1-.2.3.1.4.2c.2.1.4-.1.1-.2-.2 0-.6-.3-.9-.3-.3 0-.4-.3-.2-.2.2.1.5.1.8.1.3 0 .2-.2 0-.2-.1 0-.7-.1-.9-.2-.2-.1-.2-.2 0-.3.2 0 .9.2 1 .3.2.1.3-.1-.1-.2-.3-.1-1-.3-1.1-.4-.1 0-.1-.2.1-.2s.8.2.9.2c.1 0 .2-.1-.1-.1-.2 0-.8-.3-1-.4-.2-.1-.2-.2 0-.2s.8.3 1 .3c.2 0 .2-.1-.1-.2-.3-.1-.9-.4-1.1-.4-.2-.1-.2-.2 0-.2.2.1.6.3.8.3.2 0 .1-.1 0-.1s-.6-.3-.7-.4c-.1-.1-.1-.1 0-.1s.3.1.5.2c.1 0 .2-.1 0-.1s-.5-.2-.7-.3c-.2 0-.1-.2 0-.2s.5.2.7.2c.2 0 .2 0 0-.1-.2 0-.8-.4-1-.5-.1-.1 0-.3.1-.2zm1.9 10c1.1.3 2.2.8 2.9 1 .5.2.2.4.3.4.2.1.5.2 1.1.4.5.2 1 .3 1.1.4.1.1.1.3.1.4 0 0 0 .1-.1.1 0 0-.1 0-.2-.1s-.7-.3-1.3-.5c-.6-.2-1.2-.4-1.4-.5-.2-.1-.6-.2-.9-.3-.2-.1-.5-.1-.6-.2-.4-.2-.9-.3-1.3-.6-.1 0 0-.6.3-.5zm-2.3 4.2c.1 0 0-.2-.2-.3-.2-.1-.3-.4-.2-.4.1.1.5.3.7.5.2.1.3 0 0-.1-.2-.1-.6-.5-.8-.7-.1-.1-.2-.4-.1-.3.1.1.6.4.7.5.1.1.2 0 .1-.1s-.5-.4-.7-.7c-.4-.3-.3-.9-.1-.9.1 0 1 .8 1.2.9.1.1.2 0 .1-.2-.2-.2-1-.9-1.1-1-.3-.3-.2-.7-.2-.7 0-.1.1-.2.2-.1l.9.9c.1.1.2 0 .1-.1l-.7-.7c-.2-.2 0-.3.1-.2.1.1.7.6.8.7.1.1.1-.1 0-.1l-1-1c-.1 0-.2-.1-.1-.3.1-.2.1-.3.4-.2.1.1.3.2.3.3.1.1.2 0 .1-.1s-.5-.4-.6-.5c-.1-.1-.1-.3.1-.2.2.1.6.5.7.6.1.1.3 0 .1-.1-.2-.1-.9-.9-1-1 0-.2-.1-1.1 0-1 .1.1.4.3.6.5.2.2.1-.1 0-.2s-.7-.5-1-1c0-.1-.1-.2-.1-.2-.3-.8 0-1.5.7-1.8.2-.1.5-.1.7 0 .2.1.3.2.2.3 0 .1-.1.1-.3.1-.4 0-.7.2-.8.5-.1.3-.1.5 0 .8.1.2.3.4.5.7l.4.6c.6.9.7 2.2.5 3.1-.1.5-.1 1.1 0 1.9.1.8 0 1.5-.4 2-.1.2-.3.3-.4.3-.1 0-.3-.1-.4-.2.1-.2-.3-.7 0-.8zm2.4 12.2c-.1 0-.1.1-.2.2s-.4.3-.7.2v-.1c0-.1.1-.3.2-.3s.5-.1.5-.2.3-.1.3 0c-.1.1-.1.2-.1.2zm2.1 1.8s-.2 0-.4-.1c0-.1.1-.2.2-.2l.2.2s.1.1 0 .1zm-.1-2.5c-.1.6.2 1.2.2 1.8-.1 0-.1-.1-.2-.1l-.2-.1c-.1-.1-2.9-2.4-3.1-2.2l-.1.1s.2-.3.1-.4c-.1-.1 0-.4 0-.5.1-.1.1 0 .3.1.2.1.1-.1 0-.2s-.2-.1-.3-.2c-.1-.1-.1-.3 0-.2.1.1.2.1.3.1.1.1.1-.1 0-.2s-.3-.1-.4-.2c-.1-.1 0-.3.1-.2.1.1.3.2.5.3.2.1.1-.2 0-.2s-.4-.3-.5-.3c-.2-.1-.3-.5 0-.5.2 0 .4.2.6.2.2.1.2-.1.1-.2-.2-.1-.5-.3-.7-.4-.2-.1-.1-.5.1-.4.1 0 .3.1.4.2.1.1.2-.1.1-.1-.1-.1-.3-.2-.4-.2-.1-.1-.1-.4.1-.3.2.1.3.1.4.2.2.1.1-.1 0-.2s-.4-.2-.5-.2c-.1-.1-.1-.3.1-.2.1.1.3.2.5.2.1.1.3 0 .2-.1-.1-.1-.2-.2-.4-.2-.6-.2-.3-2.3.7-1.5.2.2 1.2 1.3 1.5 1.3.5-.1.5 4.9.5 5zm-1.8-7.8c-.1 0-.5-.7-.3-.8.1 0 1.4.4 1.7.5.5.1.5.8.2.8-.4-.1-1.4-.5-1.6-.5zm6.6 5.5c-.1 0-1.8-.7-2-.8-.2-.1-.1-.5.3-.4.1 0 1.7.7 1.9.7.7.3.6.7-.2.5zm-3.2-3.8c-.2 0-.4-.2-.4-.4 0-.1.1-.3.6-.1.2.1.8.3 1.2.4l.3.1.2.1c.2.1 1.1.4 1.2.4.3.1 1.1.4 1.3.4.1 0 .1.2.1.3-.3.5-4.3-1.1-4.5-1.2zm7.4 11c-.3 0-1.1.2-1.4.3-.3.1-.3-.1-.3-.3 0-.1.3-.4.5-.5.2-.1.6-.4.8-.2.3.3.5.3.8.5.3.2-.1.2-.4.2zm2.4.2c0 .2-.5.3-.7.3-.2 0-.7-.2-.9-.4-.2-.1.1-.4.2-.5.2-.1.4 0 .6 0 .1 0 .5-.1.6 0 0 .2.2.4.2.6zm-1.3-1.1c-.2.1-.4.1-.5.1 0-.1.1-.2 0-.2-.2 0-.6-.3-.6-.4-.1-.1-.1 0-.2 0h-.6c-.3 0-.3-1.3-.3-1.5 0-.2.3-.6.9-.5.3 0 .5-.1.5-.3 0-.1 0-.5.1-.5.5 0 .3-.4.3-.5.4 0 .7 0 1.1-.1h.1c0 .2.6 2.9.8 3.9-.6-.2-1.2-.1-1.6 0zm8.1-18.7v-.1.1zm0-.1c0-.1 0-.1 0 0 0-.1 0-.1 0 0zm0-.2s0-.1 0 0c0-.1 0 0 0 0zm0-.1c0-.1 0-.1 0 0 0-.1 0-.1 0 0zm0-1.3v-.2c-.1.1 0 .2 0 .2zm0 1.1zm0-.1c0-.1 0-.1 0 0 0-.1 0-.1 0 0zm0-.2zm0-.1c0-.1 0-.1 0 0 0-.1 0-.1 0 0zm0-.2s0-.1 0 0c0-.1 0 0 0 0zm0-.2V26v.1zm0-.1v-.1.1zm-.6-2.1s0-.1-.1-.1l.1.1zm.5 1.7v-.1.1zm0-.1c0-.1 0-.1 0 0 0-.1 0-.1 0 0zm0-.2s-.1-.1 0 0c-.1-.1 0 0 0 0zm-.1-.1c0-.1 0-.1 0 0 0-.1 0-.1 0 0zm0-.2s0-.1 0 0c0-.1 0 0 0 0zm-.1-.2zm0-.1s0-.1 0 0c0-.1 0 0 0 0zm-.1-.2zm0-.1s0-.1 0 0c0-.1 0 0 0 0zm-.1-.2v-.1.1zm0-.1s0-.1-.1-.1l.1.1zm-.5-.9zm.3.5zm-.1-.1zm-.1-.1c0-.1 0-.1 0 0 0-.1 0-.1 0 0zm0-.2s-.1 0 0 0c-.1 0 0 0 0 0zm.5 4.1c-.5 2.9 1 5.2 2.4 7.4v.1c.2.4.6 1.1.6 1.3.1.2.1.9.1 1.2 0 .3-.5 1.3-.6 1.5-.1.2-.4.5-.6.7 0 0-1.9 3.1-10.5 2.3-.7-.2-.9-.8-.9-.9-.1-.2-1.1-.6-1.3-.7-.2 0-.2-.2 0-.3.2-.1-.2-.2-.4-.3-.9-.4-.4-.9-.2-.8.3.1 1.1.4 1.5.4.3 0 .1-.2 0-.2s-.8-.2-1-.4c-.8-.4.1-.9.4-.9.1 0 1 .2 1.3.3.3.1.1-.1-.1-.2-.3-.1-.4-.1-.7-.2-.3-.1 0-.1.1-.2.1 0 .7.2.6.1-.1-.1-.5-.3-.9-.4-.5-.2-2.1-2 .4-1.3.2.1.3-.2.2-.3-.1-.1-1.4-.6-1.6-.6-.6-.2-.7-.9-.5-.8.1 0 1.3.5 1.4.5.2 0 .2-.2 0-.3-.2-.1-1.1-.4-1.3-.5-.2 0-.4-.2-.3-.3 0-.1-.1-.1-.3-.3-.2-.2 0-.3.4-.2.3.1.2-.1.1-.2s-.4-.2-.6-.4c-.2-.2-.3-.7-.4-.8-.1-.2.2-.1.3 0 .2 0 0-.1-.2-.2s-.3-.2-.3-.3c-.1-.2.3 0 .5 0s.1-.1-.1-.2-.4-.2-.4-.3c0-.1.2 0 .5 0 .2 0 .1-.2-.1-.2-.2-.1-.4 0-.5-.2-.2-.1-.1-.2-.1-.3 0-.1.1-.2.3-.1.2 0 .3 0 .3-.1-.1-.2-.4-.1-.5-.1-.1 0-.3-.2-.2-.3.1-.1-.1-.3-.2-.3s.1-.1.2-.1.1-.3-.3-.3c-.4.1-.2-.3-.2-.7 0-.3.1-.3 0-.4-.1-.1-.6.4-.5 0 .1-.3-.1-.4-.2-.4s0-.2-.1-.3c-.1-.1-1.1-.3-1.4-.5-.3-.1 0-.6.6-.4.2.1.5.1.5-.1 0-.1-.2-.1-.6-.3-.5-.2-.3-.6.2-.6.2 0 .3-.1.3-.2-.1-.1-.3-.1-.5-.1-.3-.2-.6-1.1.2-1 .2 0 .2-.2 0-.2-.2-.1-.2-.1-.4-.1-.1 0 0-.7.2-.8.2 0 .3.1.5.1.2.1.2-.1 0-.2s-.3-.2-.4-.3c-.1-.1 0-.1.1-.2s.4.1.6.2c.2.1.3-.2 0-.3-.1-.1-.6-.2-.6-.3 0-.1 0-.4.2-.4.1 0 .6.1.6.1s.2-.2 0-.3c-.1 0-.1 0-.5-.2-.3-.2 0-.5.2-.5.1 0 .6.2.9.1.3-.1.2-.3 0-.3-.2-.1-.8-.2-1-.3-.2-.1.2-.7.4-.8.3-.1 1-.7 1.7.2.1.2.5.3.6.4.1.1.6.4.7.6.1.2.3.1.6 0 .1-.1-.1-.5-.5-.9-.2-.1-.4-.1-.5-.2-.2-.1-.6-.8-.6-.9l-.3-.3-.4-.4c1.2-.2 2.7-.1 4.3.5 0 0 2.5 2.8 2.6 2.9 0 .1.4.2.5.1.1-.1 0-.5-.2-.5s-.4-.7-.6-.9c-.1-.1-1.1-1.2-1.2-1.4-.1-.2.1-.2.2-.1s.4.4.5.3c.1-.1 0-.1-.2-.3-.2-.2.1 0 .2-.1.8.1 1.7.5 2.6 1 1.2.8 2.3 2 2.8 3.2 1.2 1.2 1.9 3.6 1.6 5.2zm.5-4.2v.1c-.1-.1-.2-.1-.3-.2-.1-.3-.6-.8-.7-.9-.1-.1.1-.3.4 0 .3.2.5.8.6 1zm-1-4.7c-.2 0-.4.2-.4.4.1.2 0 .6 0 .7 0 .2.2.5.3.5.1.1.2.4.1.5-.1.1-.3.1-.2.2.1.2-.1.4-.1.3-.1-.1-.1-.2-.2-.4s-.2-.3-.2-.1c.1.2.1.3.2.5s-.1.3-.2 0-.3-.5-.3-.7c0-.2-.2-.1-.1.1 0 .2-.1.3-.2 0s-.3-1-.4-1.2c-.1-.2-.2-.2-.2-.1s.1.3.1.4c0 .1-.1.2-.2 0 0-.2-.2-.4-.2-.6 0-.1-.3-.3-.2-.1.1.2.1.3.1.5s-.1.1-.2 0c0-.1-.1-.3-.2-.4 0-.1-.2-.3-.2-.1 0 .1 0 .2-.1.2s-.1-.2-.2-.3c0-.1-.2-.5-.2-.6-.1-.2-.3-.2-.2-.1.1.1.1.4.1.6 0 .1-.2.1-.2 0s-.3-.6-.3-.7c-.1-.1-.2 0-.1.1s.2.4.2.5c0 .1-.2-.1-.3-.2-.1-.1-.2-.4-.3-.5-.1-.1-.3-.1-.2 0 .1.1.1.2.1.3.1.2-.2 0-.3-.1 0-.1-.3-.5-.3-.6 0-.1-.2 0-.1.1s.1.3.1.4c.1.1-.3-.1-.3-.2s-.3-.5-.4-.7c-.1-.2-.2 0-.1.1 0 .1.2.3.2.4 0 .2-.1.1-.2 0 0-.1-.2-.4-.2-.5 0-.1-.3-.2-.1.2.2.4.1.3-.1.3-.1 0-.2-.1-.2-.1s-.1-.2-.1-.4-.2-.1-.1 0v.4c0 .2-.2 0-.2 0 0-.1-.2-.3-.2-.4 0-.1-.2-.1-.1 0s.1.2.1.3c0 .1 0 .1-.1.1l-.3-.3c-.1-.2-.3.1-.4.1-.1 0-.3-.3-.4-.3-.1-.1-.2 0-.1.1 0 .1.2.2.2.3 0 .1 0 .3-.1.3-.2 0-.4-.3-.6-.3-.2 0-.4 0-.5.1-.2 0-.4-.1-.6-.1-.2-.1-.3-.1-.4-.2-.1 0-.1-.1-.1-.2 3.3-1.6 8-1.7 11.9 1.5H35c-.1-.1-.4-.1-.5-.1 0 0-.4.1-.7.1zm1.6.6-.3.3c-.1.3-.1.6-.1 1 0 .2.1.4.2.7.1.4.2.7.3 1V23c0 .2.2.4.3.6.1.2.3.4.3.6 0 0-.1 0-.2-.1-.2-.1-.4-.4-.6-.7-.1-.1-.1-.3-.1-.4v-.3c.2-.4-.3-1.4-.4-1.5-.1-.1-.2-.3-.3-.5 0-.1-.2-.7.1-1 .1-.1.4-.3.6-.4.2-.3.2-.3.2-.2z" clip-path="url(#b)"/><path fill="#FFF" d="M25.9 18.1s-.1-.1-.3-.2c-.4-.2-.9-.4-1.3-.5-.2-.1-.4-.1-.4-.1h-2.1c-.1 0-.2 0-.4.1-.7.1-1.4.3-1.9.7-.3.2-.6.4-.9.7-.3.3-.6.4-.8.5-1.6.6-3.1 1.6-3.8 3.4 0 .1.1.2.1.1 1-1.6 2.5-2.5 3.8-2.9.4-.1.6.2.6.4.1.6.1 1.1 0 1.4-.1.3-.3.7-.4 1-.1.3-.2.8-.2 1.2.1.9.3 2-.3 3.1-.1.2 0 .2.2.1.8-.7.8-1.9.7-3.1 0-.5.1-.9.2-1.1.4-.8.7-1.4.6-2 0-.4 0-.8-.1-1.2 0-.3.1-.6.3-.8.3-.3.8-.6 1.3-.7.3-.1.5.1.6.4.7 1 1.5 1.6 2.7 2 .5.2.6.5.5 1-.1.5-.1.9-.6 1.4-.8.7-1.3 1.5-1.5 2.3-.1.3-.3.6-.8.7-1.5.4-2.4 1.5-1.9 2.7.4 1 .6 1.5.8 2.3.2.8.5 2.1.8 2.9.5 1.3 1 2.4 1.5 3 .1.2.2.1.2-.1-.6-1.2-1.2-2.9-1.5-3.9 0-.1 0-.3.2-.3.5.1 1.7.4 2.7.8.2.1.2-.1.1-.2-.9-.5-2.2-1-2.9-1.1-.2 0-.3-.3-.3-.5-.2-.9-.4-1.9-.8-3-.3-.7 0-1.1.4-1.4.3-.2.9-.4 1.1-.4h.2l.1.1c0 .1.1.1.1.2.2.6.5 1.3 1 1.8.4.5.7.9.8 1.3.1.2.2.2.2 0 0-.4-.2-1-.6-1.5-.4-.5-.7-1.2-.8-1.7-.1-.5 0-.9.1-1.4.2-.9.9-1.7 1.4-2.1.6-.4 1-1.2.9-2.1 0-.2.3-.4.4-.1.5.9 1.1 1.7 1.8 2.1 1.7 1.1 1.8 2.7.4 3.6-1.8 1.2-1.8 2.8-1 4.3.4.7.6 1 .9 1.3.2.3.3.7.1 1.1-.5 1.1-.5 2.2.1 2.9.4.6.7 1.1.8 1.4.1.3.3.2.2 0-.2-.5-.5-1.1-.7-1.5-.3-.6-.2-1.6 0-2.1l.4-.8c.1-.2.3-.3.4-.1.4.4.7 1.1.9 1.6.2.4.5.6.8.8.7.3 1.4.8 1.6 1.4.1.2.2.1.2 0-.2-.8-.7-1.2-1.4-1.6-.4-.3-.6-.5-.8-.9-.3-.8-.5-1.6-1.2-2-.4-.2-.7-.3-.9-.6-.7-.9-1.1-1.8-1-2.6.1-.8.6-1.4 1.3-1.9.8-.5 1.3-1.3 1.3-2.2 0-.2.2-.4.4-.3.8.2 1.8.7 2.1 2.2 0 .2.3.2.2 0-.1-.8-.3-2-1.7-2.6-.1-.1-.3-.2-.3-.1h-.1c-.1 0-.2 0-.3-.1-.3 0-.5 0-.7-.3-.4-.7-.9-1.1-1.4-1.4-.5-.3-.9-.9-1.3-1.6-.4-.7-.7-1.1-1.4-1.2-1.2-.1-2.3-.6-3-1.5-.1-.2 0-.4.2-.4 1.8.1 2.8.4 3.8 1.3.7.6 1.1 1.3 1.6 1.9.8 1.1 1.8 1.3 3 1.3 1.3 0 2.2.5 2.8 2.2.5 1.2.6 2.4-.1 3.3-.6.9-.7 1.9-.5 2.8.1.6.1.9.2 1.5s.5 1.2 1 1.8c.4.4.5.7.6 1.2.1.5.3.9.6 1.3.1.1.3 0 .1-.1-.1-.1-.4-.6-.4-1.3-.1-.7-.4-1.1-.6-1.4-.2-.2-.4-.5-.6-.9-.1-.3.2-.4.4-.2.9.7 2 1.8 2.4 3.3.1.2.2.2.2 0-.1-1.2-1-2.8-2.1-3.7-.5-.4-1.1-.9-1.3-1.7-.2-.8.1-1.5.6-2.3.5-.8.5-2.1-.1-3.7-.4-1.3-1.1-1.9-1.7-2.3 0 0-.1 0-.1-.1-.6-.2-1.1-.3-1.6-.3-1-.1-1.8-.1-2.4-.9-.3-.3-.8-1.2-1.7-2" clip-path="url(#b)"/><path fill="#183059" d="m21.8 17.1-.4.1c-.7.1-1.4.3-2 .7-.3.2-.7.4-.9.7-.3.2-.5.4-.8.4-1.3.5-3.1 1.5-3.9 3.5 0 .1 0 .2.1.2s.2 0 .2-.1c.8-1.3 2.2-2.4 3.8-2.9h.3c.1.1.2.2.2.3.1.6.1 1.1 0 1.4-.1.2-.2.5-.3.7l-.1.5c-.1.3-.2.8-.2 1.3v.2c.1.8.2 1.9-.4 2.9-.1.1 0 .2 0 .3.1 0 .2.1.3-.1.8-.8.8-2 .7-3.1 0-.4 0-.8.2-1.1.4-.8.7-1.4.6-2.1v-1.2c0-.3 0-.5.2-.7.3-.2.8-.6 1.2-.6.3 0 .4.1.5.3.7 1.1 1.4 1.7 2.6 2.2.4.2.6.3.5.8v.1c-.1.4-.1.8-.5 1.2-.8.7-1.3 1.5-1.6 2.3-.1.3-.3.5-.7.6-.9.2-1.5.8-1.9 1.4-.2.5-.3 1-.1 1.5l.1.4c.3.8.5 1.2.6 1.9.2.8.5 2.1.8 2.9.5 1.3 1 2.4 1.5 3.1.1.1.2.1.3.1.1 0 .1-.2 0-.3-.6-1.1-1.2-2.9-1.5-3.9v-.1h.1c.5.1 1.7.4 2.6.8.1.1.2 0 .3-.1 0-.1 0-.2-.1-.3-.9-.5-2.3-1-2.9-1.2-.1 0-.2-.2-.3-.4l-.1-.4c-.2-.8-.4-1.7-.7-2.6-.2-.5-.1-.9.4-1.3.3-.2.9-.4 1.1-.4h.1l.1.1s.1.1.1.2c.2.7.5 1.4 1 1.9.4.4.6.8.8 1.3.1.2.2.2.2.2s.2 0 .1-.3c0-.5-.3-1.1-.6-1.6-.4-.5-.7-1.2-.8-1.6-.1-.5 0-.8.1-1.3.2-.9.9-1.7 1.4-2.1.6-.5 1-1.3.9-2.2 0-.1 0-.1.1-.1s.1 0 .1.1c.5 1 .9 1.8 1.6 2.2.8.5 1.4 1.2 1.4 1.9 0 .6-.2 1.2-.8 1.6-2.1 1.4-1.7 3.2-1 4.4.4.7.6 1 .8 1.3.2.3.3.6.1 1-.5 1.1-.5 2.2.1 3 .4.5.7 1 .8 1.3.1.2.2.2.3.2.1 0 .1-.1.1-.3-.1-.5-.4-1-.6-1.4l-.1-.1c-.3-.6-.2-1.6 0-2l.3-.6.1-.2c0-.1.1-.2.2-.2 0 0 .1 0 .1.1.4.4.7 1 .8 1.4v.1c.2.5.5.7.9.8.6.3 1.3.7 1.5 1.4.1.2.2.2.2.2.1 0 .1-.1.1-.3-.2-.8-.7-1.2-1.4-1.6l-.1-.1c-.4-.3-.6-.4-.7-.8l-.2-.4c-.2-.7-.5-1.3-1-1.6l-.3-.2c-.2-.1-.4-.2-.6-.4-.7-.9-1.1-1.8-1-2.5 0-.7.5-1.3 1.3-1.8.9-.6 1.3-1.4 1.3-2.3 0-.1 0-.1.1-.2s.2-.1.3 0c1.1.3 1.8 1 2 2.1 0 .2.1.2.2.2s.2-.1.2-.3c-.1-.6-.2-2-1.7-2.6-.2-.1-.3-.2-.4-.2H30l-.3-.1h-.1c-.2 0-.4-.1-.5-.3-.4-.7-1-1.2-1.5-1.4-.5-.3-.9-.9-1.3-1.5s-.7-1.2-1.5-1.2c-1.3-.1-2.3-.6-2.9-1.5v-.2c0-.1.1-.1.2-.1 1.8.1 2.8.5 3.8 1.3.7.6 1.1 1.3 1.6 1.9.8 1.2 2 1.3 3.1 1.3s2 .4 2.7 2.1c.5 1.3.5 2.4 0 3.2-.6.8-.7 1.9-.5 2.9.1.3.1.5.1.7 0 .2 0 .4.1.7.1.6.5 1.2 1.1 1.8.4.4.5.7.6 1.2.1.4.3.9.7 1.4.1.1.2.1.3 0 .1-.1.1-.2 0-.3 0 0-.3-.5-.4-1.2-.1-.7-.4-1.1-.6-1.4-.2-.2-.4-.5-.5-.9v-.2s.1 0 .3.1c.6.4 1.9 1.5 2.3 3.2 0 .2.2.2.2.2.1 0 .2-.1.1-.3-.1-1.2-1-2.8-2.2-3.8h-.1c-.5-.4-1-.8-1.2-1.6 0-.2-.1-.3-.1-.5 0-.6.2-1.1.6-1.7.2-.4.4-.9.4-1.6 0-.7-.1-1.4-.4-2.2-.4-1.2-.9-1.9-1.7-2.3l-.1-.2c-.5-.2-1.2-.4-1.6-.4h-.1c-1-.1-1.8 0-2.3-.7l-.2-.3c-.3-.4-.8-1.1-1.5-1.8-.3-.3-.6-.5-1-.7 0 0-.1-.1-.3-.2-.4-.2-.9-.4-1.3-.5-.2 0-.4-.1-.5-.1h-1.1c-.1-.4-.4-.4-.6-.4zm-2.3 1c.6-.3 1.2-.5 1.9-.6l.4-.1h2.1c.1 0 .2 0 .4.1.5.1.9.3 1.3.5.1 0 .2.1.3.1.4.2.7.4.9.7.7.7 1.2 1.4 1.5 1.8l.2.3c.6.8 1.4.9 2.5 1h.1c.4 0 .9.1 1.5.3h.1c.7.4 1.3 1.1 1.7 2.2.3.8.4 1.5.4 2.2 0 .6-.1 1.1-.3 1.5-.4.7-.6 1.2-.6 1.8 0 .2 0 .3.1.5.2.8.8 1.3 1.2 1.7h.1c1.2 1 2 2.4 2.1 3.6v-.1c-.4-1.7-1.8-2.9-2.4-3.3-.2-.1-.4-.1-.5 0 0 0-.1.1-.1.2v.2c.2.5.4.7.6 1 .2.3.5.7.6 1.3.1.7.3 1.1.4 1.3-.4-.4-.5-.9-.6-1.3-.1-.5-.2-.8-.6-1.3-.5-.6-.9-1.2-1-1.7-.1-.3-.1-.5-.1-.7 0-.2 0-.5-.1-.8-.1-.3-.1-.6-.1-.8 0-.7.2-1.3.6-1.9.3-.4.4-.9.4-1.5 0-.5-.1-1.1-.4-1.8-.6-1.6-1.4-2.2-2.9-2.2-1.1 0-2.2-.1-3-1.2-.4-.6-.9-1.3-1.6-1.9-1-.9-2.1-1.2-3.9-1.3-.2 0-.3.1-.4.2v.1c0 .1 0 .1.1.2.7.9 1.7 1.5 3 1.6.7.1 1 .5 1.4 1.1.4.6.8 1.3 1.3 1.6.5.3 1 .7 1.4 1.4.2.3.4.3.6.4h.1l.3.1h.1s.1 0 .3.1c1.3.5 1.5 1.6 1.6 2.5v.1-.1c-.3-1.5-1.3-2.1-2.1-2.3-.2 0-.3 0-.4.1-.1.1-.1.2-.1.3v.1c0 .8-.5 1.5-1.2 2-.8.5-1.3 1.2-1.4 1.9v.1c0 .8.4 1.6 1.1 2.5.2.2.4.3.6.5l.3.2c.5.3.7.8 1 1.5l.2.4c.2.4.4.6.8.9l.1.1c.7.5 1.2.8 1.3 1.5-.2-.7-1-1.2-1.6-1.5-.3-.1-.6-.3-.8-.7v-.1c-.2-.4-.5-1.1-.9-1.5-.1-.1-.2-.1-.3-.1-.1 0-.2.1-.3.3l-.1.2-.3.6c-.1.3-.2.7-.2 1.1 0 .4.1.8.2 1.1l.1.1c.2.4.5.9.6 1.4v.1l-.1-.1c-.1-.3-.4-.9-.8-1.4-.3-.4-.4-.9-.4-1.4 0-.5.1-1 .4-1.5.1-.2.1-.3.1-.5s-.1-.5-.2-.7c-.2-.3-.5-.6-.8-1.3-.7-1.2-1-2.9 1-4.2.7-.4 1-1 1-1.7 0-.8-.5-1.5-1.4-2.1-.7-.4-1.3-1.2-1.7-2.1-.1-.2-.3-.2-.4-.2-.1 0-.2.2-.2.3v.2c0 .7-.3 1.4-.9 1.8-.6.4-1.2 1.3-1.5 2.2-.1.3-.2.6-.2 1v.4c.1.5.4 1.2.8 1.7.3.5.6 1 .6 1.5v-.1c-.1-.5-.4-.9-.8-1.3s-.8-1.2-.9-1.8c0-.1-.1-.2-.1-.2l-.1-.1c-.1 0-.1-.1-.2-.1-.3 0-.9.2-1.2.4-.4.3-.6.6-.6 1 0 .2 0 .4.1.6.4.9.5 1.8.7 2.6l.1.4c.1.3.2.5.4.5.6.1 2 .6 2.9 1.1-.9-.4-2.2-.7-2.7-.8-.1 0-.2 0-.2.1s-.1.1-.1.2v.1c.3 1.1.9 2.8 1.5 3.9-.5-.6-1-1.7-1.5-3-.3-.9-.7-2.1-.8-2.9-.2-.7-.3-1.1-.6-1.9l-.1-.4c-.1-.2-.1-.4-.1-.6 0-.3.1-.5.2-.7.3-.6 1-1 1.8-1.2.5-.1.7-.5.8-.8.2-.8.7-1.5 1.5-2.2.5-.4.5-.9.6-1.4V21c0-.4-.2-.7-.6-.8-1.2-.5-2-.9-2.7-2-.1-.2-.4-.5-.7-.4-.5.1-1 .4-1.3.7-.2.2-.3.4-.3.7V20.7c0 .6-.2 1.1-.6 1.8-.1.3-.2.6-.2 1v1c0 .9-.1 1.7-.7 2.2.4-.6.5-1.3.5-1.9 0-.4 0-.8-.1-1.1v-.4c0-.3.1-.7.2-1l.1-.3c.1-.2.2-.5.3-.7 0-.2.1-.3.1-.6s0-.6-.1-.9c0-.2-.1-.4-.2-.5-.1-.1-.2-.1-.5 0-1.5.5-2.9 1.5-3.7 2.7.8-1.8 2.4-2.7 3.7-3.2.3-.1.6-.2.8-.5-.2.2.1 0 .5-.2zm13.2 4z" clip-path="url(#b)"/><g clip-path="url(#b)"><path fill="#FFF" d="M19.9 34.3c-.4-.1-.5-.3-.9-.8 0 0-.1-.1-.3-.2-.2-.1-.6-.7-.8-.8-.1-.1-.9-.6-1-.7-.8-.3-1-1.1-1.2-1.4-.2-.3-.4-.7-.6-1 0 .1-.3-.5-.4-.6-.1-.1-.4-.3-.4-.2 0 .1.2.5.3.6.1.1.4.6.4.8 0 .2.4.7.5.8.3.5.5.9.7 1.2.2.5.3.7.4 1.1.1.6.4 1.5.7 1.9l.1.1v-.2c-.3-.8-.5-1.9-.6-2.2 0-.2 0-.3.1-.3.1-.1.2 0 .4.1.4.3.9.7 1.4 1.2.2.3.6.6 1.2.7.1 0 .1 0 .2-.1-.1.3-.1.1-.2 0z"/></g><use fill="none" stroke="#183059" stroke-width=".614" overflow="visible" xlink:href="#a"/></svg>